M48
INCH
T79C0.025
T78C0.012
T77C0.048
T76C0.035
T75C0.038
T74C0.024
T73C0.031
%
T78
X001594Y008488
X002520Y008488
X002815Y009394
X002815Y008843
X003012Y009118
X003209Y009394
X003209Y008843
X003819Y011736
X004311Y009492
X004724Y008961
X004803Y003016
X005433Y003370
X005827Y012858
X006102Y011894
X006201Y007858
X006713Y004787
X006909Y010260
X007402Y010358
X007677Y009472
X007835Y012189
X008150Y005713
X008366Y010004
X008445Y008783
X008445Y007602
X008484Y009335
X008504Y007268
X008583Y010220
X008740Y012465
X008740Y007622
X008898Y006913
X009252Y012622
X009272Y012189
X009449Y009335
X009528Y008409
X009744Y008114
X009783Y012406
X010059Y008409
X010374Y008744
X010512Y009315
X010571Y007189
X010610Y012327
X010925Y009531
X011358Y009531
X011378Y006087
X011575Y005850
X011791Y007465
X011850Y005614
X012244Y009039
X012756Y004787
X013602Y012799
X013917Y009177
X013917Y008390
X013957Y002346
X014173Y012366
X014232Y009551
X014232Y004768
X014291Y009256
X014390Y006008
X014449Y012130
X014862Y012583
X015059Y005161
X015945Y006815
X016024Y007957
X017835Y006598
T74
X009291Y002425
X009685Y002425
X010079Y002425
X010472Y002425
X010866Y002425
X011260Y002425
T79
X017972Y001933
T73
X001654Y006362
X001654Y005575
X001654Y004787
X001654Y004000
X001654Y003213
X001654Y002425
X002717Y001835
X003504Y001835
X004291Y001835
X005079Y001835
X005866Y001835
X006654Y001835
T76
X013071Y003008
X014803Y003008
T75
X001732Y012681
X002732Y012681
X004173Y012681
X005173Y012681
X018000Y012780
X018000Y011780
X018000Y010780
X018000Y009780
X019000Y012780
X019000Y011780
X019000Y010780
X019000Y009780
X019016Y008642
X019016Y007642
X019016Y006280
X019016Y005280
X020000Y012780
X020000Y011780
X020000Y010780
X020000Y009780
T77
X019016Y003933
X019016Y002933
X019016Y001933
M30
