G04 start of page 11 for group -4014 idx -4014 *
G04 Title: (unknown), bottompaste *
G04 Creator: pcb 1.99z *
G04 CreationDate: Tue May  7 13:19:40 2013 UTC *
G04 For: matt *
G04 Format: Gerber/RS-274X *
G04 PCB-Dimensions (mil): 2165.35 1377.95 *
G04 PCB-Coordinate-Origin: lower left *
%MOIN*%
%FSLAX25Y25*%
%LNBOTTOMPASTE*%
%ADD147R,0.0659X0.0659*%
%ADD146R,0.0295X0.0295*%
%ADD145R,0.0150X0.0150*%
%ADD144R,0.0512X0.0512*%
%ADD143R,0.1420X0.1420*%
%ADD142R,0.0560X0.0560*%
G54D142*X25039Y73221D02*Y66621D01*
X34039Y73221D02*Y66621D01*
X43139Y73221D02*Y66621D01*
G54D143*X29539Y45521D02*X38539D01*
G54D144*X53347Y76024D02*X55709D01*
X53347Y64214D02*X55709D01*
X53347Y39017D02*X55709D01*
X53347Y50827D02*X55709D01*
X61024Y109291D02*X61810D01*
X61024Y102205D02*X61810D01*
X61024Y85276D02*X61810D01*
X61024Y92362D02*X61810D01*
X29134Y101221D02*X31496D01*
X29134Y113031D02*X31496D01*
G54D145*X22175Y99707D02*Y97707D01*
X17075Y99707D02*Y97707D01*
Y106707D02*Y104707D01*
X19575Y106707D02*Y104707D01*
X22175Y106707D02*Y104707D01*
G54D146*X22244Y92657D02*Y91673D01*
X17126Y92657D02*Y91673D01*
X22244Y113523D02*Y112539D01*
X17126Y113523D02*Y112539D01*
G54D147*X76181Y41925D02*Y36925D01*
X86181Y41925D02*Y36925D01*
X96181Y41925D02*Y36925D01*
X106181Y41925D02*Y36925D01*
X116181Y41925D02*Y36925D01*
X126181Y41925D02*Y36925D01*
X136181Y41925D02*Y36925D01*
X146181Y41925D02*Y36925D01*
X156181Y41925D02*Y36925D01*
X166181Y41925D02*Y36925D01*
X166142Y114406D02*Y109768D01*
X156142Y114406D02*Y109768D01*
X146142Y114406D02*Y109768D01*
X136142Y114406D02*Y109768D01*
X126142Y114406D02*Y109768D01*
X116142Y114406D02*Y109768D01*
X106142Y114406D02*Y109768D01*
X96142Y114406D02*Y109768D01*
X86142Y114406D02*Y109768D01*
X76142Y114406D02*Y109768D01*
M02*
