G04 start of page 10 for group -4015 idx -4015 *
G04 Title: (unknown), toppaste *
G04 Creator: pcb 1.99z *
G04 CreationDate: Tue May  7 13:19:40 2013 UTC *
G04 For: matt *
G04 Format: Gerber/RS-274X *
G04 PCB-Dimensions (mil): 2165.35 1377.95 *
G04 PCB-Coordinate-Origin: lower left *
%MOIN*%
%FSLAX25Y25*%
%LNTOPPASTE*%
%ADD141R,0.0354X0.0354*%
%ADD140R,0.0150X0.0150*%
%ADD139R,0.0512X0.0512*%
%ADD138R,0.0102X0.0102*%
%ADD137R,0.0630X0.0630*%
%ADD136R,0.0197X0.0197*%
%ADD135R,0.0787X0.0787*%
%ADD134R,0.0572X0.0572*%
%ADD133R,0.0340X0.0340*%
%ADD132R,0.0533X0.0533*%
%ADD131R,0.0200X0.0200*%
%ADD130R,0.0110X0.0110*%
%ADD129R,0.0295X0.0295*%
G54D129*X130118Y52697D02*Y51713D01*
X125000Y52697D02*Y51713D01*
X135630Y60571D02*Y59587D01*
X140748Y60571D02*Y59587D01*
X64173Y73169D02*Y72185D01*
X69291Y73169D02*Y72185D01*
X91634Y38032D02*X92618D01*
X91634Y43150D02*X92618D01*
X105414Y38032D02*X106398D01*
X105414Y43150D02*X106398D01*
X136890Y69153D02*Y68169D01*
X142008Y69153D02*Y68169D01*
X102264Y110079D02*X103248D01*
X102264Y115197D02*X103248D01*
G54D130*X75858Y90354D02*X80756D01*
X75858Y88386D02*X80756D01*
X75858Y86417D02*X80756D01*
X75858Y84449D02*X80756D01*
X75858Y82480D02*X80756D01*
X75858Y80512D02*X80756D01*
X75858Y78543D02*X80756D01*
X75858Y76575D02*X80756D01*
X75858Y74606D02*X80756D01*
X75858Y72638D02*X80756D01*
X75858Y70669D02*X80756D01*
X75858Y68701D02*X80756D01*
X75858Y66732D02*X80756D01*
X75858Y64764D02*X80756D01*
X75858Y62795D02*X80756D01*
X75858Y60827D02*X80756D01*
X88229Y53355D02*Y48457D01*
X90197Y53355D02*Y48457D01*
X92166Y53355D02*Y48457D01*
X94134Y53355D02*Y48457D01*
X96103Y53355D02*Y48457D01*
X98071Y53355D02*Y48457D01*
X100040Y53355D02*Y48457D01*
X102008Y53355D02*Y48457D01*
X103977Y53355D02*Y48457D01*
X105945Y53355D02*Y48457D01*
X107914Y53355D02*Y48457D01*
X109882Y53355D02*Y48457D01*
X111851Y53355D02*Y48457D01*
X113819Y53355D02*Y48457D01*
X115788Y53355D02*Y48457D01*
X117756Y53355D02*Y48457D01*
X125228Y60828D02*X130126D01*
X125228Y62796D02*X130126D01*
X125228Y64765D02*X130126D01*
X125228Y66733D02*X130126D01*
X125228Y68702D02*X130126D01*
X125228Y70670D02*X130126D01*
X125228Y72639D02*X130126D01*
X125228Y74607D02*X130126D01*
X125228Y76576D02*X130126D01*
X125228Y78544D02*X130126D01*
X125228Y80513D02*X130126D01*
X125228Y82481D02*X130126D01*
X125228Y84450D02*X130126D01*
X125228Y86418D02*X130126D01*
X125228Y88387D02*X130126D01*
X125228Y90355D02*X130126D01*
X117755Y102725D02*Y97827D01*
X115787Y102725D02*Y97827D01*
X113818Y102725D02*Y97827D01*
X111850Y102725D02*Y97827D01*
X109881Y102725D02*Y97827D01*
X107913Y102725D02*Y97827D01*
X105944Y102725D02*Y97827D01*
X103976Y102725D02*Y97827D01*
X102007Y102725D02*Y97827D01*
X100039Y102725D02*Y97827D01*
X98070Y102725D02*Y97827D01*
X96102Y102725D02*Y97827D01*
X94133Y102725D02*Y97827D01*
X92165Y102725D02*Y97827D01*
X90196Y102725D02*Y97827D01*
X88228Y102725D02*Y97827D01*
G54D129*X151181Y60571D02*Y59587D01*
X156299Y60571D02*Y59587D01*
X142126Y79862D02*Y78878D01*
X137008Y79862D02*Y78878D01*
X98524Y38032D02*X99508D01*
X98524Y43150D02*X99508D01*
X127559Y97382D02*Y96398D01*
X132677Y97382D02*Y96398D01*
G54D131*X95945Y116638D02*Y115138D01*
X92445Y116638D02*Y115138D01*
X88945Y116638D02*Y115138D01*
X85445Y116638D02*Y115138D01*
Y110138D02*Y108638D01*
X88945Y110138D02*Y108638D01*
X92445Y110138D02*Y108638D01*
X95945Y110138D02*Y108638D01*
X61748Y96969D02*X63248D01*
X61748Y93469D02*X63248D01*
X61748Y89969D02*X63248D01*
X61748Y86469D02*X63248D01*
X68248D02*X69748D01*
X68248Y89969D02*X69748D01*
X68248Y93469D02*X69748D01*
X68248Y96969D02*X69748D01*
G54D132*X77943Y37626D02*X79143D01*
X77943Y26626D02*X79143D01*
G54D133*X161811Y88331D02*Y87731D01*
X169611Y88331D02*Y87731D01*
X165711Y96531D02*Y95931D01*
X164567Y49946D02*Y49346D01*
X172367Y49946D02*Y49346D01*
X168467Y58146D02*Y57546D01*
G54D129*X166339Y42461D02*Y41477D01*
X171457Y42461D02*Y41477D01*
G54D134*X150472Y68819D02*X152047D01*
X150472Y78268D02*X152047D01*
X167795Y68819D02*X169370D01*
X167795Y78268D02*X169370D01*
G54D129*X147047Y88720D02*Y87736D01*
X152165Y88720D02*Y87736D01*
G54D133*X70000Y109237D02*Y108637D01*
X77800Y109237D02*Y108637D01*
X73900Y117437D02*Y116837D01*
G54D135*X156693Y41693D02*Y39724D01*
X122048Y41693D02*Y39724D01*
G54D136*X133070Y44645D02*Y36771D01*
X136220Y44645D02*Y36771D01*
X139370Y44645D02*Y36771D01*
X142520Y44645D02*Y36771D01*
X145670Y44645D02*Y36771D01*
G54D135*X156693Y22401D02*Y20433D01*
X122048Y22401D02*Y20433D01*
G54D129*X62697Y104370D02*X63681D01*
X62697Y109488D02*X63681D01*
X132185Y107717D02*X133169D01*
X132185Y112835D02*X133169D01*
G54D133*X140551Y109394D02*Y108794D01*
X148351Y109394D02*Y108794D01*
X144451Y117594D02*Y116994D01*
G54D129*X15453Y89213D02*X16437D01*
X15453Y94331D02*X16437D01*
X15453Y75433D02*X16437D01*
X15453Y80551D02*X16437D01*
X46752Y104764D02*X47736D01*
X46752Y109882D02*X47736D01*
X46752Y93937D02*X47736D01*
X46752Y99055D02*X47736D01*
X35138Y102008D02*X36122D01*
X35138Y107126D02*X36122D01*
G54D137*X30118Y91969D02*Y90394D01*
G54D138*X34961Y95119D02*X36299D01*
X23937D02*X25276D01*
X34961Y87244D02*X36299D01*
X23937D02*X25276D01*
X34961Y93150D02*X36299D01*
X23937D02*X25276D01*
X34961Y91181D02*X36299D01*
X23937D02*X25276D01*
X34961Y89213D02*X36299D01*
X23937D02*X25276D01*
G54D132*X170266Y18949D02*X171466D01*
X170266Y29949D02*X171466D01*
G54D139*X26969Y102993D02*X29331D01*
X26969Y114803D02*X29331D01*
G54D140*X41323Y78583D02*X43323D01*
X41323Y73483D02*X43323D01*
X48323D02*X50323D01*
X48323Y75983D02*X50323D01*
X48323Y78583D02*X50323D01*
G54D129*X56791Y73465D02*X57775D01*
X56791Y78583D02*X57775D01*
X34351Y73465D02*X35335D01*
X34351Y78583D02*X35335D01*
G54D139*X25394Y65985D02*X27756D01*
X25394Y77795D02*X27756D01*
X16536Y102993D02*X18898D01*
X16536Y114803D02*X18898D01*
X109646Y113819D02*Y111457D01*
X121456Y113819D02*Y111457D01*
G54D141*X46654Y51614D02*Y51220D01*
Y57913D02*Y57520D01*
X30512Y51614D02*Y51220D01*
Y57913D02*Y57520D01*
X46654Y35079D02*Y34685D01*
Y41378D02*Y40984D01*
X30512Y35079D02*Y34685D01*
Y41378D02*Y40984D01*
M02*
