G04 start of page 8 for group -4079 idx -4079 *
G04 Title: (unknown), topsilk *
G04 Creator: pcb 1.99z *
G04 CreationDate: Tue May  7 13:19:40 2013 UTC *
G04 For: matt *
G04 Format: Gerber/RS-274X *
G04 PCB-Dimensions (mil): 2165.35 1377.95 *
G04 PCB-Coordinate-Origin: lower left *
%MOIN*%
%FSLAX25Y25*%
%LNTOPSILK*%
%ADD124C,0.0138*%
%ADD123C,0.0059*%
%ADD122C,0.0001*%
G54D122*G36*
X155512Y106732D02*Y109488D01*
X170079D01*
Y106732D01*
X155512D01*
G37*
G54D123*X180157Y47795D02*X185157D01*
X200157D02*X195157D01*
X180157Y67795D02*Y47795D01*
Y44331D02*X200157D01*
X180157Y91417D02*X185157D01*
X195157D02*X200157D01*
X180157Y67795D02*X200157D01*
Y47795D02*Y67795D01*
X180157Y71417D02*X200157D01*
X180157D02*Y91417D01*
X200157D02*Y71417D01*
X154921Y128189D02*X170866Y112244D01*
X154921D02*X170866Y128189D01*
X158465Y125827D02*X167520D01*
X200157Y14331D02*X180157D01*
Y44331D01*
Y34748D02*X195157D01*
X200157Y44331D02*Y14331D01*
X182047Y62748D02*X184047D01*
X183047Y63748D02*Y61748D01*
X183079Y53772D02*Y51772D01*
X182047Y29323D02*X184047D01*
X183047Y30323D02*Y28323D01*
X183079Y40228D02*Y38228D01*
X15551Y119302D02*X16751D01*
X16151Y119902D02*Y118702D01*
X57087Y119302D02*X58287D01*
X35236D02*X36436D01*
X35836Y119902D02*Y118702D01*
X28150Y119302D02*X29350D01*
X182047Y19283D02*X184047D01*
X183047Y20283D02*Y18283D01*
X182047Y86449D02*X184047D01*
X183047Y87449D02*Y85449D01*
X183079Y77472D02*Y75472D01*
X97945Y115138D02*Y110138D01*
X83445Y115138D02*Y110138D01*
X138051Y120094D02*Y106194D01*
X150851D01*
Y120094D01*
X138051D01*
X113189Y116378D02*X117913D01*
X113189Y108898D02*X117913D01*
X86607Y94876D02*X122277D01*
Y56306D01*
X83707D01*
Y91976D01*
X86607Y94876D01*
X85607Y91976D02*G75*G03X85607Y91976I1000J0D01*G01*
X63248Y98969D02*X68248D01*
X63248Y84469D02*X68248D01*
X90551Y21890D02*Y26614D01*
X114961D01*
Y21890D02*X90551D01*
X94881D02*Y26614D01*
X114961D02*Y21890D01*
X74543Y43126D02*X82543D01*
X74543D02*X73443Y39726D01*
Y22126D01*
X83643D01*
Y39726D02*Y22126D01*
Y39726D02*X82543Y43126D01*
X70472Y14409D02*X69488D01*
X70472D02*Y15394D01*
Y22283D02*X69488D01*
X70472D02*Y21299D01*
X54724Y14409D02*X55709D01*
X54724D02*Y15394D01*
Y22283D02*X55709D01*
X54724D02*Y21299D01*
Y14409D02*X53740D01*
X54724D02*Y15394D01*
Y22283D02*X53740D01*
X54724D02*Y21299D01*
X38976Y14409D02*X39961D01*
X38976D02*Y15394D01*
Y22283D02*X39961D01*
X38976D02*Y21299D01*
Y14409D02*X37992D01*
X38976D02*Y15394D01*
Y22283D02*X37992D01*
X38976D02*Y21299D01*
X23228Y14409D02*X24213D01*
X23228D02*Y15394D01*
Y22283D02*X24213D01*
X23228D02*Y21299D01*
X12598Y37047D02*Y36063D01*
X13583D01*
X20472Y37047D02*Y36063D01*
X19488D02*X20472D01*
X12598Y51811D02*Y50827D01*
Y51811D02*X13583D01*
X20472D02*Y50827D01*
X19488Y51811D02*X20472D01*
X12598Y21299D02*Y20315D01*
X13583D01*
X20472Y21299D02*Y20315D01*
X19488D02*X20472D01*
X12598Y36063D02*Y35079D01*
Y36063D02*X13583D01*
X20472D02*Y35079D01*
X19488Y36063D02*X20472D01*
X12598Y52795D02*Y51811D01*
X13583D01*
X20472Y52795D02*Y51811D01*
X19488D02*X20472D01*
X12598Y67559D02*Y66575D01*
Y67559D02*X13583D01*
X20472D02*Y66575D01*
X19488Y67559D02*X20472D01*
X39823Y79983D02*X51723D01*
X39823Y71983D02*Y79983D01*
Y71983D02*X51723D01*
Y79983D01*
X27953Y48661D02*X49213D01*
X27953Y60472D02*Y48661D01*
Y60472D02*X49213D01*
X37008Y51417D02*X40157D01*
X37008Y57717D02*X40157D01*
X49213Y60472D02*Y48661D01*
X40157Y51417D02*G75*G03X43307Y54567I0J3150D01*G01*
Y54567D02*G75*G03X40157Y57717I-3150J0D01*G01*
X37008Y57717D02*G75*G03X33858Y54567I0J-3150D01*G01*
G75*G03X37008Y51417I3150J0D01*G01*
X22835Y74252D02*Y69528D01*
X30315Y74252D02*Y69528D01*
X27953Y32126D02*X49213D01*
X27953Y43937D02*Y32126D01*
Y43937D02*X49213D01*
X37008Y34882D02*X40157D01*
X37008Y41181D02*X40157D01*
X49213Y43937D02*Y32126D01*
X40157Y34882D02*G75*G03X43307Y38031I0J3150D01*G01*
Y38032D02*G75*G03X40157Y41181I-3150J0D01*G01*
X37008Y41181D02*G75*G03X33858Y38031I0J-3150D01*G01*
G75*G03X37008Y34882I3150J0D01*G01*
X147654Y45630D02*X151756D01*
X126985D02*X131087D01*
X160630Y27323D02*X160630Y34787D01*
X118110Y27323D02*X118111Y34787D01*
X160630Y9213D02*X160630Y15512D01*
X118111Y9213D02*X160630D01*
X118111D02*X118110Y15512D01*
X162067Y60646D02*Y46746D01*
X174867D01*
Y60646D01*
X162067D01*
X147717Y64882D02*X172126D01*
X173307Y81024D02*Y66063D01*
X147717Y82205D02*X172126D01*
X146535Y81024D02*Y66063D01*
X185157Y91417D02*Y71417D01*
X195157D01*
Y91417D01*
X185157D01*
Y81417D02*X195157D01*
Y91417D01*
X159311Y99031D02*Y85131D01*
X172111D01*
Y99031D01*
X159311D01*
X185157Y67795D02*Y47795D01*
X195157D01*
Y67795D01*
X185157D01*
Y57795D02*X195157D01*
Y67795D01*
Y44331D02*Y14331D01*
X185157Y44331D02*X195157D01*
X185157D02*Y14331D01*
X195157D01*
X185157Y24331D02*X195157D01*
X185157D02*Y14331D01*
X166866Y13449D02*X174866D01*
X175966Y16849D01*
Y34449D02*Y16849D01*
X165766Y34449D02*X175966D01*
X165766D02*Y16849D01*
X166866Y13449D01*
X175000Y132795D02*Y92795D01*
X205000D01*
Y132795D02*Y92795D01*
X175000Y132795D02*X205000D01*
X175000Y122795D02*X185000D01*
Y132795D02*Y122795D01*
X159635Y111851D02*X166188Y111722D01*
X167473Y125985D01*
X158465Y125856D02*X159646Y111850D01*
X160431Y121233D02*X163275D01*
X157283Y123100D02*X158697D01*
X157283D02*Y121526D01*
X158830D01*
X160864Y127873D02*X163561D01*
Y126932D01*
X160864D02*X163561D01*
X160864Y127873D02*Y126932D01*
X161334Y127402D02*X163091D01*
X158478Y125985D02*X158858Y126250D01*
X159449Y126644D01*
X160083Y126981D01*
X160883Y127273D01*
X167473Y125985D02*X167006Y126282D01*
X166339Y126644D01*
X165354Y127037D01*
X164566Y127286D01*
X163561Y127452D01*
X165905Y126946D02*Y126263D01*
G54D124*X165710Y111224D02*X165748Y111289D01*
G54D123*X161220Y112077D02*G75*G03X159843Y113455I-1378J0D01*G01*
Y110699D02*G75*G03X161220Y112077I0J1378D01*G01*
X158465D02*G75*G03X159843Y110699I1378J0D01*G01*
Y113455D02*G75*G03X158465Y112077I0J-1378D01*G01*
X12323Y121811D02*X32323D01*
Y131811D02*Y121811D01*
X12323Y131811D02*X32323D01*
X12323D02*Y121811D01*
X22323Y131811D02*Y121811D01*
X12323Y131811D02*X22323D01*
X24410Y111260D02*Y106536D01*
X31890Y111260D02*Y106536D01*
X13977Y111260D02*Y106536D01*
X21457Y111260D02*Y106536D01*
X36732Y121811D02*X56732D01*
Y131811D02*Y121811D01*
X36732Y131811D02*X56732D01*
X36732D02*Y121811D01*
X46732Y131811D02*Y121811D01*
X36732Y131811D02*X46732D01*
X67500Y119937D02*Y106037D01*
X80300D01*
Y119937D01*
X67500D01*
X37992Y96890D02*Y85473D01*
X22244D02*X37992D01*
X22244Y99252D02*Y85473D01*
X19882Y96890D02*X37992D01*
X22244D02*X20472Y98662D01*
X100992Y80991D02*Y78891D01*
X101292Y78591D01*
X101892D01*
X102192Y78891D01*
Y80991D02*Y78891D01*
X102912Y80691D02*X103212Y80991D01*
X103812D01*
X104112Y80691D01*
X103812Y78591D02*X104112Y78891D01*
X103212Y78591D02*X103812D01*
X102912Y78891D02*X103212Y78591D01*
Y79911D02*X103812D01*
X104112Y80691D02*Y80211D01*
Y79611D02*Y78891D01*
Y79611D02*X103812Y79911D01*
X104112Y80211D02*X103812Y79911D01*
X148031Y83063D02*X149531Y85463D01*
X148031D02*X149531Y83063D01*
X150251Y84983D02*X150731Y85463D01*
Y83063D01*
X150251D02*X151151D01*
X154724Y89400D02*X155924D01*
X156224Y89100D01*
Y88500D01*
X155924Y88200D02*X156224Y88500D01*
X155024Y88200D02*X155924D01*
X155024Y89400D02*Y87000D01*
X155504Y88200D02*X156224Y87000D01*
X156944Y89400D02*X158144D01*
X156944D02*Y88200D01*
X157244Y88500D01*
X157844D01*
X158144Y88200D01*
Y87300D01*
X157844Y87000D02*X158144Y87300D01*
X157244Y87000D02*X157844D01*
X156944Y87300D02*X157244Y87000D01*
X65774Y67709D02*X66554D01*
X65354Y68129D02*X65774Y67709D01*
X65354Y69689D02*Y68129D01*
Y69689D02*X65774Y70109D01*
X66554D01*
X67274Y68609D02*X68474Y70109D01*
X67274Y68609D02*X68774D01*
X68474Y70109D02*Y67709D01*
X90971Y33457D02*X91751D01*
X90551Y33877D02*X90971Y33457D01*
X90551Y35437D02*Y33877D01*
Y35437D02*X90971Y35857D01*
X91751D01*
X93371D02*X93671Y35557D01*
X92771Y35857D02*X93371D01*
X92471Y35557D02*X92771Y35857D01*
X92471Y35557D02*Y33757D01*
X92771Y33457D01*
X93371Y34777D02*X93671Y34477D01*
X92471Y34777D02*X93371D01*
X92771Y33457D02*X93371D01*
X93671Y33757D01*
Y34477D02*Y33757D01*
X104751Y33457D02*X105531D01*
X104331Y33877D02*X104751Y33457D01*
X104331Y35437D02*Y33877D01*
Y35437D02*X104751Y35857D01*
X105531D01*
X106251Y33757D02*X106551Y33457D01*
X106251Y34237D02*Y33757D01*
Y34237D02*X106671Y34657D01*
X107031D01*
X107451Y34237D01*
Y33757D01*
X107151Y33457D02*X107451Y33757D01*
X106551Y33457D02*X107151D01*
X106251Y35077D02*X106671Y34657D01*
X106251Y35557D02*Y35077D01*
Y35557D02*X106551Y35857D01*
X107151D01*
X107451Y35557D01*
Y35077D01*
X107031Y34657D02*X107451Y35077D01*
X97441Y35857D02*X98641D01*
X98941Y35557D01*
Y34957D01*
X98641Y34657D02*X98941Y34957D01*
X97741Y34657D02*X98641D01*
X97741Y35857D02*Y33457D01*
X98221Y34657D02*X98941Y33457D01*
X99661Y33757D02*X99961Y33457D01*
X99661Y34237D02*Y33757D01*
Y34237D02*X100081Y34657D01*
X100441D01*
X100861Y34237D01*
Y33757D01*
X100561Y33457D02*X100861Y33757D01*
X99961Y33457D02*X100561D01*
X99661Y35077D02*X100081Y34657D01*
X99661Y35557D02*Y35077D01*
Y35557D02*X99961Y35857D01*
X100561D01*
X100861Y35557D01*
Y35077D01*
X100441Y34657D02*X100861Y35077D01*
X77072Y46872D02*Y44472D01*
X77852Y46872D02*X78272Y46452D01*
Y44892D01*
X77852Y44472D02*X78272Y44892D01*
X76772Y44472D02*X77852D01*
X76772Y46872D02*X77852D01*
X78992Y46392D02*X79472Y46872D01*
Y44472D01*
X78992D02*X79892D01*
X136614Y49557D02*Y47457D01*
X136914Y47157D01*
X137514D01*
X137814Y47457D01*
Y49557D02*Y47457D01*
X139734Y49557D02*X140034Y49257D01*
X138834Y49557D02*X139734D01*
X138534Y49257D02*X138834Y49557D01*
X138534Y49257D02*Y48657D01*
X138834Y48357D01*
X139734D01*
X140034Y48057D01*
Y47457D01*
X139734Y47157D02*X140034Y47457D01*
X138834Y47157D02*X139734D01*
X138534Y47457D02*X138834Y47157D01*
X140754D02*X141954D01*
X142254Y47457D01*
Y48177D02*Y47457D01*
X141954Y48477D02*X142254Y48177D01*
X141054Y48477D02*X141954D01*
X141054Y49557D02*Y47157D01*
X140754Y49557D02*X141954D01*
X142254Y49257D01*
Y48777D01*
X141954Y48477D02*X142254Y48777D01*
X98819Y20726D02*X99589D01*
X99204D02*Y17646D01*
X98819D02*X99589D01*
X101052D02*X102053D01*
X100513Y18185D02*X101052Y17646D01*
X100513Y20187D02*Y18185D01*
Y20187D02*X101052Y20726D01*
X102053D01*
X104517D02*X104902Y20341D01*
X103362Y20726D02*X104517D01*
X102977Y20341D02*X103362Y20726D01*
X102977Y20341D02*Y19571D01*
X103362Y19186D01*
X104517D01*
X104902Y18801D01*
Y18031D01*
X104517Y17646D02*X104902Y18031D01*
X103362Y17646D02*X104517D01*
X102977Y18031D02*X103362Y17646D01*
X106211Y20726D02*Y17646D01*
X105826Y20726D02*X107366D01*
X107751Y20341D01*
Y19571D01*
X107366Y19186D02*X107751Y19571D01*
X106211Y19186D02*X107366D01*
X128867Y102216D02*X130067D01*
X130367Y101916D01*
Y101316D01*
X130067Y101016D02*X130367Y101316D01*
X129167Y101016D02*X130067D01*
X129167Y102216D02*Y99816D01*
X129647Y101016D02*X130367Y99816D01*
X131087Y100716D02*X132287Y102216D01*
X131087Y100716D02*X132587D01*
X132287Y102216D02*Y99816D01*
X160260Y102187D02*Y100387D01*
Y102187D02*X160560Y102487D01*
X161160D01*
X161460Y102187D01*
Y100687D01*
X160860Y100087D02*X161460Y100687D01*
X160560Y100087D02*X160860D01*
X160260Y100387D02*X160560Y100087D01*
X160860Y100987D02*X161460Y100087D01*
X162180Y102187D02*X162480Y102487D01*
X163080D01*
X163380Y102187D01*
X163080Y100087D02*X163380Y100387D01*
X162480Y100087D02*X163080D01*
X162180Y100387D02*X162480Y100087D01*
Y101407D02*X163080D01*
X163380Y102187D02*Y101707D01*
Y101107D02*Y100387D01*
Y101107D02*X163080Y101407D01*
X163380Y101707D02*X163080Y101407D01*
X88386Y121487D02*X89586D01*
X89886Y121187D01*
Y120587D01*
X89586Y120287D02*X89886Y120587D01*
X88686Y120287D02*X89586D01*
X88686Y121487D02*Y119087D01*
X89166Y120287D02*X89886Y119087D01*
X90906Y121487D02*Y119087D01*
X90606Y121487D02*X91806D01*
X92106Y121187D01*
Y120587D01*
X91806Y120287D02*X92106Y120587D01*
X90906Y120287D02*X91806D01*
X92826Y121007D02*X93306Y121487D01*
Y119087D01*
X92826D02*X93726D01*
X72425Y123565D02*Y121765D01*
Y123565D02*X72725Y123865D01*
X73325D01*
X73625Y123565D01*
Y122065D01*
X73025Y121465D02*X73625Y122065D01*
X72725Y121465D02*X73025D01*
X72425Y121765D02*X72725Y121465D01*
X73025Y122365D02*X73625Y121465D01*
X74345Y123385D02*X74825Y123865D01*
Y121465D01*
X74345D02*X75245D01*
X129724Y117747D02*X130924D01*
X131224Y117447D01*
Y116847D01*
X130924Y116547D02*X131224Y116847D01*
X130024Y116547D02*X130924D01*
X130024Y117747D02*Y115347D01*
X130504Y116547D02*X131224Y115347D01*
X131944Y117447D02*X132244Y117747D01*
X132844D01*
X133144Y117447D01*
X132844Y115347D02*X133144Y115647D01*
X132244Y115347D02*X132844D01*
X131944Y115647D02*X132244Y115347D01*
Y116667D02*X132844D01*
X133144Y117447D02*Y116967D01*
Y116367D02*Y115647D01*
Y116367D02*X132844Y116667D01*
X133144Y116967D02*X132844Y116667D01*
X142937Y123447D02*Y121647D01*
Y123447D02*X143237Y123747D01*
X143837D01*
X144137Y123447D01*
Y121947D01*
X143537Y121347D02*X144137Y121947D01*
X143237Y121347D02*X143537D01*
X142937Y121647D02*X143237Y121347D01*
X143537Y122247D02*X144137Y121347D01*
X144857Y123447D02*X145157Y123747D01*
X146057D01*
X146357Y123447D01*
Y122847D01*
X144857Y121347D02*X146357Y122847D01*
X144857Y121347D02*X146357D01*
X114790Y117709D02*X115570D01*
X114370Y118129D02*X114790Y117709D01*
X114370Y119689D02*Y118129D01*
Y119689D02*X114790Y120109D01*
X115570D01*
X116290D02*X117490D01*
X116290D02*Y118909D01*
X116590Y119209D01*
X117190D01*
X117490Y118909D01*
Y118009D01*
X117190Y117709D02*X117490Y118009D01*
X116590Y117709D02*X117190D01*
X116290Y118009D02*X116590Y117709D01*
X125591Y57510D02*X126791D01*
X127091Y57210D01*
Y56610D01*
X126791Y56310D02*X127091Y56610D01*
X125891Y56310D02*X126791D01*
X125891Y57510D02*Y55110D01*
X126371Y56310D02*X127091Y55110D01*
X128711Y57510D02*X129011Y57210D01*
X128111Y57510D02*X128711D01*
X127811Y57210D02*X128111Y57510D01*
X127811Y57210D02*Y55410D01*
X128111Y55110D01*
X128711Y56430D02*X129011Y56130D01*
X127811Y56430D02*X128711D01*
X128111Y55110D02*X128711D01*
X129011Y55410D01*
Y56130D02*Y55410D01*
X137034Y63772D02*X137814D01*
X136614Y64192D02*X137034Y63772D01*
X136614Y65752D02*Y64192D01*
Y65752D02*X137034Y66172D01*
X137814D01*
X138834Y63772D02*X139734Y64972D01*
Y65872D02*Y64972D01*
X139434Y66172D02*X139734Y65872D01*
X138834Y66172D02*X139434D01*
X138534Y65872D02*X138834Y66172D01*
X138534Y65872D02*Y65272D01*
X138834Y64972D01*
X139734D01*
X138215Y54717D02*X138995D01*
X137795Y55137D02*X138215Y54717D01*
X137795Y56697D02*Y55137D01*
Y56697D02*X138215Y57117D01*
X138995D01*
X140015Y54717D02*X141215Y57117D01*
X139715D02*X141215D01*
X101601Y117709D02*X102381D01*
X101181Y118129D02*X101601Y117709D01*
X101181Y119689D02*Y118129D01*
Y119689D02*X101601Y120109D01*
X102381D01*
X103101Y119809D02*X103401Y120109D01*
X104001D01*
X104301Y119809D01*
X104001Y117709D02*X104301Y118009D01*
X103401Y117709D02*X104001D01*
X103101Y118009D02*X103401Y117709D01*
Y119029D02*X104001D01*
X104301Y119809D02*Y119329D01*
Y118729D02*Y118009D01*
Y118729D02*X104001Y119029D01*
X104301Y119329D02*X104001Y119029D01*
X172258Y101509D02*Y100354D01*
X173952Y101894D02*Y100354D01*
X170872D02*X173952D01*
X170872Y101894D02*Y100354D01*
X173952Y102818D02*X170872Y104743D01*
Y102818D02*X173952Y104743D01*
X170872Y106052D02*X173952D01*
X170872Y107207D02*Y105667D01*
Y107207D02*X171257Y107592D01*
X172027D01*
X172412Y107207D02*X172027Y107592D01*
X172412Y107207D02*Y106052D01*
X171642Y108516D02*X173952D01*
X171642D02*X170872Y109055D01*
Y109902D02*Y109055D01*
Y109902D02*X171642Y110441D01*
X173952D01*
X172412D02*Y108516D01*
X170872Y111365D02*X173952D01*
X170872D02*X173952Y113290D01*
X170872D02*X173952D01*
X170872Y115754D02*X171257Y116139D01*
X170872Y115754D02*Y114599D01*
X171257Y114214D02*X170872Y114599D01*
X171257Y114214D02*X172027D01*
X172412Y114599D01*
Y115754D02*Y114599D01*
Y115754D02*X172797Y116139D01*
X173567D01*
X173952Y115754D02*X173567Y116139D01*
X173952Y115754D02*Y114599D01*
X173567Y114214D02*X173952Y114599D01*
X170872Y117833D02*Y117063D01*
Y117448D02*X173952D01*
Y117833D02*Y117063D01*
X171257Y118757D02*X173567D01*
X171257D02*X170872Y119142D01*
Y119912D02*Y119142D01*
Y119912D02*X171257Y120297D01*
X173567D01*
X173952Y119912D02*X173567Y120297D01*
X173952Y119912D02*Y119142D01*
X173567Y118757D02*X173952Y119142D01*
X170872Y121221D02*X173952D01*
X170872D02*X173952Y123146D01*
X170872D02*X173952D01*
X151601Y54717D02*X152381D01*
X151181Y55137D02*X151601Y54717D01*
X151181Y56697D02*Y55137D01*
Y56697D02*X151601Y57117D01*
X152381D01*
X153101Y56637D02*X153581Y57117D01*
Y54717D01*
X153101D02*X154001D01*
X155021D02*X156221Y57117D01*
X154721D02*X156221D01*
X176205Y50809D02*Y49009D01*
Y50809D02*X176505Y51109D01*
X177105D01*
X177405Y50809D01*
Y49309D01*
X176805Y48709D02*X177405Y49309D01*
X176505Y48709D02*X176805D01*
X176205Y49009D02*X176505Y48709D01*
X176805Y49609D02*X177405Y48709D01*
X178125Y49609D02*X179325Y51109D01*
X178125Y49609D02*X179625D01*
X179325Y51109D02*Y48709D01*
X174015Y43141D02*X175215D01*
X175515Y42841D01*
Y42241D01*
X175215Y41941D02*X175515Y42241D01*
X174315Y41941D02*X175215D01*
X174315Y43141D02*Y40741D01*
X174795Y41941D02*X175515Y40741D01*
X176535D02*X177735Y43141D01*
X176235D02*X177735D01*
X137428Y74008D02*X138208D01*
X137008Y74428D02*X137428Y74008D01*
X137008Y75988D02*Y74428D01*
Y75988D02*X137428Y76408D01*
X138208D01*
X138928Y75928D02*X139408Y76408D01*
Y74008D01*
X138928D02*X139828D01*
X141448Y76408D02*X141748Y76108D01*
X140848Y76408D02*X141448D01*
X140548Y76108D02*X140848Y76408D01*
X140548Y76108D02*Y74308D01*
X140848Y74008D01*
X141448Y75328D02*X141748Y75028D01*
X140548Y75328D02*X141448D01*
X140848Y74008D02*X141448D01*
X141748Y74308D01*
Y75028D02*Y74308D01*
X62795Y83101D02*X63995D01*
X64295Y82801D01*
Y82201D01*
X63995Y81901D02*X64295Y82201D01*
X63095Y81901D02*X63995D01*
X63095Y83101D02*Y80701D01*
X63575Y81901D02*X64295Y80701D01*
X65315Y83101D02*Y80701D01*
X65015Y83101D02*X66215D01*
X66515Y82801D01*
Y82201D01*
X66215Y81901D02*X66515Y82201D01*
X65315Y81901D02*X66215D01*
X67235Y82801D02*X67535Y83101D01*
X68435D01*
X68735Y82801D01*
Y82201D01*
X67235Y80701D02*X68735Y82201D01*
X67235Y80701D02*X68735D01*
X196069Y52953D02*X199149D01*
Y54493D02*Y52953D01*
X197455Y56572D02*Y55417D01*
X199149Y56957D02*Y55417D01*
X196069D02*X199149D01*
X196069Y56957D02*Y55417D01*
Y58266D02*X199149D01*
X196069Y59267D02*X196608Y59806D01*
X198610D01*
X199149Y59267D02*X198610Y59806D01*
X199149Y59267D02*Y57881D01*
X196069Y59267D02*Y57881D01*
X196685Y60730D02*X196069Y61346D01*
X199149D01*
Y61885D02*Y60730D01*
X196069Y76969D02*X199149D01*
Y78509D02*Y76969D01*
X197455Y80588D02*Y79433D01*
X199149Y80973D02*Y79433D01*
X196069D02*X199149D01*
X196069Y80973D02*Y79433D01*
Y82282D02*X199149D01*
X196069Y83283D02*X196608Y83822D01*
X198610D01*
X199149Y83283D02*X198610Y83822D01*
X199149Y83283D02*Y81897D01*
X196069Y83283D02*Y81897D01*
X198764Y84746D02*X199149Y85131D01*
X196454Y84746D02*X198764D01*
X196454D02*X196069Y85131D01*
Y85901D02*Y85131D01*
Y85901D02*X196454Y86286D01*
X198764D01*
X199149Y85901D02*X198764Y86286D01*
X199149Y85901D02*Y85131D01*
X198379Y84746D02*X196839Y86286D01*
X196069Y23141D02*X199149D01*
X196069Y24296D02*Y22756D01*
Y24296D02*X196454Y24681D01*
X197224D01*
X197609Y24296D02*X197224Y24681D01*
X197609Y24296D02*Y23141D01*
X196454Y25605D02*X198764D01*
X196454D02*X196069Y25990D01*
Y26760D02*Y25990D01*
Y26760D02*X196454Y27145D01*
X198764D01*
X199149Y26760D02*X198764Y27145D01*
X199149Y26760D02*Y25990D01*
X198764Y25605D02*X199149Y25990D01*
X196069Y28069D02*X197609D01*
X199149Y28454D01*
X197609Y29224D01*
X199149Y29994D01*
X197609Y30379D01*
X196069D02*X197609D01*
X197455Y32458D02*Y31303D01*
X199149Y32843D02*Y31303D01*
X196069D02*X199149D01*
X196069Y32843D02*Y31303D01*
Y35307D02*Y33767D01*
Y35307D02*X196454Y35692D01*
X197224D01*
X197609Y35307D02*X197224Y35692D01*
X197609Y35307D02*Y34152D01*
X196069D02*X199149D01*
X197609Y34768D02*X199149Y35692D01*
X179424Y14661D02*Y12261D01*
X178644D02*X178224Y12681D01*
Y14241D02*Y12681D01*
X178644Y14661D02*X178224Y14241D01*
X178644Y14661D02*X179724D01*
X178644Y12261D02*X179724D01*
X177504Y12561D02*X177204Y12261D01*
X176304D02*X177204D01*
X176304D02*X176004Y12561D01*
Y13161D02*Y12561D01*
X177504Y14661D02*X176004Y13161D01*
Y14661D02*X177504D01*
X28740Y25254D02*X29510D01*
X29125D02*Y22174D01*
X28740D02*X29510D01*
X30434Y24869D02*Y22559D01*
Y24869D02*X30819Y25254D01*
X31589D01*
X31974Y24869D01*
Y22559D01*
X31589Y22174D02*X31974Y22559D01*
X30819Y22174D02*X31589D01*
X30434Y22559D02*X30819Y22174D01*
X32898Y24869D02*X33283Y25254D01*
X34438D01*
X34823Y24869D01*
Y24099D01*
X32898Y22174D02*X34823Y24099D01*
X32898Y22174D02*X34823D01*
X60236Y25254D02*X61006D01*
X60621D02*Y22174D01*
X60236D02*X61006D01*
X61930Y24869D02*Y22559D01*
Y24869D02*X62315Y25254D01*
X63085D01*
X63470Y24869D01*
Y22559D01*
X63085Y22174D02*X63470Y22559D01*
X62315Y22174D02*X63085D01*
X61930Y22559D02*X62315Y22174D01*
X64394Y22559D02*X64779Y22174D01*
X64394Y24869D02*Y22559D01*
Y24869D02*X64779Y25254D01*
X65549D01*
X65934Y24869D01*
Y22559D01*
X65549Y22174D02*X65934Y22559D01*
X64779Y22174D02*X65549D01*
X64394Y22944D02*X65934Y24484D01*
X45079Y25254D02*X45849D01*
X45464D02*Y22174D01*
X45079D02*X45849D01*
X46773Y24869D02*Y22559D01*
Y24869D02*X47158Y25254D01*
X47928D01*
X48313Y24869D01*
Y22559D01*
X47928Y22174D02*X48313Y22559D01*
X47158Y22174D02*X47928D01*
X46773Y22559D02*X47158Y22174D01*
X49237Y24638D02*X49853Y25254D01*
Y22174D01*
X49237D02*X50392D01*
X23443Y61653D02*Y60883D01*
X20363Y61268D02*X23443D01*
X20363Y61653D02*Y60883D01*
X20748Y59959D02*X23058D01*
X23443Y59574D01*
Y58804D01*
X23058Y58419D01*
X20748D02*X23058D01*
X20363Y58804D02*X20748Y58419D01*
X20363Y59574D02*Y58804D01*
X20748Y59959D02*X20363Y59574D01*
X23443Y57495D02*Y55955D01*
X21903Y57495D02*X23443D01*
X21903D02*X22288Y57110D01*
Y56340D01*
X21903Y55955D01*
X20748D02*X21903D01*
X20363Y56340D02*X20748Y55955D01*
X20363Y57110D02*Y56340D01*
X20748Y57495D02*X20363Y57110D01*
X23443Y46102D02*Y45332D01*
X20363Y45717D02*X23443D01*
X20363Y46102D02*Y45332D01*
X20748Y44408D02*X23058D01*
X23443Y44023D01*
Y43253D01*
X23058Y42868D01*
X20748D02*X23058D01*
X20363Y43253D02*X20748Y42868D01*
X20363Y44023D02*Y43253D01*
X20748Y44408D02*X20363Y44023D01*
X21518Y41944D02*X23443Y40404D01*
X21518Y41944D02*Y40019D01*
X20363Y40404D02*X23443D01*
X23639Y30945D02*Y30175D01*
X20559Y30560D02*X23639D01*
X20559Y30945D02*Y30175D01*
X20944Y29251D02*X23254D01*
X23639Y28866D01*
Y28096D01*
X23254Y27711D01*
X20944D02*X23254D01*
X20559Y28096D02*X20944Y27711D01*
X20559Y28866D02*Y28096D01*
X20944Y29251D02*X20559Y28866D01*
X23254Y26787D02*X23639Y26402D01*
Y25632D01*
X23254Y25247D01*
X20559Y25632D02*X20944Y25247D01*
X20559Y26402D02*Y25632D01*
X20944Y26787D02*X20559Y26402D01*
X22253D02*Y25632D01*
X22638Y25247D02*X23254D01*
X20944D02*X21868D01*
X22253Y25632D01*
X22638Y25247D02*X22253Y25632D01*
X14002Y83457D02*X14782D01*
X13582Y83877D02*X14002Y83457D01*
X13582Y85437D02*Y83877D01*
Y85437D02*X14002Y85857D01*
X14782D01*
X15502Y85377D02*X15982Y85857D01*
Y83457D01*
X15502D02*X16402D01*
X17122Y85557D02*X17422Y85857D01*
X18322D01*
X18622Y85557D01*
Y84957D01*
X17122Y83457D02*X18622Y84957D01*
X17122Y83457D02*X18622D01*
X14789Y69875D02*X15569D01*
X14369Y70295D02*X14789Y69875D01*
X14369Y71855D02*Y70295D01*
Y71855D02*X14789Y72275D01*
X15569D01*
X16289Y71795D02*X16769Y72275D01*
Y69875D01*
X16289D02*X17189D01*
X17909Y71975D02*X18209Y72275D01*
X18809D01*
X19109Y71975D01*
X18809Y69875D02*X19109Y70175D01*
X18209Y69875D02*X18809D01*
X17909Y70175D02*X18209Y69875D01*
Y71195D02*X18809D01*
X19109Y71975D02*Y71495D01*
Y70895D02*Y70175D01*
Y70895D02*X18809Y71195D01*
X19109Y71495D02*X18809Y71195D01*
X50787Y57110D02*X52787D01*
X53287Y56610D01*
Y55610D01*
X52787Y55110D02*X53287Y55610D01*
X51287Y55110D02*X52787D01*
X51287Y57110D02*Y53110D01*
X52087Y55110D02*X53287Y53110D01*
X54487Y55310D02*X55987D01*
X54487Y53110D02*X56487D01*
X54487Y57110D02*Y53110D01*
Y57110D02*X56487D01*
X59687D02*X60187Y56610D01*
X58187Y57110D02*X59687D01*
X57687Y56610D02*X58187Y57110D01*
X57687Y56610D02*Y55610D01*
X58187Y55110D01*
X59687D01*
X60187Y54610D01*
Y53610D01*
X59687Y53110D02*X60187Y53610D01*
X58187Y53110D02*X59687D01*
X57687Y53610D02*X58187Y53110D01*
X61387Y55310D02*X62887D01*
X61387Y53110D02*X63387D01*
X61387Y57110D02*Y53110D01*
Y57110D02*X63387D01*
X64587D02*X66587D01*
X65587D02*Y53110D01*
X52075Y39787D02*Y35787D01*
X51575Y39787D02*X53575D01*
X54075Y39287D01*
Y38287D01*
X53575Y37787D02*X54075Y38287D01*
X52075Y37787D02*X53575D01*
X55275Y39787D02*X57275D01*
X57775Y39287D01*
Y38287D01*
X57275Y37787D02*X57775Y38287D01*
X55775Y37787D02*X57275D01*
X55775Y39787D02*Y35787D01*
X56575Y37787D02*X57775Y35787D01*
X58975Y39287D02*Y36287D01*
Y39287D02*X59475Y39787D01*
X60475D01*
X60975Y39287D01*
Y36287D01*
X60475Y35787D02*X60975Y36287D01*
X59475Y35787D02*X60475D01*
X58975Y36287D02*X59475Y35787D01*
X64175Y39787D02*X64675Y39287D01*
X62675Y39787D02*X64175D01*
X62175Y39287D02*X62675Y39787D01*
X62175Y39287D02*Y36287D01*
X62675Y35787D01*
X64175D01*
X64675Y36287D01*
Y37287D02*Y36287D01*
X64175Y37787D02*X64675Y37287D01*
X63175Y37787D02*X64175D01*
X18425Y121096D02*Y118016D01*
X19965D01*
X20889Y121096D02*X21659D01*
X21274D02*Y118016D01*
X20889D02*X21659D01*
X22583Y121096D02*Y118016D01*
Y121096D02*X24508Y118016D01*
Y121096D02*Y118016D01*
X25432Y119710D02*X26587D01*
X25432Y118016D02*X26972D01*
X25432Y121096D02*Y118016D01*
Y121096D02*X26972D01*
X39453D02*X39838Y120711D01*
X38298Y121096D02*X39453D01*
X37913Y120711D02*X38298Y121096D01*
X37913Y120711D02*Y119941D01*
X38298Y119556D01*
X39453D01*
X39838Y119171D01*
Y118401D01*
X39453Y118016D02*X39838Y118401D01*
X38298Y118016D02*X39453D01*
X37913Y118401D02*X38298Y118016D01*
X41147Y121096D02*Y118016D01*
X40762Y121096D02*X42302D01*
X42687Y120711D01*
Y119941D01*
X42302Y119556D02*X42687Y119941D01*
X41147Y119556D02*X42302D01*
X43611Y119710D02*X44766D01*
X43611Y118016D02*X45151D01*
X43611Y121096D02*Y118016D01*
Y121096D02*X45151D01*
X46075Y120326D02*Y118016D01*
Y120326D02*X46614Y121096D01*
X47461D01*
X48000Y120326D01*
Y118016D01*
X46075Y119556D02*X48000D01*
X48924Y121096D02*Y118016D01*
Y119556D02*X50464Y121096D01*
X48924Y119556D02*X50464Y118016D01*
X51388Y119710D02*X52543D01*
X51388Y118016D02*X52928D01*
X51388Y121096D02*Y118016D01*
Y121096D02*X52928D01*
X53852D02*X55392D01*
X55777Y120711D01*
Y119941D01*
X55392Y119556D02*X55777Y119941D01*
X54237Y119556D02*X55392D01*
X54237Y121096D02*Y118016D01*
X54853Y119556D02*X55777Y118016D01*
X39567Y89577D02*Y87407D01*
X39877Y87097D01*
X40497D01*
X40807Y87407D01*
Y89577D02*Y87407D01*
X41551Y88027D02*X42791Y89577D01*
X41551Y88027D02*X43101D01*
X42791Y89577D02*Y87097D01*
X44537Y83433D02*Y81333D01*
X44837Y81033D01*
X45437D01*
X45737Y81333D01*
Y83433D02*Y81333D01*
X46457Y83433D02*X47657D01*
X46457D02*Y82233D01*
X46757Y82533D01*
X47357D01*
X47657Y82233D01*
Y81333D01*
X47357Y81033D02*X47657Y81333D01*
X46757Y81033D02*X47357D01*
X46457Y81333D02*X46757Y81033D01*
X53569Y81292D02*X54349D01*
X53149Y81712D02*X53569Y81292D01*
X53149Y83272D02*Y81712D01*
Y83272D02*X53569Y83692D01*
X54349D01*
X55069Y83392D02*X55369Y83692D01*
X56269D01*
X56569Y83392D01*
Y82792D01*
X55069Y81292D02*X56569Y82792D01*
X55069Y81292D02*X56569D01*
X57289Y83392D02*X57589Y83692D01*
X58489D01*
X58789Y83392D01*
Y82792D01*
X57289Y81292D02*X58789Y82792D01*
X57289Y81292D02*X58789D01*
X32113Y81095D02*X32893D01*
X31693Y81515D02*X32113Y81095D01*
X31693Y83075D02*Y81515D01*
Y83075D02*X32113Y83495D01*
X32893D01*
X33613Y83195D02*X33913Y83495D01*
X34813D01*
X35113Y83195D01*
Y82595D01*
X33613Y81095D02*X35113Y82595D01*
X33613Y81095D02*X35113D01*
X35833Y83015D02*X36313Y83495D01*
Y81095D01*
X35833D02*X36733D01*
X32309Y65938D02*X33089D01*
X31889Y66358D02*X32309Y65938D01*
X31889Y67918D02*Y66358D01*
Y67918D02*X32309Y68338D01*
X33089D01*
X33809Y68038D02*X34109Y68338D01*
X35009D01*
X35309Y68038D01*
Y67438D01*
X33809Y65938D02*X35309Y67438D01*
X33809Y65938D02*X35309D01*
X36029Y66238D02*X36329Y65938D01*
X36029Y68038D02*Y66238D01*
Y68038D02*X36329Y68338D01*
X36929D01*
X37229Y68038D01*
Y66238D01*
X36929Y65938D02*X37229Y66238D01*
X36329Y65938D02*X36929D01*
X36029Y66538D02*X37229Y67738D01*
X60432Y114794D02*X61632D01*
X61932Y114494D01*
Y113894D01*
X61632Y113594D02*X61932Y113894D01*
X60732Y113594D02*X61632D01*
X60732Y114794D02*Y112394D01*
X61212Y113594D02*X61932Y112394D01*
X62652Y114494D02*X62952Y114794D01*
X63852D01*
X64152Y114494D01*
Y113894D01*
X62652Y112394D02*X64152Y113894D01*
X62652Y112394D02*X64152D01*
X51207Y106095D02*X51987D01*
X50787Y106515D02*X51207Y106095D01*
X50787Y108075D02*Y106515D01*
Y108075D02*X51207Y108495D01*
X51987D01*
X52707Y108015D02*X53187Y108495D01*
Y106095D01*
X52707D02*X53607D01*
X54327Y106995D02*X55527Y108495D01*
X54327Y106995D02*X55827D01*
X55527Y108495D02*Y106095D01*
X51600Y95859D02*X52380D01*
X51180Y96279D02*X51600Y95859D01*
X51180Y97839D02*Y96279D01*
Y97839D02*X51600Y98259D01*
X52380D01*
X53100Y97779D02*X53580Y98259D01*
Y95859D01*
X53100D02*X54000D01*
X54720Y98259D02*X55920D01*
X54720D02*Y97059D01*
X55020Y97359D01*
X55620D01*
X55920Y97059D01*
Y96159D01*
X55620Y95859D02*X55920Y96159D01*
X55020Y95859D02*X55620D01*
X54720Y96159D02*X55020Y95859D01*
X39199Y104520D02*X39979D01*
X38779Y104940D02*X39199Y104520D01*
X38779Y106500D02*Y104940D01*
Y106500D02*X39199Y106920D01*
X39979D01*
X40699Y106440D02*X41179Y106920D01*
Y104520D01*
X40699D02*X41599D01*
X42619D02*X43519Y105720D01*
Y106620D02*Y105720D01*
X43219Y106920D02*X43519Y106620D01*
X42619Y106920D02*X43219D01*
X42319Y106620D02*X42619Y106920D01*
X42319Y106620D02*Y106020D01*
X42619Y105720D01*
X43519D01*
X24435Y96843D02*X25215D01*
X24015Y97263D02*X24435Y96843D01*
X24015Y98823D02*Y97263D01*
Y98823D02*X24435Y99243D01*
X25215D01*
X25935Y98763D02*X26415Y99243D01*
Y96843D01*
X25935D02*X26835D01*
X27555Y98763D02*X28035Y99243D01*
Y96843D01*
X27555D02*X28455D01*
X14002D02*X14782D01*
X13582Y97263D02*X14002Y96843D01*
X13582Y98823D02*Y97263D01*
Y98823D02*X14002Y99243D01*
X14782D01*
X15502Y98763D02*X15982Y99243D01*
Y96843D01*
X15502D02*X16402D01*
X17122Y97143D02*X17422Y96843D01*
X17122Y98943D02*Y97143D01*
Y98943D02*X17422Y99243D01*
X18022D01*
X18322Y98943D01*
Y97143D01*
X18022Y96843D02*X18322Y97143D01*
X17422Y96843D02*X18022D01*
X17122Y97443D02*X18322Y98643D01*
M02*
