G04 start of page 7 for group -4062 idx -4062 *
G04 Title: (unknown), soldermask *
G04 Creator: pcb 1.99z *
G04 CreationDate: Tue May  7 13:19:40 2013 UTC *
G04 For: matt *
G04 Format: Gerber/RS-274X *
G04 PCB-Dimensions (mil): 2165.35 1377.95 *
G04 PCB-Coordinate-Origin: lower left *
%MOIN*%
%FSLAX25Y25*%
%LNBOTTOMMASK*%
%ADD121R,0.0171X0.0171*%
%ADD120R,0.1440X0.1440*%
%ADD119R,0.0316X0.0316*%
%ADD118R,0.0580X0.0580*%
%ADD117R,0.0532X0.0532*%
%ADD116R,0.0699X0.0699*%
%ADD115C,0.0660*%
%ADD114C,0.0817*%
%ADD113C,0.0860*%
%ADD112C,0.0533*%
%ADD111C,0.0739*%
%ADD110C,0.0691*%
%ADD109C,0.0374*%
%ADD108C,0.0001*%
%ADD107C,0.0059*%
G54D107*X9843Y134488D02*Y11063D01*
X206693Y134488D02*Y11063D01*
X9843D02*X206693D01*
X9843Y134488D02*X206693D01*
G54D108*G36*
X23713Y21799D02*Y14894D01*
X30618D01*
Y21799D01*
X23713D01*
G37*
G36*
X91043Y26122D02*Y22382D01*
X94783D01*
Y26122D01*
X91043D01*
G37*
G54D109*X96850Y24252D03*
X100787D03*
X104724D03*
X108661D03*
X112598D03*
G54D110*X35039Y18346D03*
G54D108*G36*
X55209Y21799D02*Y14894D01*
X62114D01*
Y21799D01*
X55209D01*
G37*
G54D110*X66535Y18346D03*
G54D108*G36*
X39461Y21799D02*Y14894D01*
X46366D01*
Y21799D01*
X39461D01*
G37*
G54D110*X50787Y18346D03*
G54D108*G36*
X13083Y67075D02*Y60169D01*
X19988D01*
Y67075D01*
X13083D01*
G37*
G36*
X13629Y130505D02*Y123117D01*
X21017D01*
Y130505D01*
X13629D01*
G37*
G54D111*X27323Y126811D03*
G54D108*G36*
X38039Y130505D02*Y123117D01*
X45426D01*
Y130505D01*
X38039D01*
G37*
G54D111*X51732Y126811D03*
G54D110*X16535Y55748D03*
G54D108*G36*
X13083Y51327D02*Y44421D01*
X19988D01*
Y51327D01*
X13083D01*
G37*
G54D110*X16535Y40000D03*
G54D108*G36*
X13083Y35579D02*Y28673D01*
X19988D01*
Y35579D01*
X13083D01*
G37*
G54D110*X16535Y24252D03*
G54D112*X148031Y30079D03*
X130709D03*
G54D108*G36*
X185357Y24131D02*Y14531D01*
X194957D01*
Y24131D01*
X185357D01*
G37*
G36*
Y34131D02*Y24531D01*
X194957D01*
Y34131D01*
X185357D01*
G37*
G54D113*X190157Y39331D03*
G54D108*G36*
X186070Y66883D02*Y58708D01*
X194245D01*
Y66883D01*
X186070D01*
G37*
G54D114*X190157Y52795D03*
G54D108*G36*
X186070Y90505D02*Y82330D01*
X194245D01*
Y90505D01*
X186070D01*
G37*
G54D114*X190157Y76417D03*
G54D108*G36*
X176700Y131095D02*Y124495D01*
X183300D01*
Y131095D01*
X176700D01*
G37*
G54D115*X180000Y117795D03*
X190000Y127795D03*
X200000D03*
X190000Y117795D03*
X200000D03*
X180000Y107795D03*
X190000D03*
X200000D03*
X180000Y97795D03*
X190000D03*
X200000D03*
G54D116*X106142Y114406D02*Y109768D01*
X86142Y114406D02*Y109768D01*
X96142Y114406D02*Y109768D01*
X136142Y114406D02*Y109768D01*
X166142Y114406D02*Y109768D01*
X156142Y114406D02*Y109768D01*
X146142Y114406D02*Y109768D01*
X126142Y114406D02*Y109768D01*
X116142Y114406D02*Y109768D01*
X126181Y41925D02*Y36925D01*
X116181Y41925D02*Y36925D01*
X106181Y41925D02*Y36925D01*
X86181Y41925D02*Y36925D01*
X96181Y41925D02*Y36925D01*
X76181Y41925D02*Y36925D01*
G54D117*X61024Y85276D02*X61810D01*
X61024Y92362D02*X61810D01*
G54D118*X25039Y73221D02*Y66621D01*
G54D119*X17126Y92657D02*Y91673D01*
X22244Y92657D02*Y91673D01*
G54D117*X53347Y39017D02*X55709D01*
X53347Y50827D02*X55709D01*
X53347Y76024D02*X55709D01*
X53347Y64214D02*X55709D01*
G54D120*X29539Y45521D02*X38539D01*
G54D118*X34039Y73221D02*Y66621D01*
X43139Y73221D02*Y66621D01*
G54D116*X136181Y41925D02*Y36925D01*
X146181Y41925D02*Y36925D01*
X156181Y41925D02*Y36925D01*
X166181Y41925D02*Y36925D01*
G54D117*X61024Y109291D02*X61810D01*
X61024Y102205D02*X61810D01*
G54D116*X76142Y114406D02*Y109768D01*
G54D117*X29134Y101221D02*X31496D01*
G54D121*X22175Y99707D02*Y97707D01*
X17075Y99707D02*Y97707D01*
Y106707D02*Y104707D01*
X19575Y106707D02*Y104707D01*
X22175Y106707D02*Y104707D01*
G54D117*X29134Y113031D02*X31496D01*
G54D119*X22244Y113523D02*Y112539D01*
X17126Y113523D02*Y112539D01*
M02*
