G04 start of page 3 for group 1 idx 1 *
G04 Title: (unknown), solder *
G04 Creator: pcb 1.99z *
G04 CreationDate: Tue May  7 13:19:40 2013 UTC *
G04 For: matt *
G04 Format: Gerber/RS-274X *
G04 PCB-Dimensions (mil): 2165.35 1377.95 *
G04 PCB-Coordinate-Origin: lower left *
%MOIN*%
%FSLAX25Y25*%
%LNBOTTOM*%
%ADD71C,0.0480*%
%ADD70C,0.0354*%
%ADD69C,0.0380*%
%ADD68C,0.0315*%
%ADD67C,0.0118*%
%ADD66C,0.0443*%
%ADD65C,0.0236*%
%ADD64R,0.0150X0.0150*%
%ADD63R,0.1420X0.1420*%
%ADD62R,0.0295X0.0295*%
%ADD61R,0.0560X0.0560*%
%ADD60R,0.0512X0.0512*%
%ADD59R,0.0659X0.0659*%
%ADD58C,0.0600*%
%ADD57C,0.0757*%
%ADD56C,0.0800*%
%ADD55C,0.0473*%
%ADD54C,0.0679*%
%ADD53C,0.0651*%
%ADD52C,0.0354*%
%ADD51C,0.0100*%
%ADD50C,0.0400*%
%ADD49C,0.0098*%
%ADD48C,0.2343*%
%ADD47C,0.0250*%
%ADD46C,0.0059*%
%ADD45C,0.0001*%
G54D45*G36*
X193505Y48701D02*X193908Y49045D01*
X194448Y49678D01*
X194883Y50387D01*
X195202Y51156D01*
X195396Y51966D01*
X195445Y52795D01*
X195396Y53625D01*
X195202Y54434D01*
X194883Y55203D01*
X194448Y55913D01*
X193908Y56546D01*
X193505Y56890D01*
Y57521D01*
X194180Y57522D01*
X194410Y57577D01*
X194628Y57667D01*
X194829Y57791D01*
X195009Y57944D01*
X195162Y58123D01*
X195286Y58325D01*
X195376Y58543D01*
X195431Y58772D01*
X195445Y59008D01*
X195443Y59795D01*
X196803D01*
Y41160D01*
X196761Y41284D01*
X196653Y41486D01*
X196516Y41668D01*
X196351Y41826D01*
X196164Y41957D01*
X195958Y42056D01*
X195740Y42123D01*
X195514Y42154D01*
X195286Y42150D01*
X195061Y42110D01*
X194845Y42035D01*
X194644Y41928D01*
X194462Y41790D01*
X194303Y41626D01*
X194173Y41439D01*
X194073Y41233D01*
X194006Y41015D01*
X193975Y40789D01*
X193979Y40560D01*
X194024Y40337D01*
X194111Y39939D01*
X194152Y39534D01*
Y39127D01*
X194111Y38722D01*
X194029Y38323D01*
X193984Y38101D01*
X193980Y37873D01*
X194011Y37648D01*
X194078Y37430D01*
X194177Y37226D01*
X194307Y37039D01*
X194465Y36875D01*
X194647Y36738D01*
X194847Y36631D01*
X195062Y36556D01*
X195286Y36517D01*
X195514Y36512D01*
X195739Y36544D01*
X195957Y36610D01*
X196161Y36709D01*
X196348Y36839D01*
X196512Y36997D01*
X196649Y37179D01*
X196756Y37379D01*
X196803Y37525D01*
Y35337D01*
X195991Y34525D01*
X195875Y34715D01*
X195721Y34895D01*
X195542Y35048D01*
X195341Y35171D01*
X195122Y35262D01*
X194893Y35317D01*
X194657Y35331D01*
X193505Y35329D01*
Y48701D01*
G37*
G36*
Y72323D02*X193908Y72667D01*
X194448Y73300D01*
X194883Y74009D01*
X195202Y74778D01*
X195396Y75588D01*
X195445Y76417D01*
X195415Y76917D01*
X196803Y75529D01*
Y65795D01*
X195433D01*
X195431Y66818D01*
X195376Y67048D01*
X195286Y67266D01*
X195162Y67467D01*
X195009Y67647D01*
X194829Y67800D01*
X194628Y67923D01*
X194410Y68014D01*
X194180Y68069D01*
X193945Y68083D01*
X193505Y68082D01*
Y72323D01*
G37*
G36*
X199993Y133701D02*X205906D01*
Y12047D01*
X199993D01*
Y30042D01*
X201841Y31890D01*
X201931Y31967D01*
X202238Y32326D01*
X202238Y32326D01*
X202484Y32728D01*
X202665Y33165D01*
X202775Y33624D01*
X202812Y34094D01*
X202803Y34212D01*
Y62276D01*
X202815Y62325D01*
X202852Y62795D01*
X202815Y63266D01*
X202803Y63314D01*
Y76654D01*
X202812Y76772D01*
X202775Y77242D01*
X202665Y77702D01*
X202484Y78138D01*
X202238Y78540D01*
X201931Y78900D01*
X201841Y78976D01*
X199993Y80824D01*
Y93282D01*
X200000Y93281D01*
X200706Y93337D01*
X201395Y93502D01*
X202049Y93773D01*
X202653Y94143D01*
X203192Y94603D01*
X203652Y95142D01*
X204022Y95746D01*
X204293Y96400D01*
X204458Y97089D01*
X204500Y97795D01*
X204458Y98501D01*
X204293Y99190D01*
X204022Y99845D01*
X203652Y100448D01*
X203192Y100987D01*
X202653Y101447D01*
X202049Y101817D01*
X201395Y102088D01*
X200706Y102254D01*
X200000Y102309D01*
X199993Y102309D01*
Y103282D01*
X200000Y103281D01*
X200706Y103337D01*
X201395Y103502D01*
X202049Y103773D01*
X202653Y104143D01*
X203192Y104603D01*
X203652Y105142D01*
X204022Y105746D01*
X204293Y106400D01*
X204458Y107089D01*
X204500Y107795D01*
X204458Y108501D01*
X204293Y109190D01*
X204022Y109845D01*
X203652Y110448D01*
X203192Y110987D01*
X202653Y111447D01*
X202049Y111817D01*
X201395Y112088D01*
X200706Y112254D01*
X200000Y112309D01*
X199993Y112309D01*
Y113282D01*
X200000Y113281D01*
X200706Y113337D01*
X201395Y113502D01*
X202049Y113773D01*
X202653Y114143D01*
X203192Y114603D01*
X203652Y115142D01*
X204022Y115746D01*
X204293Y116400D01*
X204458Y117089D01*
X204500Y117795D01*
X204458Y118501D01*
X204293Y119190D01*
X204022Y119845D01*
X203652Y120448D01*
X203192Y120987D01*
X202653Y121447D01*
X202049Y121817D01*
X201395Y122088D01*
X200706Y122254D01*
X200000Y122309D01*
X199993Y122309D01*
Y123282D01*
X200000Y123281D01*
X200706Y123337D01*
X201395Y123502D01*
X202049Y123773D01*
X202653Y124143D01*
X203192Y124603D01*
X203652Y125142D01*
X204022Y125746D01*
X204293Y126400D01*
X204458Y127089D01*
X204500Y127795D01*
X204458Y128501D01*
X204293Y129190D01*
X204022Y129845D01*
X203652Y130448D01*
X203192Y130987D01*
X202653Y131447D01*
X202049Y131817D01*
X201395Y132088D01*
X200706Y132254D01*
X200000Y132309D01*
X199993Y132309D01*
Y133701D01*
G37*
G36*
Y80824D02*X195440Y85377D01*
X195431Y90440D01*
X195376Y90670D01*
X195286Y90888D01*
X195162Y91089D01*
X195009Y91269D01*
X194829Y91422D01*
X194628Y91545D01*
X194410Y91636D01*
X194180Y91691D01*
X193945Y91705D01*
X193505Y91704D01*
Y94970D01*
X193652Y95142D01*
X194022Y95746D01*
X194293Y96400D01*
X194458Y97089D01*
X194500Y97795D01*
X194458Y98501D01*
X194293Y99190D01*
X194022Y99845D01*
X193652Y100448D01*
X193505Y100621D01*
Y104970D01*
X193652Y105142D01*
X194022Y105746D01*
X194293Y106400D01*
X194458Y107089D01*
X194500Y107795D01*
X194458Y108501D01*
X194293Y109190D01*
X194022Y109845D01*
X193652Y110448D01*
X193505Y110621D01*
Y114970D01*
X193652Y115142D01*
X194022Y115746D01*
X194293Y116400D01*
X194458Y117089D01*
X194500Y117795D01*
X194458Y118501D01*
X194293Y119190D01*
X194022Y119845D01*
X193652Y120448D01*
X193505Y120621D01*
Y121791D01*
X194847D01*
X194882Y121789D01*
X195021Y121800D01*
X195156Y121832D01*
X195285Y121885D01*
X195404Y121958D01*
X195510Y122049D01*
X195533Y122075D01*
X197504Y124047D01*
X197951Y123773D01*
X198605Y123502D01*
X199294Y123337D01*
X199993Y123282D01*
Y122309D01*
X199294Y122254D01*
X198605Y122088D01*
X197951Y121817D01*
X197347Y121447D01*
X196808Y120987D01*
X196348Y120448D01*
X195978Y119845D01*
X195707Y119190D01*
X195542Y118501D01*
X195486Y117795D01*
X195542Y117089D01*
X195707Y116400D01*
X195978Y115746D01*
X196348Y115142D01*
X196808Y114603D01*
X197347Y114143D01*
X197951Y113773D01*
X198605Y113502D01*
X199294Y113337D01*
X199993Y113282D01*
Y112309D01*
X199294Y112254D01*
X198605Y112088D01*
X197951Y111817D01*
X197347Y111447D01*
X196808Y110987D01*
X196348Y110448D01*
X195978Y109845D01*
X195707Y109190D01*
X195542Y108501D01*
X195486Y107795D01*
X195542Y107089D01*
X195707Y106400D01*
X195978Y105746D01*
X196348Y105142D01*
X196808Y104603D01*
X197347Y104143D01*
X197951Y103773D01*
X198605Y103502D01*
X199294Y103337D01*
X199993Y103282D01*
Y102309D01*
X199294Y102254D01*
X198605Y102088D01*
X197951Y101817D01*
X197347Y101447D01*
X196808Y100987D01*
X196348Y100448D01*
X195978Y99845D01*
X195707Y99190D01*
X195542Y98501D01*
X195486Y97795D01*
X195542Y97089D01*
X195707Y96400D01*
X195978Y95746D01*
X196348Y95142D01*
X196808Y94603D01*
X197347Y94143D01*
X197951Y93773D01*
X198605Y93502D01*
X199294Y93337D01*
X199993Y93282D01*
Y80824D01*
G37*
G36*
Y12047D02*X193505D01*
Y13343D01*
X194893Y13345D01*
X195122Y13400D01*
X195341Y13490D01*
X195542Y13613D01*
X195721Y13767D01*
X195875Y13946D01*
X195998Y14148D01*
X196088Y14366D01*
X196144Y14595D01*
X196157Y14831D01*
X196144Y24066D01*
X196088Y24296D01*
X196074Y24331D01*
X196088Y24366D01*
X196144Y24595D01*
X196157Y24831D01*
X196155Y26546D01*
X196406Y26649D01*
X196808Y26896D01*
X197167Y27203D01*
X197244Y27293D01*
X199993Y30042D01*
Y12047D01*
G37*
G36*
X193505Y133701D02*X199993D01*
Y132309D01*
X199294Y132254D01*
X198605Y132088D01*
X197951Y131817D01*
X197347Y131447D01*
X196808Y130987D01*
X196348Y130448D01*
X195978Y129845D01*
X195707Y129190D01*
X195542Y128501D01*
X195486Y127795D01*
X195542Y127089D01*
X195707Y126400D01*
X195978Y125746D01*
X196252Y125300D01*
X194515Y123563D01*
X193505D01*
Y124970D01*
X193652Y125142D01*
X194022Y125746D01*
X194293Y126400D01*
X194458Y127089D01*
X194500Y127795D01*
X194458Y128501D01*
X194293Y129190D01*
X194022Y129845D01*
X193652Y130448D01*
X193505Y130621D01*
Y133701D01*
G37*
G36*
Y56890D02*X193275Y57086D01*
X192569Y57519D01*
X193505Y57521D01*
Y56890D01*
G37*
G36*
Y123563D02*X191541D01*
X192049Y123773D01*
X192653Y124143D01*
X193192Y124603D01*
X193505Y124970D01*
Y123563D01*
G37*
G36*
Y120621D02*X193192Y120987D01*
X192653Y121447D01*
X192091Y121791D01*
X193505D01*
Y120621D01*
G37*
G36*
Y110621D02*X193192Y110987D01*
X192653Y111447D01*
X192049Y111817D01*
X191395Y112088D01*
X190706Y112254D01*
X190000Y112309D01*
X189294Y112254D01*
X188605Y112088D01*
X187951Y111817D01*
X187347Y111447D01*
X186808Y110987D01*
X186348Y110448D01*
X185978Y109845D01*
X185707Y109190D01*
X185542Y108501D01*
X185486Y107795D01*
X185542Y107089D01*
X185707Y106400D01*
X185978Y105746D01*
X186252Y105300D01*
X185617Y104665D01*
X183245D01*
X183652Y105142D01*
X184022Y105746D01*
X184293Y106400D01*
X184458Y107089D01*
X184500Y107795D01*
X184458Y108501D01*
X184293Y109190D01*
X184022Y109845D01*
X183652Y110448D01*
X183192Y110987D01*
X182653Y111447D01*
X182049Y111817D01*
X181395Y112088D01*
X180706Y112254D01*
X180000Y112309D01*
X179294Y112254D01*
X178605Y112088D01*
X177951Y111817D01*
X177347Y111447D01*
X176808Y110987D01*
X176348Y110448D01*
X175978Y109845D01*
X175707Y109190D01*
X175584Y108677D01*
X175530Y108673D01*
X175395Y108640D01*
X175266Y108587D01*
X175147Y108514D01*
X175147Y108514D01*
X175041Y108424D01*
X175018Y108397D01*
X174311Y107690D01*
Y114830D01*
X175758Y116277D01*
X175978Y115746D01*
X176348Y115142D01*
X176808Y114603D01*
X177347Y114143D01*
X177951Y113773D01*
X178605Y113502D01*
X179294Y113337D01*
X180000Y113281D01*
X180706Y113337D01*
X181395Y113502D01*
X182049Y113773D01*
X182653Y114143D01*
X183192Y114603D01*
X183652Y115142D01*
X184022Y115746D01*
X184293Y116400D01*
X184458Y117089D01*
X184500Y117795D01*
X184458Y118501D01*
X184293Y119190D01*
X184022Y119845D01*
X183652Y120448D01*
X183192Y120987D01*
X182653Y121447D01*
X182091Y121791D01*
X187909D01*
X187347Y121447D01*
X186808Y120987D01*
X186348Y120448D01*
X185978Y119845D01*
X185707Y119190D01*
X185542Y118501D01*
X185486Y117795D01*
X185542Y117089D01*
X185707Y116400D01*
X185978Y115746D01*
X186348Y115142D01*
X186808Y114603D01*
X187347Y114143D01*
X187951Y113773D01*
X188605Y113502D01*
X189294Y113337D01*
X190000Y113281D01*
X190706Y113337D01*
X191395Y113502D01*
X192049Y113773D01*
X192653Y114143D01*
X193192Y114603D01*
X193505Y114970D01*
Y110621D01*
G37*
G36*
X190155Y47492D02*X190157Y47492D01*
X190987Y47557D01*
X191796Y47751D01*
X192565Y48070D01*
X193275Y48504D01*
X193505Y48701D01*
Y35329D01*
X192242Y35327D01*
X192060Y35415D01*
X191842Y35482D01*
X191615Y35513D01*
X191387Y35509D01*
X191163Y35465D01*
X190766Y35377D01*
X190361Y35336D01*
X190155D01*
Y43326D01*
X190361D01*
X190766Y43284D01*
X191165Y43202D01*
X191388Y43158D01*
X191615Y43153D01*
X191840Y43185D01*
X192058Y43251D01*
X192263Y43350D01*
X192449Y43480D01*
X192613Y43638D01*
X192750Y43820D01*
X192857Y44020D01*
X192932Y44235D01*
X192972Y44459D01*
X192976Y44687D01*
X192945Y44912D01*
X192878Y45130D01*
X192779Y45334D01*
X192649Y45521D01*
X192491Y45685D01*
X192309Y45822D01*
X192109Y45929D01*
X191893Y45999D01*
X191207Y46150D01*
X190509Y46221D01*
X190155D01*
Y47492D01*
G37*
G36*
Y71114D02*X190157Y71114D01*
X190987Y71179D01*
X191796Y71373D01*
X192565Y71692D01*
X193275Y72127D01*
X193505Y72323D01*
Y68082D01*
X190155Y68076D01*
Y71114D01*
G37*
G36*
Y93294D02*X190706Y93337D01*
X191395Y93502D01*
X192049Y93773D01*
X192653Y94143D01*
X193192Y94603D01*
X193505Y94970D01*
Y91704D01*
X190155Y91698D01*
Y93294D01*
G37*
G36*
Y103294D02*X190706Y103337D01*
X191395Y103502D01*
X192049Y103773D01*
X192653Y104143D01*
X193192Y104603D01*
X193505Y104970D01*
Y100621D01*
X193192Y100987D01*
X192653Y101447D01*
X192049Y101817D01*
X191395Y102088D01*
X190706Y102254D01*
X190155Y102297D01*
Y103294D01*
G37*
G36*
X193505Y12047D02*X190155D01*
Y13337D01*
X193505Y13343D01*
Y12047D01*
G37*
G36*
X184803Y102894D02*X185950D01*
X185984Y102891D01*
X186123Y102902D01*
X186259Y102934D01*
X186388Y102988D01*
X186507Y103061D01*
X186613Y103151D01*
X186635Y103178D01*
X187504Y104047D01*
X187951Y103773D01*
X188605Y103502D01*
X189294Y103337D01*
X190000Y103281D01*
X190155Y103294D01*
Y102297D01*
X190000Y102309D01*
X189294Y102254D01*
X188605Y102088D01*
X187951Y101817D01*
X187347Y101447D01*
X186808Y100987D01*
X186348Y100448D01*
X185978Y99845D01*
X185707Y99190D01*
X185542Y98501D01*
X185486Y97795D01*
X185542Y97089D01*
X185707Y96400D01*
X185978Y95746D01*
X186348Y95142D01*
X186808Y94603D01*
X187347Y94143D01*
X187951Y93773D01*
X188605Y93502D01*
X189294Y93337D01*
X190000Y93281D01*
X190155Y93294D01*
Y91698D01*
X186135Y91691D01*
X185905Y91636D01*
X185687Y91545D01*
X185486Y91422D01*
X185306Y91269D01*
X185153Y91089D01*
X185029Y90888D01*
X184939Y90670D01*
X184884Y90440D01*
X184870Y90205D01*
X184884Y82395D01*
X184939Y82165D01*
X185029Y81947D01*
X185153Y81746D01*
X185306Y81566D01*
X185486Y81413D01*
X185687Y81289D01*
X185905Y81199D01*
X186135Y81144D01*
X186370Y81130D01*
X187732Y81132D01*
X187040Y80708D01*
X186407Y80168D01*
X185867Y79535D01*
X185432Y78825D01*
X185113Y78056D01*
X184919Y77247D01*
X184854Y76417D01*
X184919Y75588D01*
X185113Y74778D01*
X185432Y74009D01*
X185867Y73300D01*
X186407Y72667D01*
X187040Y72127D01*
X187750Y71692D01*
X188519Y71373D01*
X189328Y71179D01*
X190155Y71114D01*
Y68076D01*
X186135Y68069D01*
X185905Y68014D01*
X185687Y67923D01*
X185486Y67800D01*
X185306Y67647D01*
X185153Y67467D01*
X185029Y67266D01*
X184939Y67048D01*
X184884Y66818D01*
X184870Y66583D01*
X184884Y58772D01*
X184939Y58543D01*
X185029Y58325D01*
X185153Y58123D01*
X185306Y57944D01*
X185486Y57791D01*
X185687Y57667D01*
X185905Y57577D01*
X186135Y57522D01*
X186370Y57508D01*
X187732Y57510D01*
X187040Y57086D01*
X186407Y56546D01*
X185867Y55913D01*
X185432Y55203D01*
X185113Y54434D01*
X184919Y53625D01*
X184854Y52795D01*
X184919Y51966D01*
X185113Y51156D01*
X185432Y50387D01*
X185867Y49678D01*
X186407Y49045D01*
X187040Y48504D01*
X187750Y48070D01*
X188519Y47751D01*
X189328Y47557D01*
X190155Y47492D01*
Y46221D01*
X189806D01*
X189108Y46150D01*
X188420Y46008D01*
X188204Y45934D01*
X188003Y45826D01*
X187821Y45689D01*
X187662Y45524D01*
X187532Y45337D01*
X187432Y45132D01*
X187365Y44913D01*
X187334Y44687D01*
X187338Y44459D01*
X187378Y44234D01*
X187453Y44018D01*
X187560Y43817D01*
X187698Y43635D01*
X187862Y43476D01*
X188050Y43346D01*
X188255Y43246D01*
X188473Y43180D01*
X188700Y43148D01*
X188928Y43152D01*
X189152Y43197D01*
X189549Y43284D01*
X189954Y43326D01*
X190155D01*
Y35336D01*
X189954D01*
X189549Y35377D01*
X189150Y35460D01*
X188927Y35504D01*
X188700Y35508D01*
X188475Y35477D01*
X188257Y35411D01*
X188072Y35321D01*
X185422Y35317D01*
X185193Y35262D01*
X184974Y35171D01*
X184803Y35067D01*
Y36507D01*
X185029Y36511D01*
X185254Y36551D01*
X185470Y36626D01*
X185671Y36734D01*
X185853Y36871D01*
X186012Y37036D01*
X186142Y37223D01*
X186242Y37428D01*
X186309Y37647D01*
X186340Y37873D01*
X186336Y38101D01*
X186291Y38325D01*
X186204Y38722D01*
X186163Y39127D01*
Y39534D01*
X186204Y39939D01*
X186286Y40338D01*
X186331Y40561D01*
X186335Y40788D01*
X186304Y41014D01*
X186237Y41231D01*
X186138Y41436D01*
X186008Y41622D01*
X185850Y41786D01*
X185668Y41923D01*
X185468Y42031D01*
X185253Y42105D01*
X185029Y42145D01*
X184803Y42149D01*
Y102894D01*
G37*
G36*
X190155Y12047D02*X184803D01*
Y13595D01*
X184974Y13490D01*
X185193Y13400D01*
X185422Y13345D01*
X185657Y13331D01*
X190155Y13337D01*
Y12047D01*
G37*
G36*
X183613Y102894D02*X184803D01*
Y42149D01*
X184801Y42149D01*
X184576Y42118D01*
X184358Y42052D01*
X184154Y41952D01*
X183967Y41822D01*
X183803Y41664D01*
X183666Y41483D01*
X183613Y41383D01*
Y95648D01*
X183656Y95655D01*
X183768Y95693D01*
X183873Y95747D01*
X183968Y95817D01*
X184051Y95901D01*
X184119Y95997D01*
X184170Y96104D01*
X184318Y96511D01*
X184422Y96932D01*
X184484Y97362D01*
X184505Y97795D01*
X184484Y98229D01*
X184422Y98658D01*
X184318Y99079D01*
X184175Y99489D01*
X184122Y99595D01*
X184053Y99692D01*
X183970Y99776D01*
X183875Y99847D01*
X183769Y99901D01*
X183657Y99939D01*
X183613Y99946D01*
Y102894D01*
G37*
G36*
X184803Y12047D02*X183613D01*
Y37267D01*
X183662Y37176D01*
X183799Y36994D01*
X183964Y36835D01*
X184151Y36705D01*
X184356Y36605D01*
X184575Y36539D01*
X184801Y36507D01*
X184803Y36507D01*
Y35067D01*
X184773Y35048D01*
X184594Y34895D01*
X184440Y34715D01*
X184317Y34514D01*
X184226Y34296D01*
X184171Y34066D01*
X184157Y33831D01*
X184171Y24595D01*
X184226Y24366D01*
X184241Y24331D01*
X184226Y24296D01*
X184171Y24066D01*
X184157Y23831D01*
X184171Y14595D01*
X184226Y14366D01*
X184317Y14148D01*
X184440Y13946D01*
X184594Y13767D01*
X184773Y13613D01*
X184803Y13595D01*
Y12047D01*
G37*
G36*
X183613D02*X180002D01*
Y15599D01*
X180067Y15626D01*
X180470Y15873D01*
X180829Y16179D01*
X180905Y16269D01*
X181031Y16395D01*
X181187Y16459D01*
X181619Y16724D01*
X182003Y17052D01*
X182331Y17437D01*
X182596Y17868D01*
X182789Y18335D01*
X182907Y18827D01*
X182937Y19331D01*
X182907Y19835D01*
X182789Y20327D01*
X182596Y20794D01*
X182331Y21225D01*
X182003Y21609D01*
X181619Y21938D01*
X181187Y22202D01*
X180720Y22395D01*
X180229Y22514D01*
X180002Y22531D01*
Y93290D01*
X180433Y93311D01*
X180863Y93373D01*
X181284Y93477D01*
X181694Y93621D01*
X181800Y93673D01*
X181896Y93742D01*
X181981Y93825D01*
X182051Y93921D01*
X182106Y94026D01*
X182143Y94139D01*
X182163Y94256D01*
X182164Y94374D01*
X182146Y94491D01*
X182110Y94604D01*
X182057Y94711D01*
X181988Y94807D01*
X181905Y94891D01*
X181809Y94962D01*
X181704Y95016D01*
X181592Y95054D01*
X181475Y95073D01*
X181356Y95074D01*
X181239Y95057D01*
X181126Y95019D01*
X180855Y94920D01*
X180575Y94851D01*
X180289Y94809D01*
X180002Y94795D01*
Y100795D01*
X180289Y100781D01*
X180575Y100740D01*
X180855Y100671D01*
X181128Y100575D01*
X181239Y100537D01*
X181356Y100520D01*
X181474Y100521D01*
X181591Y100540D01*
X181703Y100577D01*
X181807Y100632D01*
X181902Y100702D01*
X181985Y100786D01*
X182054Y100882D01*
X182107Y100987D01*
X182143Y101100D01*
X182160Y101217D01*
X182159Y101335D01*
X182140Y101451D01*
X182103Y101563D01*
X182048Y101668D01*
X181978Y101763D01*
X181894Y101846D01*
X181798Y101915D01*
X181692Y101965D01*
X181284Y102114D01*
X180863Y102217D01*
X180433Y102280D01*
X180002Y102300D01*
Y102894D01*
X183613D01*
Y99946D01*
X183540Y99958D01*
X183421Y99959D01*
X183304Y99941D01*
X183191Y99905D01*
X183085Y99852D01*
X182988Y99783D01*
X182904Y99700D01*
X182833Y99605D01*
X182779Y99499D01*
X182741Y99387D01*
X182722Y99270D01*
X182721Y99151D01*
X182739Y99034D01*
X182777Y98922D01*
X182876Y98650D01*
X182944Y98370D01*
X182986Y98084D01*
X183000Y97795D01*
X182986Y97507D01*
X182944Y97221D01*
X182876Y96940D01*
X182780Y96667D01*
X182742Y96556D01*
X182725Y96439D01*
X182725Y96321D01*
X182745Y96205D01*
X182782Y96093D01*
X182836Y95988D01*
X182906Y95893D01*
X182991Y95810D01*
X183087Y95741D01*
X183192Y95688D01*
X183305Y95653D01*
X183421Y95635D01*
X183539Y95636D01*
X183613Y95648D01*
Y41383D01*
X183559Y41282D01*
X183489Y41066D01*
X183338Y40380D01*
X183267Y39682D01*
Y38980D01*
X183338Y38281D01*
X183480Y37593D01*
X183554Y37377D01*
X183613Y37267D01*
Y12047D01*
G37*
G36*
X180002Y22531D02*X179724Y22553D01*
X179220Y22514D01*
X178729Y22395D01*
X178261Y22202D01*
X177830Y21938D01*
X177446Y21609D01*
X177188Y21307D01*
X165157D01*
X165138Y21306D01*
X165118Y21307D01*
X109662D01*
Y22003D01*
X109782Y22053D01*
X110112Y22255D01*
X110407Y22507D01*
X110630Y22768D01*
X110853Y22507D01*
X111148Y22255D01*
X111478Y22053D01*
X111836Y21905D01*
X112212Y21814D01*
X112598Y21784D01*
X112985Y21814D01*
X113361Y21905D01*
X113719Y22053D01*
X114049Y22255D01*
X114344Y22507D01*
X114595Y22801D01*
X114798Y23131D01*
X114946Y23489D01*
X115036Y23866D01*
X115059Y24252D01*
X115036Y24638D01*
X114946Y25015D01*
X114798Y25373D01*
X114595Y25703D01*
X114344Y25997D01*
X114049Y26249D01*
X113719Y26451D01*
X113361Y26599D01*
X112985Y26690D01*
X112598Y26720D01*
X112212Y26690D01*
X111836Y26599D01*
X111478Y26451D01*
X111148Y26249D01*
X110853Y25997D01*
X110630Y25736D01*
X110407Y25997D01*
X110112Y26249D01*
X109782Y26451D01*
X109662Y26501D01*
Y28494D01*
X110570Y27587D01*
X110592Y27561D01*
X110698Y27470D01*
X110698Y27470D01*
X110817Y27397D01*
X110946Y27344D01*
X111081Y27311D01*
X111220Y27300D01*
X111255Y27303D01*
X124436D01*
X128089Y23650D01*
X128112Y23624D01*
X128218Y23533D01*
X128218Y23533D01*
X128337Y23460D01*
X128466Y23407D01*
X128601Y23374D01*
X128740Y23363D01*
X128775Y23366D01*
X133430D01*
X133465Y23363D01*
X133604Y23374D01*
X133739Y23407D01*
X133868Y23460D01*
X133987Y23533D01*
X134093Y23624D01*
X134116Y23650D01*
X135800Y25335D01*
X153981D01*
X154016Y25332D01*
X154155Y25343D01*
X154290Y25375D01*
X154419Y25429D01*
X154538Y25502D01*
X154644Y25592D01*
X154667Y25619D01*
X156783Y27735D01*
X156809Y27758D01*
X156900Y27863D01*
X156900Y27864D01*
X156973Y27982D01*
X157026Y28111D01*
X157059Y28247D01*
X157070Y28386D01*
X157067Y28421D01*
Y33042D01*
X159569Y33044D01*
X159660Y33066D01*
X159746Y33101D01*
X159825Y33150D01*
X159896Y33211D01*
X159956Y33281D01*
X160005Y33361D01*
X160040Y33447D01*
X160062Y33537D01*
X160068Y33630D01*
X160062Y45313D01*
X160040Y45404D01*
X160005Y45490D01*
X159956Y45569D01*
X159896Y45640D01*
X159825Y45700D01*
X159746Y45749D01*
X159660Y45785D01*
X159569Y45806D01*
X159477Y45812D01*
X152793Y45806D01*
X152702Y45785D01*
X152616Y45749D01*
X152537Y45700D01*
X152466Y45640D01*
X152406Y45569D01*
X152357Y45490D01*
X152322Y45404D01*
X152300Y45313D01*
X152295Y45221D01*
X152300Y33537D01*
X152322Y33447D01*
X152357Y33361D01*
X152406Y33281D01*
X152466Y33211D01*
X152537Y33150D01*
X152616Y33101D01*
X152702Y33066D01*
X152793Y33044D01*
X152886Y33039D01*
X155295Y33041D01*
Y28753D01*
X153649Y27106D01*
X149590D01*
X150006Y27361D01*
X150407Y27703D01*
X150749Y28104D01*
X151025Y28554D01*
X151226Y29041D01*
X151349Y29553D01*
X151380Y30079D01*
X151349Y30604D01*
X151226Y31117D01*
X151025Y31604D01*
X150749Y32053D01*
X150407Y32454D01*
X150006Y32796D01*
X149593Y33050D01*
X149660Y33066D01*
X149746Y33101D01*
X149825Y33150D01*
X149896Y33211D01*
X149956Y33281D01*
X150005Y33361D01*
X150040Y33447D01*
X150062Y33537D01*
X150068Y33630D01*
X150062Y45313D01*
X150040Y45404D01*
X150005Y45490D01*
X149956Y45569D01*
X149896Y45640D01*
X149825Y45700D01*
X149746Y45749D01*
X149660Y45785D01*
X149569Y45806D01*
X149477Y45812D01*
X142793Y45806D01*
X142702Y45785D01*
X142616Y45749D01*
X142537Y45700D01*
X142466Y45640D01*
X142406Y45569D01*
X142357Y45490D01*
X142322Y45404D01*
X142300Y45313D01*
X142295Y45221D01*
X142300Y33537D01*
X142322Y33447D01*
X142357Y33361D01*
X142406Y33281D01*
X142466Y33211D01*
X142537Y33150D01*
X142616Y33101D01*
X142702Y33066D01*
X142793Y33044D01*
X142886Y33039D01*
X146457Y33042D01*
X146057Y32796D01*
X145656Y32454D01*
X145314Y32053D01*
X145038Y31604D01*
X144837Y31117D01*
X144714Y30604D01*
X144672Y30079D01*
X144714Y29553D01*
X144837Y29041D01*
X145038Y28554D01*
X145314Y28104D01*
X145656Y27703D01*
X146057Y27361D01*
X146473Y27106D01*
X135800D01*
X136783Y28089D01*
X136809Y28112D01*
X136900Y28218D01*
X136900Y28218D01*
X136973Y28337D01*
X137026Y28466D01*
X137059Y28601D01*
X137070Y28740D01*
X137067Y28775D01*
Y33042D01*
X139569Y33044D01*
X139660Y33066D01*
X139746Y33101D01*
X139825Y33150D01*
X139896Y33211D01*
X139956Y33281D01*
X140005Y33361D01*
X140040Y33447D01*
X140062Y33537D01*
X140068Y33630D01*
X140062Y45313D01*
X140040Y45404D01*
X140005Y45490D01*
X139956Y45569D01*
X139896Y45640D01*
X139825Y45700D01*
X139746Y45749D01*
X139660Y45785D01*
X139569Y45806D01*
X139477Y45812D01*
X132793Y45806D01*
X132702Y45785D01*
X132616Y45749D01*
X132537Y45700D01*
X132466Y45640D01*
X132406Y45569D01*
X132357Y45490D01*
X132322Y45404D01*
X132300Y45313D01*
X132295Y45221D01*
X132300Y33537D01*
X132322Y33447D01*
X132357Y33361D01*
X132406Y33281D01*
X132466Y33211D01*
X132537Y33150D01*
X132616Y33101D01*
X132702Y33066D01*
X132793Y33044D01*
X132886Y33039D01*
X135295Y33041D01*
Y29107D01*
X132507Y26319D01*
X129698D01*
X126045Y29972D01*
X126022Y29998D01*
X125916Y30089D01*
X125916Y30089D01*
X125797Y30162D01*
X125668Y30215D01*
X125533Y30248D01*
X125394Y30259D01*
X125359Y30256D01*
X124776D01*
X126783Y32262D01*
X126809Y32285D01*
X126900Y32391D01*
X126900Y32391D01*
X126973Y32510D01*
X127026Y32639D01*
X127059Y32774D01*
X127070Y32913D01*
X127067Y32948D01*
Y33042D01*
X129138Y33044D01*
X128735Y32796D01*
X128334Y32454D01*
X127992Y32053D01*
X127716Y31604D01*
X127515Y31117D01*
X127391Y30604D01*
X127350Y30079D01*
X127391Y29553D01*
X127515Y29041D01*
X127716Y28554D01*
X127992Y28104D01*
X128334Y27703D01*
X128735Y27361D01*
X129184Y27086D01*
X129671Y26884D01*
X130184Y26761D01*
X130709Y26719D01*
X131235Y26761D01*
X131748Y26884D01*
X132235Y27086D01*
X132684Y27361D01*
X133085Y27703D01*
X133427Y28104D01*
X133703Y28554D01*
X133904Y29041D01*
X134027Y29553D01*
X134058Y30079D01*
X134027Y30604D01*
X133904Y31117D01*
X133703Y31604D01*
X133427Y32053D01*
X133085Y32454D01*
X132684Y32796D01*
X132235Y33072D01*
X131748Y33274D01*
X131235Y33397D01*
X130709Y33438D01*
X130184Y33397D01*
X130000Y33353D01*
X130005Y33361D01*
X130040Y33447D01*
X130062Y33537D01*
X130068Y33630D01*
X130062Y45313D01*
X130040Y45404D01*
X130005Y45490D01*
X129956Y45569D01*
X129896Y45640D01*
X129825Y45700D01*
X129746Y45749D01*
X129660Y45785D01*
X129569Y45806D01*
X129477Y45812D01*
X122793Y45806D01*
X122702Y45785D01*
X122616Y45749D01*
X122537Y45700D01*
X122466Y45640D01*
X122406Y45569D01*
X122357Y45490D01*
X122322Y45404D01*
X122300Y45313D01*
X122295Y45221D01*
X122300Y33537D01*
X122322Y33447D01*
X122357Y33361D01*
X122406Y33281D01*
X122466Y33211D01*
X122537Y33150D01*
X122616Y33101D01*
X122702Y33066D01*
X122793Y33044D01*
X122886Y33039D01*
X125055Y33040D01*
X123452Y31437D01*
X112894D01*
Y33039D01*
X119569Y33044D01*
X119660Y33066D01*
X119746Y33101D01*
X119825Y33150D01*
X119896Y33211D01*
X119956Y33281D01*
X120005Y33361D01*
X120040Y33447D01*
X120062Y33537D01*
X120068Y33630D01*
X120062Y45313D01*
X120040Y45404D01*
X120005Y45490D01*
X119956Y45569D01*
X119896Y45640D01*
X119825Y45700D01*
X119746Y45749D01*
X119660Y45785D01*
X119569Y45806D01*
X119477Y45812D01*
X117067Y45810D01*
Y47997D01*
X117070Y48032D01*
X117059Y48170D01*
X117026Y48306D01*
X116973Y48435D01*
X116900Y48554D01*
X116900Y48554D01*
X116809Y48660D01*
X116783Y48682D01*
X115918Y49547D01*
X123621D01*
X123622Y49547D01*
X148255D01*
X148955Y48847D01*
X148978Y48821D01*
X149084Y48730D01*
X149084Y48730D01*
X149203Y48657D01*
X149332Y48604D01*
X149467Y48571D01*
X149606Y48560D01*
X149641Y48563D01*
X164987D01*
X165295Y48255D01*
Y45808D01*
X162793Y45806D01*
X162702Y45785D01*
X162616Y45749D01*
X162537Y45700D01*
X162466Y45640D01*
X162406Y45569D01*
X162357Y45490D01*
X162322Y45404D01*
X162300Y45313D01*
X162295Y45221D01*
X162300Y33537D01*
X162322Y33447D01*
X162357Y33361D01*
X162406Y33281D01*
X162466Y33211D01*
X162537Y33150D01*
X162616Y33101D01*
X162702Y33066D01*
X162793Y33044D01*
X162886Y33039D01*
X169569Y33044D01*
X169660Y33066D01*
X169746Y33101D01*
X169825Y33150D01*
X169896Y33211D01*
X169956Y33281D01*
X170005Y33361D01*
X170040Y33447D01*
X170062Y33537D01*
X170068Y33630D01*
X170062Y45313D01*
X170040Y45404D01*
X170005Y45490D01*
X169956Y45569D01*
X169896Y45640D01*
X169825Y45700D01*
X169746Y45749D01*
X169660Y45785D01*
X169569Y45806D01*
X169477Y45812D01*
X167067Y45810D01*
Y48587D01*
X167070Y48622D01*
X167059Y48761D01*
X167026Y48897D01*
X166973Y49025D01*
X166900Y49144D01*
X166900Y49144D01*
X166809Y49250D01*
X166783Y49273D01*
X166005Y50051D01*
X165983Y50077D01*
X165877Y50168D01*
X165877Y50168D01*
X165758Y50241D01*
X165629Y50294D01*
X165493Y50326D01*
X165354Y50337D01*
X165320Y50335D01*
X151820D01*
X151847Y50358D01*
X152028Y50570D01*
X152174Y50807D01*
X152281Y51065D01*
X152346Y51336D01*
X152362Y51614D01*
X152346Y51892D01*
X152281Y52163D01*
X152174Y52421D01*
X152028Y52659D01*
X151847Y52871D01*
X151820Y52894D01*
X171028D01*
X171063Y52891D01*
X171202Y52902D01*
X171338Y52934D01*
X171466Y52988D01*
X171585Y53061D01*
X171691Y53151D01*
X171714Y53178D01*
X176389Y57853D01*
X176416Y57876D01*
X176506Y57982D01*
X176506Y57982D01*
X176579Y58101D01*
X176632Y58229D01*
X176665Y58365D01*
X176676Y58504D01*
X176673Y58539D01*
Y95646D01*
X176696Y95649D01*
X176809Y95685D01*
X176915Y95738D01*
X177012Y95807D01*
X177096Y95891D01*
X177167Y95986D01*
X177221Y96091D01*
X177259Y96204D01*
X177278Y96321D01*
X177279Y96439D01*
X177261Y96557D01*
X177223Y96669D01*
X177124Y96940D01*
X177056Y97221D01*
X177014Y97507D01*
X177000Y97795D01*
X177014Y98084D01*
X177056Y98370D01*
X177124Y98650D01*
X177220Y98923D01*
X177258Y99035D01*
X177275Y99151D01*
X177275Y99270D01*
X177255Y99386D01*
X177218Y99498D01*
X177164Y99603D01*
X177094Y99698D01*
X177009Y99781D01*
X176913Y99849D01*
X176808Y99902D01*
X176695Y99938D01*
X176673Y99941D01*
Y101838D01*
X177729Y102894D01*
X180002D01*
Y102300D01*
X180000Y102300D01*
X179567Y102280D01*
X179137Y102217D01*
X178716Y102114D01*
X178306Y101970D01*
X178200Y101918D01*
X178104Y101848D01*
X178019Y101765D01*
X177949Y101670D01*
X177894Y101565D01*
X177857Y101452D01*
X177837Y101335D01*
X177836Y101216D01*
X177854Y101099D01*
X177890Y100986D01*
X177943Y100880D01*
X178012Y100784D01*
X178095Y100699D01*
X178191Y100629D01*
X178296Y100574D01*
X178408Y100537D01*
X178525Y100517D01*
X178644Y100516D01*
X178761Y100534D01*
X178874Y100572D01*
X179145Y100671D01*
X179425Y100740D01*
X179711Y100781D01*
X180000Y100795D01*
X180002Y100795D01*
Y94795D01*
X180000Y94795D01*
X179711Y94809D01*
X179425Y94851D01*
X179145Y94920D01*
X178872Y95015D01*
X178761Y95053D01*
X178644Y95071D01*
X178526Y95070D01*
X178409Y95051D01*
X178297Y95013D01*
X178193Y94959D01*
X178098Y94889D01*
X178015Y94805D01*
X177946Y94709D01*
X177893Y94603D01*
X177857Y94491D01*
X177840Y94374D01*
X177841Y94256D01*
X177860Y94139D01*
X177897Y94027D01*
X177952Y93923D01*
X178022Y93828D01*
X178106Y93745D01*
X178202Y93676D01*
X178308Y93625D01*
X178716Y93477D01*
X179137Y93373D01*
X179567Y93311D01*
X180000Y93290D01*
X180002Y93290D01*
Y22531D01*
G37*
G36*
Y12047D02*X109662D01*
Y15307D01*
X165118D01*
X165138Y15308D01*
X165157Y15307D01*
X178583D01*
X178701Y15298D01*
X179171Y15335D01*
X179172Y15335D01*
X179631Y15445D01*
X180002Y15599D01*
Y12047D01*
G37*
G36*
X109662Y133701D02*X193505D01*
Y130621D01*
X193192Y130987D01*
X192653Y131447D01*
X192049Y131817D01*
X191395Y132088D01*
X190706Y132254D01*
X190000Y132309D01*
X189294Y132254D01*
X188605Y132088D01*
X187951Y131817D01*
X187347Y131447D01*
X186808Y130987D01*
X186348Y130448D01*
X185978Y129845D01*
X185707Y129190D01*
X185542Y128501D01*
X185486Y127795D01*
X185542Y127089D01*
X185707Y126400D01*
X185978Y125746D01*
X186252Y125300D01*
X185696Y124744D01*
X184497D01*
X184500Y124795D01*
X184486Y131031D01*
X184431Y131260D01*
X184341Y131478D01*
X184217Y131680D01*
X184064Y131859D01*
X183884Y132013D01*
X183683Y132136D01*
X183465Y132226D01*
X183235Y132281D01*
X183000Y132295D01*
X176989Y132282D01*
X176950Y132306D01*
X176858Y132344D01*
X176792Y132371D01*
X176627Y132411D01*
X176457Y132425D01*
X176414Y132421D01*
X109662D01*
Y133701D01*
G37*
G36*
X73521Y16370D02*X73622Y16269D01*
X73699Y16179D01*
X74058Y15873D01*
X74058Y15873D01*
X74461Y15626D01*
X74897Y15445D01*
X75267Y15356D01*
X75356Y15335D01*
X75356D01*
X75827Y15298D01*
X75944Y15307D01*
X109662D01*
Y12047D01*
X73521D01*
Y16370D01*
G37*
G36*
X100788Y31831D02*X106146D01*
X106181Y31828D01*
X106216Y31831D01*
X108294D01*
X108760Y31365D01*
Y29799D01*
X108757Y29764D01*
X108768Y29625D01*
X108801Y29489D01*
X108854Y29360D01*
X108927Y29242D01*
X108927Y29241D01*
X109017Y29135D01*
X109044Y29113D01*
X109662Y28494D01*
Y26501D01*
X109424Y26599D01*
X109048Y26690D01*
X108661Y26720D01*
X108275Y26690D01*
X107899Y26599D01*
X107541Y26451D01*
X107211Y26249D01*
X106916Y25997D01*
X106693Y25736D01*
X106470Y25997D01*
X106175Y26249D01*
X105845Y26451D01*
X105487Y26599D01*
X105111Y26690D01*
X104724Y26720D01*
X104338Y26690D01*
X103962Y26599D01*
X103604Y26451D01*
X103274Y26249D01*
X102979Y25997D01*
X102728Y25703D01*
X102623Y25533D01*
X102580Y25523D01*
X102530Y25502D01*
X102483Y25474D01*
X102441Y25440D01*
X102405Y25398D01*
X102376Y25352D01*
X102355Y25302D01*
X102341Y25249D01*
X102336Y25195D01*
X102340Y25141D01*
X102352Y25088D01*
X102373Y25037D01*
X102380Y25022D01*
X102377Y25015D01*
X102287Y24638D01*
X102256Y24252D01*
X102287Y23866D01*
X102377Y23489D01*
X102381Y23479D01*
X102375Y23466D01*
X102354Y23416D01*
X102342Y23363D01*
X102338Y23309D01*
X102343Y23255D01*
X102356Y23202D01*
X102378Y23152D01*
X102407Y23107D01*
X102442Y23066D01*
X102484Y23031D01*
X102530Y23003D01*
X102581Y22983D01*
X102622Y22974D01*
X102728Y22801D01*
X102979Y22507D01*
X103274Y22255D01*
X103604Y22053D01*
X103962Y21905D01*
X104338Y21814D01*
X104724Y21784D01*
X105111Y21814D01*
X105487Y21905D01*
X105845Y22053D01*
X106175Y22255D01*
X106470Y22507D01*
X106693Y22768D01*
X106916Y22507D01*
X107211Y22255D01*
X107541Y22053D01*
X107899Y21905D01*
X108275Y21814D01*
X108661Y21784D01*
X109048Y21814D01*
X109424Y21905D01*
X109662Y22003D01*
Y21307D01*
X100788D01*
Y21789D01*
X101014Y21799D01*
X101238Y21830D01*
X101458Y21882D01*
X101673Y21954D01*
X101881Y22045D01*
X101927Y22072D01*
X101969Y22107D01*
X102005Y22148D01*
X102034Y22194D01*
X102056Y22244D01*
X102069Y22297D01*
X102074Y22352D01*
X102070Y22406D01*
X102058Y22459D01*
X102038Y22510D01*
X102010Y22557D01*
X101975Y22598D01*
X101934Y22634D01*
X101888Y22663D01*
X101838Y22685D01*
X101785Y22698D01*
X101730Y22703D01*
X101676Y22699D01*
X101623Y22687D01*
X101573Y22666D01*
X101425Y22599D01*
X101270Y22547D01*
X101111Y22510D01*
X100950Y22488D01*
X100788Y22480D01*
Y26024D01*
X100950Y26016D01*
X101111Y25994D01*
X101270Y25957D01*
X101425Y25905D01*
X101574Y25840D01*
X101623Y25818D01*
X101676Y25806D01*
X101730Y25803D01*
X101784Y25808D01*
X101837Y25821D01*
X101887Y25842D01*
X101933Y25871D01*
X101974Y25907D01*
X102008Y25948D01*
X102036Y25995D01*
X102056Y26045D01*
X102068Y26098D01*
X102072Y26152D01*
X102067Y26206D01*
X102054Y26259D01*
X102033Y26309D01*
X102004Y26355D01*
X101968Y26395D01*
X101926Y26430D01*
X101879Y26457D01*
X101673Y26550D01*
X101458Y26622D01*
X101238Y26674D01*
X101014Y26705D01*
X100788Y26715D01*
Y31831D01*
G37*
G36*
X73521Y30650D02*X90184D01*
X92028Y28806D01*
Y26708D01*
X91034Y26706D01*
X90928Y26681D01*
X90828Y26639D01*
X90736Y26583D01*
X90653Y26512D01*
X90583Y26430D01*
X90526Y26337D01*
X90484Y26237D01*
X90459Y26132D01*
X90453Y26024D01*
X90459Y22372D01*
X90484Y22267D01*
X90526Y22167D01*
X90583Y22074D01*
X90653Y21992D01*
X90736Y21921D01*
X90828Y21865D01*
X90928Y21823D01*
X91034Y21798D01*
X91142Y21791D01*
X94793Y21798D01*
X94899Y21823D01*
X94999Y21865D01*
X95091Y21921D01*
X95174Y21992D01*
X95244Y22074D01*
X95301Y22167D01*
X95342Y22267D01*
X95350Y22298D01*
X95400Y22255D01*
X95730Y22053D01*
X96088Y21905D01*
X96464Y21814D01*
X96850Y21784D01*
X97237Y21814D01*
X97613Y21905D01*
X97971Y22053D01*
X98301Y22255D01*
X98596Y22507D01*
X98847Y22801D01*
X98952Y22971D01*
X98995Y22981D01*
X99045Y23002D01*
X99092Y23029D01*
X99134Y23064D01*
X99170Y23105D01*
X99199Y23152D01*
X99220Y23202D01*
X99234Y23255D01*
X99238Y23309D01*
X99235Y23363D01*
X99223Y23416D01*
X99201Y23467D01*
X99195Y23482D01*
X99198Y23489D01*
X99288Y23866D01*
X99311Y24252D01*
X99288Y24638D01*
X99198Y25015D01*
X99194Y25025D01*
X99200Y25038D01*
X99221Y25088D01*
X99233Y25141D01*
X99237Y25195D01*
X99232Y25249D01*
X99218Y25302D01*
X99197Y25351D01*
X99168Y25397D01*
X99133Y25438D01*
X99091Y25473D01*
X99044Y25501D01*
X98994Y25521D01*
X98953Y25530D01*
X98847Y25703D01*
X98596Y25997D01*
X98301Y26249D01*
X97971Y26451D01*
X97613Y26599D01*
X97237Y26690D01*
X96850Y26720D01*
X96464Y26690D01*
X96088Y26599D01*
X95730Y26451D01*
X95400Y26249D01*
X95350Y26206D01*
X95342Y26237D01*
X95301Y26337D01*
X95244Y26430D01*
X95174Y26512D01*
X95091Y26583D01*
X94999Y26639D01*
X94899Y26681D01*
X94793Y26706D01*
X94685Y26713D01*
X93799Y26711D01*
Y29138D01*
X93802Y29173D01*
X93791Y29312D01*
X93758Y29448D01*
X93705Y29577D01*
X93632Y29696D01*
X93632Y29696D01*
X93542Y29802D01*
X93515Y29824D01*
X91509Y31831D01*
X100788D01*
Y26715D01*
X100787Y26715D01*
X100561Y26705D01*
X100337Y26674D01*
X100116Y26622D01*
X99902Y26550D01*
X99694Y26459D01*
X99647Y26432D01*
X99605Y26397D01*
X99570Y26356D01*
X99541Y26310D01*
X99519Y26259D01*
X99506Y26207D01*
X99501Y26152D01*
X99505Y26098D01*
X99517Y26045D01*
X99537Y25994D01*
X99565Y25947D01*
X99600Y25905D01*
X99641Y25870D01*
X99687Y25841D01*
X99737Y25819D01*
X99790Y25806D01*
X99844Y25801D01*
X99899Y25805D01*
X99952Y25817D01*
X100002Y25838D01*
X100150Y25905D01*
X100305Y25957D01*
X100463Y25994D01*
X100625Y26016D01*
X100787Y26024D01*
X100788Y26024D01*
Y22480D01*
X100787Y22480D01*
X100625Y22488D01*
X100463Y22510D01*
X100305Y22547D01*
X100150Y22599D01*
X100001Y22664D01*
X99951Y22685D01*
X99898Y22698D01*
X99844Y22701D01*
X99790Y22696D01*
X99738Y22683D01*
X99688Y22662D01*
X99642Y22633D01*
X99601Y22597D01*
X99566Y22556D01*
X99539Y22509D01*
X99518Y22459D01*
X99506Y22406D01*
X99503Y22352D01*
X99508Y22298D01*
X99521Y22245D01*
X99542Y22195D01*
X99571Y22149D01*
X99607Y22109D01*
X99648Y22074D01*
X99695Y22047D01*
X99902Y21954D01*
X100116Y21882D01*
X100337Y21830D01*
X100561Y21799D01*
X100787Y21789D01*
X100788Y21789D01*
Y21307D01*
X77069D01*
X73521Y24856D01*
Y30650D01*
G37*
G36*
Y84194D02*X76730D01*
X76772Y84190D01*
X76942Y84204D01*
X76942Y84204D01*
X77108Y84243D01*
X77265Y84309D01*
X77411Y84398D01*
X77411Y84398D01*
X77411Y84398D01*
X77411Y84398D01*
X77540Y84508D01*
X77568Y84541D01*
X80687Y87660D01*
X80687Y87660D01*
X84615Y91587D01*
X84843Y91569D01*
X85120Y91591D01*
X85392Y91656D01*
X85649Y91763D01*
X85887Y91909D01*
X86099Y92090D01*
X86280Y92302D01*
X86426Y92540D01*
X86516Y92757D01*
Y79602D01*
X86513Y79567D01*
X86524Y79428D01*
X86556Y79292D01*
X86610Y79164D01*
X86683Y79045D01*
X86683Y79045D01*
X86773Y78939D01*
X86800Y78916D01*
X87759Y77956D01*
X87680Y77976D01*
X87402Y77997D01*
X87124Y77976D01*
X86852Y77911D01*
X86595Y77804D01*
X86357Y77658D01*
X86145Y77477D01*
X85964Y77265D01*
X85818Y77027D01*
X85712Y76770D01*
X85646Y76498D01*
X85625Y76220D01*
X85646Y75942D01*
X85712Y75671D01*
X85818Y75414D01*
X85964Y75176D01*
X86145Y74964D01*
X86357Y74783D01*
X86595Y74637D01*
X86852Y74530D01*
X87124Y74465D01*
X87402Y74443D01*
X87680Y74465D01*
X87951Y74530D01*
X88208Y74637D01*
X88446Y74783D01*
X88658Y74964D01*
X88806Y75138D01*
X91437Y72507D01*
Y66942D01*
X89862Y65367D01*
Y67599D01*
X90021Y67696D01*
X90233Y67877D01*
X90414Y68089D01*
X90560Y68327D01*
X90666Y68585D01*
X90731Y68856D01*
X90748Y69134D01*
X90731Y69412D01*
X90666Y69683D01*
X90560Y69941D01*
X90414Y70178D01*
X90233Y70390D01*
X90021Y70571D01*
X89783Y70717D01*
X89525Y70824D01*
X89254Y70889D01*
X88976Y70911D01*
X88698Y70889D01*
X88427Y70824D01*
X88170Y70717D01*
X87932Y70571D01*
X87720Y70390D01*
X87539Y70178D01*
X87393Y69941D01*
X87286Y69683D01*
X87221Y69412D01*
X87199Y69134D01*
X87221Y68856D01*
X87286Y68585D01*
X87393Y68327D01*
X87539Y68089D01*
X87720Y67877D01*
X87932Y67696D01*
X88091Y67599D01*
Y65367D01*
X82901Y60177D01*
X80743D01*
X80709Y60180D01*
X80570Y60169D01*
X80434Y60136D01*
X80305Y60083D01*
X80186Y60010D01*
X80186Y60010D01*
X80080Y59920D01*
X80058Y59893D01*
X78729Y58564D01*
X78702Y58542D01*
X78612Y58436D01*
X78539Y58317D01*
X78486Y58188D01*
X78453Y58052D01*
X78442Y57913D01*
X78445Y57879D01*
Y55721D01*
X74043Y51319D01*
X73521D01*
Y71594D01*
X83634D01*
X83783Y71421D01*
X83995Y71240D01*
X84233Y71094D01*
X84490Y70987D01*
X84761Y70922D01*
X85039Y70900D01*
X85317Y70922D01*
X85588Y70987D01*
X85846Y71094D01*
X86084Y71240D01*
X86296Y71421D01*
X86477Y71633D01*
X86623Y71870D01*
X86729Y72128D01*
X86794Y72399D01*
X86811Y72677D01*
X86794Y72955D01*
X86729Y73226D01*
X86623Y73484D01*
X86477Y73722D01*
X86296Y73934D01*
X86084Y74115D01*
X85846Y74260D01*
X85588Y74367D01*
X85317Y74432D01*
X85039Y74454D01*
X84761Y74432D01*
X84490Y74367D01*
X84233Y74260D01*
X83995Y74115D01*
X83783Y73934D01*
X83634Y73760D01*
X73521D01*
Y84194D01*
G37*
G36*
Y105882D02*X79530Y105887D01*
X79620Y105908D01*
X79706Y105944D01*
X79786Y105993D01*
X79856Y106053D01*
X79917Y106124D01*
X79965Y106203D01*
X80001Y106289D01*
X80023Y106379D01*
X80028Y106472D01*
X80023Y117794D01*
X80001Y117884D01*
X79965Y117970D01*
X79917Y118049D01*
X79856Y118120D01*
X79786Y118181D01*
X79706Y118229D01*
X79620Y118265D01*
X79530Y118287D01*
X79437Y118292D01*
X73521Y118287D01*
Y123390D01*
X79206Y129075D01*
X84000D01*
X78574Y123649D01*
X78346Y123667D01*
X78068Y123645D01*
X77797Y123580D01*
X77540Y123473D01*
X77302Y123327D01*
X77090Y123146D01*
X76909Y122934D01*
X76763Y122697D01*
X76656Y122439D01*
X76591Y122168D01*
X76569Y121890D01*
X76591Y121612D01*
X76656Y121341D01*
X76763Y121083D01*
X76909Y120845D01*
X77090Y120633D01*
X77302Y120452D01*
X77540Y120306D01*
X77797Y120200D01*
X78068Y120135D01*
X78346Y120113D01*
X78624Y120135D01*
X78896Y120200D01*
X79153Y120306D01*
X79391Y120452D01*
X79603Y120633D01*
X79784Y120845D01*
X79930Y121083D01*
X80036Y121341D01*
X80102Y121612D01*
X80118Y121890D01*
X80105Y122117D01*
X85488Y127500D01*
X86057D01*
X85986Y127439D01*
X85963Y127413D01*
X84634Y126084D01*
X84608Y126061D01*
X84517Y125955D01*
X84445Y125836D01*
X84391Y125708D01*
X84359Y125572D01*
X84348Y125433D01*
X84350Y125398D01*
Y123696D01*
X84348Y123661D01*
X84359Y123522D01*
X84391Y123387D01*
X84445Y123258D01*
X84517Y123139D01*
X84517Y123139D01*
X84608Y123033D01*
X84634Y123011D01*
X85256Y122389D01*
Y118289D01*
X82753Y118287D01*
X82663Y118265D01*
X82577Y118229D01*
X82498Y118181D01*
X82427Y118120D01*
X82367Y118049D01*
X82318Y117970D01*
X82282Y117884D01*
X82261Y117794D01*
X82255Y117701D01*
X82261Y106379D01*
X82282Y106289D01*
X82318Y106203D01*
X82367Y106124D01*
X82427Y106053D01*
X82498Y105993D01*
X82577Y105944D01*
X82663Y105908D01*
X82753Y105887D01*
X82846Y105881D01*
X89469Y105887D01*
Y105524D01*
X89200Y105256D01*
X83106D01*
X83071Y105259D01*
X82932Y105248D01*
X82796Y105215D01*
X82667Y105162D01*
X82549Y105089D01*
X82548Y105089D01*
X82443Y104998D01*
X82420Y104972D01*
X79713Y102265D01*
X79687Y102242D01*
X79596Y102136D01*
X79523Y102018D01*
X79470Y101889D01*
X79437Y101753D01*
X79426Y101614D01*
X79429Y101579D01*
Y98499D01*
X79426Y98465D01*
X79437Y98326D01*
X79470Y98190D01*
X79523Y98061D01*
X79596Y97942D01*
X79596Y97942D01*
X79687Y97836D01*
X79713Y97814D01*
X81436Y96091D01*
X81458Y96065D01*
X81564Y95974D01*
X81564Y95974D01*
X81683Y95901D01*
X81812Y95848D01*
X81948Y95815D01*
X82087Y95804D01*
X82121Y95807D01*
X85657D01*
X86516Y94948D01*
Y93936D01*
X86426Y94153D01*
X86280Y94391D01*
X86099Y94603D01*
X85887Y94784D01*
X85649Y94930D01*
X85392Y95036D01*
X85120Y95102D01*
X84843Y95123D01*
X84565Y95102D01*
X84293Y95036D01*
X84036Y94930D01*
X83798Y94784D01*
X83586Y94603D01*
X83405Y94391D01*
X83259Y94153D01*
X83153Y93896D01*
X83087Y93624D01*
X83066Y93346D01*
X83083Y93119D01*
X79156Y89191D01*
X79156Y89191D01*
X76324Y86359D01*
X73521D01*
Y97116D01*
X75164Y95473D01*
X75082Y95274D01*
X75017Y95002D01*
X74995Y94724D01*
X75017Y94446D01*
X75082Y94175D01*
X75188Y93918D01*
X75334Y93680D01*
X75515Y93468D01*
X75727Y93287D01*
X75965Y93141D01*
X76223Y93034D01*
X76494Y92969D01*
X76772Y92947D01*
X77050Y92969D01*
X77321Y93034D01*
X77578Y93141D01*
X77816Y93287D01*
X78028Y93468D01*
X78209Y93680D01*
X78355Y93918D01*
X78462Y94175D01*
X78527Y94446D01*
X78543Y94724D01*
X78527Y95002D01*
X78462Y95274D01*
X78355Y95531D01*
X78209Y95769D01*
X78028Y95981D01*
X77816Y96162D01*
X77578Y96308D01*
X77321Y96414D01*
X77050Y96480D01*
X76772Y96501D01*
X76651Y96492D01*
X73521Y99622D01*
Y105882D01*
G37*
G36*
Y130256D02*X77881D01*
X73521Y125896D01*
Y130256D01*
G37*
G36*
Y133701D02*X109662D01*
Y132421D01*
X73521D01*
Y133701D01*
G37*
G36*
Y118287D02*X72753Y118287D01*
X72663Y118265D01*
X72577Y118229D01*
X72498Y118181D01*
X72427Y118120D01*
X72367Y118049D01*
X72318Y117970D01*
X72282Y117884D01*
X72261Y117794D01*
X72255Y117701D01*
X72256Y115552D01*
X68969Y118839D01*
X73521Y123390D01*
Y118287D01*
G37*
G36*
X66537Y21599D02*X66678D01*
X66962Y21574D01*
X67243Y21525D01*
X67518Y21450D01*
X67786Y21352D01*
X68045Y21231D01*
X68291Y21088D01*
X68345Y21058D01*
X68404Y21038D01*
X68465Y21027D01*
X68527Y21026D01*
X68588Y21034D01*
X68648Y21052D01*
X68703Y21079D01*
X68754Y21114D01*
X68766Y21126D01*
X69312Y20579D01*
X69301Y20567D01*
X69265Y20516D01*
X69238Y20460D01*
X69220Y20400D01*
X69211Y20338D01*
X69213Y20276D01*
X69224Y20214D01*
X69244Y20155D01*
X69275Y20101D01*
X69420Y19856D01*
X69541Y19597D01*
X69639Y19330D01*
X69714Y19054D01*
X69763Y18773D01*
X69788Y18489D01*
Y18204D01*
X69763Y17920D01*
X69714Y17639D01*
X69639Y17363D01*
X69541Y17096D01*
X69420Y16837D01*
X69277Y16590D01*
X69247Y16536D01*
X69227Y16478D01*
X69216Y16417D01*
X69215Y16355D01*
X69223Y16294D01*
X69241Y16234D01*
X69268Y16178D01*
X69303Y16128D01*
X69346Y16083D01*
X69396Y16046D01*
X69450Y16016D01*
X69509Y15996D01*
X69570Y15985D01*
X69632Y15984D01*
X69693Y15992D01*
X69753Y16010D01*
X69808Y16037D01*
X69859Y16073D01*
X69904Y16116D01*
X69940Y16166D01*
X70122Y16470D01*
X70272Y16791D01*
X70394Y17124D01*
X70486Y17467D01*
X70548Y17816D01*
X70579Y18169D01*
Y18524D01*
X70548Y18877D01*
X70486Y19226D01*
X70420Y19471D01*
X73521Y16370D01*
Y12047D01*
X66537D01*
Y14303D01*
X66713D01*
X67066Y14334D01*
X67415Y14396D01*
X67757Y14488D01*
X68090Y14610D01*
X68412Y14760D01*
X68718Y14938D01*
X68768Y14976D01*
X68812Y15021D01*
X68847Y15072D01*
X68874Y15128D01*
X68893Y15188D01*
X68901Y15250D01*
X68900Y15312D01*
X68889Y15374D01*
X68868Y15433D01*
X68839Y15488D01*
X68801Y15538D01*
X68756Y15581D01*
X68705Y15617D01*
X68649Y15644D01*
X68589Y15662D01*
X68527Y15670D01*
X68465Y15669D01*
X68403Y15658D01*
X68344Y15638D01*
X68290Y15607D01*
X68045Y15461D01*
X67786Y15340D01*
X67518Y15243D01*
X67243Y15168D01*
X66962Y15119D01*
X66678Y15094D01*
X66537D01*
Y21599D01*
G37*
G36*
Y23354D02*X67660Y22231D01*
X67415Y22297D01*
X67066Y22359D01*
X66713Y22390D01*
X66537D01*
Y23354D01*
G37*
G36*
X58661Y35538D02*X58723Y35564D01*
X58857Y35646D01*
X58977Y35748D01*
X59008Y35785D01*
Y32244D01*
X58999Y32126D01*
X59036Y31655D01*
Y31655D01*
X59057Y31566D01*
X59146Y31196D01*
X59327Y30760D01*
X59573Y30357D01*
X59573Y30357D01*
X59880Y29998D01*
X59970Y29922D01*
X66537Y23354D01*
Y22390D01*
X66358D01*
X66005Y22359D01*
X65656Y22297D01*
X65313Y22205D01*
X64980Y22083D01*
X64659Y21933D01*
X64353Y21755D01*
X64303Y21717D01*
X64259Y21672D01*
X64224Y21621D01*
X64196Y21565D01*
X64178Y21505D01*
X64170Y21443D01*
X64171Y21381D01*
X64182Y21319D01*
X64202Y21260D01*
X64232Y21205D01*
X64270Y21155D01*
X64315Y21112D01*
X64366Y21076D01*
X64422Y21049D01*
X64482Y21031D01*
X64544Y21022D01*
X64606Y21024D01*
X64668Y21035D01*
X64727Y21055D01*
X64781Y21086D01*
X65026Y21231D01*
X65284Y21352D01*
X65552Y21450D01*
X65828Y21525D01*
X66109Y21574D01*
X66393Y21599D01*
X66537D01*
Y15094D01*
X66393D01*
X66109Y15119D01*
X65828Y15168D01*
X65552Y15243D01*
X65284Y15340D01*
X65026Y15461D01*
X64779Y15605D01*
X64725Y15635D01*
X64667Y15655D01*
X64606Y15666D01*
X64544Y15667D01*
X64483Y15659D01*
X64423Y15641D01*
X64367Y15614D01*
X64317Y15578D01*
X64272Y15535D01*
X64235Y15486D01*
X64205Y15431D01*
X64185Y15373D01*
X64174Y15312D01*
X64173Y15250D01*
X64181Y15189D01*
X64199Y15129D01*
X64226Y15073D01*
X64262Y15023D01*
X64305Y14978D01*
X64355Y14941D01*
X64659Y14760D01*
X64980Y14610D01*
X65313Y14488D01*
X65656Y14396D01*
X66005Y14334D01*
X66358Y14303D01*
X66537D01*
Y12047D01*
X58661D01*
Y14307D01*
X62041Y14310D01*
X62161Y14339D01*
X62276Y14387D01*
X62382Y14451D01*
X62476Y14532D01*
X62556Y14626D01*
X62621Y14732D01*
X62669Y14846D01*
X62698Y14967D01*
X62705Y15091D01*
X62703Y17054D01*
X62799Y16791D01*
X62949Y16470D01*
X63127Y16164D01*
X63165Y16114D01*
X63210Y16070D01*
X63261Y16035D01*
X63317Y16007D01*
X63377Y15989D01*
X63439Y15981D01*
X63501Y15982D01*
X63563Y15993D01*
X63622Y16013D01*
X63677Y16043D01*
X63727Y16081D01*
X63770Y16126D01*
X63806Y16177D01*
X63833Y16233D01*
X63851Y16293D01*
X63859Y16355D01*
X63858Y16417D01*
X63847Y16479D01*
X63827Y16538D01*
X63796Y16592D01*
X63650Y16837D01*
X63529Y17096D01*
X63431Y17363D01*
X63357Y17639D01*
X63308Y17920D01*
X63283Y18204D01*
Y18489D01*
X63308Y18773D01*
X63357Y19054D01*
X63431Y19330D01*
X63529Y19597D01*
X63650Y19856D01*
X63794Y20102D01*
X63824Y20156D01*
X63844Y20215D01*
X63855Y20276D01*
X63856Y20338D01*
X63848Y20399D01*
X63830Y20459D01*
X63803Y20514D01*
X63767Y20565D01*
X63724Y20610D01*
X63675Y20647D01*
X63620Y20677D01*
X63562Y20697D01*
X63501Y20708D01*
X63439Y20709D01*
X63377Y20701D01*
X63318Y20683D01*
X63262Y20656D01*
X63212Y20620D01*
X63167Y20577D01*
X63130Y20527D01*
X62949Y20223D01*
X62799Y19901D01*
X62700Y19631D01*
X62698Y21726D01*
X62669Y21846D01*
X62621Y21961D01*
X62556Y22067D01*
X62476Y22161D01*
X62382Y22241D01*
X62276Y22306D01*
X62161Y22354D01*
X62041Y22383D01*
X61917Y22390D01*
X58661Y22386D01*
Y35538D01*
G37*
G36*
X50789Y35458D02*X53248Y35461D01*
Y35106D01*
X53074Y34957D01*
X52893Y34745D01*
X52747Y34508D01*
X52641Y34250D01*
X52576Y33979D01*
X52554Y33701D01*
X52576Y33423D01*
X52641Y33152D01*
X52747Y32894D01*
X52893Y32656D01*
X53074Y32444D01*
X53286Y32263D01*
X53524Y32117D01*
X53782Y32011D01*
X54053Y31946D01*
X54331Y31924D01*
X54609Y31946D01*
X54880Y32011D01*
X55137Y32117D01*
X55375Y32263D01*
X55587Y32444D01*
X55768Y32656D01*
X55914Y32894D01*
X56021Y33152D01*
X56086Y33423D01*
X56102Y33701D01*
X56086Y33979D01*
X56021Y34250D01*
X55914Y34508D01*
X55768Y34745D01*
X55587Y34957D01*
X55413Y35106D01*
Y35463D01*
X58424Y35467D01*
X58578Y35504D01*
X58661Y35538D01*
Y22386D01*
X55282Y22383D01*
X55161Y22354D01*
X55047Y22306D01*
X54941Y22241D01*
X54847Y22161D01*
X54766Y22067D01*
X54702Y21961D01*
X54654Y21846D01*
X54625Y21726D01*
X54618Y21602D01*
X54620Y19639D01*
X54524Y19901D01*
X54374Y20223D01*
X54196Y20529D01*
X54158Y20579D01*
X54113Y20623D01*
X54062Y20658D01*
X54006Y20686D01*
X53946Y20704D01*
X53884Y20712D01*
X53822Y20711D01*
X53760Y20700D01*
X53701Y20679D01*
X53646Y20650D01*
X53596Y20612D01*
X53553Y20567D01*
X53517Y20516D01*
X53490Y20460D01*
X53472Y20400D01*
X53463Y20338D01*
X53465Y20276D01*
X53476Y20214D01*
X53496Y20155D01*
X53527Y20101D01*
X53672Y19856D01*
X53793Y19597D01*
X53891Y19330D01*
X53965Y19054D01*
X54015Y18773D01*
X54040Y18489D01*
Y18204D01*
X54015Y17920D01*
X53965Y17639D01*
X53891Y17363D01*
X53793Y17096D01*
X53672Y16837D01*
X53529Y16590D01*
X53499Y16536D01*
X53479Y16478D01*
X53468Y16417D01*
X53467Y16355D01*
X53475Y16294D01*
X53493Y16234D01*
X53520Y16178D01*
X53555Y16128D01*
X53598Y16083D01*
X53648Y16046D01*
X53702Y16016D01*
X53761Y15996D01*
X53822Y15985D01*
X53884Y15984D01*
X53945Y15992D01*
X54005Y16010D01*
X54060Y16037D01*
X54111Y16073D01*
X54156Y16116D01*
X54192Y16166D01*
X54374Y16470D01*
X54524Y16791D01*
X54623Y17062D01*
X54625Y14967D01*
X54654Y14846D01*
X54702Y14732D01*
X54766Y14626D01*
X54847Y14532D01*
X54941Y14451D01*
X55047Y14387D01*
X55161Y14339D01*
X55282Y14310D01*
X55406Y14303D01*
X58661Y14307D01*
Y12047D01*
X50789D01*
Y14303D01*
X50965D01*
X51318Y14334D01*
X51667Y14396D01*
X52009Y14488D01*
X52342Y14610D01*
X52663Y14760D01*
X52970Y14938D01*
X53020Y14976D01*
X53064Y15021D01*
X53099Y15072D01*
X53126Y15128D01*
X53145Y15188D01*
X53153Y15250D01*
X53152Y15312D01*
X53141Y15374D01*
X53120Y15433D01*
X53091Y15488D01*
X53053Y15538D01*
X53008Y15581D01*
X52957Y15617D01*
X52901Y15644D01*
X52841Y15662D01*
X52779Y15670D01*
X52717Y15669D01*
X52655Y15658D01*
X52596Y15638D01*
X52542Y15607D01*
X52297Y15461D01*
X52038Y15340D01*
X51770Y15243D01*
X51495Y15168D01*
X51214Y15119D01*
X50930Y15094D01*
X50789D01*
Y21599D01*
X50930D01*
X51214Y21574D01*
X51495Y21525D01*
X51770Y21450D01*
X52038Y21352D01*
X52297Y21231D01*
X52543Y21088D01*
X52597Y21058D01*
X52656Y21038D01*
X52717Y21027D01*
X52779Y21026D01*
X52840Y21034D01*
X52900Y21052D01*
X52955Y21079D01*
X53006Y21114D01*
X53051Y21157D01*
X53088Y21207D01*
X53118Y21261D01*
X53138Y21320D01*
X53149Y21381D01*
X53150Y21443D01*
X53142Y21504D01*
X53124Y21564D01*
X53097Y21619D01*
X53061Y21670D01*
X53018Y21715D01*
X52968Y21751D01*
X52663Y21933D01*
X52342Y22083D01*
X52009Y22205D01*
X51667Y22297D01*
X51318Y22359D01*
X50965Y22390D01*
X50789D01*
Y35458D01*
G37*
G36*
X42913Y26414D02*X43350Y26788D01*
X44687Y28356D01*
X45761Y30114D01*
X46548Y32019D01*
X47027Y34023D01*
X47146Y36077D01*
X47145Y36767D01*
X49796D01*
X49797Y36301D01*
X49834Y36148D01*
X49894Y36002D01*
X49976Y35868D01*
X50078Y35748D01*
X50198Y35646D01*
X50332Y35564D01*
X50478Y35504D01*
X50631Y35467D01*
X50788Y35458D01*
X50789D01*
Y22390D01*
X50610D01*
X50257Y22359D01*
X49908Y22297D01*
X49565Y22205D01*
X49232Y22083D01*
X48911Y21933D01*
X48605Y21755D01*
X48555Y21717D01*
X48511Y21672D01*
X48476Y21621D01*
X48448Y21565D01*
X48430Y21505D01*
X48422Y21443D01*
X48423Y21381D01*
X48434Y21319D01*
X48454Y21260D01*
X48484Y21205D01*
X48522Y21155D01*
X48567Y21112D01*
X48618Y21076D01*
X48674Y21049D01*
X48734Y21031D01*
X48796Y21022D01*
X48858Y21024D01*
X48920Y21035D01*
X48979Y21055D01*
X49033Y21086D01*
X49278Y21231D01*
X49536Y21352D01*
X49804Y21450D01*
X50080Y21525D01*
X50361Y21574D01*
X50645Y21599D01*
X50789D01*
Y15094D01*
X50645D01*
X50361Y15119D01*
X50080Y15168D01*
X49804Y15243D01*
X49536Y15340D01*
X49278Y15461D01*
X49031Y15605D01*
X48977Y15635D01*
X48919Y15655D01*
X48858Y15666D01*
X48796Y15667D01*
X48735Y15659D01*
X48675Y15641D01*
X48619Y15614D01*
X48569Y15578D01*
X48524Y15535D01*
X48486Y15486D01*
X48457Y15431D01*
X48437Y15373D01*
X48426Y15312D01*
X48425Y15250D01*
X48433Y15189D01*
X48451Y15129D01*
X48478Y15073D01*
X48514Y15023D01*
X48557Y14978D01*
X48607Y14941D01*
X48911Y14760D01*
X49232Y14610D01*
X49565Y14488D01*
X49908Y14396D01*
X50257Y14334D01*
X50610Y14303D01*
X50789D01*
Y12047D01*
X42913D01*
Y14307D01*
X46293Y14310D01*
X46413Y14339D01*
X46528Y14387D01*
X46634Y14451D01*
X46728Y14532D01*
X46808Y14626D01*
X46873Y14732D01*
X46921Y14846D01*
X46949Y14967D01*
X46957Y15091D01*
X46955Y17054D01*
X47051Y16791D01*
X47201Y16470D01*
X47379Y16164D01*
X47416Y16114D01*
X47462Y16070D01*
X47513Y16035D01*
X47569Y16007D01*
X47629Y15989D01*
X47691Y15981D01*
X47753Y15982D01*
X47815Y15993D01*
X47874Y16013D01*
X47929Y16043D01*
X47979Y16081D01*
X48022Y16126D01*
X48058Y16177D01*
X48085Y16233D01*
X48103Y16293D01*
X48111Y16355D01*
X48110Y16417D01*
X48099Y16479D01*
X48079Y16538D01*
X48048Y16592D01*
X47902Y16837D01*
X47781Y17096D01*
X47683Y17363D01*
X47609Y17639D01*
X47560Y17920D01*
X47535Y18204D01*
Y18489D01*
X47560Y18773D01*
X47609Y19054D01*
X47683Y19330D01*
X47781Y19597D01*
X47902Y19856D01*
X48046Y20102D01*
X48076Y20156D01*
X48096Y20215D01*
X48107Y20276D01*
X48108Y20338D01*
X48100Y20399D01*
X48082Y20459D01*
X48055Y20514D01*
X48019Y20565D01*
X47976Y20610D01*
X47927Y20647D01*
X47872Y20677D01*
X47814Y20697D01*
X47753Y20708D01*
X47691Y20709D01*
X47629Y20701D01*
X47570Y20683D01*
X47514Y20656D01*
X47464Y20620D01*
X47419Y20577D01*
X47382Y20527D01*
X47201Y20223D01*
X47051Y19901D01*
X46952Y19631D01*
X46949Y21726D01*
X46921Y21846D01*
X46873Y21961D01*
X46808Y22067D01*
X46728Y22161D01*
X46634Y22241D01*
X46528Y22306D01*
X46413Y22354D01*
X46293Y22383D01*
X46169Y22390D01*
X42913Y22386D01*
Y26414D01*
G37*
G36*
X35041Y23010D02*X36123Y23096D01*
X38126Y23579D01*
X40029Y24370D01*
X41785Y25448D01*
X42913Y26414D01*
Y22386D01*
X39534Y22383D01*
X39413Y22354D01*
X39299Y22306D01*
X39193Y22241D01*
X39099Y22161D01*
X39018Y22067D01*
X38954Y21961D01*
X38906Y21846D01*
X38877Y21726D01*
X38870Y21602D01*
X38872Y19639D01*
X38776Y19901D01*
X38626Y20223D01*
X38448Y20529D01*
X38410Y20579D01*
X38365Y20623D01*
X38314Y20658D01*
X38258Y20686D01*
X38198Y20704D01*
X38136Y20712D01*
X38074Y20711D01*
X38012Y20700D01*
X37953Y20679D01*
X37898Y20650D01*
X37848Y20612D01*
X37805Y20567D01*
X37769Y20516D01*
X37742Y20460D01*
X37724Y20400D01*
X37715Y20338D01*
X37717Y20276D01*
X37728Y20214D01*
X37748Y20155D01*
X37779Y20101D01*
X37924Y19856D01*
X38045Y19597D01*
X38143Y19330D01*
X38217Y19054D01*
X38267Y18773D01*
X38292Y18489D01*
Y18204D01*
X38267Y17920D01*
X38217Y17639D01*
X38143Y17363D01*
X38045Y17096D01*
X37924Y16837D01*
X37781Y16590D01*
X37751Y16536D01*
X37731Y16478D01*
X37720Y16417D01*
X37718Y16355D01*
X37727Y16294D01*
X37745Y16234D01*
X37772Y16178D01*
X37807Y16128D01*
X37850Y16083D01*
X37900Y16046D01*
X37954Y16016D01*
X38013Y15996D01*
X38074Y15985D01*
X38136Y15984D01*
X38197Y15992D01*
X38257Y16010D01*
X38312Y16037D01*
X38363Y16073D01*
X38408Y16116D01*
X38444Y16166D01*
X38626Y16470D01*
X38776Y16791D01*
X38875Y17062D01*
X38877Y14967D01*
X38906Y14846D01*
X38954Y14732D01*
X39018Y14626D01*
X39099Y14532D01*
X39193Y14451D01*
X39299Y14387D01*
X39413Y14339D01*
X39534Y14310D01*
X39657Y14303D01*
X42913Y14307D01*
Y12047D01*
X35041D01*
Y14303D01*
X35217D01*
X35570Y14334D01*
X35919Y14396D01*
X36261Y14488D01*
X36594Y14610D01*
X36915Y14760D01*
X37222Y14938D01*
X37272Y14976D01*
X37315Y15021D01*
X37351Y15072D01*
X37378Y15128D01*
X37397Y15188D01*
X37405Y15250D01*
X37404Y15312D01*
X37393Y15374D01*
X37372Y15433D01*
X37343Y15488D01*
X37305Y15538D01*
X37260Y15581D01*
X37209Y15617D01*
X37153Y15644D01*
X37093Y15662D01*
X37031Y15670D01*
X36969Y15669D01*
X36907Y15658D01*
X36848Y15638D01*
X36794Y15607D01*
X36549Y15461D01*
X36290Y15340D01*
X36022Y15243D01*
X35747Y15168D01*
X35466Y15119D01*
X35182Y15094D01*
X35041D01*
Y21599D01*
X35182D01*
X35466Y21574D01*
X35747Y21525D01*
X36022Y21450D01*
X36290Y21352D01*
X36549Y21231D01*
X36795Y21088D01*
X36849Y21058D01*
X36908Y21038D01*
X36969Y21027D01*
X37031Y21026D01*
X37092Y21034D01*
X37152Y21052D01*
X37207Y21079D01*
X37258Y21114D01*
X37303Y21157D01*
X37340Y21207D01*
X37370Y21261D01*
X37390Y21320D01*
X37401Y21381D01*
X37402Y21443D01*
X37393Y21504D01*
X37376Y21564D01*
X37348Y21619D01*
X37313Y21670D01*
X37270Y21715D01*
X37220Y21751D01*
X36915Y21933D01*
X36594Y22083D01*
X36261Y22205D01*
X35919Y22297D01*
X35570Y22359D01*
X35217Y22390D01*
X35041D01*
Y23010D01*
G37*
G36*
X27743Y24579D02*X28106Y24357D01*
X30011Y23570D01*
X32015Y23092D01*
X34069Y22932D01*
X35041Y23010D01*
Y22390D01*
X34862D01*
X34509Y22359D01*
X34160Y22297D01*
X33817Y22205D01*
X33484Y22083D01*
X33163Y21933D01*
X32857Y21755D01*
X32807Y21717D01*
X32763Y21672D01*
X32728Y21621D01*
X32700Y21565D01*
X32682Y21505D01*
X32674Y21443D01*
X32675Y21381D01*
X32686Y21319D01*
X32706Y21260D01*
X32736Y21205D01*
X32774Y21155D01*
X32819Y21112D01*
X32870Y21076D01*
X32926Y21049D01*
X32986Y21031D01*
X33048Y21022D01*
X33110Y21024D01*
X33172Y21035D01*
X33231Y21055D01*
X33285Y21086D01*
X33530Y21231D01*
X33788Y21352D01*
X34056Y21450D01*
X34332Y21525D01*
X34613Y21574D01*
X34897Y21599D01*
X35041D01*
Y15094D01*
X34897D01*
X34613Y15119D01*
X34332Y15168D01*
X34056Y15243D01*
X33788Y15340D01*
X33530Y15461D01*
X33283Y15605D01*
X33229Y15635D01*
X33171Y15655D01*
X33110Y15666D01*
X33048Y15667D01*
X32986Y15659D01*
X32927Y15641D01*
X32871Y15614D01*
X32821Y15578D01*
X32776Y15535D01*
X32738Y15486D01*
X32709Y15431D01*
X32689Y15373D01*
X32678Y15312D01*
X32677Y15250D01*
X32685Y15189D01*
X32703Y15129D01*
X32730Y15073D01*
X32766Y15023D01*
X32809Y14978D01*
X32859Y14941D01*
X33163Y14760D01*
X33484Y14610D01*
X33817Y14488D01*
X34160Y14396D01*
X34509Y14334D01*
X34862Y14303D01*
X35041D01*
Y12047D01*
X27743D01*
Y14307D01*
X30545Y14310D01*
X30665Y14339D01*
X30780Y14387D01*
X30886Y14451D01*
X30980Y14532D01*
X31060Y14626D01*
X31125Y14732D01*
X31173Y14846D01*
X31201Y14967D01*
X31209Y15091D01*
X31207Y17054D01*
X31303Y16791D01*
X31453Y16470D01*
X31631Y16164D01*
X31668Y16114D01*
X31713Y16070D01*
X31765Y16035D01*
X31821Y16007D01*
X31881Y15989D01*
X31943Y15981D01*
X32005Y15982D01*
X32067Y15993D01*
X32126Y16013D01*
X32181Y16043D01*
X32230Y16081D01*
X32274Y16126D01*
X32309Y16177D01*
X32337Y16233D01*
X32355Y16293D01*
X32363Y16355D01*
X32362Y16417D01*
X32351Y16479D01*
X32331Y16538D01*
X32300Y16592D01*
X32154Y16837D01*
X32033Y17096D01*
X31935Y17363D01*
X31861Y17639D01*
X31812Y17920D01*
X31787Y18204D01*
Y18489D01*
X31812Y18773D01*
X31861Y19054D01*
X31935Y19330D01*
X32033Y19597D01*
X32154Y19856D01*
X32298Y20102D01*
X32328Y20156D01*
X32348Y20215D01*
X32359Y20276D01*
X32360Y20338D01*
X32352Y20399D01*
X32334Y20459D01*
X32307Y20514D01*
X32271Y20565D01*
X32228Y20610D01*
X32179Y20647D01*
X32124Y20677D01*
X32066Y20697D01*
X32005Y20708D01*
X31943Y20709D01*
X31881Y20701D01*
X31822Y20683D01*
X31766Y20656D01*
X31715Y20620D01*
X31671Y20577D01*
X31634Y20527D01*
X31453Y20223D01*
X31303Y19901D01*
X31204Y19631D01*
X31201Y21726D01*
X31173Y21846D01*
X31125Y21961D01*
X31060Y22067D01*
X30980Y22161D01*
X30886Y22241D01*
X30780Y22306D01*
X30665Y22354D01*
X30545Y22383D01*
X30421Y22390D01*
X27743Y22387D01*
Y24579D01*
G37*
G36*
Y82593D02*X28635D01*
X31805Y79423D01*
Y77021D01*
X31081Y77020D01*
X30927Y76983D01*
X30780Y76922D01*
X30645Y76839D01*
X30524Y76736D01*
X30421Y76616D01*
X30339Y76480D01*
X30278Y76334D01*
X30241Y76179D01*
X30231Y76021D01*
X30241Y63663D01*
X30278Y63509D01*
X30339Y63362D01*
X30419Y63232D01*
X29968Y63123D01*
X28065Y62333D01*
X27743Y62134D01*
Y62822D01*
X27998Y62823D01*
X28152Y62860D01*
X28298Y62920D01*
X28434Y63003D01*
X28554Y63106D01*
X28657Y63227D01*
X28740Y63362D01*
X28801Y63509D01*
X28838Y63663D01*
X28847Y63821D01*
X28838Y76179D01*
X28801Y76334D01*
X28740Y76480D01*
X28657Y76616D01*
X28554Y76736D01*
X28434Y76839D01*
X28298Y76922D01*
X28152Y76983D01*
X27998Y77020D01*
X27839Y77029D01*
X27743Y77029D01*
Y82593D01*
G37*
G36*
X54528Y47272D02*X58424Y47277D01*
X58578Y47314D01*
X58723Y47374D01*
X58857Y47456D01*
X58977Y47558D01*
X59008Y47595D01*
Y42249D01*
X58977Y42285D01*
X58857Y42387D01*
X58723Y42469D01*
X58578Y42530D01*
X58424Y42566D01*
X58268Y42576D01*
X54528Y42571D01*
Y47272D01*
G37*
G36*
Y59971D02*X59008Y55490D01*
Y54059D01*
X58977Y54095D01*
X58857Y54197D01*
X58723Y54279D01*
X58578Y54340D01*
X58424Y54376D01*
X58268Y54386D01*
X54528Y54381D01*
Y59971D01*
G37*
G36*
Y103626D02*X56882Y101272D01*
X56909Y101240D01*
X57039Y101129D01*
X57184Y101040D01*
X57342Y100975D01*
X57467Y100945D01*
X57472Y100944D01*
X57475Y99489D01*
X57511Y99336D01*
X57572Y99190D01*
X57654Y99056D01*
X57756Y98936D01*
X57876Y98834D01*
X58010Y98752D01*
X58155Y98692D01*
X58308Y98655D01*
X58465Y98646D01*
X60335Y98648D01*
Y95915D01*
X58308Y95912D01*
X58155Y95875D01*
X58010Y95815D01*
X57876Y95733D01*
X57756Y95631D01*
X57654Y95511D01*
X57572Y95377D01*
X57511Y95231D01*
X57475Y95078D01*
X57465Y94921D01*
X57475Y89646D01*
X57511Y89493D01*
X57572Y89348D01*
X57654Y89214D01*
X57756Y89094D01*
X57876Y88992D01*
X58010Y88910D01*
X58155Y88849D01*
X58280Y88819D01*
X58155Y88789D01*
X58010Y88729D01*
X57876Y88647D01*
X57756Y88545D01*
X57654Y88425D01*
X57572Y88291D01*
X57511Y88145D01*
X57475Y87992D01*
X57465Y87835D01*
X57475Y82560D01*
X57511Y82407D01*
X57572Y82262D01*
X57654Y82128D01*
X57756Y82008D01*
X57876Y81906D01*
X58010Y81824D01*
X58155Y81763D01*
X58308Y81727D01*
X58465Y81717D01*
X64526Y81727D01*
X64679Y81763D01*
X64825Y81824D01*
X64959Y81906D01*
X65079Y82008D01*
X65181Y82128D01*
X65263Y82262D01*
X65323Y82407D01*
X65360Y82560D01*
X65369Y82717D01*
X65367Y84194D01*
X73521D01*
Y73760D01*
X68362D01*
X63766Y78356D01*
X63779Y78583D01*
X63763Y78861D01*
X63698Y79132D01*
X63591Y79389D01*
X63446Y79627D01*
X63264Y79839D01*
X63052Y80020D01*
X62815Y80166D01*
X62557Y80273D01*
X62286Y80338D01*
X62008Y80360D01*
X61730Y80338D01*
X61459Y80273D01*
X61201Y80166D01*
X60963Y80020D01*
X60751Y79839D01*
X60570Y79627D01*
X60425Y79389D01*
X60318Y79132D01*
X60253Y78861D01*
X60231Y78583D01*
X60253Y78305D01*
X60318Y78034D01*
X60425Y77776D01*
X60570Y77538D01*
X60751Y77326D01*
X60963Y77145D01*
X61201Y76999D01*
X61459Y76893D01*
X61730Y76828D01*
X62008Y76806D01*
X62236Y76824D01*
X67118Y71942D01*
X67145Y71909D01*
X67275Y71799D01*
X67420Y71710D01*
X67578Y71644D01*
X67704Y71614D01*
X67743Y71605D01*
X67744D01*
X67913Y71591D01*
X67956Y71594D01*
X73521D01*
Y51319D01*
X71491D01*
X71457Y51322D01*
X71318Y51311D01*
X71182Y51278D01*
X71053Y51225D01*
X70934Y51152D01*
X70934Y51152D01*
X70828Y51061D01*
X70806Y51035D01*
X68611Y48841D01*
X68564Y48919D01*
X68383Y49131D01*
X68170Y49312D01*
X67933Y49457D01*
X67675Y49564D01*
X67404Y49629D01*
X67126Y49651D01*
X66848Y49629D01*
X66577Y49564D01*
X66319Y49457D01*
X66081Y49312D01*
X65869Y49131D01*
X65688Y48919D01*
X65543Y48681D01*
X65436Y48423D01*
X65371Y48152D01*
X65349Y47874D01*
X65371Y47596D01*
X65436Y47325D01*
X65543Y47067D01*
X65688Y46830D01*
X65869Y46617D01*
X66081Y46436D01*
X66319Y46291D01*
X66577Y46184D01*
X66848Y46119D01*
X67126Y46097D01*
X67404Y46119D01*
X67675Y46184D01*
X67933Y46291D01*
X68170Y46436D01*
X68383Y46617D01*
X68564Y46830D01*
X68661Y46988D01*
X68804D01*
X68796Y46890D01*
X68799Y46855D01*
Y33539D01*
X68796Y33504D01*
X68807Y33365D01*
X68840Y33229D01*
X68893Y33101D01*
X68966Y32982D01*
X68966Y32982D01*
X69057Y32876D01*
X69083Y32853D01*
X71003Y30934D01*
X71025Y30907D01*
X71131Y30817D01*
X71131Y30817D01*
X71250Y30744D01*
X71379Y30690D01*
X71515Y30658D01*
X71654Y30647D01*
X71688Y30650D01*
X73521D01*
Y24856D01*
X65008Y33369D01*
Y56616D01*
X65017Y56733D01*
X64980Y57204D01*
X64870Y57663D01*
X64689Y58099D01*
X64442Y58502D01*
X64136Y58861D01*
X64046Y58938D01*
X59264Y63720D01*
X59258Y66929D01*
X59222Y67082D01*
X59161Y67228D01*
X59079Y67362D01*
X58977Y67482D01*
X58857Y67584D01*
X58723Y67666D01*
X58578Y67726D01*
X58424Y67763D01*
X58268Y67773D01*
X54528Y67768D01*
Y72469D01*
X58424Y72474D01*
X58578Y72511D01*
X58723Y72571D01*
X58857Y72653D01*
X58977Y72755D01*
X59079Y72875D01*
X59161Y73009D01*
X59222Y73155D01*
X59258Y73308D01*
X59268Y73465D01*
X59258Y78739D01*
X59222Y78892D01*
X59161Y79038D01*
X59079Y79172D01*
X58977Y79292D01*
X58857Y79394D01*
X58723Y79476D01*
X58578Y79536D01*
X58424Y79573D01*
X58268Y79583D01*
X54528Y79578D01*
Y103626D01*
G37*
G36*
Y120020D02*X57438D01*
X57480Y120016D01*
X57650Y120030D01*
X57816Y120070D01*
X57973Y120135D01*
X58119Y120224D01*
X58248Y120334D01*
X58276Y120367D01*
X68165Y130256D01*
X73521D01*
Y125896D01*
X67350Y119724D01*
X62615D01*
X62607Y119744D01*
X62461Y119981D01*
X62280Y120194D01*
X62068Y120375D01*
X61830Y120520D01*
X61573Y120627D01*
X61302Y120692D01*
X61024Y120714D01*
X60746Y120692D01*
X60475Y120627D01*
X60217Y120520D01*
X59979Y120375D01*
X59767Y120194D01*
X59586Y119981D01*
X59440Y119744D01*
X59334Y119486D01*
X59269Y119215D01*
X59247Y118937D01*
X59269Y118659D01*
X59334Y118388D01*
X59440Y118130D01*
X59586Y117893D01*
X59767Y117681D01*
X59979Y117499D01*
X60217Y117354D01*
X60475Y117247D01*
X60746Y117182D01*
X61024Y117160D01*
X61302Y117182D01*
X61573Y117247D01*
X61830Y117354D01*
X62068Y117499D01*
X62280Y117681D01*
X62461Y117893D01*
X62498Y117953D01*
X67350D01*
X72257Y113045D01*
X72261Y106379D01*
X72282Y106289D01*
X72318Y106203D01*
X72367Y106124D01*
X72427Y106053D01*
X72498Y105993D01*
X72577Y105944D01*
X72663Y105908D01*
X72753Y105887D01*
X72846Y105881D01*
X73521Y105882D01*
Y99622D01*
X70844Y102298D01*
X70850Y102320D01*
X70866Y102598D01*
X70850Y102876D01*
X70784Y103148D01*
X70678Y103405D01*
X70532Y103643D01*
X70351Y103855D01*
X70139Y104036D01*
X69901Y104182D01*
X69644Y104288D01*
X69372Y104354D01*
X69094Y104375D01*
X68817Y104354D01*
X68545Y104288D01*
X68288Y104182D01*
X68050Y104036D01*
X67838Y103855D01*
X67657Y103643D01*
X67511Y103405D01*
X67404Y103148D01*
X67339Y102876D01*
X67318Y102598D01*
X67339Y102320D01*
X67404Y102049D01*
X67511Y101792D01*
X67657Y101554D01*
X67838Y101342D01*
X68050Y101161D01*
X68288Y101015D01*
X68545Y100908D01*
X68817Y100843D01*
X69094Y100821D01*
X69372Y100843D01*
X69644Y100908D01*
X69704Y100933D01*
X73521Y97116D01*
Y86359D01*
X65363D01*
X65360Y87992D01*
X65323Y88145D01*
X65263Y88291D01*
X65181Y88425D01*
X65079Y88545D01*
X64959Y88647D01*
X64825Y88729D01*
X64679Y88789D01*
X64554Y88819D01*
X64679Y88849D01*
X64825Y88910D01*
X64959Y88992D01*
X65079Y89094D01*
X65181Y89214D01*
X65263Y89348D01*
X65323Y89493D01*
X65360Y89646D01*
X65369Y89803D01*
X65360Y95078D01*
X65323Y95231D01*
X65263Y95377D01*
X65181Y95511D01*
X65079Y95631D01*
X64959Y95733D01*
X64825Y95815D01*
X64679Y95875D01*
X64526Y95912D01*
X64369Y95921D01*
X62500Y95918D01*
Y98652D01*
X64526Y98655D01*
X64679Y98692D01*
X64825Y98752D01*
X64959Y98834D01*
X65079Y98936D01*
X65181Y99056D01*
X65263Y99190D01*
X65323Y99336D01*
X65360Y99489D01*
X65369Y99646D01*
X65360Y104921D01*
X65323Y105074D01*
X65263Y105219D01*
X65181Y105353D01*
X65079Y105473D01*
X64959Y105575D01*
X64825Y105657D01*
X64679Y105718D01*
X64554Y105748D01*
X64679Y105778D01*
X64825Y105838D01*
X64959Y105920D01*
X65079Y106022D01*
X65181Y106142D01*
X65263Y106276D01*
X65323Y106422D01*
X65360Y106575D01*
X65369Y106732D01*
X65360Y112007D01*
X65323Y112160D01*
X65263Y112305D01*
X65181Y112439D01*
X65079Y112559D01*
X64959Y112661D01*
X64825Y112743D01*
X64679Y112804D01*
X64526Y112840D01*
X64369Y112850D01*
X58308Y112840D01*
X58155Y112804D01*
X58010Y112743D01*
X57876Y112661D01*
X57756Y112559D01*
X57654Y112439D01*
X57572Y112305D01*
X57511Y112160D01*
X57475Y112007D01*
X57465Y111850D01*
X57475Y106575D01*
X57511Y106422D01*
X57572Y106276D01*
X57654Y106142D01*
X57756Y106022D01*
X57876Y105920D01*
X58010Y105838D01*
X58155Y105778D01*
X58280Y105748D01*
X58155Y105718D01*
X58010Y105657D01*
X57876Y105575D01*
X57756Y105473D01*
X57654Y105353D01*
X57572Y105219D01*
X57511Y105074D01*
X57475Y104921D01*
X57465Y104764D01*
X57467Y103749D01*
X55610Y105606D01*
Y115154D01*
X55614Y115197D01*
X55600Y115367D01*
X55560Y115532D01*
X55533Y115598D01*
X55495Y115690D01*
X55461Y115746D01*
X55406Y115835D01*
X55406Y115835D01*
X55295Y115965D01*
X55263Y115992D01*
X54528Y116728D01*
Y120020D01*
G37*
G36*
X27743Y109474D02*X34212Y109482D01*
X34365Y109518D01*
X34510Y109579D01*
X34645Y109661D01*
X34764Y109763D01*
X34866Y109883D01*
X34949Y110017D01*
X35009Y110162D01*
X35046Y110315D01*
X35055Y110472D01*
X35046Y115747D01*
X35009Y115900D01*
X34949Y116046D01*
X34866Y116180D01*
X34764Y116300D01*
X34645Y116402D01*
X34510Y116484D01*
X34365Y116544D01*
X34212Y116581D01*
X34055Y116590D01*
X27743Y116583D01*
Y116999D01*
X30763Y120020D01*
X54528D01*
Y116728D01*
X53158Y118098D01*
X53130Y118130D01*
X53001Y118241D01*
X53001Y118241D01*
X52912Y118295D01*
X52855Y118330D01*
X52763Y118368D01*
X52698Y118395D01*
X52532Y118435D01*
X52362Y118448D01*
X52320Y118445D01*
X39594D01*
X39445Y118619D01*
X39233Y118800D01*
X38996Y118945D01*
X38738Y119052D01*
X38467Y119117D01*
X38189Y119139D01*
X37911Y119117D01*
X37640Y119052D01*
X37382Y118945D01*
X37145Y118800D01*
X36932Y118619D01*
X36751Y118407D01*
X36606Y118169D01*
X36499Y117911D01*
X36434Y117640D01*
X36412Y117362D01*
X36434Y117084D01*
X36499Y116813D01*
X36606Y116555D01*
X36751Y116318D01*
X36932Y116106D01*
X37145Y115925D01*
X37382Y115779D01*
X37640Y115672D01*
X37911Y115607D01*
X38189Y115585D01*
X38467Y115607D01*
X38738Y115672D01*
X38996Y115779D01*
X39233Y115925D01*
X39445Y116106D01*
X39594Y116280D01*
X51914D01*
X53445Y114748D01*
Y105200D01*
X53442Y105157D01*
X53455Y104988D01*
Y104988D01*
X53464Y104948D01*
X53495Y104822D01*
X53560Y104664D01*
X53649Y104519D01*
X53760Y104390D01*
X53792Y104362D01*
X54528Y103626D01*
Y79578D01*
X50631Y79573D01*
X50478Y79536D01*
X50332Y79476D01*
X50198Y79394D01*
X50078Y79292D01*
X49976Y79172D01*
X49894Y79038D01*
X49834Y78892D01*
X49797Y78739D01*
X49788Y78583D01*
X49797Y73308D01*
X49834Y73155D01*
X49894Y73009D01*
X49976Y72875D01*
X50078Y72755D01*
X50198Y72653D01*
X50332Y72571D01*
X50478Y72511D01*
X50631Y72474D01*
X50788Y72465D01*
X54528Y72469D01*
Y67768D01*
X50631Y67763D01*
X50478Y67726D01*
X50332Y67666D01*
X50198Y67584D01*
X50078Y67482D01*
X49976Y67362D01*
X49963Y67341D01*
X46942Y70361D01*
X46938Y76179D01*
X46901Y76334D01*
X46840Y76480D01*
X46757Y76616D01*
X46654Y76736D01*
X46534Y76839D01*
X46398Y76922D01*
X46252Y76983D01*
X46098Y77020D01*
X45939Y77029D01*
X40181Y77020D01*
X40027Y76983D01*
X39880Y76922D01*
X39745Y76839D01*
X39624Y76736D01*
X39521Y76616D01*
X39439Y76480D01*
X39378Y76334D01*
X39341Y76179D01*
X39331Y76021D01*
X39341Y63663D01*
X39378Y63509D01*
X39439Y63362D01*
X39521Y63227D01*
X39624Y63106D01*
X39745Y63003D01*
X39880Y62920D01*
X40027Y62860D01*
X40181Y62823D01*
X40339Y62813D01*
X45996Y62823D01*
X46643Y62176D01*
X46719Y62086D01*
X47078Y61779D01*
X47078Y61779D01*
X47078Y61779D01*
X47294Y61647D01*
X47481Y61533D01*
X47481Y61533D01*
X47481Y61532D01*
X47814Y61394D01*
X47917Y61352D01*
X47917D01*
X47917Y61352D01*
X48219Y61279D01*
X48376Y61242D01*
X48376D01*
X48376Y61242D01*
X48847Y61205D01*
X48965Y61214D01*
X49888D01*
X49894Y61199D01*
X49976Y61065D01*
X50078Y60945D01*
X50198Y60843D01*
X50332Y60761D01*
X50478Y60701D01*
X50631Y60664D01*
X50788Y60655D01*
X53840Y60658D01*
X54528Y59971D01*
Y54381D01*
X50631Y54376D01*
X50478Y54340D01*
X50332Y54279D01*
X50198Y54197D01*
X50078Y54095D01*
X49976Y53975D01*
X49894Y53841D01*
X49834Y53696D01*
X49797Y53543D01*
X49788Y53386D01*
X49797Y48111D01*
X49834Y47958D01*
X49894Y47812D01*
X49976Y47678D01*
X50078Y47558D01*
X50198Y47456D01*
X50332Y47374D01*
X50478Y47314D01*
X50631Y47277D01*
X50788Y47268D01*
X54528Y47272D01*
Y42571D01*
X50631Y42566D01*
X50478Y42530D01*
X50332Y42469D01*
X50198Y42387D01*
X50078Y42285D01*
X49976Y42165D01*
X49894Y42031D01*
X49834Y41886D01*
X49797Y41733D01*
X49788Y41576D01*
X49788Y41267D01*
X47140D01*
X47130Y50654D01*
X47128Y50693D01*
X47125Y52857D01*
X47070Y53086D01*
X46980Y53304D01*
X46857Y53506D01*
X46797Y53575D01*
X46523Y54711D01*
X45733Y56613D01*
X44654Y58369D01*
X43314Y59934D01*
X41746Y61271D01*
X39988Y62346D01*
X38084Y63132D01*
X37661Y63233D01*
X37740Y63362D01*
X37801Y63509D01*
X37838Y63663D01*
X37847Y63821D01*
X37838Y76179D01*
X37801Y76334D01*
X37740Y76480D01*
X37657Y76616D01*
X37554Y76736D01*
X37434Y76839D01*
X37298Y76922D01*
X37152Y76983D01*
X36998Y77020D01*
X36839Y77029D01*
X36305Y77028D01*
Y79225D01*
X38796Y81716D01*
X44639Y87559D01*
X44706Y87617D01*
X44936Y87886D01*
X44936Y87886D01*
X45121Y88188D01*
X45257Y88515D01*
X45339Y88860D01*
X45367Y89213D01*
X45360Y89301D01*
Y94921D01*
X45339Y95274D01*
X45257Y95619D01*
X45121Y95946D01*
X44936Y96248D01*
X44706Y96517D01*
X44437Y96747D01*
X44135Y96932D01*
X43808Y97068D01*
X43463Y97150D01*
X43110Y97178D01*
X42757Y97150D01*
X42413Y97068D01*
X42086Y96932D01*
X41784Y96747D01*
X41514Y96517D01*
X41284Y96248D01*
X41099Y95946D01*
X40964Y95619D01*
X40881Y95274D01*
X40860Y94921D01*
Y90145D01*
X35614Y84898D01*
X35614Y84898D01*
X35614Y84898D01*
X34154Y83438D01*
X31220Y86372D01*
X31163Y86439D01*
X30894Y86669D01*
X30894Y86669D01*
X30779Y86739D01*
X30592Y86854D01*
X30360Y86950D01*
X30264Y86989D01*
X29920Y87072D01*
X29567Y87100D01*
X29479Y87093D01*
X27743D01*
Y97664D01*
X34212Y97672D01*
X34365Y97708D01*
X34510Y97769D01*
X34645Y97851D01*
X34764Y97953D01*
X34866Y98073D01*
X34949Y98207D01*
X35009Y98352D01*
X35046Y98505D01*
X35055Y98662D01*
X35046Y103937D01*
X35009Y104090D01*
X34949Y104236D01*
X34866Y104370D01*
X34764Y104490D01*
X34645Y104592D01*
X34510Y104674D01*
X34365Y104734D01*
X34212Y104771D01*
X34055Y104780D01*
X27743Y104773D01*
Y109474D01*
G37*
G36*
X31281Y133701D02*X73521D01*
Y132421D01*
X67759D01*
X67717Y132425D01*
X67547Y132411D01*
X67381Y132371D01*
X67223Y132306D01*
X67078Y132217D01*
X67078Y132217D01*
X66949Y132107D01*
X66921Y132074D01*
X57032Y122185D01*
X53352D01*
X53961Y122437D01*
X54618Y122840D01*
X55203Y123340D01*
X55704Y123926D01*
X56106Y124582D01*
X56401Y125294D01*
X56581Y126043D01*
X56626Y126811D01*
X56581Y127579D01*
X56401Y128328D01*
X56106Y129040D01*
X55704Y129696D01*
X55203Y130282D01*
X54618Y130782D01*
X53961Y131185D01*
X53249Y131480D01*
X52500Y131659D01*
X51732Y131720D01*
X50964Y131659D01*
X50215Y131480D01*
X49504Y131185D01*
X48847Y130782D01*
X48261Y130282D01*
X47761Y129696D01*
X47359Y129040D01*
X47064Y128328D01*
X46884Y127579D01*
X46823Y126811D01*
X46884Y126043D01*
X47064Y125294D01*
X47359Y124582D01*
X47761Y123926D01*
X48261Y123340D01*
X48847Y122840D01*
X49504Y122437D01*
X50113Y122185D01*
X45986D01*
X46010Y122200D01*
X46190Y122353D01*
X46343Y122533D01*
X46467Y122734D01*
X46557Y122952D01*
X46612Y123182D01*
X46626Y123417D01*
X46612Y130440D01*
X46557Y130670D01*
X46467Y130888D01*
X46343Y131089D01*
X46190Y131269D01*
X46010Y131422D01*
X45809Y131545D01*
X45591Y131636D01*
X45361Y131691D01*
X45126Y131705D01*
X38103Y131691D01*
X37874Y131636D01*
X37655Y131545D01*
X37454Y131422D01*
X37275Y131269D01*
X37121Y131089D01*
X36998Y130888D01*
X36908Y130670D01*
X36852Y130440D01*
X36839Y130205D01*
X36852Y123182D01*
X36908Y122952D01*
X36998Y122734D01*
X37121Y122533D01*
X37275Y122353D01*
X37454Y122200D01*
X37479Y122185D01*
X31281D01*
Y124380D01*
X31367Y124405D01*
X31474Y124455D01*
X31571Y124522D01*
X31657Y124603D01*
X31730Y124696D01*
X31784Y124800D01*
X31959Y125227D01*
X32087Y125669D01*
X32173Y126122D01*
X32217Y126581D01*
Y127041D01*
X32173Y127500D01*
X32087Y127953D01*
X31959Y128395D01*
X31789Y128824D01*
X31733Y128928D01*
X31660Y129022D01*
X31574Y129103D01*
X31476Y129170D01*
X31368Y129221D01*
X31281Y129246D01*
Y133701D01*
G37*
G36*
X27743D02*X31281D01*
Y129246D01*
X31254Y129254D01*
X31137Y129269D01*
X31018Y129265D01*
X30902Y129243D01*
X30790Y129203D01*
X30686Y129146D01*
X30592Y129073D01*
X30511Y128987D01*
X30444Y128889D01*
X30394Y128781D01*
X30360Y128667D01*
X30345Y128550D01*
X30349Y128431D01*
X30371Y128315D01*
X30413Y128204D01*
X30534Y127909D01*
X30623Y127602D01*
X30683Y127288D01*
X30713Y126971D01*
Y126651D01*
X30683Y126334D01*
X30623Y126020D01*
X30534Y125714D01*
X30417Y125417D01*
X30375Y125307D01*
X30353Y125191D01*
X30349Y125073D01*
X30364Y124955D01*
X30397Y124842D01*
X30447Y124735D01*
X30514Y124638D01*
X30595Y124552D01*
X30688Y124479D01*
X30792Y124423D01*
X30903Y124383D01*
X31019Y124361D01*
X31137Y124357D01*
X31254Y124372D01*
X31281Y124380D01*
Y122185D01*
X30357D01*
X30315Y122188D01*
X30145Y122175D01*
X29979Y122135D01*
X29822Y122070D01*
X29677Y121981D01*
X29677Y121981D01*
X29547Y121870D01*
X29519Y121838D01*
X27743Y120061D01*
Y121935D01*
X28012Y121961D01*
X28465Y122047D01*
X28907Y122175D01*
X29336Y122345D01*
X29440Y122401D01*
X29534Y122474D01*
X29615Y122560D01*
X29682Y122658D01*
X29732Y122765D01*
X29766Y122879D01*
X29781Y122997D01*
X29777Y123116D01*
X29755Y123232D01*
X29715Y123344D01*
X29658Y123448D01*
X29585Y123542D01*
X29498Y123623D01*
X29400Y123690D01*
X29293Y123740D01*
X29179Y123773D01*
X29061Y123788D01*
X28943Y123785D01*
X28826Y123763D01*
X28716Y123720D01*
X28420Y123600D01*
X28114Y123511D01*
X27800Y123451D01*
X27743Y123446D01*
Y130176D01*
X27800Y130171D01*
X28114Y130111D01*
X28420Y130022D01*
X28717Y129905D01*
X28827Y129863D01*
X28943Y129841D01*
X29061Y129837D01*
X29178Y129852D01*
X29292Y129885D01*
X29399Y129936D01*
X29496Y130002D01*
X29582Y130083D01*
X29654Y130176D01*
X29711Y130280D01*
X29751Y130391D01*
X29773Y130507D01*
X29777Y130625D01*
X29762Y130742D01*
X29729Y130855D01*
X29679Y130962D01*
X29612Y131060D01*
X29531Y131146D01*
X29438Y131218D01*
X29333Y131273D01*
X28907Y131447D01*
X28465Y131575D01*
X28012Y131661D01*
X27743Y131687D01*
Y133701D01*
G37*
G36*
Y116583D02*X27326Y116582D01*
X27743Y116999D01*
Y116583D01*
G37*
G36*
X19895Y82593D02*X27743D01*
Y77029D01*
X22081Y77020D01*
X21927Y76983D01*
X21780Y76922D01*
X21645Y76839D01*
X21524Y76736D01*
X21421Y76616D01*
X21339Y76480D01*
X21278Y76334D01*
X21241Y76179D01*
X21231Y76021D01*
X21241Y63663D01*
X21278Y63509D01*
X21339Y63362D01*
X21421Y63227D01*
X21524Y63106D01*
X21645Y63003D01*
X21780Y62920D01*
X21927Y62860D01*
X22081Y62823D01*
X22239Y62813D01*
X27743Y62822D01*
Y62134D01*
X26310Y61254D01*
X24744Y59914D01*
X23408Y58346D01*
X22333Y56588D01*
X21547Y54684D01*
X21282Y53576D01*
X21222Y53506D01*
X21099Y53304D01*
X21008Y53086D01*
X20953Y52857D01*
X20939Y52621D01*
X20953Y38186D01*
X20962Y38148D01*
X20965Y36049D01*
X21088Y33995D01*
X21571Y31992D01*
X22362Y30089D01*
X23440Y28333D01*
X24780Y26768D01*
X26348Y25432D01*
X27743Y24579D01*
Y22387D01*
X23786Y22383D01*
X23665Y22354D01*
X23551Y22306D01*
X23445Y22241D01*
X23351Y22161D01*
X23270Y22067D01*
X23206Y21961D01*
X23158Y21846D01*
X23129Y21726D01*
X23122Y21602D01*
X23129Y14967D01*
X23158Y14846D01*
X23206Y14732D01*
X23270Y14626D01*
X23351Y14532D01*
X23445Y14451D01*
X23551Y14387D01*
X23665Y14339D01*
X23786Y14310D01*
X23909Y14303D01*
X27743Y14307D01*
Y12047D01*
X19895D01*
Y22013D01*
X19904Y22021D01*
X19940Y22071D01*
X20122Y22376D01*
X20272Y22697D01*
X20394Y23030D01*
X20486Y23372D01*
X20548Y23721D01*
X20579Y24075D01*
Y24429D01*
X20548Y24782D01*
X20486Y25132D01*
X20394Y25474D01*
X20272Y25807D01*
X20122Y26128D01*
X19944Y26435D01*
X19906Y26485D01*
X19895Y26496D01*
Y28090D01*
X19915Y28090D01*
X20035Y28119D01*
X20150Y28166D01*
X20256Y28231D01*
X20350Y28312D01*
X20430Y28406D01*
X20495Y28511D01*
X20543Y28626D01*
X20572Y28747D01*
X20579Y28870D01*
X20572Y35505D01*
X20543Y35626D01*
X20495Y35741D01*
X20430Y35846D01*
X20350Y35940D01*
X20256Y36021D01*
X20150Y36086D01*
X20035Y36133D01*
X19915Y36162D01*
X19895Y36163D01*
Y37761D01*
X19904Y37769D01*
X19940Y37819D01*
X20122Y38124D01*
X20272Y38445D01*
X20394Y38778D01*
X20486Y39120D01*
X20548Y39470D01*
X20579Y39823D01*
Y40177D01*
X20548Y40530D01*
X20486Y40880D01*
X20394Y41222D01*
X20272Y41555D01*
X20122Y41876D01*
X19944Y42183D01*
X19906Y42233D01*
X19895Y42244D01*
Y43936D01*
X19899Y43936D01*
X20005Y43961D01*
X20105Y44002D01*
X20198Y44059D01*
X20280Y44129D01*
X20350Y44212D01*
X20407Y44304D01*
X20449Y44405D01*
X20474Y44510D01*
X20480Y44618D01*
X20474Y51238D01*
X20449Y51343D01*
X20407Y51444D01*
X20350Y51536D01*
X20280Y51619D01*
X20198Y51689D01*
X20105Y51746D01*
X20005Y51787D01*
X19899Y51813D01*
X19895Y51813D01*
Y53509D01*
X19904Y53517D01*
X19940Y53567D01*
X20122Y53872D01*
X20272Y54193D01*
X20394Y54526D01*
X20486Y54868D01*
X20548Y55218D01*
X20579Y55571D01*
Y55925D01*
X20548Y56279D01*
X20486Y56628D01*
X20394Y56970D01*
X20272Y57303D01*
X20122Y57624D01*
X19944Y57931D01*
X19906Y57981D01*
X19895Y57992D01*
Y59586D01*
X19915Y59586D01*
X20035Y59615D01*
X20150Y59662D01*
X20256Y59727D01*
X20350Y59808D01*
X20430Y59902D01*
X20495Y60008D01*
X20543Y60122D01*
X20572Y60243D01*
X20579Y60366D01*
X20572Y67002D01*
X20543Y67122D01*
X20495Y67237D01*
X20430Y67342D01*
X20350Y67437D01*
X20256Y67517D01*
X20150Y67582D01*
X20035Y67629D01*
X19915Y67658D01*
X19895Y67659D01*
Y82593D01*
G37*
G36*
Y51813D02*X19791Y51819D01*
X17486Y51817D01*
X17757Y51890D01*
X18090Y52011D01*
X18412Y52162D01*
X18718Y52340D01*
X18768Y52377D01*
X18812Y52422D01*
X18847Y52473D01*
X18874Y52530D01*
X18893Y52589D01*
X18901Y52651D01*
X18900Y52714D01*
X18889Y52775D01*
X18868Y52834D01*
X18839Y52889D01*
X18801Y52939D01*
X18756Y52982D01*
X18705Y53018D01*
X18649Y53045D01*
X18589Y53064D01*
X18527Y53072D01*
X18465Y53071D01*
X18403Y53060D01*
X18344Y53039D01*
X18290Y53009D01*
X18045Y52863D01*
X17786Y52742D01*
X17518Y52644D01*
X17323Y52591D01*
Y58905D01*
X17518Y58852D01*
X17786Y58754D01*
X18045Y58633D01*
X18291Y58490D01*
X18345Y58460D01*
X18404Y58439D01*
X18465Y58428D01*
X18527Y58427D01*
X18588Y58436D01*
X18648Y58454D01*
X18703Y58481D01*
X18754Y58516D01*
X18799Y58559D01*
X18836Y58608D01*
X18866Y58663D01*
X18886Y58722D01*
X18897Y58783D01*
X18898Y58845D01*
X18890Y58906D01*
X18872Y58965D01*
X18845Y59021D01*
X18809Y59072D01*
X18766Y59117D01*
X18716Y59153D01*
X18412Y59334D01*
X18090Y59485D01*
X17820Y59584D01*
X19895Y59586D01*
Y57992D01*
X19861Y58024D01*
X19810Y58060D01*
X19754Y58087D01*
X19694Y58105D01*
X19632Y58114D01*
X19570Y58113D01*
X19508Y58102D01*
X19449Y58081D01*
X19394Y58052D01*
X19344Y58014D01*
X19301Y57969D01*
X19265Y57918D01*
X19238Y57861D01*
X19220Y57802D01*
X19211Y57740D01*
X19213Y57677D01*
X19224Y57616D01*
X19244Y57557D01*
X19275Y57502D01*
X19420Y57257D01*
X19541Y56999D01*
X19639Y56731D01*
X19714Y56456D01*
X19763Y56175D01*
X19788Y55891D01*
Y55605D01*
X19763Y55321D01*
X19714Y55040D01*
X19639Y54765D01*
X19541Y54497D01*
X19420Y54239D01*
X19277Y53992D01*
X19247Y53938D01*
X19227Y53880D01*
X19216Y53819D01*
X19215Y53757D01*
X19223Y53695D01*
X19241Y53636D01*
X19268Y53580D01*
X19303Y53529D01*
X19346Y53485D01*
X19396Y53447D01*
X19450Y53418D01*
X19509Y53398D01*
X19570Y53387D01*
X19632Y53385D01*
X19693Y53394D01*
X19753Y53412D01*
X19808Y53439D01*
X19859Y53474D01*
X19895Y53509D01*
Y51813D01*
G37*
G36*
Y36163D02*X19791Y36169D01*
X17828Y36167D01*
X18090Y36263D01*
X18412Y36414D01*
X18718Y36592D01*
X18768Y36629D01*
X18812Y36674D01*
X18847Y36725D01*
X18874Y36782D01*
X18893Y36841D01*
X18901Y36903D01*
X18900Y36966D01*
X18889Y37027D01*
X18868Y37086D01*
X18839Y37141D01*
X18801Y37191D01*
X18756Y37234D01*
X18705Y37270D01*
X18649Y37297D01*
X18589Y37315D01*
X18527Y37324D01*
X18465Y37323D01*
X18403Y37312D01*
X18344Y37291D01*
X18290Y37261D01*
X18045Y37115D01*
X17786Y36994D01*
X17518Y36896D01*
X17323Y36843D01*
Y43157D01*
X17518Y43104D01*
X17786Y43006D01*
X18045Y42885D01*
X18291Y42742D01*
X18345Y42712D01*
X18404Y42691D01*
X18465Y42680D01*
X18527Y42679D01*
X18588Y42688D01*
X18648Y42706D01*
X18703Y42733D01*
X18754Y42768D01*
X18799Y42811D01*
X18836Y42860D01*
X18866Y42915D01*
X18886Y42974D01*
X18897Y43035D01*
X18898Y43097D01*
X18890Y43158D01*
X18872Y43217D01*
X18845Y43273D01*
X18809Y43324D01*
X18766Y43369D01*
X18716Y43405D01*
X18412Y43586D01*
X18090Y43737D01*
X17757Y43858D01*
X17480Y43933D01*
X19895Y43936D01*
Y42244D01*
X19861Y42276D01*
X19810Y42312D01*
X19754Y42339D01*
X19694Y42357D01*
X19632Y42366D01*
X19570Y42364D01*
X19508Y42354D01*
X19449Y42333D01*
X19394Y42304D01*
X19344Y42266D01*
X19301Y42221D01*
X19265Y42170D01*
X19238Y42113D01*
X19220Y42054D01*
X19211Y41992D01*
X19213Y41929D01*
X19224Y41868D01*
X19244Y41809D01*
X19275Y41754D01*
X19420Y41509D01*
X19541Y41251D01*
X19639Y40983D01*
X19714Y40708D01*
X19763Y40427D01*
X19788Y40143D01*
Y39857D01*
X19763Y39573D01*
X19714Y39292D01*
X19639Y39017D01*
X19541Y38749D01*
X19420Y38491D01*
X19277Y38244D01*
X19247Y38190D01*
X19227Y38131D01*
X19216Y38070D01*
X19215Y38009D01*
X19223Y37947D01*
X19241Y37888D01*
X19268Y37832D01*
X19303Y37781D01*
X19346Y37737D01*
X19396Y37699D01*
X19450Y37670D01*
X19509Y37650D01*
X19570Y37639D01*
X19632Y37637D01*
X19693Y37646D01*
X19753Y37664D01*
X19808Y37691D01*
X19859Y37726D01*
X19895Y37761D01*
Y36163D01*
G37*
G36*
Y12047D02*X17323D01*
Y20285D01*
X17415Y20301D01*
X17757Y20394D01*
X18090Y20515D01*
X18412Y20666D01*
X18718Y20844D01*
X18768Y20881D01*
X18812Y20926D01*
X18847Y20977D01*
X18874Y21034D01*
X18893Y21093D01*
X18901Y21155D01*
X18900Y21218D01*
X18889Y21279D01*
X18868Y21338D01*
X18839Y21393D01*
X18801Y21443D01*
X18756Y21486D01*
X18705Y21522D01*
X18649Y21549D01*
X18589Y21567D01*
X18527Y21576D01*
X18465Y21575D01*
X18403Y21564D01*
X18344Y21543D01*
X18290Y21513D01*
X18045Y21367D01*
X17786Y21246D01*
X17518Y21148D01*
X17323Y21095D01*
Y27409D01*
X17518Y27356D01*
X17786Y27258D01*
X18045Y27137D01*
X18291Y26994D01*
X18345Y26964D01*
X18404Y26943D01*
X18465Y26932D01*
X18527Y26931D01*
X18588Y26940D01*
X18648Y26958D01*
X18703Y26985D01*
X18754Y27020D01*
X18799Y27063D01*
X18836Y27112D01*
X18866Y27167D01*
X18886Y27226D01*
X18897Y27287D01*
X18898Y27349D01*
X18890Y27410D01*
X18872Y27469D01*
X18845Y27525D01*
X18809Y27576D01*
X18766Y27621D01*
X18716Y27657D01*
X18412Y27838D01*
X18090Y27989D01*
X17820Y28088D01*
X19895Y28090D01*
Y26496D01*
X19861Y26528D01*
X19810Y26564D01*
X19754Y26591D01*
X19694Y26609D01*
X19632Y26618D01*
X19570Y26616D01*
X19508Y26605D01*
X19449Y26585D01*
X19394Y26556D01*
X19344Y26518D01*
X19301Y26473D01*
X19265Y26422D01*
X19238Y26365D01*
X19220Y26306D01*
X19211Y26244D01*
X19213Y26181D01*
X19224Y26120D01*
X19244Y26061D01*
X19275Y26006D01*
X19420Y25761D01*
X19541Y25503D01*
X19639Y25235D01*
X19714Y24960D01*
X19763Y24679D01*
X19788Y24395D01*
Y24109D01*
X19763Y23825D01*
X19714Y23544D01*
X19639Y23269D01*
X19541Y23001D01*
X19420Y22743D01*
X19277Y22496D01*
X19247Y22442D01*
X19227Y22383D01*
X19216Y22322D01*
X19215Y22260D01*
X19223Y22199D01*
X19241Y22140D01*
X19268Y22084D01*
X19303Y22033D01*
X19346Y21988D01*
X19396Y21951D01*
X19450Y21922D01*
X19509Y21902D01*
X19570Y21891D01*
X19632Y21889D01*
X19693Y21898D01*
X19753Y21916D01*
X19808Y21943D01*
X19859Y21978D01*
X19895Y22013D01*
Y12047D01*
G37*
G36*
X17323Y82593D02*X19895D01*
Y67659D01*
X19791Y67665D01*
X17323Y67663D01*
Y82593D01*
G37*
G36*
Y95465D02*X18060Y95471D01*
X18290Y95526D01*
X18508Y95616D01*
X18709Y95740D01*
X18889Y95893D01*
X19042Y96073D01*
X19165Y96274D01*
X19256Y96492D01*
X19311Y96722D01*
X19325Y96957D01*
X19322Y97624D01*
X19935D01*
X19939Y96722D01*
X19994Y96492D01*
X20084Y96274D01*
X20208Y96073D01*
X20361Y95893D01*
X20540Y95740D01*
X20742Y95616D01*
X20960Y95526D01*
X21161Y95478D01*
Y95126D01*
X20611Y95124D01*
X20458Y95087D01*
X20312Y95027D01*
X20178Y94945D01*
X20058Y94843D01*
X19956Y94723D01*
X19874Y94589D01*
X19814Y94443D01*
X19777Y94290D01*
X19768Y94133D01*
X19777Y90040D01*
X19814Y89887D01*
X19874Y89742D01*
X19956Y89608D01*
X20058Y89488D01*
X20178Y89386D01*
X20312Y89304D01*
X20458Y89243D01*
X20611Y89207D01*
X20768Y89197D01*
X21161Y89199D01*
Y87093D01*
X17323D01*
Y89202D01*
X18759Y89207D01*
X18912Y89243D01*
X19057Y89304D01*
X19191Y89386D01*
X19311Y89488D01*
X19413Y89608D01*
X19495Y89742D01*
X19556Y89887D01*
X19592Y90040D01*
X19602Y90197D01*
X19592Y94290D01*
X19556Y94443D01*
X19495Y94589D01*
X19413Y94723D01*
X19311Y94843D01*
X19191Y94945D01*
X19057Y95027D01*
X18912Y95087D01*
X18759Y95124D01*
X18602Y95133D01*
X17323Y95130D01*
Y95465D01*
G37*
G36*
Y102465D02*X18060Y102471D01*
X18290Y102526D01*
X18325Y102541D01*
X18360Y102526D01*
X18589Y102471D01*
X18825Y102457D01*
X20560Y102471D01*
X20790Y102526D01*
X20875Y102561D01*
X20960Y102526D01*
X21189Y102471D01*
X21425Y102457D01*
X23160Y102471D01*
X23390Y102526D01*
X23608Y102616D01*
X23809Y102740D01*
X23989Y102893D01*
X24142Y103073D01*
X24265Y103274D01*
X24356Y103492D01*
X24411Y103722D01*
X24425Y103957D01*
X24411Y107692D01*
X24356Y107922D01*
X24265Y108140D01*
X24142Y108341D01*
X23989Y108521D01*
X23809Y108674D01*
X23608Y108798D01*
X23390Y108888D01*
X23257Y108920D01*
Y110071D01*
X23877Y110073D01*
X24030Y110110D01*
X24175Y110170D01*
X24310Y110252D01*
X24429Y110354D01*
X24532Y110474D01*
X24614Y110608D01*
X24674Y110754D01*
X24711Y110907D01*
X24720Y111063D01*
X24718Y111949D01*
X25581D01*
X25584Y110315D01*
X25621Y110162D01*
X25681Y110017D01*
X25763Y109883D01*
X25866Y109763D01*
X25985Y109661D01*
X26120Y109579D01*
X26265Y109518D01*
X26418Y109482D01*
X26575Y109472D01*
X27743Y109474D01*
Y104773D01*
X26418Y104771D01*
X26265Y104734D01*
X26120Y104674D01*
X25985Y104592D01*
X25866Y104490D01*
X25763Y104370D01*
X25681Y104236D01*
X25621Y104090D01*
X25584Y103937D01*
X25575Y103780D01*
X25584Y98505D01*
X25621Y98352D01*
X25681Y98207D01*
X25763Y98073D01*
X25866Y97953D01*
X25985Y97851D01*
X26120Y97769D01*
X26265Y97708D01*
X26418Y97672D01*
X26575Y97662D01*
X27743Y97664D01*
Y87093D01*
X23326D01*
Y89205D01*
X23877Y89207D01*
X24030Y89243D01*
X24175Y89304D01*
X24309Y89386D01*
X24429Y89488D01*
X24531Y89608D01*
X24613Y89742D01*
X24674Y89887D01*
X24710Y90040D01*
X24720Y90197D01*
X24710Y94290D01*
X24674Y94443D01*
X24613Y94589D01*
X24531Y94723D01*
X24429Y94843D01*
X24309Y94945D01*
X24175Y95027D01*
X24030Y95087D01*
X23877Y95124D01*
X23720Y95133D01*
X23326Y95132D01*
Y95511D01*
X23390Y95526D01*
X23608Y95616D01*
X23809Y95740D01*
X23989Y95893D01*
X24142Y96073D01*
X24265Y96274D01*
X24356Y96492D01*
X24411Y96722D01*
X24425Y96957D01*
X24411Y100692D01*
X24356Y100922D01*
X24265Y101140D01*
X24142Y101341D01*
X23989Y101521D01*
X23809Y101674D01*
X23608Y101798D01*
X23390Y101888D01*
X23160Y101943D01*
X22925Y101957D01*
X21189Y101943D01*
X20960Y101888D01*
X20742Y101798D01*
X20540Y101674D01*
X20361Y101521D01*
X20208Y101341D01*
X20084Y101140D01*
X19994Y100922D01*
X19939Y100692D01*
X19925Y100457D01*
X19927Y99790D01*
X19314D01*
X19311Y100692D01*
X19256Y100922D01*
X19165Y101140D01*
X19042Y101341D01*
X18889Y101521D01*
X18709Y101674D01*
X18508Y101798D01*
X18290Y101888D01*
X18060Y101943D01*
X17825Y101957D01*
X17323Y101953D01*
Y102465D01*
G37*
G36*
X23365Y133701D02*X27743D01*
Y131687D01*
X27553Y131705D01*
X27092D01*
X26634Y131661D01*
X26181Y131575D01*
X25738Y131447D01*
X25310Y131278D01*
X25206Y131221D01*
X25112Y131148D01*
X25031Y131062D01*
X24964Y130964D01*
X24913Y130857D01*
X24880Y130743D01*
X24865Y130625D01*
X24869Y130506D01*
X24891Y130390D01*
X24931Y130278D01*
X24988Y130174D01*
X25061Y130080D01*
X25147Y129999D01*
X25245Y129932D01*
X25353Y129882D01*
X25466Y129849D01*
X25584Y129834D01*
X25703Y129837D01*
X25819Y129859D01*
X25930Y129902D01*
X26225Y130022D01*
X26532Y130111D01*
X26845Y130171D01*
X27163Y130201D01*
X27482D01*
X27743Y130176D01*
Y123446D01*
X27482Y123421D01*
X27163D01*
X26845Y123451D01*
X26532Y123511D01*
X26225Y123600D01*
X25928Y123717D01*
X25818Y123759D01*
X25702Y123781D01*
X25584Y123785D01*
X25467Y123770D01*
X25354Y123737D01*
X25247Y123686D01*
X25150Y123620D01*
X25064Y123539D01*
X24991Y123446D01*
X24934Y123342D01*
X24895Y123231D01*
X24873Y123115D01*
X24869Y122997D01*
X24884Y122880D01*
X24917Y122767D01*
X24967Y122660D01*
X25034Y122562D01*
X25114Y122476D01*
X25208Y122404D01*
X25312Y122349D01*
X25738Y122175D01*
X26181Y122047D01*
X26634Y121961D01*
X27092Y121917D01*
X27553D01*
X27743Y121935D01*
Y120061D01*
X23681Y115999D01*
X23365Y115998D01*
Y124376D01*
X23391Y124368D01*
X23509Y124353D01*
X23627Y124357D01*
X23744Y124379D01*
X23856Y124419D01*
X23960Y124476D01*
X24053Y124549D01*
X24135Y124635D01*
X24202Y124733D01*
X24252Y124841D01*
X24285Y124955D01*
X24300Y125072D01*
X24297Y125191D01*
X24274Y125308D01*
X24232Y125418D01*
X24111Y125714D01*
X24023Y126020D01*
X23963Y126334D01*
X23933Y126651D01*
Y126971D01*
X23963Y127288D01*
X24023Y127602D01*
X24111Y127909D01*
X24229Y128205D01*
X24271Y128316D01*
X24293Y128432D01*
X24296Y128549D01*
X24282Y128667D01*
X24249Y128780D01*
X24198Y128887D01*
X24132Y128984D01*
X24051Y129070D01*
X23958Y129143D01*
X23854Y129199D01*
X23743Y129239D01*
X23627Y129261D01*
X23509Y129265D01*
X23392Y129250D01*
X23365Y129242D01*
Y133701D01*
G37*
G36*
X17323D02*X23365D01*
Y129242D01*
X23279Y129217D01*
X23172Y129167D01*
X23074Y129100D01*
X22988Y129019D01*
X22916Y128926D01*
X22861Y128822D01*
X22687Y128395D01*
X22559Y127953D01*
X22472Y127500D01*
X22429Y127041D01*
Y126581D01*
X22472Y126122D01*
X22559Y125669D01*
X22687Y125227D01*
X22856Y124798D01*
X22913Y124694D01*
X22985Y124600D01*
X23072Y124519D01*
X23170Y124452D01*
X23277Y124401D01*
X23365Y124376D01*
Y115998D01*
X20611Y115990D01*
X20458Y115953D01*
X20313Y115893D01*
X20178Y115811D01*
X20059Y115709D01*
X19957Y115589D01*
X19874Y115455D01*
X19814Y115309D01*
X19777Y115156D01*
X19768Y114999D01*
X19777Y110907D01*
X19814Y110754D01*
X19874Y110608D01*
X19957Y110474D01*
X20059Y110354D01*
X20178Y110252D01*
X20313Y110170D01*
X20458Y110110D01*
X20611Y110073D01*
X20768Y110063D01*
X21092Y110064D01*
Y108920D01*
X20960Y108888D01*
X20875Y108853D01*
X20790Y108888D01*
X20560Y108943D01*
X20325Y108957D01*
X18589Y108943D01*
X18360Y108888D01*
X18325Y108874D01*
X18290Y108888D01*
X18060Y108943D01*
X17825Y108957D01*
X17323Y108953D01*
Y110068D01*
X18759Y110073D01*
X18912Y110110D01*
X19057Y110170D01*
X19192Y110252D01*
X19311Y110354D01*
X19414Y110474D01*
X19496Y110608D01*
X19556Y110754D01*
X19593Y110907D01*
X19602Y111063D01*
X19593Y115156D01*
X19556Y115309D01*
X19496Y115455D01*
X19414Y115589D01*
X19311Y115709D01*
X19192Y115811D01*
X19057Y115893D01*
X18912Y115953D01*
X18759Y115990D01*
X18602Y115999D01*
X17323Y115996D01*
Y121924D01*
X20952Y121931D01*
X21181Y121986D01*
X21400Y122077D01*
X21601Y122200D01*
X21780Y122353D01*
X21934Y122533D01*
X22057Y122734D01*
X22148Y122952D01*
X22203Y123182D01*
X22217Y123417D01*
X22203Y130440D01*
X22148Y130670D01*
X22057Y130888D01*
X21934Y131089D01*
X21780Y131269D01*
X21601Y131422D01*
X21400Y131545D01*
X21181Y131636D01*
X20952Y131691D01*
X20717Y131705D01*
X17323Y131698D01*
Y133701D01*
G37*
G36*
X13176Y28089D02*X13280Y28083D01*
X15243Y28085D01*
X14980Y27989D01*
X14659Y27838D01*
X14353Y27660D01*
X14303Y27623D01*
X14259Y27578D01*
X14224Y27527D01*
X14196Y27470D01*
X14178Y27411D01*
X14170Y27349D01*
X14171Y27286D01*
X14182Y27225D01*
X14202Y27166D01*
X14232Y27111D01*
X14270Y27061D01*
X14315Y27018D01*
X14366Y26982D01*
X14422Y26955D01*
X14482Y26936D01*
X14544Y26928D01*
X14606Y26929D01*
X14668Y26940D01*
X14727Y26961D01*
X14781Y26991D01*
X15026Y27137D01*
X15284Y27258D01*
X15552Y27356D01*
X15828Y27430D01*
X16109Y27480D01*
X16393Y27505D01*
X16678D01*
X16962Y27480D01*
X17243Y27430D01*
X17323Y27409D01*
Y21095D01*
X17243Y21074D01*
X16962Y21024D01*
X16678Y20999D01*
X16393D01*
X16109Y21024D01*
X15828Y21074D01*
X15552Y21148D01*
X15284Y21246D01*
X15026Y21367D01*
X14779Y21510D01*
X14725Y21540D01*
X14667Y21561D01*
X14606Y21572D01*
X14544Y21573D01*
X14483Y21564D01*
X14423Y21546D01*
X14367Y21519D01*
X14317Y21484D01*
X14272Y21441D01*
X14235Y21392D01*
X14205Y21337D01*
X14185Y21278D01*
X14174Y21217D01*
X14173Y21155D01*
X14181Y21094D01*
X14199Y21035D01*
X14226Y20979D01*
X14262Y20928D01*
X14305Y20883D01*
X14355Y20847D01*
X14659Y20666D01*
X14980Y20515D01*
X15313Y20394D01*
X15656Y20301D01*
X16005Y20240D01*
X16358Y20209D01*
X16713D01*
X17066Y20240D01*
X17323Y20285D01*
Y12047D01*
X13176D01*
Y22008D01*
X13210Y21976D01*
X13261Y21940D01*
X13317Y21913D01*
X13377Y21895D01*
X13439Y21886D01*
X13501Y21887D01*
X13563Y21898D01*
X13622Y21919D01*
X13677Y21948D01*
X13727Y21986D01*
X13770Y22031D01*
X13806Y22082D01*
X13833Y22139D01*
X13851Y22198D01*
X13859Y22260D01*
X13858Y22323D01*
X13847Y22384D01*
X13827Y22443D01*
X13796Y22498D01*
X13650Y22743D01*
X13529Y23001D01*
X13431Y23269D01*
X13357Y23544D01*
X13308Y23825D01*
X13283Y24109D01*
Y24395D01*
X13308Y24679D01*
X13357Y24960D01*
X13431Y25235D01*
X13529Y25503D01*
X13650Y25761D01*
X13794Y26008D01*
X13824Y26062D01*
X13844Y26120D01*
X13855Y26181D01*
X13856Y26243D01*
X13848Y26305D01*
X13830Y26364D01*
X13803Y26420D01*
X13767Y26471D01*
X13724Y26515D01*
X13675Y26553D01*
X13620Y26582D01*
X13562Y26602D01*
X13501Y26613D01*
X13439Y26615D01*
X13377Y26606D01*
X13318Y26588D01*
X13262Y26561D01*
X13212Y26526D01*
X13176Y26491D01*
Y28089D01*
G37*
G36*
Y43935D02*X13280Y43929D01*
X15585Y43931D01*
X15313Y43858D01*
X14980Y43737D01*
X14659Y43586D01*
X14353Y43408D01*
X14303Y43371D01*
X14259Y43326D01*
X14224Y43275D01*
X14196Y43218D01*
X14178Y43159D01*
X14170Y43097D01*
X14171Y43034D01*
X14182Y42973D01*
X14202Y42914D01*
X14232Y42859D01*
X14270Y42809D01*
X14315Y42766D01*
X14366Y42730D01*
X14422Y42703D01*
X14482Y42685D01*
X14544Y42676D01*
X14606Y42677D01*
X14668Y42688D01*
X14727Y42709D01*
X14781Y42739D01*
X15026Y42885D01*
X15284Y43006D01*
X15552Y43104D01*
X15828Y43178D01*
X16109Y43228D01*
X16393Y43253D01*
X16678D01*
X16962Y43228D01*
X17243Y43178D01*
X17323Y43157D01*
Y36843D01*
X17243Y36822D01*
X16962Y36772D01*
X16678Y36747D01*
X16393D01*
X16109Y36772D01*
X15828Y36822D01*
X15552Y36896D01*
X15284Y36994D01*
X15026Y37115D01*
X14779Y37258D01*
X14725Y37288D01*
X14667Y37309D01*
X14606Y37320D01*
X14544Y37321D01*
X14483Y37312D01*
X14423Y37294D01*
X14367Y37267D01*
X14317Y37232D01*
X14272Y37189D01*
X14235Y37140D01*
X14205Y37085D01*
X14185Y37026D01*
X14174Y36965D01*
X14173Y36903D01*
X14181Y36842D01*
X14199Y36783D01*
X14226Y36727D01*
X14262Y36676D01*
X14305Y36631D01*
X14355Y36595D01*
X14659Y36414D01*
X14980Y36263D01*
X15251Y36164D01*
X13176Y36162D01*
Y37756D01*
X13210Y37724D01*
X13261Y37688D01*
X13317Y37661D01*
X13377Y37643D01*
X13439Y37634D01*
X13501Y37636D01*
X13563Y37647D01*
X13622Y37667D01*
X13677Y37696D01*
X13727Y37734D01*
X13770Y37779D01*
X13806Y37830D01*
X13833Y37887D01*
X13851Y37946D01*
X13859Y38008D01*
X13858Y38071D01*
X13847Y38132D01*
X13827Y38191D01*
X13796Y38246D01*
X13650Y38491D01*
X13529Y38749D01*
X13431Y39017D01*
X13357Y39292D01*
X13308Y39573D01*
X13283Y39857D01*
Y40143D01*
X13308Y40427D01*
X13357Y40708D01*
X13431Y40983D01*
X13529Y41251D01*
X13650Y41509D01*
X13794Y41756D01*
X13824Y41810D01*
X13844Y41869D01*
X13855Y41930D01*
X13856Y41991D01*
X13848Y42053D01*
X13830Y42112D01*
X13803Y42168D01*
X13767Y42219D01*
X13724Y42264D01*
X13675Y42301D01*
X13620Y42330D01*
X13562Y42350D01*
X13501Y42361D01*
X13439Y42363D01*
X13377Y42354D01*
X13318Y42336D01*
X13262Y42309D01*
X13212Y42274D01*
X13176Y42239D01*
Y43935D01*
G37*
G36*
Y59585D02*X13280Y59579D01*
X15243Y59581D01*
X14980Y59485D01*
X14659Y59334D01*
X14353Y59156D01*
X14303Y59119D01*
X14259Y59074D01*
X14224Y59023D01*
X14196Y58966D01*
X14178Y58907D01*
X14170Y58845D01*
X14171Y58782D01*
X14182Y58721D01*
X14202Y58662D01*
X14232Y58607D01*
X14270Y58557D01*
X14315Y58514D01*
X14366Y58478D01*
X14422Y58451D01*
X14482Y58433D01*
X14544Y58424D01*
X14606Y58425D01*
X14668Y58436D01*
X14727Y58457D01*
X14781Y58487D01*
X15026Y58633D01*
X15284Y58754D01*
X15552Y58852D01*
X15828Y58926D01*
X16109Y58976D01*
X16393Y59001D01*
X16678D01*
X16962Y58976D01*
X17243Y58926D01*
X17323Y58905D01*
Y52591D01*
X17243Y52570D01*
X16962Y52520D01*
X16678Y52495D01*
X16393D01*
X16109Y52520D01*
X15828Y52570D01*
X15552Y52644D01*
X15284Y52742D01*
X15026Y52863D01*
X14779Y53006D01*
X14725Y53036D01*
X14667Y53057D01*
X14606Y53068D01*
X14544Y53069D01*
X14483Y53060D01*
X14423Y53042D01*
X14367Y53015D01*
X14317Y52980D01*
X14272Y52937D01*
X14235Y52888D01*
X14205Y52833D01*
X14185Y52774D01*
X14174Y52713D01*
X14173Y52651D01*
X14181Y52590D01*
X14199Y52531D01*
X14226Y52475D01*
X14262Y52424D01*
X14305Y52379D01*
X14355Y52343D01*
X14659Y52162D01*
X14980Y52011D01*
X15313Y51890D01*
X15591Y51815D01*
X13176Y51813D01*
Y53504D01*
X13210Y53472D01*
X13261Y53436D01*
X13317Y53409D01*
X13377Y53391D01*
X13439Y53382D01*
X13501Y53384D01*
X13563Y53395D01*
X13622Y53415D01*
X13677Y53444D01*
X13727Y53482D01*
X13770Y53527D01*
X13806Y53578D01*
X13833Y53635D01*
X13851Y53694D01*
X13859Y53756D01*
X13858Y53819D01*
X13847Y53880D01*
X13827Y53939D01*
X13796Y53994D01*
X13650Y54239D01*
X13529Y54497D01*
X13431Y54765D01*
X13357Y55040D01*
X13308Y55321D01*
X13283Y55605D01*
Y55891D01*
X13308Y56175D01*
X13357Y56456D01*
X13431Y56731D01*
X13529Y56999D01*
X13650Y57257D01*
X13794Y57504D01*
X13824Y57558D01*
X13844Y57617D01*
X13855Y57678D01*
X13856Y57740D01*
X13848Y57801D01*
X13830Y57860D01*
X13803Y57916D01*
X13767Y57967D01*
X13724Y58012D01*
X13675Y58049D01*
X13620Y58078D01*
X13562Y58098D01*
X13501Y58109D01*
X13439Y58111D01*
X13377Y58102D01*
X13318Y58084D01*
X13262Y58057D01*
X13212Y58022D01*
X13176Y57987D01*
Y59585D01*
G37*
G36*
Y122120D02*X13246Y122077D01*
X13464Y121986D01*
X13694Y121931D01*
X13929Y121917D01*
X17323Y121924D01*
Y115996D01*
X15493Y115990D01*
X15340Y115953D01*
X15195Y115893D01*
X15060Y115811D01*
X14941Y115709D01*
X14839Y115589D01*
X14756Y115455D01*
X14696Y115309D01*
X14659Y115156D01*
X14650Y114999D01*
X14659Y110907D01*
X14696Y110754D01*
X14756Y110608D01*
X14839Y110474D01*
X14941Y110354D01*
X15060Y110252D01*
X15195Y110170D01*
X15340Y110110D01*
X15493Y110073D01*
X15650Y110063D01*
X17323Y110068D01*
Y108953D01*
X16089Y108943D01*
X15860Y108888D01*
X15642Y108798D01*
X15440Y108674D01*
X15261Y108521D01*
X15108Y108341D01*
X14984Y108140D01*
X14894Y107922D01*
X14839Y107692D01*
X14825Y107457D01*
X14839Y103722D01*
X14894Y103492D01*
X14984Y103274D01*
X15108Y103073D01*
X15261Y102893D01*
X15440Y102740D01*
X15642Y102616D01*
X15860Y102526D01*
X16089Y102471D01*
X16325Y102457D01*
X17323Y102465D01*
Y101953D01*
X16089Y101943D01*
X15860Y101888D01*
X15642Y101798D01*
X15440Y101674D01*
X15261Y101521D01*
X15108Y101341D01*
X14984Y101140D01*
X14894Y100922D01*
X14839Y100692D01*
X14825Y100457D01*
X14839Y96722D01*
X14894Y96492D01*
X14984Y96274D01*
X15108Y96073D01*
X15261Y95893D01*
X15440Y95740D01*
X15642Y95616D01*
X15860Y95526D01*
X16089Y95471D01*
X16325Y95457D01*
X17323Y95465D01*
Y95130D01*
X15493Y95124D01*
X15340Y95087D01*
X15194Y95027D01*
X15060Y94945D01*
X14940Y94843D01*
X14838Y94723D01*
X14756Y94589D01*
X14696Y94443D01*
X14659Y94290D01*
X14650Y94133D01*
X14659Y90040D01*
X14696Y89887D01*
X14756Y89742D01*
X14838Y89608D01*
X14940Y89488D01*
X15060Y89386D01*
X15194Y89304D01*
X15340Y89243D01*
X15493Y89207D01*
X15650Y89197D01*
X17323Y89202D01*
Y87093D01*
X16373D01*
X16298Y87111D01*
X15945Y87139D01*
X15592Y87111D01*
X15247Y87028D01*
X14920Y86893D01*
X14618Y86708D01*
X14349Y86478D01*
X14119Y86208D01*
X13934Y85907D01*
X13798Y85579D01*
X13716Y85235D01*
X13688Y84882D01*
X13716Y84529D01*
X13798Y84184D01*
X13934Y83857D01*
X14119Y83555D01*
X14266Y83390D01*
X14388Y83247D01*
X14657Y83017D01*
X14657Y83017D01*
X14844Y82902D01*
X14959Y82832D01*
X15286Y82696D01*
X15631Y82614D01*
X15631D01*
X15984Y82586D01*
X16072Y82593D01*
X17323D01*
Y67663D01*
X13176Y67658D01*
Y122120D01*
G37*
G36*
Y133701D02*X17323D01*
Y131698D01*
X13694Y131691D01*
X13464Y131636D01*
X13246Y131545D01*
X13176Y131502D01*
Y133701D01*
G37*
G36*
X10630D02*X13176D01*
Y131502D01*
X13045Y131422D01*
X12865Y131269D01*
X12712Y131089D01*
X12588Y130888D01*
X12498Y130670D01*
X12443Y130440D01*
X12429Y130205D01*
X12443Y123182D01*
X12498Y122952D01*
X12588Y122734D01*
X12712Y122533D01*
X12865Y122353D01*
X13045Y122200D01*
X13176Y122120D01*
Y67658D01*
X13156Y67658D01*
X13035Y67629D01*
X12921Y67582D01*
X12815Y67517D01*
X12721Y67437D01*
X12640Y67342D01*
X12576Y67237D01*
X12528Y67122D01*
X12499Y67002D01*
X12492Y66878D01*
X12499Y60243D01*
X12528Y60122D01*
X12576Y60008D01*
X12640Y59902D01*
X12721Y59808D01*
X12815Y59727D01*
X12921Y59662D01*
X13035Y59615D01*
X13156Y59586D01*
X13176Y59585D01*
Y57987D01*
X13167Y57979D01*
X13130Y57929D01*
X12949Y57624D01*
X12799Y57303D01*
X12677Y56970D01*
X12585Y56628D01*
X12523Y56279D01*
X12492Y55925D01*
Y55571D01*
X12523Y55218D01*
X12585Y54868D01*
X12677Y54526D01*
X12799Y54193D01*
X12949Y53872D01*
X13127Y53565D01*
X13165Y53515D01*
X13176Y53504D01*
Y51813D01*
X13171Y51813D01*
X13066Y51787D01*
X12966Y51746D01*
X12873Y51689D01*
X12791Y51619D01*
X12720Y51536D01*
X12664Y51444D01*
X12622Y51343D01*
X12597Y51238D01*
X12591Y51130D01*
X12597Y44510D01*
X12622Y44405D01*
X12664Y44304D01*
X12720Y44212D01*
X12791Y44129D01*
X12873Y44059D01*
X12966Y44002D01*
X13066Y43961D01*
X13171Y43936D01*
X13176Y43935D01*
Y42239D01*
X13167Y42231D01*
X13130Y42181D01*
X12949Y41876D01*
X12799Y41555D01*
X12677Y41222D01*
X12585Y40880D01*
X12523Y40530D01*
X12492Y40177D01*
Y39823D01*
X12523Y39470D01*
X12585Y39120D01*
X12677Y38778D01*
X12799Y38445D01*
X12949Y38124D01*
X13127Y37817D01*
X13165Y37767D01*
X13176Y37756D01*
Y36162D01*
X13156Y36162D01*
X13035Y36133D01*
X12921Y36086D01*
X12815Y36021D01*
X12721Y35940D01*
X12640Y35846D01*
X12576Y35741D01*
X12528Y35626D01*
X12499Y35505D01*
X12492Y35382D01*
X12499Y28747D01*
X12528Y28626D01*
X12576Y28511D01*
X12640Y28406D01*
X12721Y28312D01*
X12815Y28231D01*
X12921Y28166D01*
X13035Y28119D01*
X13156Y28090D01*
X13176Y28089D01*
Y26491D01*
X13167Y26483D01*
X13130Y26433D01*
X12949Y26128D01*
X12799Y25807D01*
X12677Y25474D01*
X12585Y25132D01*
X12523Y24782D01*
X12492Y24429D01*
Y24075D01*
X12523Y23721D01*
X12585Y23372D01*
X12677Y23030D01*
X12799Y22697D01*
X12949Y22376D01*
X13127Y22069D01*
X13165Y22019D01*
X13176Y22008D01*
Y12047D01*
X10630D01*
Y133701D01*
G37*
G36*
X154992Y119779D02*X155256Y119515D01*
Y118289D01*
X154992Y118288D01*
Y119779D01*
G37*
G36*
Y130256D02*X175501D01*
X175514Y124560D01*
X175569Y124330D01*
X175659Y124112D01*
X175783Y123911D01*
X175936Y123731D01*
X176116Y123578D01*
X176317Y123455D01*
X176535Y123364D01*
X176746Y123314D01*
X170461Y117029D01*
X170435Y117006D01*
X170344Y116900D01*
X170271Y116781D01*
X170218Y116653D01*
X170185Y116517D01*
X170174Y116378D01*
X170177Y116343D01*
Y61233D01*
X168334Y59390D01*
X154992D01*
Y105883D01*
X159530Y105887D01*
X159620Y105908D01*
X159706Y105944D01*
X159786Y105993D01*
X159856Y106053D01*
X159917Y106124D01*
X159965Y106203D01*
X160001Y106289D01*
X160023Y106379D01*
X160028Y106472D01*
X160023Y117794D01*
X160001Y117884D01*
X159965Y117970D01*
X159917Y118049D01*
X159856Y118120D01*
X159786Y118181D01*
X159706Y118229D01*
X159620Y118265D01*
X159530Y118287D01*
X159437Y118292D01*
X157028Y118290D01*
Y119847D01*
X157030Y119882D01*
X157019Y120021D01*
X156987Y120156D01*
X156933Y120285D01*
X156861Y120404D01*
X156861Y120404D01*
X156770Y120510D01*
X156744Y120533D01*
X154992Y122285D01*
Y124941D01*
X161838D01*
X165059Y121720D01*
Y118288D01*
X162753Y118287D01*
X162663Y118265D01*
X162577Y118229D01*
X162498Y118181D01*
X162427Y118120D01*
X162367Y118049D01*
X162318Y117970D01*
X162282Y117884D01*
X162261Y117794D01*
X162255Y117701D01*
X162261Y106379D01*
X162282Y106289D01*
X162318Y106203D01*
X162367Y106124D01*
X162427Y106053D01*
X162498Y105993D01*
X162577Y105944D01*
X162663Y105908D01*
X162753Y105887D01*
X162846Y105881D01*
X169530Y105887D01*
X169620Y105908D01*
X169706Y105944D01*
X169786Y105993D01*
X169856Y106053D01*
X169917Y106124D01*
X169965Y106203D01*
X170001Y106289D01*
X170023Y106379D01*
X170028Y106472D01*
X170023Y117794D01*
X170001Y117884D01*
X169965Y117970D01*
X169917Y118049D01*
X169856Y118120D01*
X169786Y118181D01*
X169706Y118229D01*
X169620Y118265D01*
X169530Y118287D01*
X169437Y118292D01*
X166831Y118290D01*
Y122052D01*
X166833Y122087D01*
X166823Y122226D01*
X166790Y122361D01*
X166737Y122490D01*
X166664Y122609D01*
X166664Y122609D01*
X166573Y122715D01*
X166547Y122738D01*
X162856Y126429D01*
X162833Y126455D01*
X162727Y126546D01*
X162727Y126546D01*
X162608Y126618D01*
X162479Y126672D01*
X162344Y126704D01*
X162205Y126715D01*
X162170Y126713D01*
X154992D01*
Y130256D01*
G37*
G36*
Y122285D02*X153013Y124263D01*
X152991Y124290D01*
X152885Y124380D01*
X152884Y124380D01*
X152766Y124453D01*
X152637Y124506D01*
X152501Y124539D01*
X152362Y124550D01*
X152327Y124547D01*
X149852D01*
X149879Y124570D01*
X150060Y124782D01*
X150157Y124941D01*
X154992D01*
Y122285D01*
G37*
G36*
X136142Y130256D02*X154992D01*
Y126713D01*
X150157D01*
X150060Y126871D01*
X149879Y127083D01*
X149667Y127264D01*
X149429Y127410D01*
X149171Y127517D01*
X148900Y127582D01*
X148622Y127604D01*
X148344Y127582D01*
X148073Y127517D01*
X147815Y127410D01*
X147578Y127264D01*
X147366Y127083D01*
X147184Y126871D01*
X147039Y126633D01*
X146932Y126376D01*
X146867Y126105D01*
X146845Y125827D01*
X146867Y125549D01*
X146932Y125278D01*
X147039Y125020D01*
X147184Y124782D01*
X147366Y124570D01*
X147392Y124547D01*
X143267D01*
X143170Y124706D01*
X142989Y124918D01*
X142777Y125099D01*
X142539Y125245D01*
X142281Y125351D01*
X142010Y125417D01*
X141732Y125438D01*
X141454Y125417D01*
X141183Y125351D01*
X140926Y125245D01*
X140688Y125099D01*
X140476Y124918D01*
X140295Y124706D01*
X140149Y124468D01*
X140042Y124211D01*
X139977Y123939D01*
X139955Y123661D01*
X139977Y123383D01*
X140042Y123112D01*
X140149Y122855D01*
X140295Y122617D01*
X140476Y122405D01*
X140688Y122224D01*
X140926Y122078D01*
X141183Y121971D01*
X141454Y121906D01*
X141732Y121884D01*
X142010Y121906D01*
X142281Y121971D01*
X142539Y122078D01*
X142777Y122224D01*
X142989Y122405D01*
X143170Y122617D01*
X143267Y122776D01*
X143507D01*
X143444Y122737D01*
X143232Y122556D01*
X143051Y122344D01*
X142905Y122106D01*
X142798Y121848D01*
X142733Y121577D01*
X142711Y121299D01*
X142733Y121021D01*
X142798Y120750D01*
X142905Y120492D01*
X143051Y120255D01*
X143232Y120043D01*
X143444Y119862D01*
X143681Y119716D01*
X143939Y119609D01*
X144210Y119544D01*
X144488Y119522D01*
X144716Y119540D01*
X145059Y119197D01*
Y118288D01*
X142753Y118287D01*
X142663Y118265D01*
X142577Y118229D01*
X142498Y118181D01*
X142427Y118120D01*
X142367Y118049D01*
X142318Y117970D01*
X142282Y117884D01*
X142261Y117794D01*
X142255Y117701D01*
X142261Y106379D01*
X142282Y106289D01*
X142318Y106203D01*
X142367Y106124D01*
X142427Y106053D01*
X142498Y105993D01*
X142577Y105944D01*
X142663Y105908D01*
X142753Y105887D01*
X142846Y105881D01*
X149530Y105887D01*
X149620Y105908D01*
X149706Y105944D01*
X149786Y105993D01*
X149856Y106053D01*
X149917Y106124D01*
X149965Y106203D01*
X150001Y106289D01*
X150023Y106379D01*
X150028Y106472D01*
X150023Y117794D01*
X150001Y117884D01*
X149965Y117970D01*
X149917Y118049D01*
X149856Y118120D01*
X149786Y118181D01*
X149706Y118229D01*
X149620Y118265D01*
X149530Y118287D01*
X149437Y118292D01*
X147224Y118290D01*
Y119603D01*
X147228Y119646D01*
X147214Y119816D01*
X147175Y119981D01*
X147148Y120046D01*
X147109Y120139D01*
X147075Y120195D01*
X147020Y120284D01*
X147020Y120284D01*
X146910Y120414D01*
X146877Y120441D01*
X146246Y121072D01*
X146260Y121299D01*
X146243Y121577D01*
X146178Y121848D01*
X146072Y122106D01*
X145926Y122344D01*
X145745Y122556D01*
X145533Y122737D01*
X145469Y122776D01*
X151995D01*
X154992Y119779D01*
Y118288D01*
X152753Y118287D01*
X152663Y118265D01*
X152577Y118229D01*
X152498Y118181D01*
X152427Y118120D01*
X152367Y118049D01*
X152318Y117970D01*
X152282Y117884D01*
X152261Y117794D01*
X152255Y117701D01*
X152261Y106379D01*
X152282Y106289D01*
X152318Y106203D01*
X152367Y106124D01*
X152427Y106053D01*
X152498Y105993D01*
X152577Y105944D01*
X152663Y105908D01*
X152753Y105887D01*
X152846Y105881D01*
X154992Y105883D01*
Y59390D01*
X147476D01*
X147441Y59392D01*
X147302Y59382D01*
X147166Y59349D01*
X147038Y59296D01*
X146919Y59223D01*
X146919Y59223D01*
X146813Y59132D01*
X146790Y59106D01*
X146090Y58406D01*
X136142D01*
Y93445D01*
X139987D01*
X141160Y92272D01*
X141223Y92010D01*
X141330Y91752D01*
X141476Y91515D01*
X141657Y91303D01*
X141869Y91121D01*
X142107Y90976D01*
X142364Y90869D01*
X142635Y90804D01*
X142913Y90782D01*
X143191Y90804D01*
X143463Y90869D01*
X143720Y90976D01*
X143958Y91121D01*
X144170Y91303D01*
X144351Y91515D01*
X144497Y91752D01*
X144603Y92010D01*
X144669Y92281D01*
X144685Y92559D01*
X144669Y92837D01*
X144603Y93108D01*
X144497Y93366D01*
X144351Y93604D01*
X144170Y93816D01*
X143958Y93997D01*
X143720Y94142D01*
X143536Y94219D01*
X143579Y94255D01*
X143760Y94467D01*
X143906Y94705D01*
X144013Y94963D01*
X144078Y95234D01*
X144094Y95512D01*
X144078Y95790D01*
X144013Y96061D01*
X143906Y96319D01*
X143760Y96556D01*
X143579Y96768D01*
X143367Y96949D01*
X143130Y97095D01*
X142872Y97202D01*
X142601Y97267D01*
X142323Y97289D01*
X142045Y97267D01*
X141774Y97202D01*
X141516Y97095D01*
X141278Y96949D01*
X141066Y96768D01*
X140885Y96556D01*
X140788Y96398D01*
X136142D01*
Y105884D01*
X139530Y105887D01*
X139620Y105908D01*
X139706Y105944D01*
X139786Y105993D01*
X139856Y106053D01*
X139917Y106124D01*
X139965Y106203D01*
X140001Y106289D01*
X140023Y106379D01*
X140028Y106472D01*
X140023Y117794D01*
X140001Y117884D01*
X139965Y117970D01*
X139917Y118049D01*
X139856Y118120D01*
X139786Y118181D01*
X139706Y118229D01*
X139620Y118265D01*
X139530Y118287D01*
X139437Y118292D01*
X137028Y118290D01*
Y126530D01*
X137068Y126554D01*
X137280Y126736D01*
X137461Y126948D01*
X137607Y127185D01*
X137714Y127443D01*
X137779Y127714D01*
X137795Y127992D01*
X137779Y128270D01*
X137714Y128541D01*
X137607Y128799D01*
X137461Y129037D01*
X137280Y129249D01*
X137068Y129430D01*
X136830Y129575D01*
X136573Y129682D01*
X136302Y129747D01*
X136142Y129760D01*
Y130256D01*
G37*
G36*
X106142Y97185D02*X116759D01*
X120215Y93729D01*
X120238Y93702D01*
X120344Y93612D01*
X120344Y93612D01*
X120463Y93539D01*
X120592Y93486D01*
X120727Y93453D01*
X120866Y93442D01*
X120901Y93445D01*
X136142D01*
Y58406D01*
X122414D01*
X119352Y61468D01*
X119329Y61494D01*
X119223Y61585D01*
X119223Y61585D01*
X119104Y61658D01*
X118975Y61711D01*
X118840Y61744D01*
X118701Y61755D01*
X118666Y61752D01*
X115314D01*
X115217Y61911D01*
X115036Y62123D01*
X114824Y62304D01*
X114586Y62449D01*
X114329Y62556D01*
X114058Y62621D01*
X113780Y62643D01*
X113502Y62621D01*
X113230Y62556D01*
X112973Y62449D01*
X112735Y62304D01*
X112523Y62123D01*
X112500Y62096D01*
Y79200D01*
X121982Y88682D01*
X122163Y88639D01*
X122441Y88617D01*
X122719Y88639D01*
X122990Y88704D01*
X123248Y88810D01*
X123485Y88956D01*
X123697Y89137D01*
X123879Y89349D01*
X124024Y89587D01*
X124131Y89845D01*
X124196Y90116D01*
X124212Y90394D01*
X124196Y90672D01*
X124131Y90943D01*
X124024Y91200D01*
X123879Y91438D01*
X123697Y91650D01*
X123485Y91831D01*
X123248Y91977D01*
X122990Y92084D01*
X122719Y92149D01*
X122441Y92171D01*
X122163Y92149D01*
X121892Y92084D01*
X121634Y91977D01*
X121396Y91831D01*
X121184Y91650D01*
X121003Y91438D01*
X120858Y91200D01*
X120751Y90943D01*
X120686Y90672D01*
X120664Y90394D01*
X120686Y90116D01*
X120729Y89935D01*
X114469Y83674D01*
Y93780D01*
X114627Y93877D01*
X114839Y94058D01*
X115020Y94270D01*
X115166Y94508D01*
X115273Y94766D01*
X115338Y95037D01*
X115354Y95315D01*
X115338Y95593D01*
X115273Y95864D01*
X115166Y96122D01*
X115020Y96359D01*
X114839Y96572D01*
X114627Y96753D01*
X114389Y96898D01*
X114132Y97005D01*
X113861Y97070D01*
X113583Y97092D01*
X113305Y97070D01*
X113034Y97005D01*
X112776Y96898D01*
X112538Y96753D01*
X112326Y96572D01*
X112145Y96359D01*
X111999Y96122D01*
X111893Y95864D01*
X111828Y95593D01*
X111806Y95315D01*
X111828Y95037D01*
X111893Y94766D01*
X111999Y94508D01*
X112145Y94270D01*
X112326Y94058D01*
X112538Y93877D01*
X112697Y93780D01*
Y93123D01*
X110964Y94856D01*
X111007Y95037D01*
X111023Y95315D01*
X111007Y95593D01*
X110942Y95864D01*
X110835Y96122D01*
X110690Y96359D01*
X110508Y96571D01*
X110296Y96753D01*
X110059Y96898D01*
X109801Y97005D01*
X109530Y97070D01*
X109252Y97092D01*
X108974Y97070D01*
X108703Y97005D01*
X108445Y96898D01*
X108207Y96753D01*
X107995Y96571D01*
X107814Y96359D01*
X107669Y96122D01*
X107562Y95864D01*
X107497Y95593D01*
X107475Y95315D01*
X107497Y95037D01*
X107562Y94766D01*
X107669Y94508D01*
X107814Y94270D01*
X107995Y94058D01*
X108207Y93877D01*
X108445Y93732D01*
X108703Y93625D01*
X108974Y93560D01*
X109252Y93538D01*
X109530Y93560D01*
X109711Y93603D01*
X111516Y91798D01*
Y84265D01*
X108650Y81399D01*
X108624Y81376D01*
X108533Y81270D01*
X108460Y81151D01*
X108407Y81023D01*
X108374Y80887D01*
X108363Y80748D01*
X108366Y80713D01*
Y57099D01*
X106142Y59324D01*
Y91699D01*
X106163Y91712D01*
X106375Y91893D01*
X106556Y92105D01*
X106701Y92343D01*
X106808Y92600D01*
X106873Y92872D01*
X106890Y93150D01*
X106873Y93428D01*
X106808Y93699D01*
X106701Y93956D01*
X106556Y94194D01*
X106375Y94406D01*
X106163Y94587D01*
X106142Y94600D01*
Y97185D01*
G37*
G36*
X119437Y118292D02*X116634Y118290D01*
Y126383D01*
X116637Y126417D01*
X116626Y126556D01*
X116593Y126692D01*
X116540Y126821D01*
X116467Y126940D01*
X116467Y126940D01*
X116376Y127046D01*
X116350Y127068D01*
X115218Y128200D01*
X115195Y128227D01*
X115089Y128317D01*
X115089Y128317D01*
X114970Y128390D01*
X114842Y128443D01*
X114706Y128476D01*
X114567Y128487D01*
X114532Y128484D01*
X106142D01*
Y129075D01*
X121011D01*
X125256Y124830D01*
Y118289D01*
X122753Y118287D01*
X122663Y118265D01*
X122577Y118229D01*
X122498Y118181D01*
X122427Y118120D01*
X122367Y118049D01*
X122318Y117970D01*
X122282Y117884D01*
X122261Y117794D01*
X122255Y117701D01*
X122261Y106379D01*
X122282Y106289D01*
X122318Y106203D01*
X122367Y106124D01*
X122427Y106053D01*
X122498Y105993D01*
X122577Y105944D01*
X122663Y105908D01*
X122753Y105887D01*
X122846Y105881D01*
X129530Y105887D01*
X129620Y105908D01*
X129706Y105944D01*
X129786Y105993D01*
X129856Y106053D01*
X129917Y106124D01*
X129965Y106203D01*
X130001Y106289D01*
X130023Y106379D01*
X130028Y106472D01*
X130023Y117794D01*
X130001Y117884D01*
X129965Y117970D01*
X129917Y118049D01*
X129856Y118120D01*
X129786Y118181D01*
X129706Y118229D01*
X129620Y118265D01*
X129530Y118287D01*
X129437Y118292D01*
X127028Y118290D01*
Y125162D01*
X127030Y125197D01*
X127028Y125232D01*
Y125236D01*
X127019Y125375D01*
X126987Y125511D01*
X126933Y125640D01*
X126861Y125759D01*
X126770Y125865D01*
X126664Y125955D01*
X126592Y125999D01*
X122335Y130256D01*
X136142D01*
Y129760D01*
X136024Y129769D01*
X135746Y129747D01*
X135474Y129682D01*
X135217Y129575D01*
X134979Y129430D01*
X134767Y129249D01*
X134586Y129037D01*
X134440Y128799D01*
X134334Y128541D01*
X134268Y128270D01*
X134247Y127992D01*
X134268Y127714D01*
X134334Y127443D01*
X134440Y127185D01*
X134586Y126948D01*
X134767Y126736D01*
X134979Y126554D01*
X135217Y126409D01*
X135256Y126393D01*
Y118289D01*
X132753Y118287D01*
X132663Y118265D01*
X132577Y118229D01*
X132498Y118181D01*
X132427Y118120D01*
X132367Y118049D01*
X132318Y117970D01*
X132282Y117884D01*
X132261Y117794D01*
X132255Y117701D01*
X132261Y106379D01*
X132282Y106289D01*
X132318Y106203D01*
X132367Y106124D01*
X132427Y106053D01*
X132498Y105993D01*
X132577Y105944D01*
X132663Y105908D01*
X132753Y105887D01*
X132846Y105881D01*
X136142Y105884D01*
Y96398D01*
X121824D01*
X118367Y99854D01*
X118345Y99880D01*
X118239Y99971D01*
X118239Y99971D01*
X118120Y100044D01*
X117991Y100097D01*
X117856Y100130D01*
X117717Y100141D01*
X117682Y100138D01*
X106142D01*
Y105884D01*
X109530Y105887D01*
X109620Y105908D01*
X109706Y105944D01*
X109786Y105993D01*
X109856Y106053D01*
X109917Y106124D01*
X109965Y106203D01*
X110001Y106289D01*
X110023Y106379D01*
X110028Y106472D01*
X110023Y117794D01*
X110001Y117884D01*
X109965Y117970D01*
X109917Y118049D01*
X109856Y118120D01*
X109786Y118181D01*
X109706Y118229D01*
X109620Y118265D01*
X109530Y118287D01*
X109437Y118292D01*
X106988Y118290D01*
Y121733D01*
X107147Y121830D01*
X107359Y122011D01*
X107540Y122223D01*
X107686Y122461D01*
X107792Y122719D01*
X107858Y122990D01*
X107874Y123268D01*
X107858Y123546D01*
X107792Y123817D01*
X107686Y124074D01*
X107540Y124312D01*
X107359Y124524D01*
X107147Y124705D01*
X106909Y124851D01*
X106651Y124958D01*
X106380Y125023D01*
X106142Y125042D01*
Y126713D01*
X114200D01*
X114862Y126050D01*
Y118288D01*
X112753Y118287D01*
X112663Y118265D01*
X112577Y118229D01*
X112498Y118181D01*
X112427Y118120D01*
X112367Y118049D01*
X112318Y117970D01*
X112282Y117884D01*
X112261Y117794D01*
X112255Y117701D01*
X112261Y106379D01*
X112282Y106289D01*
X112318Y106203D01*
X112367Y106124D01*
X112427Y106053D01*
X112498Y105993D01*
X112577Y105944D01*
X112663Y105908D01*
X112753Y105887D01*
X112846Y105881D01*
X119530Y105887D01*
X119620Y105908D01*
X119706Y105944D01*
X119786Y105993D01*
X119856Y106053D01*
X119917Y106124D01*
X119965Y106203D01*
X120001Y106289D01*
X120023Y106379D01*
X120028Y106472D01*
X120023Y117794D01*
X120001Y117884D01*
X119965Y117970D01*
X119917Y118049D01*
X119856Y118120D01*
X119786Y118181D01*
X119706Y118229D01*
X119620Y118265D01*
X119530Y118287D01*
X119437Y118292D01*
G37*
G36*
X106142Y100138D02*X103775D01*
X103740Y100141D01*
X103601Y100130D01*
X103466Y100097D01*
X103337Y100044D01*
X103218Y99971D01*
X103218Y99971D01*
X103112Y99880D01*
X103089Y99854D01*
X94674Y91438D01*
X94647Y91416D01*
X94557Y91310D01*
X94484Y91191D01*
X94431Y91062D01*
X94398Y90926D01*
X94387Y90787D01*
X94390Y90753D01*
Y85629D01*
X94231Y85532D01*
X94019Y85351D01*
X93838Y85139D01*
X93692Y84901D01*
X93586Y84644D01*
X93520Y84372D01*
X93499Y84094D01*
X93520Y83816D01*
X93586Y83545D01*
X93692Y83288D01*
X93838Y83050D01*
X94019Y82838D01*
X94231Y82657D01*
X94469Y82511D01*
X94726Y82404D01*
X94998Y82339D01*
X95276Y82317D01*
X95554Y82339D01*
X95825Y82404D01*
X96082Y82511D01*
X96320Y82657D01*
X96532Y82838D01*
X96555Y82865D01*
Y82677D01*
X96396Y82579D01*
X96184Y82398D01*
X96003Y82186D01*
X95858Y81948D01*
X95751Y81691D01*
X95686Y81420D01*
X95664Y81142D01*
X95686Y80864D01*
X95751Y80593D01*
X95858Y80335D01*
X96003Y80097D01*
X96184Y79885D01*
X96396Y79704D01*
X96634Y79558D01*
X96892Y79452D01*
X97163Y79387D01*
X97441Y79365D01*
X97719Y79387D01*
X97990Y79452D01*
X98248Y79558D01*
X98485Y79704D01*
X98697Y79885D01*
X98879Y80097D01*
X99024Y80335D01*
X99131Y80593D01*
X99196Y80864D01*
X99212Y81142D01*
X99196Y81420D01*
X99131Y81691D01*
X99024Y81948D01*
X98879Y82186D01*
X98697Y82398D01*
X98485Y82579D01*
X98327Y82677D01*
Y90814D01*
X104698Y97185D01*
X106142D01*
Y94600D01*
X105925Y94733D01*
X105667Y94840D01*
X105396Y94905D01*
X105118Y94927D01*
X104840Y94905D01*
X104569Y94840D01*
X104311Y94733D01*
X104074Y94587D01*
X103862Y94406D01*
X103680Y94194D01*
X103535Y93956D01*
X103428Y93699D01*
X103363Y93428D01*
X103341Y93150D01*
X103359Y92922D01*
X103005Y92567D01*
X102972Y92540D01*
X102862Y92410D01*
X102773Y92265D01*
X102707Y92107D01*
X102668Y91942D01*
X102654Y91772D01*
X102657Y91729D01*
Y88846D01*
X102484Y88697D01*
X102303Y88485D01*
X102157Y88248D01*
X102050Y87990D01*
X101985Y87719D01*
X101963Y87441D01*
X101985Y87163D01*
X102050Y86892D01*
X102157Y86634D01*
X102303Y86396D01*
X102484Y86184D01*
X102696Y86003D01*
X102933Y85858D01*
X103191Y85751D01*
X103462Y85686D01*
X103740Y85664D01*
X104018Y85686D01*
X104289Y85751D01*
X104547Y85858D01*
X104785Y86003D01*
X104997Y86184D01*
X105178Y86396D01*
X105323Y86634D01*
X105430Y86892D01*
X105495Y87163D01*
X105512Y87441D01*
X105495Y87719D01*
X105430Y87990D01*
X105323Y88248D01*
X105178Y88485D01*
X104997Y88697D01*
X104823Y88846D01*
Y91323D01*
X104890Y91391D01*
X105118Y91373D01*
X105396Y91394D01*
X105667Y91460D01*
X105925Y91566D01*
X106142Y91699D01*
Y59324D01*
X99114Y66351D01*
Y73661D01*
X99114Y73661D01*
Y75792D01*
X99117Y75827D01*
X99106Y75966D01*
X99073Y76101D01*
X99020Y76230D01*
X98947Y76349D01*
X98947Y76349D01*
X98857Y76455D01*
X98830Y76478D01*
X93012Y82296D01*
Y97642D01*
X93015Y97677D01*
X93004Y97816D01*
X92971Y97952D01*
X92918Y98081D01*
X92845Y98199D01*
X92845Y98200D01*
X92754Y98305D01*
X92728Y98328D01*
X92421Y98635D01*
Y106060D01*
X92427Y106053D01*
X92498Y105993D01*
X92577Y105944D01*
X92663Y105908D01*
X92753Y105887D01*
X92846Y105881D01*
X99530Y105887D01*
X99620Y105908D01*
X99706Y105944D01*
X99786Y105993D01*
X99856Y106053D01*
X99917Y106124D01*
X99965Y106203D01*
X100001Y106289D01*
X100023Y106379D01*
X100028Y106472D01*
X100023Y117794D01*
X100001Y117884D01*
X99965Y117970D01*
X99917Y118049D01*
X99856Y118120D01*
X99786Y118181D01*
X99706Y118229D01*
X99620Y118265D01*
X99530Y118287D01*
X99437Y118292D01*
X96161Y118289D01*
Y123465D01*
X96251Y123248D01*
X96397Y123011D01*
X96578Y122799D01*
X96790Y122617D01*
X97028Y122472D01*
X97286Y122365D01*
X97557Y122300D01*
X97835Y122278D01*
X98113Y122300D01*
X98384Y122365D01*
X98641Y122472D01*
X98879Y122617D01*
X99091Y122799D01*
X99272Y123011D01*
X99370Y123169D01*
X100753D01*
X100787Y123167D01*
X100926Y123178D01*
X101062Y123210D01*
X101191Y123263D01*
X101310Y123336D01*
X101416Y123427D01*
X101438Y123453D01*
X104698Y126713D01*
X106142D01*
Y125042D01*
X106102Y125045D01*
X105824Y125023D01*
X105553Y124958D01*
X105296Y124851D01*
X105058Y124705D01*
X104846Y124524D01*
X104665Y124312D01*
X104519Y124074D01*
X104412Y123817D01*
X104347Y123546D01*
X104325Y123268D01*
X104347Y122990D01*
X104412Y122719D01*
X104519Y122461D01*
X104665Y122223D01*
X104846Y122011D01*
X105058Y121830D01*
X105217Y121733D01*
Y118289D01*
X102753Y118287D01*
X102663Y118265D01*
X102577Y118229D01*
X102498Y118181D01*
X102427Y118120D01*
X102367Y118049D01*
X102318Y117970D01*
X102282Y117884D01*
X102261Y117794D01*
X102255Y117701D01*
X102261Y106379D01*
X102282Y106289D01*
X102318Y106203D01*
X102367Y106124D01*
X102427Y106053D01*
X102498Y105993D01*
X102577Y105944D01*
X102663Y105908D01*
X102753Y105887D01*
X102846Y105881D01*
X106142Y105884D01*
Y100138D01*
G37*
G36*
Y128484D02*X104365D01*
X104331Y128487D01*
X104192Y128476D01*
X104056Y128444D01*
X103927Y128390D01*
X103808Y128317D01*
X103808Y128317D01*
X103702Y128227D01*
X103680Y128200D01*
X100420Y124941D01*
X99370D01*
X99272Y125100D01*
X99091Y125312D01*
X98879Y125493D01*
X98641Y125638D01*
X98384Y125745D01*
X98113Y125810D01*
X97835Y125832D01*
X97557Y125810D01*
X97286Y125745D01*
X97028Y125638D01*
X96790Y125493D01*
X96578Y125312D01*
X96397Y125100D01*
X96251Y124862D01*
X96161Y124645D01*
Y127162D01*
X96165Y127205D01*
X96151Y127375D01*
X96112Y127540D01*
X96085Y127606D01*
X96046Y127698D01*
X96012Y127754D01*
X95957Y127843D01*
X95957Y127843D01*
X95847Y127973D01*
X95814Y128000D01*
X94740Y129075D01*
X106142D01*
Y128484D01*
G37*
G54D46*X81693Y52402D02*X94685Y65394D01*
X92677Y24252D02*X93071D01*
X86181Y38425D02*Y55118D01*
X95866Y64803D01*
X83268Y59291D02*X88976Y65000D01*
X90551Y31535D02*X92913Y29173D01*
X81496Y55748D02*Y57126D01*
X79331Y55354D02*Y57913D01*
X80709Y59291D01*
X83268D01*
X81496Y57126D02*X82874D01*
X92323Y66575D01*
X98228Y65984D02*X113780Y50433D01*
X110433Y57323D02*X114961Y52795D01*
X112008Y50433D02*X107874Y54567D01*
X110827Y49843D02*X102953Y57717D01*
X113780Y50433D02*X123622D01*
X122362D02*X122283D01*
X116181Y48031D02*X113780Y50433D01*
X97047Y65394D02*X107874Y54567D01*
X95866Y64803D02*X102953Y57717D01*
X111614Y59291D02*Y79567D01*
X110433Y80157D02*Y57323D01*
X98228Y75827D02*Y73661D01*
X115748Y58504D02*X119291D01*
X121457Y56339D01*
X113780Y60866D02*X118701D01*
X122047Y57520D01*
X116929Y53976D02*X111614Y59291D01*
X119488Y55157D02*X118504Y56142D01*
X95866Y74646D02*Y64803D01*
X97047Y75236D02*Y65394D01*
X94685D02*Y74055D01*
X98228Y73661D02*Y65984D01*
X87402Y79567D02*X93504Y73465D01*
X92323Y72874D02*X88976Y76220D01*
X87402D01*
X93504Y73465D02*Y65984D01*
X92323Y66575D02*Y72874D01*
X88976Y65000D02*Y69134D01*
G54D47*X34039Y69921D02*Y44726D01*
X34041Y44724D01*
G54D48*X34039Y50639D02*X34055Y36063D01*
G54D49*X34438Y46693D02*X34044Y46299D01*
G54D47*X39754Y39017D02*X34046Y44724D01*
X54528Y39017D02*X39754D01*
G54D50*X54528Y50827D02*X49606D01*
X62008Y32126D02*Y56733D01*
G54D49*X54331Y33701D02*Y39017D01*
G54D51*X33858Y70102D02*X34039Y69921D01*
G54D49*X33858D02*X34039Y69740D01*
G54D47*X34055Y69937D02*X34039Y69921D01*
X34055Y74055D02*Y69906D01*
X25000Y62441D02*Y77205D01*
X29567Y84843D02*X34055Y80355D01*
X29567Y84843D02*X15984D01*
X15945Y84882D01*
G54D49*X22244Y84843D02*X22244Y84843D01*
G54D47*X34055Y80355D02*Y73662D01*
G54D50*X54528Y64214D02*X48847D01*
X43139Y69921D01*
X54528Y76024D02*Y79764D01*
G54D49*X62008Y78583D02*X67913Y72677D01*
G54D50*X54528Y64213D02*X62008Y56733D01*
G54D47*X37205Y83307D02*X34154Y80256D01*
G54D46*X190000Y127795D02*X186063Y123858D01*
X179134Y122677D02*X194882D01*
X200000Y127795D01*
X190000Y117795D02*X188622D01*
X165945Y122087D02*Y112638D01*
Y122087D02*X162205Y125827D01*
X178543Y123858D02*X171063Y116378D01*
X179134Y122677D02*X172244Y115787D01*
X180000Y117795D02*X176024D01*
X173425Y115197D01*
G54D50*X190157Y19331D02*Y29331D01*
X195039D01*
X199803Y34094D01*
Y76772D01*
X190157Y62795D02*X199843D01*
G54D46*X171063Y60866D02*X168701Y58504D01*
X172244Y60276D02*X169291Y57323D01*
X173425Y59685D02*X169882Y56142D01*
X170472Y54961D02*X174606Y59094D01*
X171063Y53780D02*X175787Y58504D01*
G54D50*X199803Y76772D02*X190157Y86417D01*
G54D46*X122441Y52795D02*X148819D01*
X149803Y53780D01*
X148228Y53976D02*X149213Y54961D01*
X147638Y55157D02*X148622Y56142D01*
X146457Y57520D02*X122047D01*
X148031Y57323D02*X169291D01*
X148622Y56142D02*X169882D01*
X149213Y54961D02*X170472D01*
X149803Y53780D02*X171063D01*
X166181Y38425D02*Y48622D01*
X165354Y49449D01*
X156181Y38425D02*Y28386D01*
X165354Y49449D02*X149606D01*
X148622Y50433D01*
X148031Y57323D02*X147047Y56339D01*
X146457Y57520D02*X147441Y58504D01*
X168701D01*
X133465Y24252D02*X134646Y25433D01*
X133465Y24252D02*X135433Y26220D01*
X154016D01*
X156181Y28386D01*
X172244Y115787D02*Y60276D01*
X173425Y59685D02*Y115197D01*
X174606Y59094D02*Y106732D01*
X171063Y116378D02*Y60866D01*
X180000Y107795D02*X175669D01*
X174606Y106732D01*
X190000Y107795D02*X185984Y103780D01*
X177362D01*
X175787Y102205D01*
Y58504D01*
X97047Y75236D02*X90945Y81339D01*
X95866Y74646D02*X89764Y80748D01*
G54D49*X67913Y72677D02*X85039D01*
G54D46*X90945Y81339D02*Y97087D01*
X94685Y74055D02*X88583Y80157D01*
Y95906D01*
X89764Y96496D02*Y80748D01*
X95276Y84094D02*Y90787D01*
X92126Y97677D02*Y81929D01*
X87402Y95315D02*Y79567D01*
G54D49*X76772Y85276D02*X79921Y88425D01*
G54D46*X93504Y65984D02*X75591Y48071D01*
X72638D01*
X70866Y46299D01*
Y34094D01*
X82677Y97874D02*X81496Y99055D01*
Y101024D01*
X85827Y102205D02*X82677D01*
X81496Y101024D01*
X80315Y101614D02*Y98465D01*
X82087Y96693D01*
X82677Y97874D02*X86614D01*
X88583Y95906D01*
X86220Y100039D02*X89764Y96496D01*
X85827Y102205D02*X90945Y97087D01*
X86024Y96693D02*X87402Y95315D01*
X83661Y100039D02*X86220D01*
X89567Y104370D02*X83071D01*
X80315Y101614D01*
X69291Y102598D02*X76969Y94921D01*
X82087Y96693D02*X86024D01*
X91535Y98268D02*X92126Y97677D01*
G54D49*X79921Y88425D02*X84843Y93346D01*
X61417Y85276D02*X76772D01*
G54D46*X69094Y102598D02*X69291D01*
G54D49*X61417Y92362D02*Y102205D01*
Y109291D02*Y113425D01*
X54528Y115197D02*Y105157D01*
X57677Y102008D01*
X61220D01*
X61417Y102205D01*
X38189Y117362D02*X52362D01*
X57480Y121102D02*X30315D01*
X22244Y98638D02*Y92165D01*
Y98638D02*X22175Y98707D01*
X17075D02*X22175D01*
X14411Y105707D02*X19575D01*
X30315Y101222D02*Y97087D01*
X14370Y113031D02*X17126D01*
X14370Y92165D02*X17126D01*
G54D47*X43110Y94921D02*Y89213D01*
X37205Y83307D01*
G54D49*X22175Y112962D02*Y105707D01*
X22244Y92165D02*Y84843D01*
X22175Y112962D02*X22244Y113031D01*
X30315D02*X22244D01*
X30315Y121102D02*X22244Y113031D01*
X52362Y117362D02*X54528Y115197D01*
G54D46*X61122Y118839D02*X67618D01*
X76142Y113268D02*X73287D01*
X67717Y118839D01*
X91535Y120709D02*Y98268D01*
G54D49*X78346Y121890D02*X85039Y128583D01*
X93701D01*
X95079Y127205D01*
G54D46*X78839Y129961D02*X67717Y118839D01*
G54D49*Y131339D02*X57480Y121102D01*
G54D46*X114370Y51614D02*X123031D01*
X114961Y52795D02*X122441D01*
G54D50*X77953Y18307D02*X153898D01*
X152953D02*X165118D01*
X165157D02*X178701D01*
X179724Y19331D01*
G54D46*X126181Y38425D02*Y32913D01*
X123819Y30551D01*
X129331Y25433D02*X125394Y29370D01*
X124803Y28189D02*X128740Y24252D01*
X123819Y30551D02*X112402D01*
X125394Y29370D02*X111811D01*
X109646Y31732D02*Y29764D01*
X111220Y28189D01*
X124803D01*
X136181Y38425D02*Y28740D01*
X132874Y25433D01*
X129331D01*
X128740Y24252D02*X133465D01*
X116181Y38425D02*Y48031D01*
X112008Y30945D02*Y50433D01*
X110827Y30354D02*Y49843D01*
X114370Y51614D02*X109252Y56732D01*
X112402Y30551D02*X112008Y30945D01*
X111811Y29370D02*X110827Y30354D01*
X106181Y39425D02*Y32717D01*
X108661D02*X109646Y31732D01*
X76181Y46890D02*X81693Y52402D01*
X123622Y50433D02*X148622D01*
X123031Y51614D02*X150591D01*
X147047Y56339D02*X121457D01*
X147638Y55157D02*X119488D01*
X148228Y53976D02*X116929D01*
X92913Y24252D02*Y24843D01*
X76181Y38425D02*Y46890D01*
X111614Y79567D02*X122441Y90394D01*
X113583Y83307D02*X110433Y80157D01*
X97441Y81142D02*Y91181D01*
X92126Y81929D02*X98228Y75827D01*
X112402Y83898D02*X109252Y80748D01*
G54D49*X103740Y87441D02*Y91772D01*
G54D46*X142323Y95512D02*X121457D01*
X140354Y94331D02*X120866D01*
X121457Y95512D02*X117717Y99252D01*
X120866Y94331D02*X117126Y98071D01*
X113583Y95315D02*Y83307D01*
X112402Y92165D02*Y83898D01*
X109252Y80748D02*Y56732D01*
X117717Y99252D02*X103740D01*
X117126Y98071D02*X104331D01*
X95276Y90787D02*X103740Y99252D01*
X97441Y91181D02*X104331Y98071D01*
X109252Y95315D02*X112402Y92165D01*
G54D49*X103740Y91772D02*X105118Y93150D01*
G54D46*X142913Y92559D02*X142126D01*
X140354Y94331D01*
X87402Y124646D02*X90354Y121693D01*
Y105157D01*
X89567Y104370D01*
X86142Y113268D02*Y122756D01*
X85236Y123661D01*
X92717Y121890D02*X91535Y120709D01*
X92520Y126220D02*X91929Y126811D01*
X86614D01*
X85236Y125433D01*
Y123661D02*Y125433D01*
X121378Y129961D02*X78839D01*
X97835Y124055D02*X100787D01*
X104331Y127598D01*
G54D49*X95079Y114331D02*X96142Y113268D01*
X95079Y114331D02*Y127205D01*
G54D46*X104331Y127598D02*X114567D01*
X115748Y126417D01*
Y113661D01*
X116142Y113268D01*
X106102Y123268D02*Y113307D01*
X106142Y113268D01*
G54D50*X62008Y32126D02*X75827Y18307D01*
G54D46*X72244Y32717D02*X70866Y34094D01*
X69685Y33504D02*X71654Y31535D01*
G54D50*X75827Y18307D02*X78386D01*
G54D46*X92913Y24252D02*Y29173D01*
X69685Y46890D02*X72047Y49252D01*
X75000D01*
X67126Y47874D02*X68898D01*
X71457Y50433D01*
X74409D01*
X75000Y49252D02*X81496Y55748D01*
X74409Y50433D02*X79331Y55354D01*
X72244Y32717D02*X108661D01*
X71654Y31535D02*X90551D01*
X69685Y46890D02*Y33504D01*
X186063Y123858D02*X178543D01*
X136142Y127874D02*X136024Y127992D01*
X126142Y125197D02*X121378Y129961D01*
G54D49*X180000Y127795D02*X176457Y131339D01*
X67717D01*
G54D46*X148622Y125827D02*X162205D01*
G54D49*X146142Y113268D02*Y119646D01*
X144488Y121299D01*
G54D46*X156142Y113268D02*Y119882D01*
X141732Y123661D02*X152362D01*
X156142Y119882D02*X152362Y123661D01*
X126142Y125236D02*Y113268D01*
X136142D02*Y127874D01*
G54D45*G36*
X23909Y21602D02*Y15091D01*
X30421D01*
Y21602D01*
X23909D01*
G37*
G36*
X91142Y26024D02*Y22480D01*
X94685D01*
Y26024D01*
X91142D01*
G37*
G54D52*X96850Y24252D03*
X100787D03*
X104724D03*
X108661D03*
X112598D03*
G54D53*X35039Y18346D03*
G54D45*G36*
X55406Y21602D02*Y15091D01*
X61917D01*
Y21602D01*
X55406D01*
G37*
G54D53*X66535Y18346D03*
G54D45*G36*
X39657Y21602D02*Y15091D01*
X46169D01*
Y21602D01*
X39657D01*
G37*
G54D53*X50787Y18346D03*
G54D45*G36*
X13280Y66878D02*Y60366D01*
X19791D01*
Y66878D01*
X13280D01*
G37*
G36*
X13929Y130205D02*Y123417D01*
X20717D01*
Y130205D01*
X13929D01*
G37*
G54D54*X27323Y126811D03*
G54D45*G36*
X38339Y130205D02*Y123417D01*
X45126D01*
Y130205D01*
X38339D01*
G37*
G54D54*X51732Y126811D03*
G54D53*X16535Y55748D03*
G54D45*G36*
X13280Y51130D02*Y44618D01*
X19791D01*
Y51130D01*
X13280D01*
G37*
G54D53*X16535Y40000D03*
G54D45*G36*
X13280Y35382D02*Y28870D01*
X19791D01*
Y35382D01*
X13280D01*
G37*
G54D53*X16535Y24252D03*
G54D55*X148031Y30079D03*
X130709D03*
G54D45*G36*
X185657Y23831D02*Y14831D01*
X194657D01*
Y23831D01*
X185657D01*
G37*
G36*
Y33831D02*Y24831D01*
X194657D01*
Y33831D01*
X185657D01*
G37*
G54D56*X190157Y39331D03*
G54D45*G36*
X186370Y66583D02*Y59008D01*
X193945D01*
Y66583D01*
X186370D01*
G37*
G54D57*X190157Y52795D03*
G54D45*G36*
X186370Y90205D02*Y82630D01*
X193945D01*
Y90205D01*
X186370D01*
G37*
G54D57*X190157Y76417D03*
G54D45*G36*
X177000Y130795D02*Y124795D01*
X183000D01*
Y130795D01*
X177000D01*
G37*
G54D58*X180000Y117795D03*
X190000Y127795D03*
X200000D03*
X190000Y117795D03*
X200000D03*
X180000Y107795D03*
X190000D03*
X200000D03*
X180000Y97795D03*
X190000D03*
X200000D03*
G54D59*X106142Y114406D02*Y109768D01*
X86142Y114406D02*Y109768D01*
X96142Y114406D02*Y109768D01*
X136142Y114406D02*Y109768D01*
X166142Y114406D02*Y109768D01*
X156142Y114406D02*Y109768D01*
X146142Y114406D02*Y109768D01*
X126142Y114406D02*Y109768D01*
X116142Y114406D02*Y109768D01*
X126181Y41925D02*Y36925D01*
X116181Y41925D02*Y36925D01*
X106181Y41925D02*Y36925D01*
X86181Y41925D02*Y36925D01*
X96181Y41925D02*Y36925D01*
X76181Y41925D02*Y36925D01*
G54D60*X61024Y85276D02*X61810D01*
X61024Y92362D02*X61810D01*
G54D61*X25039Y73221D02*Y66621D01*
G54D62*X17126Y92657D02*Y91673D01*
X22244Y92657D02*Y91673D01*
G54D60*X53347Y39017D02*X55709D01*
X53347Y50827D02*X55709D01*
X53347Y76024D02*X55709D01*
X53347Y64214D02*X55709D01*
G54D63*X29539Y45521D02*X38539D01*
G54D61*X34039Y73221D02*Y66621D01*
X43139Y73221D02*Y66621D01*
G54D59*X136181Y41925D02*Y36925D01*
X146181Y41925D02*Y36925D01*
X156181Y41925D02*Y36925D01*
X166181Y41925D02*Y36925D01*
G54D60*X61024Y109291D02*X61810D01*
X61024Y102205D02*X61810D01*
G54D59*X76142Y114406D02*Y109768D01*
G54D60*X29134Y101221D02*X31496D01*
G54D64*X22175Y99707D02*Y97707D01*
X17075Y99707D02*Y97707D01*
Y106707D02*Y104707D01*
X19575Y106707D02*Y104707D01*
X22175Y106707D02*Y104707D01*
G54D60*X29134Y113031D02*X31496D01*
G54D62*X22244Y113523D02*Y112539D01*
X17126Y113523D02*Y112539D01*
G54D65*X85039Y72677D03*
X87402Y124646D03*
X92717Y121890D03*
X106102Y123268D03*
X97835Y124055D03*
X84449Y76024D03*
X87402Y76220D03*
X83661Y100039D03*
X85827Y102205D03*
X84843Y93346D03*
X94488D03*
X105118Y93150D03*
X97441Y81142D03*
X95276Y84094D03*
X127559Y47874D03*
X139567Y23465D03*
X160236Y79567D03*
X159449Y68150D03*
X150591Y51614D03*
G54D66*X179724Y19331D03*
G54D65*X178346Y65984D03*
X143898Y60079D03*
X142323Y47677D03*
X74016Y103583D03*
X58268Y128583D03*
X69094Y102598D03*
X38189Y117362D03*
X61024Y118937D03*
X43110Y94921D03*
X15945Y84882D03*
X47244Y89606D03*
X30118Y91181D03*
X28150Y88426D03*
X32087D03*
X25197Y84882D03*
X28150Y93937D03*
X32087D03*
X78346Y121890D03*
X139173Y83898D03*
X103740Y87441D03*
X100591Y84094D03*
X84449Y87835D03*
X117913Y74646D03*
X122441Y90394D03*
X136024Y127992D03*
X144488Y121299D03*
X142323Y95512D03*
X141732Y123661D03*
X92520Y126220D03*
X148622Y125827D03*
X113583Y95315D03*
X139173Y91772D03*
X109252Y95315D03*
X142913Y92559D03*
X105709Y71890D03*
X88976Y69134D03*
X115748Y58504D03*
X113780Y60866D03*
X118504Y56142D03*
X76772Y94724D03*
X62008Y78583D03*
X48031Y30157D03*
X67126Y47874D03*
X54331Y33701D03*
X81496Y57126D03*
G54D67*G54D47*G54D67*G54D68*G54D65*G54D68*G54D69*G54D68*G54D70*G54D71*G54D69*M02*
