M48
INCH
T81C0.012
T80C0.035
T79C0.020
T78C0.048
T77C0.038
T76C0.031
T75C0.035
T74C0.024
%
T81
X002579Y011634
X002874Y007937
X003346Y009098
X003386Y011358
X003701Y010516
X003701Y010157
X003701Y009807
X004016Y010516
X004016Y009807
X004331Y010516
X004331Y010157
X004331Y009807
X004862Y003409
X004961Y007917
X004961Y007150
X005315Y009531
X005787Y006028
X005827Y012858
X006102Y011244
X006909Y010260
X007047Y006067
X007205Y002287
X007264Y009492
X007441Y010220
X007677Y012406
X007736Y005713
X007776Y011815
X007776Y009315
X008366Y010004
X008504Y007268
X008583Y010220
X008740Y012465
X008898Y006913
X009252Y012760
X009272Y012327
X009783Y012760
X009862Y008823
X010551Y006736
X010748Y007248
X010748Y006520
X010945Y009315
X010945Y006303
X011102Y008213
X011201Y008980
X011260Y012465
X011417Y009315
X011791Y012799
X012264Y009827
X012283Y008843
X012756Y004787
X013268Y011815
X013878Y002504
X013917Y009177
X013917Y008390
X014016Y004866
X014862Y012543
X015059Y005161
X015098Y012819
X015945Y006815
X016024Y007957
X017835Y007386
T79
X005079Y005713
T74
X009291Y002425
X009685Y002425
X010079Y002425
X010472Y002425
X010866Y002425
X011260Y002425
T76
X001654Y006362
X001654Y005575
X001654Y004787
X001654Y004000
X001654Y003213
X001654Y002425
X002717Y001835
X003504Y001835
X004291Y001835
X005079Y001835
X005866Y001835
X006654Y001835
T80
X007795Y001831
X017087Y003528
T75
X013071Y002681
X014803Y002681
T77
X001732Y012681
X002732Y012681
X004173Y012681
X005173Y012681
X016000Y012780
X016000Y011780
X017000Y012780
X017000Y011780
X018000Y012780
X018000Y011780
X019000Y012780
X019000Y011780
X019000Y010280
X019000Y009280
X019000Y007780
X019000Y006780
X020000Y012780
X020000Y011780
T78
X019000Y004780
X019000Y003780
X019000Y002780
M30
