G04 start of page 10 for group -4015 idx -4015 *
G04 Title: (unknown), toppaste *
G04 Creator: pcb 1.99z *
G04 CreationDate: Sun May  5 10:03:39 2013 UTC *
G04 For: matt *
G04 Format: Gerber/RS-274X *
G04 PCB-Dimensions (mil): 2165.35 1377.95 *
G04 PCB-Coordinate-Origin: lower left *
%MOIN*%
%FSLAX25Y25*%
%LNTOPPASTE*%
%ADD139R,0.0197X0.0197*%
%ADD138R,0.0787X0.0787*%
%ADD137R,0.0512X0.0512*%
%ADD136R,0.0572X0.0572*%
%ADD135R,0.0340X0.0340*%
%ADD134R,0.0690X0.0690*%
%ADD133R,0.0659X0.0659*%
%ADD132R,0.0200X0.0200*%
%ADD131R,0.1004X0.1004*%
%ADD130R,0.0138X0.0138*%
%ADD129R,0.0472X0.0472*%
%ADD128R,0.0110X0.0110*%
%ADD127R,0.0160X0.0160*%
%ADD126R,0.0295X0.0295*%
G54D126*X43504Y88917D02*Y87933D01*
X38386Y88917D02*Y87933D01*
X26772Y93838D02*Y92854D01*
X21654Y93838D02*Y92854D01*
G54D127*X55678Y74173D02*X57878D01*
X55678Y76773D02*X57878D01*
X55678Y79273D02*X57878D01*
X55678Y81873D02*X57878D01*
X38978Y81973D02*X41178D01*
X38978Y79373D02*X41178D01*
X38978Y76873D02*X41178D01*
X38978Y74273D02*X41178D01*
G54D126*X130118Y52697D02*Y51713D01*
X125000Y52697D02*Y51713D01*
X136811Y60571D02*Y59587D01*
X141929Y60571D02*Y59587D01*
X64173Y73169D02*Y72185D01*
X69291Y73169D02*Y72185D01*
X91634Y38032D02*X92618D01*
X91634Y43150D02*X92618D01*
X105414Y38032D02*X106398D01*
X105414Y43150D02*X106398D01*
X136890Y69153D02*Y68169D01*
X142008Y69153D02*Y68169D01*
X102264Y110079D02*X103248D01*
X102264Y115197D02*X103248D01*
G54D128*X75858Y90354D02*X80756D01*
X75858Y88386D02*X80756D01*
X75858Y86417D02*X80756D01*
X75858Y84449D02*X80756D01*
X75858Y82480D02*X80756D01*
X75858Y80512D02*X80756D01*
X75858Y78543D02*X80756D01*
X75858Y76575D02*X80756D01*
X75858Y74606D02*X80756D01*
X75858Y72638D02*X80756D01*
X75858Y70669D02*X80756D01*
X75858Y68701D02*X80756D01*
X75858Y66732D02*X80756D01*
X75858Y64764D02*X80756D01*
X75858Y62795D02*X80756D01*
X75858Y60827D02*X80756D01*
X88229Y53355D02*Y48457D01*
X90197Y53355D02*Y48457D01*
X92166Y53355D02*Y48457D01*
X94134Y53355D02*Y48457D01*
X96103Y53355D02*Y48457D01*
X98071Y53355D02*Y48457D01*
X100040Y53355D02*Y48457D01*
X102008Y53355D02*Y48457D01*
X103977Y53355D02*Y48457D01*
X105945Y53355D02*Y48457D01*
X107914Y53355D02*Y48457D01*
X109882Y53355D02*Y48457D01*
X111851Y53355D02*Y48457D01*
X113819Y53355D02*Y48457D01*
X115788Y53355D02*Y48457D01*
X117756Y53355D02*Y48457D01*
X125228Y60828D02*X130126D01*
X125228Y62796D02*X130126D01*
X125228Y64765D02*X130126D01*
X125228Y66733D02*X130126D01*
X125228Y68702D02*X130126D01*
X125228Y70670D02*X130126D01*
X125228Y72639D02*X130126D01*
X125228Y74607D02*X130126D01*
X125228Y76576D02*X130126D01*
X125228Y78544D02*X130126D01*
X125228Y80513D02*X130126D01*
X125228Y82481D02*X130126D01*
X125228Y84450D02*X130126D01*
X125228Y86418D02*X130126D01*
X125228Y88387D02*X130126D01*
X125228Y90355D02*X130126D01*
X117755Y102725D02*Y97827D01*
X115787Y102725D02*Y97827D01*
X113818Y102725D02*Y97827D01*
X111850Y102725D02*Y97827D01*
X109881Y102725D02*Y97827D01*
X107913Y102725D02*Y97827D01*
X105944Y102725D02*Y97827D01*
X103976Y102725D02*Y97827D01*
X102007Y102725D02*Y97827D01*
X100039Y102725D02*Y97827D01*
X98070Y102725D02*Y97827D01*
X96102Y102725D02*Y97827D01*
X94133Y102725D02*Y97827D01*
X92165Y102725D02*Y97827D01*
X90196Y102725D02*Y97827D01*
X88228Y102725D02*Y97827D01*
G54D126*X151181Y60571D02*Y59587D01*
X156299Y60571D02*Y59587D01*
X142126Y79862D02*Y78878D01*
X137008Y79862D02*Y78878D01*
X54921Y88917D02*Y87933D01*
X49803Y88917D02*Y87933D01*
X98524Y38032D02*X99508D01*
X98524Y43150D02*X99508D01*
X21654Y108405D02*Y107421D01*
X26772Y108405D02*Y107421D01*
G54D129*X27735Y85254D02*X32459D01*
X27735Y73837D02*X32459D01*
X15924Y85254D02*X20648D01*
X15924Y73837D02*X20648D01*
G54D130*X32087Y95315D02*X33268D01*
X32087Y98465D02*X33268D01*
X32087Y101614D02*X33268D01*
X32087Y104764D02*X33268D01*
X32087Y107913D02*X33268D01*
G54D131*X40157Y102402D02*Y100827D01*
G54D130*X47047Y107913D02*X48228D01*
X47047Y104764D02*X48228D01*
X47047Y101614D02*X48228D01*
X47047Y98465D02*X48228D01*
X47047Y95315D02*X48228D01*
G54D126*X53839Y106929D02*X54823D01*
X53839Y101811D02*X54823D01*
X127559Y97382D02*Y96398D01*
X132677Y97382D02*Y96398D01*
X26772Y99547D02*Y98563D01*
X21654Y99547D02*Y98563D01*
G54D132*X95945Y116638D02*Y115138D01*
X92445Y116638D02*Y115138D01*
X88945Y116638D02*Y115138D01*
X85445Y116638D02*Y115138D01*
Y110138D02*Y108638D01*
X88945Y110138D02*Y108638D01*
X92445Y110138D02*Y108638D01*
X95945Y110138D02*Y108638D01*
X61748Y96969D02*X63248D01*
X61748Y93469D02*X63248D01*
X61748Y89969D02*X63248D01*
X61748Y86469D02*X63248D01*
X68248D02*X69748D01*
X68248Y89969D02*X69748D01*
X68248Y93469D02*X69748D01*
X68248Y96969D02*X69748D01*
G54D133*X63189Y57126D02*X65157D01*
X27362D02*X29331D01*
G54D134*X78534Y47075D02*X79734D01*
X78534Y36075D02*X79734D01*
G54D135*X161811Y88331D02*Y87731D01*
X169611Y88331D02*Y87731D01*
X165711Y96531D02*Y95931D01*
X164567Y49946D02*Y49346D01*
X172367Y49946D02*Y49346D01*
X168467Y58146D02*Y57546D01*
G54D126*X166339Y42461D02*Y41477D01*
X171457Y42461D02*Y41477D01*
G54D136*X150472Y68819D02*X152047D01*
X150472Y78268D02*X152047D01*
X167795Y68819D02*X169370D01*
X167795Y78268D02*X169370D01*
G54D133*X63189Y39606D02*X65157D01*
X27362D02*X29331D01*
G54D126*X147047Y88720D02*Y87736D01*
X152165Y88720D02*Y87736D01*
G54D137*X112008Y113779D02*Y111417D01*
X123818Y113779D02*Y111417D01*
G54D135*X69016Y109237D02*Y108637D01*
X76816Y109237D02*Y108637D01*
X72916Y117437D02*Y116837D01*
X135433Y109198D02*Y108598D01*
X143233Y109198D02*Y108598D01*
X139333Y117398D02*Y116798D01*
G54D138*X156693Y38425D02*Y36457D01*
X122048Y38425D02*Y36457D01*
G54D139*X133070Y41378D02*Y33504D01*
X136220Y41378D02*Y33504D01*
X139370Y41378D02*Y33504D01*
X142520Y41378D02*Y33504D01*
X145670Y41378D02*Y33504D01*
G54D138*X156693Y19133D02*Y17165D01*
X122048Y19133D02*Y17165D01*
G54D134*X170266Y29949D02*X171466D01*
X170266Y18949D02*X171466D01*
M02*
