G04 start of page 3 for group 1 idx 1 *
G04 Title: (unknown), solder *
G04 Creator: pcb 1.99z *
G04 CreationDate: Sun May  5 10:03:39 2013 UTC *
G04 For: matt *
G04 Format: Gerber/RS-274X *
G04 PCB-Dimensions (mil): 2165.35 1377.95 *
G04 PCB-Coordinate-Origin: lower left *
%MOIN*%
%FSLAX25Y25*%
%LNBOTTOM*%
%ADD72C,0.0480*%
%ADD71C,0.0380*%
%ADD70C,0.0315*%
%ADD69C,0.0354*%
%ADD68C,0.0118*%
%ADD67C,0.0350*%
%ADD66C,0.0200*%
%ADD65C,0.0236*%
%ADD64C,0.0360*%
%ADD63R,0.0659X0.0659*%
%ADD62R,0.0560X0.0560*%
%ADD61R,0.1420X0.1420*%
%ADD60R,0.0512X0.0512*%
%ADD59C,0.0600*%
%ADD58C,0.0757*%
%ADD57C,0.0800*%
%ADD56C,0.0679*%
%ADD55C,0.0651*%
%ADD54C,0.0473*%
%ADD53C,0.0354*%
%ADD52C,0.0400*%
%ADD51C,0.0059*%
%ADD50C,0.2343*%
%ADD49C,0.0098*%
%ADD48C,0.0100*%
%ADD47C,0.0250*%
%ADD46C,0.0001*%
G54D46*G36*
X195354Y74795D02*X197394D01*
Y44195D01*
X195936Y42738D01*
X195931Y42760D01*
X195841Y42978D01*
X195717Y43180D01*
X195564Y43359D01*
X195384Y43513D01*
X195354Y43531D01*
Y44977D01*
X195356Y44977D01*
X195581Y45008D01*
X195799Y45074D01*
X196004Y45174D01*
X196190Y45304D01*
X196354Y45462D01*
X196491Y45643D01*
X196598Y45844D01*
X196668Y46060D01*
X196819Y46746D01*
X196891Y47444D01*
Y48146D01*
X196819Y48845D01*
X196677Y49533D01*
X196603Y49749D01*
X196496Y49950D01*
X196358Y50132D01*
X196194Y50291D01*
X196006Y50421D01*
X195801Y50521D01*
X195583Y50587D01*
X195356Y50619D01*
X195354Y50619D01*
Y74795D01*
G37*
G36*
X193701Y64003D02*X193750Y64045D01*
X194291Y64678D01*
X194726Y65387D01*
X195044Y66156D01*
X195238Y66966D01*
X195287Y67795D01*
X195238Y68625D01*
X195044Y69434D01*
X194726Y70203D01*
X194291Y70913D01*
X193750Y71546D01*
X193701Y71587D01*
Y72521D01*
X194023Y72522D01*
X194252Y72577D01*
X194470Y72667D01*
X194672Y72791D01*
X194851Y72944D01*
X195005Y73123D01*
X195128Y73325D01*
X195218Y73543D01*
X195274Y73772D01*
X195287Y74008D01*
X195286Y74795D01*
X195354D01*
Y50619D01*
X195128Y50615D01*
X194903Y50575D01*
X194688Y50500D01*
X194486Y50392D01*
X194304Y50255D01*
X194146Y50090D01*
X194015Y49903D01*
X193915Y49698D01*
X193849Y49479D01*
X193817Y49253D01*
X193822Y49025D01*
X193866Y48801D01*
X193953Y48404D01*
X193995Y47999D01*
Y47592D01*
X193953Y47187D01*
X193871Y46788D01*
X193827Y46565D01*
X193823Y46338D01*
X193854Y46112D01*
X193920Y45895D01*
X194020Y45690D01*
X194150Y45504D01*
X194308Y45340D01*
X194489Y45203D01*
X194690Y45095D01*
X194905Y45021D01*
X195129Y44981D01*
X195354Y44977D01*
Y43531D01*
X195183Y43636D01*
X194965Y43726D01*
X194735Y43781D01*
X194500Y43795D01*
X193701Y43794D01*
Y64003D01*
G37*
G36*
Y89003D02*X193750Y89045D01*
X194291Y89678D01*
X194726Y90387D01*
X195044Y91156D01*
X195238Y91966D01*
X195287Y92795D01*
X195238Y93625D01*
X195044Y94434D01*
X194726Y95203D01*
X194291Y95913D01*
X193750Y96546D01*
X193701Y96587D01*
Y97521D01*
X194023Y97522D01*
X194252Y97577D01*
X194470Y97667D01*
X194672Y97791D01*
X194851Y97944D01*
X195005Y98123D01*
X195128Y98325D01*
X195218Y98543D01*
X195274Y98772D01*
X195287Y99008D01*
X195286Y99795D01*
X195844D01*
X197394Y98246D01*
Y80795D01*
X195275D01*
X195274Y81818D01*
X195218Y82048D01*
X195128Y82266D01*
X195005Y82467D01*
X194851Y82647D01*
X194672Y82800D01*
X194470Y82923D01*
X194252Y83014D01*
X194023Y83069D01*
X193787Y83083D01*
X193701Y83083D01*
Y89003D01*
G37*
G36*
Y122841D02*X194193Y122350D01*
Y119432D01*
X194022Y119845D01*
X193701Y120367D01*
Y122841D01*
G37*
G36*
X203613Y133307D02*X205512D01*
Y12244D01*
X203613D01*
Y115097D01*
X203652Y115142D01*
X204022Y115746D01*
X204293Y116400D01*
X204458Y117089D01*
X204500Y117795D01*
X204458Y118501D01*
X204293Y119190D01*
X204022Y119845D01*
X203652Y120448D01*
X203613Y120494D01*
Y125648D01*
X203656Y125655D01*
X203768Y125693D01*
X203873Y125747D01*
X203968Y125817D01*
X204051Y125901D01*
X204119Y125997D01*
X204170Y126104D01*
X204318Y126511D01*
X204422Y126932D01*
X204484Y127362D01*
X204505Y127795D01*
X204484Y128229D01*
X204422Y128658D01*
X204318Y129079D01*
X204175Y129489D01*
X204122Y129595D01*
X204053Y129692D01*
X203970Y129776D01*
X203875Y129847D01*
X203769Y129901D01*
X203657Y129939D01*
X203613Y129946D01*
Y133307D01*
G37*
G36*
Y12244D02*X200002D01*
Y38318D01*
X202432Y40748D01*
X202522Y40825D01*
X202828Y41184D01*
X202828Y41184D01*
X203075Y41587D01*
X203256Y42023D01*
X203366Y42482D01*
X203403Y42953D01*
X203394Y43070D01*
Y77638D01*
X203403Y77756D01*
X203394Y77873D01*
Y99371D01*
X203403Y99488D01*
X203366Y99959D01*
X203256Y100418D01*
X203075Y100854D01*
X202828Y101257D01*
X202522Y101616D01*
X202432Y101693D01*
X200002Y104123D01*
Y113282D01*
X200706Y113337D01*
X201395Y113502D01*
X202049Y113773D01*
X202653Y114143D01*
X203192Y114603D01*
X203613Y115097D01*
Y12244D01*
G37*
G36*
X200002Y133307D02*X203613D01*
Y129946D01*
X203540Y129958D01*
X203421Y129959D01*
X203304Y129941D01*
X203191Y129905D01*
X203085Y129852D01*
X202988Y129783D01*
X202904Y129700D01*
X202833Y129605D01*
X202779Y129499D01*
X202741Y129387D01*
X202722Y129270D01*
X202721Y129151D01*
X202739Y129034D01*
X202777Y128922D01*
X202876Y128650D01*
X202944Y128370D01*
X202986Y128084D01*
X203000Y127795D01*
X202986Y127507D01*
X202944Y127221D01*
X202876Y126940D01*
X202780Y126667D01*
X202742Y126556D01*
X202725Y126439D01*
X202725Y126321D01*
X202745Y126205D01*
X202782Y126093D01*
X202836Y125988D01*
X202906Y125893D01*
X202991Y125810D01*
X203087Y125741D01*
X203192Y125688D01*
X203305Y125653D01*
X203421Y125635D01*
X203539Y125636D01*
X203613Y125648D01*
Y120494D01*
X203192Y120987D01*
X202653Y121447D01*
X202049Y121817D01*
X201395Y122088D01*
X200706Y122254D01*
X200002Y122309D01*
Y123290D01*
X200433Y123311D01*
X200863Y123373D01*
X201284Y123477D01*
X201694Y123621D01*
X201800Y123673D01*
X201896Y123742D01*
X201981Y123825D01*
X202051Y123921D01*
X202106Y124026D01*
X202143Y124139D01*
X202163Y124256D01*
X202164Y124374D01*
X202146Y124491D01*
X202110Y124604D01*
X202057Y124711D01*
X201988Y124807D01*
X201905Y124891D01*
X201809Y124962D01*
X201704Y125016D01*
X201592Y125054D01*
X201475Y125073D01*
X201356Y125074D01*
X201239Y125057D01*
X201126Y125019D01*
X200855Y124920D01*
X200575Y124851D01*
X200289Y124809D01*
X200002Y124795D01*
Y130795D01*
X200289Y130781D01*
X200575Y130740D01*
X200855Y130671D01*
X201128Y130575D01*
X201239Y130537D01*
X201356Y130520D01*
X201474Y130521D01*
X201591Y130540D01*
X201703Y130577D01*
X201807Y130632D01*
X201902Y130702D01*
X201985Y130786D01*
X202054Y130882D01*
X202107Y130987D01*
X202143Y131100D01*
X202160Y131217D01*
X202159Y131335D01*
X202140Y131451D01*
X202103Y131563D01*
X202048Y131668D01*
X201978Y131763D01*
X201894Y131846D01*
X201798Y131915D01*
X201692Y131965D01*
X201284Y132114D01*
X200863Y132217D01*
X200433Y132280D01*
X200002Y132300D01*
Y133307D01*
G37*
G36*
Y104123D02*X199291Y104833D01*
X199214Y104923D01*
X198855Y105230D01*
X198453Y105477D01*
X198017Y105657D01*
X197557Y105767D01*
X197087Y105805D01*
X196969Y105795D01*
X195275D01*
X195274Y106818D01*
X195218Y107048D01*
X195128Y107266D01*
X195005Y107467D01*
X194851Y107647D01*
X194672Y107800D01*
X194470Y107923D01*
X194252Y108014D01*
X194023Y108069D01*
X193787Y108083D01*
X193701Y108083D01*
Y111583D01*
X195680Y113562D01*
X195707Y113584D01*
X195798Y113690D01*
X195870Y113809D01*
X195924Y113938D01*
X195956Y114074D01*
X195967Y114213D01*
X195965Y114247D01*
Y115779D01*
X195978Y115746D01*
X196348Y115142D01*
X196808Y114603D01*
X197347Y114143D01*
X197951Y113773D01*
X198605Y113502D01*
X199294Y113337D01*
X200000Y113281D01*
X200002Y113282D01*
Y104123D01*
G37*
G36*
Y12244D02*X193701D01*
Y21808D01*
X194735Y21809D01*
X194965Y21864D01*
X195183Y21955D01*
X195384Y22078D01*
X195564Y22231D01*
X195717Y22411D01*
X195841Y22612D01*
X195931Y22830D01*
X195986Y23060D01*
X196000Y23295D01*
X195986Y32531D01*
X195931Y32760D01*
X195916Y32795D01*
X195931Y32830D01*
X195986Y33060D01*
X196000Y33295D01*
X195998Y34893D01*
X196166Y34933D01*
X196602Y35114D01*
X197005Y35361D01*
X197364Y35667D01*
X197441Y35757D01*
X200002Y38318D01*
Y12244D01*
G37*
G36*
X196387Y133307D02*X200002D01*
Y132300D01*
X200000Y132300D01*
X199567Y132280D01*
X199137Y132217D01*
X198716Y132114D01*
X198306Y131970D01*
X198200Y131918D01*
X198104Y131848D01*
X198019Y131765D01*
X197949Y131670D01*
X197894Y131565D01*
X197857Y131452D01*
X197837Y131335D01*
X197836Y131216D01*
X197854Y131099D01*
X197890Y130986D01*
X197943Y130880D01*
X198012Y130784D01*
X198095Y130699D01*
X198191Y130629D01*
X198296Y130574D01*
X198408Y130537D01*
X198525Y130517D01*
X198644Y130516D01*
X198761Y130534D01*
X198874Y130572D01*
X199145Y130671D01*
X199425Y130740D01*
X199711Y130781D01*
X200000Y130795D01*
X200002Y130795D01*
Y124795D01*
X200000Y124795D01*
X199711Y124809D01*
X199425Y124851D01*
X199145Y124920D01*
X198872Y125015D01*
X198761Y125053D01*
X198644Y125071D01*
X198526Y125070D01*
X198409Y125051D01*
X198297Y125013D01*
X198193Y124959D01*
X198098Y124889D01*
X198015Y124805D01*
X197946Y124709D01*
X197893Y124603D01*
X197857Y124491D01*
X197840Y124374D01*
X197841Y124256D01*
X197860Y124139D01*
X197897Y124027D01*
X197952Y123923D01*
X198022Y123828D01*
X198106Y123745D01*
X198202Y123676D01*
X198308Y123625D01*
X198716Y123477D01*
X199137Y123373D01*
X199567Y123311D01*
X200000Y123290D01*
X200002Y123290D01*
Y122309D01*
X200000Y122309D01*
X199294Y122254D01*
X198605Y122088D01*
X197951Y121817D01*
X197347Y121447D01*
X196808Y120987D01*
X196387Y120494D01*
Y125645D01*
X196460Y125633D01*
X196579Y125632D01*
X196696Y125649D01*
X196809Y125685D01*
X196915Y125738D01*
X197012Y125807D01*
X197096Y125891D01*
X197167Y125986D01*
X197221Y126091D01*
X197259Y126204D01*
X197278Y126321D01*
X197279Y126439D01*
X197261Y126557D01*
X197223Y126669D01*
X197124Y126940D01*
X197056Y127221D01*
X197014Y127507D01*
X197000Y127795D01*
X197014Y128084D01*
X197056Y128370D01*
X197124Y128650D01*
X197220Y128923D01*
X197258Y129035D01*
X197275Y129151D01*
X197275Y129270D01*
X197255Y129386D01*
X197218Y129498D01*
X197164Y129603D01*
X197094Y129698D01*
X197009Y129781D01*
X196913Y129849D01*
X196808Y129902D01*
X196695Y129938D01*
X196579Y129955D01*
X196461Y129955D01*
X196387Y129942D01*
Y133307D01*
G37*
G36*
X193701D02*X196387D01*
Y129942D01*
X196344Y129935D01*
X196232Y129898D01*
X196127Y129844D01*
X196032Y129773D01*
X195949Y129689D01*
X195881Y129593D01*
X195830Y129487D01*
X195682Y129079D01*
X195578Y128658D01*
X195516Y128229D01*
X195495Y127795D01*
X195516Y127362D01*
X195578Y126932D01*
X195682Y126511D01*
X195825Y126102D01*
X195878Y125995D01*
X195947Y125899D01*
X196030Y125814D01*
X196125Y125744D01*
X196231Y125689D01*
X196343Y125652D01*
X196387Y125645D01*
Y120494D01*
X196348Y120448D01*
X195978Y119845D01*
X195965Y119812D01*
Y122682D01*
X195967Y122717D01*
X195956Y122856D01*
X195924Y122991D01*
X195908Y123029D01*
X195870Y123120D01*
X195798Y123239D01*
X195707Y123345D01*
X195680Y123367D01*
X193748Y125300D01*
X194022Y125746D01*
X194293Y126400D01*
X194458Y127089D01*
X194500Y127795D01*
X194458Y128501D01*
X194293Y129190D01*
X194022Y129845D01*
X193701Y130367D01*
Y133307D01*
G37*
G36*
Y71587D02*X193117Y72086D01*
X192411Y72519D01*
X193701Y72521D01*
Y71587D01*
G37*
G36*
Y96587D02*X193117Y97086D01*
X192411Y97519D01*
X193701Y97521D01*
Y96587D01*
G37*
G36*
X189997Y62492D02*X190000Y62492D01*
X190830Y62557D01*
X191639Y62751D01*
X192408Y63070D01*
X193117Y63504D01*
X193701Y64003D01*
Y43794D01*
X192084Y43792D01*
X191902Y43880D01*
X191684Y43946D01*
X191458Y43978D01*
X191230Y43974D01*
X191006Y43929D01*
X190609Y43842D01*
X190204Y43800D01*
X189997D01*
Y51790D01*
X190204D01*
X190609Y51749D01*
X191007Y51666D01*
X191230Y51622D01*
X191458Y51618D01*
X191683Y51649D01*
X191901Y51715D01*
X192105Y51815D01*
X192292Y51945D01*
X192456Y52103D01*
X192593Y52284D01*
X192700Y52485D01*
X192774Y52700D01*
X192814Y52924D01*
X192818Y53151D01*
X192787Y53377D01*
X192721Y53594D01*
X192621Y53799D01*
X192491Y53986D01*
X192333Y54149D01*
X192152Y54287D01*
X191951Y54394D01*
X191735Y54464D01*
X191050Y54614D01*
X190351Y54686D01*
X189997D01*
Y62492D01*
G37*
G36*
Y87492D02*X190000Y87492D01*
X190830Y87557D01*
X191639Y87751D01*
X192408Y88070D01*
X193117Y88504D01*
X193701Y89003D01*
Y83083D01*
X189997Y83076D01*
Y87492D01*
G37*
G36*
Y110768D02*X192485D01*
X192520Y110765D01*
X192658Y110776D01*
X192659Y110776D01*
X192794Y110809D01*
X192923Y110862D01*
X193042Y110935D01*
X193148Y111025D01*
X193171Y111052D01*
X193701Y111583D01*
Y108083D01*
X189997Y108076D01*
Y110768D01*
G37*
G36*
X193701Y12244D02*X189997D01*
Y21802D01*
X193701Y21808D01*
Y12244D01*
G37*
G36*
X184646Y110768D02*X189997D01*
Y108076D01*
X185977Y108069D01*
X185748Y108014D01*
X185530Y107923D01*
X185328Y107800D01*
X185149Y107647D01*
X184995Y107467D01*
X184872Y107266D01*
X184782Y107048D01*
X184726Y106818D01*
X184713Y106583D01*
X184726Y98772D01*
X184782Y98543D01*
X184872Y98325D01*
X184995Y98123D01*
X185149Y97944D01*
X185328Y97791D01*
X185530Y97667D01*
X185748Y97577D01*
X185977Y97522D01*
X186213Y97508D01*
X187575Y97510D01*
X186883Y97086D01*
X186250Y96546D01*
X185709Y95913D01*
X185274Y95203D01*
X184956Y94434D01*
X184762Y93625D01*
X184696Y92795D01*
X184762Y91966D01*
X184956Y91156D01*
X185274Y90387D01*
X185709Y89678D01*
X186250Y89045D01*
X186883Y88504D01*
X187592Y88070D01*
X188361Y87751D01*
X189170Y87557D01*
X189997Y87492D01*
Y83076D01*
X185977Y83069D01*
X185748Y83014D01*
X185530Y82923D01*
X185328Y82800D01*
X185149Y82647D01*
X184995Y82467D01*
X184872Y82266D01*
X184782Y82048D01*
X184726Y81818D01*
X184713Y81583D01*
X184726Y73772D01*
X184782Y73543D01*
X184872Y73325D01*
X184995Y73123D01*
X185149Y72944D01*
X185328Y72791D01*
X185530Y72667D01*
X185748Y72577D01*
X185977Y72522D01*
X186213Y72508D01*
X187575Y72510D01*
X186883Y72086D01*
X186250Y71546D01*
X185709Y70913D01*
X185274Y70203D01*
X184956Y69434D01*
X184762Y68625D01*
X184696Y67795D01*
X184762Y66966D01*
X184956Y66156D01*
X185274Y65387D01*
X185709Y64678D01*
X186250Y64045D01*
X186883Y63504D01*
X187592Y63070D01*
X188361Y62751D01*
X189170Y62557D01*
X189997Y62492D01*
Y54686D01*
X189649D01*
X188950Y54614D01*
X188263Y54472D01*
X188047Y54398D01*
X187845Y54291D01*
X187663Y54153D01*
X187505Y53989D01*
X187374Y53802D01*
X187274Y53596D01*
X187208Y53378D01*
X187176Y53152D01*
X187181Y52923D01*
X187221Y52699D01*
X187295Y52483D01*
X187403Y52282D01*
X187541Y52099D01*
X187705Y51941D01*
X187892Y51810D01*
X188098Y51711D01*
X188316Y51644D01*
X188542Y51613D01*
X188770Y51617D01*
X188994Y51661D01*
X189391Y51749D01*
X189796Y51790D01*
X189997D01*
Y43800D01*
X189796D01*
X189391Y43842D01*
X188993Y43924D01*
X188770Y43968D01*
X188542Y43973D01*
X188317Y43941D01*
X188099Y43875D01*
X187915Y43785D01*
X185265Y43781D01*
X185035Y43726D01*
X184817Y43636D01*
X184646Y43531D01*
Y44972D01*
X184872Y44976D01*
X185097Y45016D01*
X185312Y45091D01*
X185514Y45198D01*
X185696Y45336D01*
X185854Y45500D01*
X185985Y45687D01*
X186085Y45893D01*
X186151Y46111D01*
X186183Y46337D01*
X186178Y46566D01*
X186134Y46789D01*
X186047Y47187D01*
X186005Y47592D01*
Y47999D01*
X186047Y48404D01*
X186129Y48803D01*
X186173Y49025D01*
X186177Y49253D01*
X186146Y49478D01*
X186080Y49696D01*
X185980Y49900D01*
X185850Y50087D01*
X185692Y50251D01*
X185511Y50388D01*
X185310Y50495D01*
X185095Y50570D01*
X184871Y50609D01*
X184646Y50614D01*
Y110768D01*
G37*
G36*
X189997Y12244D02*X184646D01*
Y22059D01*
X184817Y21955D01*
X185035Y21864D01*
X185265Y21809D01*
X185500Y21795D01*
X189997Y21802D01*
Y12244D01*
G37*
G36*
X184646D02*X148027D01*
Y15307D01*
X153780D01*
X153898Y15298D01*
X154368Y15335D01*
X154368Y15335D01*
X154828Y15445D01*
X155264Y15626D01*
X155666Y15873D01*
X156026Y16179D01*
X156102Y16269D01*
X171116Y31283D01*
X171494Y31313D01*
X172106Y31460D01*
X172688Y31701D01*
X173225Y32030D01*
X173703Y32438D01*
X174112Y32917D01*
X174441Y33454D01*
X174682Y34036D01*
X174829Y34648D01*
X174866Y35276D01*
X174829Y35903D01*
X174682Y36515D01*
X174441Y37097D01*
X174112Y37634D01*
X173703Y38113D01*
X173225Y38522D01*
X172688Y38851D01*
X172106Y39092D01*
X171494Y39239D01*
X170866Y39288D01*
X170238Y39239D01*
X169626Y39092D01*
X169045Y38851D01*
X168508Y38522D01*
X168029Y38113D01*
X167620Y37634D01*
X167291Y37097D01*
X167050Y36515D01*
X166903Y35903D01*
X166873Y35526D01*
X152655Y21307D01*
X148027D01*
Y23847D01*
X148031Y23846D01*
X148495Y23883D01*
X148948Y23991D01*
X149377Y24169D01*
X149774Y24413D01*
X150128Y24715D01*
X150430Y25068D01*
X150673Y25465D01*
X150851Y25895D01*
X150960Y26347D01*
X150987Y26811D01*
X150960Y27275D01*
X150851Y27727D01*
X150673Y28157D01*
X150430Y28554D01*
X150128Y28907D01*
X149774Y29209D01*
X149377Y29453D01*
X148948Y29631D01*
X148495Y29739D01*
X148031Y29776D01*
X148027Y29775D01*
Y31042D01*
X151262Y31044D01*
X151353Y31066D01*
X151439Y31101D01*
X151518Y31150D01*
X151589Y31211D01*
X151649Y31281D01*
X151698Y31361D01*
X151733Y31447D01*
X151755Y31537D01*
X151761Y31630D01*
X151755Y45313D01*
X151733Y45404D01*
X151698Y45490D01*
X151649Y45569D01*
X151589Y45640D01*
X151518Y45700D01*
X151439Y45749D01*
X151353Y45785D01*
X151262Y45806D01*
X151170Y45812D01*
X148720Y45810D01*
Y48824D01*
X148723Y48858D01*
X148712Y48997D01*
X148680Y49133D01*
X148664Y49171D01*
X148626Y49262D01*
X148553Y49381D01*
X148463Y49487D01*
X148436Y49509D01*
X148027Y49919D01*
Y52303D01*
X148649D01*
X148879Y52073D01*
X148835Y51892D01*
X148814Y51614D01*
X148835Y51336D01*
X148901Y51065D01*
X149007Y50807D01*
X149153Y50570D01*
X149334Y50358D01*
X149546Y50177D01*
X149784Y50031D01*
X150041Y49924D01*
X150313Y49859D01*
X150591Y49837D01*
X150869Y49859D01*
X151140Y49924D01*
X151397Y50031D01*
X151635Y50177D01*
X151847Y50358D01*
X152028Y50570D01*
X152174Y50807D01*
X152281Y51065D01*
X152346Y51336D01*
X152362Y51614D01*
X152346Y51892D01*
X152281Y52163D01*
X152174Y52421D01*
X152028Y52659D01*
X151847Y52871D01*
X151635Y53052D01*
X151397Y53198D01*
X151140Y53304D01*
X150869Y53369D01*
X150591Y53391D01*
X150313Y53369D01*
X150132Y53326D01*
X149973Y53484D01*
X161973D01*
X162008Y53482D01*
X162147Y53492D01*
X162147Y53493D01*
X162282Y53525D01*
X162411Y53578D01*
X162530Y53651D01*
X162636Y53742D01*
X162659Y53768D01*
X174814Y65924D01*
X174841Y65947D01*
X174931Y66053D01*
X175004Y66171D01*
X175058Y66300D01*
X175090Y66436D01*
X175101Y66575D01*
X175098Y66610D01*
Y101247D01*
X184619Y110768D01*
X184646D01*
Y50614D01*
X184644Y50614D01*
X184419Y50582D01*
X184201Y50516D01*
X183996Y50417D01*
X183810Y50287D01*
X183646Y50129D01*
X183509Y49947D01*
X183402Y49747D01*
X183332Y49530D01*
X183181Y48845D01*
X183109Y48146D01*
Y47444D01*
X183181Y46746D01*
X183323Y46058D01*
X183397Y45842D01*
X183504Y45640D01*
X183642Y45458D01*
X183806Y45300D01*
X183994Y45169D01*
X184199Y45070D01*
X184417Y45003D01*
X184644Y44972D01*
X184646Y44972D01*
Y43531D01*
X184616Y43513D01*
X184436Y43359D01*
X184283Y43180D01*
X184159Y42978D01*
X184069Y42760D01*
X184014Y42531D01*
X184000Y42295D01*
X184014Y33060D01*
X184069Y32830D01*
X184084Y32795D01*
X184069Y32760D01*
X184014Y32531D01*
X184000Y32295D01*
X184014Y23060D01*
X184069Y22830D01*
X184159Y22612D01*
X184283Y22411D01*
X184436Y22231D01*
X184616Y22078D01*
X184646Y22059D01*
Y12244D01*
G37*
G36*
X148027Y49919D02*X145642Y52303D01*
X148027D01*
Y49919D01*
G37*
G36*
Y21307D02*X130705D01*
Y23847D01*
X130709Y23846D01*
X131173Y23883D01*
X131626Y23991D01*
X132055Y24169D01*
X132452Y24413D01*
X132806Y24715D01*
X133108Y25068D01*
X133351Y25465D01*
X133529Y25895D01*
X133638Y26347D01*
X133665Y26811D01*
X133638Y27275D01*
X133529Y27727D01*
X133351Y28157D01*
X133108Y28554D01*
X132806Y28907D01*
X132452Y29209D01*
X132055Y29453D01*
X131626Y29631D01*
X131173Y29739D01*
X130709Y29776D01*
X130705Y29775D01*
Y31044D01*
X131262Y31044D01*
X131353Y31066D01*
X131439Y31101D01*
X131518Y31150D01*
X131589Y31211D01*
X131649Y31281D01*
X131698Y31361D01*
X131733Y31447D01*
X131755Y31537D01*
X131761Y31630D01*
X131755Y45313D01*
X131733Y45404D01*
X131698Y45490D01*
X131649Y45569D01*
X131589Y45640D01*
X131518Y45700D01*
X131439Y45749D01*
X131353Y45785D01*
X131262Y45806D01*
X131170Y45812D01*
X130705Y45811D01*
Y49941D01*
X136050D01*
X136909Y49082D01*
Y45808D01*
X134486Y45806D01*
X134395Y45785D01*
X134309Y45749D01*
X134230Y45700D01*
X134159Y45640D01*
X134099Y45569D01*
X134050Y45490D01*
X134015Y45404D01*
X133993Y45313D01*
X133988Y45221D01*
X133993Y31537D01*
X134015Y31447D01*
X134050Y31361D01*
X134099Y31281D01*
X134159Y31211D01*
X134230Y31150D01*
X134309Y31101D01*
X134395Y31066D01*
X134486Y31044D01*
X134579Y31039D01*
X141262Y31044D01*
X141353Y31066D01*
X141439Y31101D01*
X141518Y31150D01*
X141589Y31211D01*
X141649Y31281D01*
X141698Y31361D01*
X141733Y31447D01*
X141755Y31537D01*
X141761Y31630D01*
X141755Y45313D01*
X141733Y45404D01*
X141698Y45490D01*
X141649Y45569D01*
X141589Y45640D01*
X141518Y45700D01*
X141439Y45749D01*
X141353Y45785D01*
X141262Y45806D01*
X141170Y45812D01*
X138681Y45810D01*
Y49414D01*
X138684Y49449D01*
X138673Y49588D01*
X138640Y49723D01*
X138587Y49852D01*
X138514Y49971D01*
X138514Y49971D01*
X138424Y50077D01*
X138397Y50100D01*
X137375Y51122D01*
X144318D01*
X146949Y48491D01*
Y45808D01*
X144486Y45806D01*
X144395Y45785D01*
X144309Y45749D01*
X144230Y45700D01*
X144159Y45640D01*
X144099Y45569D01*
X144050Y45490D01*
X144015Y45404D01*
X143993Y45313D01*
X143988Y45221D01*
X143993Y31537D01*
X144015Y31447D01*
X144050Y31361D01*
X144099Y31281D01*
X144159Y31211D01*
X144230Y31150D01*
X144309Y31101D01*
X144395Y31066D01*
X144486Y31044D01*
X144579Y31039D01*
X148027Y31042D01*
Y29775D01*
X147568Y29739D01*
X147115Y29631D01*
X146686Y29453D01*
X146289Y29209D01*
X145935Y28907D01*
X145633Y28554D01*
X145390Y28157D01*
X145212Y27727D01*
X145103Y27275D01*
X145067Y26811D01*
X145103Y26347D01*
X145212Y25895D01*
X145390Y25465D01*
X145633Y25068D01*
X145935Y24715D01*
X146289Y24413D01*
X146686Y24169D01*
X147115Y23991D01*
X147568Y23883D01*
X148027Y23847D01*
Y21307D01*
G37*
G36*
X130705Y45811D02*X124486Y45806D01*
X124395Y45785D01*
X124309Y45749D01*
X124230Y45700D01*
X124159Y45640D01*
X124114Y45587D01*
Y47901D01*
X126154Y49941D01*
X130705D01*
Y45811D01*
G37*
G36*
Y21307D02*X117835D01*
Y26909D01*
X121619D01*
X121654Y26907D01*
X121793Y26918D01*
X121928Y26950D01*
X122057Y27004D01*
X122176Y27076D01*
X122282Y27167D01*
X122304Y27193D01*
X123830Y28719D01*
X123857Y28742D01*
X123947Y28848D01*
X123947Y28848D01*
X124020Y28967D01*
X124073Y29095D01*
X124106Y29231D01*
X124117Y29370D01*
X124114Y29405D01*
Y31263D01*
X124159Y31211D01*
X124230Y31150D01*
X124309Y31101D01*
X124395Y31066D01*
X124486Y31044D01*
X124579Y31039D01*
X130705Y31044D01*
Y29775D01*
X130246Y29739D01*
X129793Y29631D01*
X129364Y29453D01*
X128967Y29209D01*
X128613Y28907D01*
X128311Y28554D01*
X128068Y28157D01*
X127890Y27727D01*
X127781Y27275D01*
X127745Y26811D01*
X127781Y26347D01*
X127890Y25895D01*
X128068Y25465D01*
X128311Y25068D01*
X128613Y24715D01*
X128967Y24413D01*
X129364Y24169D01*
X129793Y23991D01*
X130246Y23883D01*
X130705Y23847D01*
Y21307D01*
G37*
G36*
X148027Y12244D02*X117835D01*
Y15307D01*
X148027D01*
Y12244D01*
G37*
G36*
X147835Y97185D02*X149564D01*
X149606Y97182D01*
X149776Y97195D01*
X149942Y97235D01*
X150099Y97300D01*
X150245Y97389D01*
X150374Y97500D01*
X150402Y97532D01*
X160736Y107866D01*
X160768Y107894D01*
X160878Y108023D01*
X160879Y108023D01*
X160968Y108168D01*
X161033Y108326D01*
X161073Y108492D01*
X161086Y108661D01*
X161083Y108704D01*
Y113304D01*
X163235Y113309D01*
X163465Y113364D01*
X163683Y113455D01*
X163884Y113578D01*
X164064Y113731D01*
X164217Y113911D01*
X164341Y114112D01*
X164431Y114330D01*
X164486Y114560D01*
X164500Y114795D01*
X164500Y114798D01*
X168602Y110696D01*
Y69304D01*
X159279Y59980D01*
X147835D01*
Y97185D01*
G37*
G36*
X179993Y133307D02*X193701D01*
Y130367D01*
X193652Y130448D01*
X193192Y130987D01*
X192653Y131447D01*
X192049Y131817D01*
X191395Y132088D01*
X190706Y132254D01*
X190000Y132309D01*
X189294Y132254D01*
X188605Y132088D01*
X187951Y131817D01*
X187347Y131447D01*
X186808Y130987D01*
X186348Y130448D01*
X185978Y129845D01*
X185707Y129190D01*
X185542Y128501D01*
X185486Y127795D01*
X185542Y127089D01*
X185707Y126400D01*
X185978Y125746D01*
X186348Y125142D01*
X186808Y124603D01*
X187347Y124143D01*
X187951Y123773D01*
X188605Y123502D01*
X189294Y123337D01*
X190000Y123281D01*
X190706Y123337D01*
X191395Y123502D01*
X192049Y123773D01*
X192496Y124047D01*
X193701Y122841D01*
Y120367D01*
X193652Y120448D01*
X193192Y120987D01*
X192653Y121447D01*
X192049Y121817D01*
X191395Y122088D01*
X190706Y122254D01*
X190000Y122309D01*
X189294Y122254D01*
X188605Y122088D01*
X187951Y121817D01*
X187347Y121447D01*
X186808Y120987D01*
X186348Y120448D01*
X185978Y119845D01*
X185707Y119190D01*
X185542Y118501D01*
X185486Y117795D01*
X185542Y117089D01*
X185707Y116400D01*
X185785Y116211D01*
X179993Y110419D01*
Y113282D01*
X180000Y113281D01*
X180706Y113337D01*
X181395Y113502D01*
X182049Y113773D01*
X182653Y114143D01*
X183192Y114603D01*
X183652Y115142D01*
X184022Y115746D01*
X184293Y116400D01*
X184458Y117089D01*
X184500Y117795D01*
X184458Y118501D01*
X184293Y119190D01*
X184022Y119845D01*
X183652Y120448D01*
X183192Y120987D01*
X182653Y121447D01*
X182049Y121817D01*
X181395Y122088D01*
X180706Y122254D01*
X180000Y122309D01*
X179993Y122309D01*
Y123282D01*
X180000Y123281D01*
X180706Y123337D01*
X181395Y123502D01*
X182049Y123773D01*
X182653Y124143D01*
X183192Y124603D01*
X183652Y125142D01*
X184022Y125746D01*
X184293Y126400D01*
X184458Y127089D01*
X184500Y127795D01*
X184458Y128501D01*
X184293Y129190D01*
X184022Y129845D01*
X183652Y130448D01*
X183192Y130987D01*
X182653Y131447D01*
X182049Y131817D01*
X181395Y132088D01*
X180706Y132254D01*
X180000Y132309D01*
X179993Y132309D01*
Y133307D01*
G37*
G36*
Y110419D02*X175886Y106312D01*
Y115394D01*
X175886Y115395D01*
Y115969D01*
X175978Y115746D01*
X176348Y115142D01*
X176808Y114603D01*
X177347Y114143D01*
X177951Y113773D01*
X178605Y113502D01*
X179294Y113337D01*
X179993Y113282D01*
Y110419D01*
G37*
G36*
X147835Y133307D02*X179993D01*
Y132309D01*
X179294Y132254D01*
X178605Y132088D01*
X177951Y131817D01*
X177347Y131447D01*
X176808Y130987D01*
X176348Y130448D01*
X175978Y129845D01*
X175707Y129190D01*
X175542Y128501D01*
X175486Y127795D01*
X175542Y127089D01*
X175707Y126400D01*
X175978Y125746D01*
X176348Y125142D01*
X176808Y124603D01*
X177347Y124143D01*
X177951Y123773D01*
X178605Y123502D01*
X179294Y123337D01*
X179993Y123282D01*
Y122309D01*
X179294Y122254D01*
X178605Y122088D01*
X177951Y121817D01*
X177347Y121447D01*
X176808Y120987D01*
X176348Y120448D01*
X175978Y119845D01*
X175886Y119622D01*
Y122761D01*
X175889Y122795D01*
X175878Y122934D01*
X175845Y123070D01*
X175829Y123108D01*
X175792Y123199D01*
X175719Y123318D01*
X175628Y123424D01*
X175602Y123446D01*
X173748Y125300D01*
X174022Y125746D01*
X174293Y126400D01*
X174458Y127089D01*
X174500Y127795D01*
X174458Y128501D01*
X174293Y129190D01*
X174022Y129845D01*
X173652Y130448D01*
X173192Y130987D01*
X172653Y131447D01*
X172049Y131817D01*
X171395Y132088D01*
X170706Y132254D01*
X170000Y132309D01*
X169294Y132254D01*
X168605Y132088D01*
X167951Y131817D01*
X167347Y131447D01*
X166808Y130987D01*
X166348Y130448D01*
X165978Y129845D01*
X165707Y129190D01*
X165542Y128501D01*
X165486Y127795D01*
X165542Y127089D01*
X165707Y126400D01*
X165978Y125746D01*
X166348Y125142D01*
X166808Y124603D01*
X167347Y124143D01*
X167951Y123773D01*
X168605Y123502D01*
X169294Y123337D01*
X170000Y123281D01*
X170706Y123337D01*
X171395Y123502D01*
X172049Y123773D01*
X172496Y124047D01*
X174114Y122428D01*
Y119622D01*
X174022Y119845D01*
X173652Y120448D01*
X173192Y120987D01*
X172653Y121447D01*
X172049Y121817D01*
X171395Y122088D01*
X170706Y122254D01*
X170000Y122309D01*
X169294Y122254D01*
X168605Y122088D01*
X167951Y121817D01*
X167347Y121447D01*
X166808Y120987D01*
X166348Y120448D01*
X165978Y119845D01*
X165707Y119190D01*
X165542Y118501D01*
X165486Y117795D01*
X165542Y117089D01*
X165707Y116400D01*
X165922Y115882D01*
X165453Y116351D01*
Y123194D01*
X165455Y123228D01*
X165444Y123367D01*
X165412Y123503D01*
X165396Y123541D01*
X165359Y123632D01*
X165286Y123751D01*
X165195Y123857D01*
X165169Y123879D01*
X163748Y125300D01*
X164022Y125746D01*
X164293Y126400D01*
X164458Y127089D01*
X164500Y127795D01*
X164458Y128501D01*
X164293Y129190D01*
X164022Y129845D01*
X163652Y130448D01*
X163192Y130987D01*
X162653Y131447D01*
X162049Y131817D01*
X161395Y132088D01*
X160706Y132254D01*
X160000Y132309D01*
X159294Y132254D01*
X158605Y132088D01*
X157951Y131817D01*
X157347Y131447D01*
X156808Y130987D01*
X156348Y130448D01*
X155978Y129845D01*
X155707Y129190D01*
X155542Y128501D01*
X155486Y127795D01*
X155542Y127089D01*
X155707Y126400D01*
X155978Y125746D01*
X156348Y125142D01*
X156808Y124603D01*
X157347Y124143D01*
X157951Y123773D01*
X158605Y123502D01*
X159294Y123337D01*
X160000Y123281D01*
X160706Y123337D01*
X161395Y123502D01*
X162049Y123773D01*
X162496Y124047D01*
X163681Y122861D01*
Y122137D01*
X163465Y122226D01*
X163235Y122281D01*
X163000Y122295D01*
X156765Y122281D01*
X156535Y122226D01*
X156317Y122136D01*
X156116Y122013D01*
X155936Y121859D01*
X155783Y121680D01*
X155659Y121478D01*
X155569Y121260D01*
X155514Y121031D01*
X155500Y120795D01*
X155514Y114560D01*
X155569Y114330D01*
X155659Y114112D01*
X155783Y113911D01*
X155936Y113731D01*
X156116Y113578D01*
X156317Y113455D01*
X156535Y113364D01*
X156765Y113309D01*
X157000Y113295D01*
X158917Y113300D01*
Y109110D01*
X149158Y99350D01*
X147835D01*
Y105884D01*
X151223Y105887D01*
X151313Y105908D01*
X151399Y105944D01*
X151479Y105993D01*
X151549Y106053D01*
X151610Y106124D01*
X151658Y106203D01*
X151694Y106289D01*
X151716Y106379D01*
X151721Y106472D01*
X151716Y120156D01*
X151694Y120246D01*
X151658Y120332D01*
X151610Y120412D01*
X151549Y120482D01*
X151479Y120543D01*
X151399Y120591D01*
X151313Y120627D01*
X151223Y120649D01*
X151130Y120654D01*
X148720Y120652D01*
Y123664D01*
X148900Y123678D01*
X149171Y123743D01*
X149429Y123850D01*
X149667Y123995D01*
X149879Y124177D01*
X150060Y124389D01*
X150205Y124626D01*
X150312Y124884D01*
X150377Y125155D01*
X150394Y125433D01*
X150377Y125711D01*
X150312Y125982D01*
X150205Y126240D01*
X150060Y126478D01*
X149879Y126690D01*
X149667Y126871D01*
X149429Y127016D01*
X149171Y127123D01*
X148900Y127188D01*
X148622Y127210D01*
X148344Y127188D01*
X148073Y127123D01*
X147835Y127024D01*
Y127303D01*
X149449D01*
X149547Y127144D01*
X149728Y126932D01*
X149940Y126751D01*
X150178Y126606D01*
X150435Y126499D01*
X150706Y126434D01*
X150984Y126412D01*
X151262Y126434D01*
X151533Y126499D01*
X151791Y126606D01*
X152029Y126751D01*
X152241Y126932D01*
X152422Y127144D01*
X152568Y127382D01*
X152674Y127640D01*
X152739Y127911D01*
X152756Y128189D01*
X152739Y128467D01*
X152674Y128738D01*
X152568Y128996D01*
X152422Y129233D01*
X152241Y129446D01*
X152029Y129627D01*
X151791Y129772D01*
X151533Y129879D01*
X151262Y129944D01*
X150984Y129966D01*
X150706Y129944D01*
X150435Y129879D01*
X150178Y129772D01*
X149940Y129627D01*
X149728Y129446D01*
X149547Y129233D01*
X149449Y129075D01*
X147835D01*
Y133307D01*
G37*
G36*
Y99350D02*X124043D01*
X123894Y99524D01*
X123682Y99705D01*
X123445Y99851D01*
X123187Y99958D01*
X122916Y100023D01*
X122638Y100045D01*
X122360Y100023D01*
X122089Y99958D01*
X121831Y99851D01*
X121593Y99705D01*
X121381Y99524D01*
X121200Y99312D01*
X121055Y99074D01*
X120948Y98817D01*
X120883Y98546D01*
X120861Y98268D01*
X120883Y97990D01*
X120948Y97719D01*
X121055Y97461D01*
X121200Y97223D01*
X121381Y97011D01*
X121593Y96830D01*
X121831Y96684D01*
X122089Y96578D01*
X122360Y96513D01*
X122638Y96491D01*
X122916Y96513D01*
X123187Y96578D01*
X123445Y96684D01*
X123682Y96830D01*
X123894Y97011D01*
X124043Y97185D01*
X147835D01*
Y59980D01*
X121688D01*
X121654Y59983D01*
X121515Y59972D01*
X121379Y59940D01*
X121250Y59886D01*
X121131Y59813D01*
X121131Y59813D01*
X121025Y59723D01*
X121003Y59696D01*
X119712Y58406D01*
X117835D01*
Y82173D01*
X122376Y86714D01*
X122557Y86670D01*
X122835Y86648D01*
X123113Y86670D01*
X123384Y86735D01*
X123641Y86842D01*
X123879Y86988D01*
X124091Y87169D01*
X124272Y87381D01*
X124418Y87618D01*
X124525Y87876D01*
X124590Y88147D01*
X124606Y88425D01*
X124590Y88703D01*
X124525Y88974D01*
X124418Y89232D01*
X124272Y89470D01*
X124091Y89682D01*
X123879Y89863D01*
X123641Y90008D01*
X123384Y90115D01*
X123113Y90180D01*
X122835Y90202D01*
X122557Y90180D01*
X122286Y90115D01*
X122028Y90008D01*
X121790Y89863D01*
X121578Y89682D01*
X121397Y89470D01*
X121251Y89232D01*
X121145Y88974D01*
X121080Y88703D01*
X121058Y88425D01*
X121080Y88147D01*
X121123Y87966D01*
X117835Y84678D01*
Y100728D01*
X134414D01*
X134449Y100726D01*
X134588Y100737D01*
X134588Y100737D01*
X134723Y100769D01*
X134852Y100823D01*
X134971Y100895D01*
X135077Y100986D01*
X135100Y101012D01*
X138436Y104349D01*
X138463Y104372D01*
X138553Y104478D01*
X138626Y104597D01*
X138680Y104725D01*
X138712Y104861D01*
X138723Y105000D01*
X138720Y105035D01*
Y105885D01*
X141223Y105887D01*
X141313Y105908D01*
X141399Y105944D01*
X141479Y105993D01*
X141549Y106053D01*
X141610Y106124D01*
X141658Y106203D01*
X141694Y106289D01*
X141716Y106379D01*
X141721Y106472D01*
X141716Y120156D01*
X141694Y120246D01*
X141658Y120332D01*
X141610Y120412D01*
X141549Y120482D01*
X141479Y120543D01*
X141399Y120591D01*
X141313Y120627D01*
X141223Y120649D01*
X141130Y120654D01*
X140765Y120654D01*
X147414Y127303D01*
X147835D01*
Y127024D01*
X147815Y127016D01*
X147578Y126871D01*
X147366Y126690D01*
X147184Y126478D01*
X147039Y126240D01*
X146932Y125982D01*
X146867Y125711D01*
X146845Y125433D01*
X146867Y125155D01*
X146932Y124884D01*
X146963Y124809D01*
X146957Y124785D01*
X146946Y124646D01*
X146949Y124611D01*
Y120651D01*
X144446Y120649D01*
X144356Y120627D01*
X144270Y120591D01*
X144191Y120543D01*
X144120Y120482D01*
X144060Y120412D01*
X144011Y120332D01*
X143975Y120246D01*
X143954Y120156D01*
X143948Y120063D01*
X143954Y106379D01*
X143975Y106289D01*
X144011Y106203D01*
X144060Y106124D01*
X144120Y106053D01*
X144191Y105993D01*
X144270Y105944D01*
X144356Y105908D01*
X144446Y105887D01*
X144539Y105881D01*
X147835Y105884D01*
Y99350D01*
G37*
G36*
X117835Y133307D02*X147835D01*
Y129075D01*
X147082D01*
X147047Y129078D01*
X146908Y129067D01*
X146773Y129034D01*
X146644Y128981D01*
X146525Y128908D01*
X146525Y128908D01*
X146419Y128817D01*
X146396Y128791D01*
X138257Y120652D01*
X134446Y120649D01*
X134356Y120627D01*
X134270Y120591D01*
X134191Y120543D01*
X134120Y120482D01*
X134060Y120412D01*
X134011Y120332D01*
X133975Y120246D01*
X133954Y120156D01*
X133948Y120063D01*
X133948Y119389D01*
X133934Y119406D01*
X133722Y119587D01*
X133484Y119733D01*
X133226Y119840D01*
X132955Y119905D01*
X132677Y119927D01*
X132399Y119905D01*
X132128Y119840D01*
X131870Y119733D01*
X131716Y119638D01*
X131716Y120156D01*
X131694Y120246D01*
X131658Y120332D01*
X131610Y120412D01*
X131549Y120482D01*
X131479Y120543D01*
X131399Y120591D01*
X131313Y120627D01*
X131223Y120649D01*
X131130Y120654D01*
X124446Y120649D01*
X124356Y120627D01*
X124270Y120591D01*
X124191Y120543D01*
X124120Y120482D01*
X124060Y120412D01*
X124011Y120332D01*
X123975Y120246D01*
X123954Y120156D01*
X123948Y120063D01*
X123954Y106379D01*
X123975Y106289D01*
X124011Y106203D01*
X124060Y106124D01*
X124120Y106053D01*
X124191Y105993D01*
X124270Y105944D01*
X124356Y105908D01*
X124446Y105887D01*
X124539Y105881D01*
X131223Y105887D01*
X131313Y105908D01*
X131399Y105944D01*
X131479Y105993D01*
X131549Y106053D01*
X131610Y106124D01*
X131658Y106203D01*
X131694Y106289D01*
X131716Y106379D01*
X131721Y106472D01*
X131717Y116660D01*
X131870Y116566D01*
X132128Y116460D01*
X132399Y116394D01*
X132677Y116373D01*
X132955Y116394D01*
X133226Y116460D01*
X133484Y116566D01*
X133722Y116712D01*
X133934Y116893D01*
X133949Y116911D01*
X133954Y106379D01*
X133975Y106289D01*
X134011Y106203D01*
X134060Y106124D01*
X134120Y106053D01*
X134191Y105993D01*
X134270Y105944D01*
X134356Y105908D01*
X134446Y105887D01*
X134539Y105881D01*
X136949Y105883D01*
Y105367D01*
X134082Y102500D01*
X117835D01*
Y105884D01*
X121223Y105887D01*
X121313Y105908D01*
X121399Y105944D01*
X121479Y105993D01*
X121549Y106053D01*
X121610Y106124D01*
X121658Y106203D01*
X121694Y106289D01*
X121716Y106379D01*
X121721Y106472D01*
X121716Y120156D01*
X121694Y120246D01*
X121658Y120332D01*
X121610Y120412D01*
X121549Y120482D01*
X121479Y120543D01*
X121399Y120591D01*
X121313Y120627D01*
X121223Y120649D01*
X121130Y120654D01*
X118799Y120652D01*
Y126457D01*
X118958Y126555D01*
X119170Y126736D01*
X119351Y126948D01*
X119497Y127185D01*
X119603Y127443D01*
X119668Y127714D01*
X119685Y127992D01*
X119668Y128270D01*
X119603Y128541D01*
X119497Y128799D01*
X119351Y129037D01*
X119170Y129249D01*
X118958Y129430D01*
X118720Y129575D01*
X118462Y129682D01*
X118191Y129747D01*
X117913Y129769D01*
X117835Y129763D01*
Y133307D01*
G37*
G36*
Y58406D02*X117690D01*
X113681Y62414D01*
Y64375D01*
X113684Y64409D01*
X113673Y64548D01*
X113640Y64684D01*
X113587Y64813D01*
X113514Y64932D01*
X113514Y64932D01*
X113424Y65038D01*
X113397Y65060D01*
X110493Y67964D01*
X110471Y67991D01*
X110365Y68081D01*
X110365Y68081D01*
X110246Y68154D01*
X110117Y68207D01*
X109982Y68240D01*
X109843Y68251D01*
X109808Y68248D01*
X107047D01*
X106949Y68407D01*
X106768Y68619D01*
X106556Y68800D01*
X106319Y68946D01*
X106061Y69052D01*
X105790Y69117D01*
X105512Y69139D01*
X105234Y69117D01*
X104963Y69052D01*
X104705Y68946D01*
X104467Y68800D01*
X104255Y68619D01*
X104074Y68407D01*
X103928Y68169D01*
X103822Y67911D01*
X103757Y67640D01*
X103735Y67362D01*
X103757Y67084D01*
X103776Y67004D01*
X102657Y68123D01*
Y75398D01*
X102660Y75433D01*
X102649Y75572D01*
X102617Y75708D01*
X102601Y75745D01*
X102563Y75836D01*
X102490Y75955D01*
X102400Y76061D01*
X102373Y76084D01*
X96555Y81902D01*
Y88649D01*
X97808Y89902D01*
X106523D01*
X107223Y89202D01*
X107246Y89175D01*
X107352Y89084D01*
X107471Y89011D01*
X107599Y88958D01*
X107735Y88926D01*
X107738Y88925D01*
X107874Y88915D01*
X107908Y88917D01*
X110473D01*
X110570Y88759D01*
X110751Y88547D01*
X110963Y88366D01*
X111201Y88220D01*
X111459Y88113D01*
X111730Y88048D01*
X112008Y88026D01*
X112286Y88048D01*
X112557Y88113D01*
X112815Y88220D01*
X113052Y88366D01*
X113264Y88547D01*
X113446Y88759D01*
X113591Y88996D01*
X113698Y89254D01*
X113763Y89525D01*
X113779Y89803D01*
X113763Y90081D01*
X113698Y90352D01*
X113591Y90610D01*
X113446Y90848D01*
X113264Y91060D01*
X113052Y91241D01*
X112815Y91386D01*
X112557Y91493D01*
X112286Y91558D01*
X112079Y91575D01*
X112688Y92183D01*
X112736Y92105D01*
X112917Y91893D01*
X113129Y91712D01*
X113366Y91566D01*
X113624Y91460D01*
X113895Y91394D01*
X114173Y91373D01*
X114451Y91394D01*
X114722Y91460D01*
X114980Y91566D01*
X115218Y91712D01*
X115430Y91893D01*
X115611Y92105D01*
X115757Y92343D01*
X115863Y92600D01*
X115928Y92872D01*
X115945Y93150D01*
X115928Y93428D01*
X115863Y93699D01*
X115757Y93956D01*
X115611Y94194D01*
X115430Y94406D01*
X115218Y94587D01*
X114980Y94733D01*
X114722Y94840D01*
X114451Y94905D01*
X114173Y94927D01*
X113895Y94905D01*
X113624Y94840D01*
X113366Y94733D01*
X113129Y94587D01*
X112917Y94406D01*
X112736Y94194D01*
X112638Y94035D01*
X112436D01*
X112402Y94038D01*
X112263Y94027D01*
X112127Y93995D01*
X111998Y93941D01*
X111879Y93868D01*
X111879Y93868D01*
X111773Y93778D01*
X111751Y93751D01*
X111216Y93217D01*
X111204Y93428D01*
X111139Y93699D01*
X111032Y93956D01*
X110886Y94194D01*
X110705Y94406D01*
X110493Y94587D01*
X110256Y94733D01*
X109998Y94840D01*
X109727Y94905D01*
X109449Y94927D01*
X109171Y94905D01*
X108900Y94840D01*
X108642Y94733D01*
X108404Y94587D01*
X108192Y94406D01*
X108011Y94194D01*
X107914Y94035D01*
X96295D01*
X96260Y94038D01*
X96121Y94027D01*
X95985Y93995D01*
X95856Y93941D01*
X95738Y93868D01*
X95632Y93778D01*
X95609Y93751D01*
X93012Y91154D01*
Y103019D01*
X95018Y101012D01*
X95041Y100986D01*
X95147Y100895D01*
X95266Y100823D01*
X95395Y100769D01*
X95530Y100737D01*
X95530D01*
X95669Y100726D01*
X95704Y100728D01*
X117835D01*
Y84678D01*
X116169Y83012D01*
X112558D01*
X112461Y83170D01*
X112280Y83382D01*
X112068Y83564D01*
X111830Y83709D01*
X111573Y83816D01*
X111302Y83881D01*
X111024Y83903D01*
X110746Y83881D01*
X110475Y83816D01*
X110217Y83709D01*
X109979Y83564D01*
X109767Y83382D01*
X109586Y83170D01*
X109440Y82933D01*
X109334Y82675D01*
X109269Y82404D01*
X109247Y82126D01*
X109269Y81848D01*
X109334Y81577D01*
X109440Y81319D01*
X109586Y81082D01*
X109767Y80869D01*
X109979Y80688D01*
X110217Y80543D01*
X110475Y80436D01*
X110746Y80371D01*
X111024Y80349D01*
X111302Y80371D01*
X111573Y80436D01*
X111830Y80543D01*
X112068Y80688D01*
X112280Y80869D01*
X112461Y81082D01*
X112558Y81240D01*
X116501D01*
X116535Y81237D01*
X116674Y81248D01*
X116674Y81248D01*
X116810Y81281D01*
X116939Y81334D01*
X117058Y81407D01*
X117164Y81498D01*
X117186Y81524D01*
X117835Y82173D01*
Y58406D01*
G37*
G36*
X70863Y95443D02*X70926Y95380D01*
X70883Y95199D01*
X70863Y94955D01*
Y95443D01*
G37*
G36*
X100788Y15307D02*X117835D01*
Y12244D01*
X100788D01*
Y15307D01*
G37*
G36*
X108632Y26909D02*X117835D01*
Y21307D01*
X108632D01*
Y21885D01*
X108661Y21883D01*
X109032Y21912D01*
X109394Y21998D01*
X109737Y22141D01*
X110054Y22335D01*
X110337Y22577D01*
X110578Y22859D01*
X110630Y22943D01*
X110682Y22859D01*
X110923Y22577D01*
X111206Y22335D01*
X111523Y22141D01*
X111866Y21998D01*
X112228Y21912D01*
X112598Y21883D01*
X112969Y21912D01*
X113331Y21998D01*
X113674Y22141D01*
X113991Y22335D01*
X114274Y22577D01*
X114515Y22859D01*
X114710Y23176D01*
X114852Y23520D01*
X114939Y23881D01*
X114961Y24252D01*
X114939Y24623D01*
X114852Y24984D01*
X114710Y25328D01*
X114515Y25645D01*
X114274Y25927D01*
X113991Y26169D01*
X113674Y26363D01*
X113331Y26505D01*
X112969Y26592D01*
X112598Y26621D01*
X112228Y26592D01*
X111866Y26505D01*
X111523Y26363D01*
X111206Y26169D01*
X110923Y25927D01*
X110682Y25645D01*
X110630Y25561D01*
X110578Y25645D01*
X110337Y25927D01*
X110054Y26169D01*
X109737Y26363D01*
X109394Y26505D01*
X109032Y26592D01*
X108661Y26621D01*
X108632Y26619D01*
Y26909D01*
G37*
G36*
X100788D02*X108632D01*
Y26619D01*
X108291Y26592D01*
X107929Y26505D01*
X107586Y26363D01*
X107269Y26169D01*
X106986Y25927D01*
X106744Y25645D01*
X106693Y25561D01*
X106641Y25645D01*
X106400Y25927D01*
X106117Y26169D01*
X105800Y26363D01*
X105457Y26505D01*
X105095Y26592D01*
X104724Y26621D01*
X104354Y26592D01*
X103992Y26505D01*
X103649Y26363D01*
X103332Y26169D01*
X103049Y25927D01*
X102807Y25645D01*
X102727Y25513D01*
X102686Y25528D01*
X102640Y25538D01*
X102593Y25540D01*
X102547Y25535D01*
X102501Y25523D01*
X102459Y25504D01*
X102420Y25478D01*
X102385Y25447D01*
X102356Y25411D01*
X102332Y25370D01*
X102316Y25326D01*
X102306Y25281D01*
X102304Y25234D01*
X102309Y25187D01*
X102321Y25142D01*
X102341Y25100D01*
X102413Y24956D01*
X102444Y24874D01*
X102384Y24623D01*
X102355Y24252D01*
X102384Y23881D01*
X102444Y23630D01*
X102413Y23548D01*
X102342Y23403D01*
X102323Y23361D01*
X102310Y23316D01*
X102306Y23270D01*
X102308Y23224D01*
X102317Y23178D01*
X102334Y23135D01*
X102357Y23094D01*
X102386Y23058D01*
X102421Y23027D01*
X102460Y23002D01*
X102502Y22983D01*
X102547Y22970D01*
X102593Y22966D01*
X102640Y22968D01*
X102685Y22977D01*
X102726Y22993D01*
X102807Y22859D01*
X103049Y22577D01*
X103332Y22335D01*
X103649Y22141D01*
X103992Y21998D01*
X104354Y21912D01*
X104724Y21883D01*
X105095Y21912D01*
X105457Y21998D01*
X105800Y22141D01*
X106117Y22335D01*
X106400Y22577D01*
X106641Y22859D01*
X106693Y22943D01*
X106744Y22859D01*
X106986Y22577D01*
X107269Y22335D01*
X107586Y22141D01*
X107929Y21998D01*
X108291Y21912D01*
X108632Y21885D01*
Y21307D01*
X100788D01*
Y21890D01*
X100895D01*
X101109Y21909D01*
X101320Y21948D01*
X101527Y22006D01*
X101727Y22082D01*
X101920Y22177D01*
X101960Y22202D01*
X101994Y22233D01*
X102024Y22270D01*
X102047Y22310D01*
X102064Y22354D01*
X102073Y22400D01*
X102076Y22446D01*
X102071Y22493D01*
X102058Y22538D01*
X102039Y22581D01*
X102014Y22620D01*
X101982Y22654D01*
X101946Y22684D01*
X101905Y22707D01*
X101862Y22724D01*
X101816Y22733D01*
X101769Y22736D01*
X101723Y22731D01*
X101678Y22718D01*
X101635Y22699D01*
X101492Y22626D01*
X101341Y22569D01*
X101186Y22526D01*
X101028Y22497D01*
X100868Y22482D01*
X100788D01*
Y26022D01*
X100868D01*
X101028Y26007D01*
X101186Y25978D01*
X101341Y25935D01*
X101492Y25878D01*
X101636Y25807D01*
X101678Y25787D01*
X101723Y25775D01*
X101769Y25770D01*
X101816Y25772D01*
X101861Y25782D01*
X101905Y25799D01*
X101945Y25822D01*
X101981Y25851D01*
X102012Y25885D01*
X102038Y25924D01*
X102057Y25967D01*
X102069Y26012D01*
X102074Y26058D01*
X102072Y26104D01*
X102062Y26150D01*
X102045Y26193D01*
X102022Y26233D01*
X101993Y26270D01*
X101959Y26301D01*
X101919Y26325D01*
X101727Y26422D01*
X101527Y26498D01*
X101320Y26556D01*
X101109Y26595D01*
X100895Y26614D01*
X100788D01*
Y26909D01*
G37*
G36*
X70863Y29272D02*X87761D01*
X87795Y29269D01*
X87830Y29272D01*
X95893D01*
X97971Y27193D01*
X97994Y27167D01*
X98100Y27076D01*
X98100Y27076D01*
X98219Y27004D01*
X98347Y26950D01*
X98483Y26918D01*
X98622Y26907D01*
X98657Y26909D01*
X100788D01*
Y26614D01*
X100680D01*
X100466Y26595D01*
X100255Y26556D01*
X100048Y26498D01*
X99847Y26422D01*
X99654Y26327D01*
X99615Y26302D01*
X99580Y26271D01*
X99551Y26234D01*
X99528Y26194D01*
X99511Y26150D01*
X99501Y26104D01*
X99499Y26058D01*
X99504Y26011D01*
X99516Y25966D01*
X99535Y25923D01*
X99561Y25884D01*
X99592Y25850D01*
X99629Y25820D01*
X99669Y25797D01*
X99713Y25780D01*
X99759Y25771D01*
X99805Y25768D01*
X99852Y25773D01*
X99897Y25785D01*
X99939Y25805D01*
X100083Y25878D01*
X100233Y25935D01*
X100388Y25978D01*
X100547Y26007D01*
X100707Y26022D01*
X100788D01*
Y22482D01*
X100707D01*
X100547Y22497D01*
X100388Y22526D01*
X100233Y22569D01*
X100083Y22626D01*
X99938Y22697D01*
X99897Y22717D01*
X99852Y22729D01*
X99805Y22734D01*
X99759Y22732D01*
X99714Y22722D01*
X99670Y22705D01*
X99630Y22682D01*
X99594Y22653D01*
X99562Y22619D01*
X99537Y22580D01*
X99518Y22537D01*
X99506Y22492D01*
X99501Y22446D01*
X99503Y22400D01*
X99513Y22354D01*
X99529Y22311D01*
X99553Y22271D01*
X99582Y22234D01*
X99616Y22203D01*
X99656Y22179D01*
X99847Y22082D01*
X100048Y22006D01*
X100255Y21948D01*
X100466Y21909D01*
X100680Y21890D01*
X100788D01*
Y21307D01*
X80599D01*
X80311Y21553D01*
X79774Y21882D01*
X79193Y22123D01*
X78580Y22270D01*
X77953Y22319D01*
X77325Y22270D01*
X76713Y22123D01*
X76131Y21882D01*
X75594Y21553D01*
X75116Y21144D01*
X74707Y20665D01*
X74378Y20129D01*
X74137Y19547D01*
X73990Y18935D01*
X73940Y18307D01*
X73990Y17679D01*
X74137Y17067D01*
X74378Y16486D01*
X74707Y15949D01*
X75116Y15470D01*
X75594Y15061D01*
X76131Y14732D01*
X76713Y14491D01*
X77325Y14344D01*
X77953Y14295D01*
X78580Y14344D01*
X79193Y14491D01*
X79774Y14732D01*
X80311Y15061D01*
X80599Y15307D01*
X100788D01*
Y12244D01*
X70863D01*
Y21555D01*
X71003Y21436D01*
X71240Y21291D01*
X71498Y21184D01*
X71769Y21119D01*
X72047Y21097D01*
X72325Y21119D01*
X72596Y21184D01*
X72854Y21291D01*
X73092Y21436D01*
X73304Y21617D01*
X73485Y21830D01*
X73631Y22067D01*
X73737Y22325D01*
X73802Y22596D01*
X73819Y22874D01*
X73802Y23152D01*
X73759Y23333D01*
X73792Y23366D01*
X90555D01*
X90557Y22388D01*
X90578Y22297D01*
X90614Y22211D01*
X90663Y22132D01*
X90723Y22061D01*
X90794Y22001D01*
X90873Y21953D01*
X90959Y21917D01*
X91049Y21895D01*
X91142Y21890D01*
X94778Y21895D01*
X94868Y21917D01*
X94954Y21953D01*
X95033Y22001D01*
X95104Y22061D01*
X95164Y22132D01*
X95213Y22211D01*
X95248Y22297D01*
X95270Y22388D01*
X95276Y22480D01*
X95276Y22491D01*
X95458Y22335D01*
X95775Y22141D01*
X96118Y21998D01*
X96480Y21912D01*
X96850Y21883D01*
X97221Y21912D01*
X97583Y21998D01*
X97926Y22141D01*
X98243Y22335D01*
X98526Y22577D01*
X98767Y22859D01*
X98848Y22991D01*
X98889Y22976D01*
X98935Y22966D01*
X98982Y22964D01*
X99028Y22969D01*
X99073Y22981D01*
X99116Y23000D01*
X99155Y23026D01*
X99190Y23057D01*
X99219Y23093D01*
X99242Y23134D01*
X99259Y23178D01*
X99269Y23223D01*
X99271Y23270D01*
X99266Y23317D01*
X99254Y23362D01*
X99234Y23404D01*
X99162Y23548D01*
X99130Y23630D01*
X99191Y23881D01*
X99213Y24252D01*
X99191Y24623D01*
X99130Y24874D01*
X99162Y24956D01*
X99232Y25101D01*
X99252Y25143D01*
X99264Y25188D01*
X99269Y25234D01*
X99267Y25280D01*
X99257Y25326D01*
X99241Y25369D01*
X99218Y25410D01*
X99189Y25446D01*
X99154Y25477D01*
X99115Y25502D01*
X99073Y25521D01*
X99028Y25533D01*
X98982Y25538D01*
X98935Y25536D01*
X98890Y25527D01*
X98849Y25511D01*
X98767Y25645D01*
X98526Y25927D01*
X98243Y26169D01*
X97926Y26363D01*
X97583Y26505D01*
X97221Y26592D01*
X96850Y26621D01*
X96480Y26592D01*
X96118Y26505D01*
X95775Y26363D01*
X95458Y26169D01*
X95270Y26009D01*
X95270Y26116D01*
X95248Y26207D01*
X95213Y26293D01*
X95164Y26372D01*
X95104Y26442D01*
X95033Y26503D01*
X94954Y26551D01*
X94868Y26587D01*
X94778Y26609D01*
X94685Y26614D01*
X91049Y26609D01*
X90959Y26587D01*
X90873Y26551D01*
X90794Y26503D01*
X90723Y26442D01*
X90663Y26372D01*
X90614Y26293D01*
X90578Y26207D01*
X90557Y26116D01*
X90551Y26024D01*
X90553Y25138D01*
X73460D01*
X73425Y25141D01*
X73286Y25130D01*
X73151Y25097D01*
X73022Y25044D01*
X72903Y24971D01*
X72903Y24971D01*
X72797Y24880D01*
X72774Y24854D01*
X72506Y24586D01*
X72325Y24629D01*
X72047Y24651D01*
X71769Y24629D01*
X71498Y24564D01*
X71240Y24457D01*
X71003Y24312D01*
X70863Y24193D01*
Y29272D01*
G37*
G36*
X77835Y127697D02*X90750D01*
X90743Y127598D01*
X90765Y127320D01*
X90830Y127049D01*
X90936Y126792D01*
X91082Y126554D01*
X91263Y126342D01*
X91453Y126180D01*
X91407Y126152D01*
X91301Y126061D01*
X91278Y126035D01*
X88807Y123564D01*
X88839Y123601D01*
X88985Y123839D01*
X89092Y124097D01*
X89157Y124368D01*
X89173Y124646D01*
X89157Y124924D01*
X89092Y125195D01*
X88985Y125452D01*
X88839Y125690D01*
X88658Y125902D01*
X88446Y126083D01*
X88208Y126229D01*
X87951Y126336D01*
X87680Y126401D01*
X87402Y126423D01*
X87124Y126401D01*
X86852Y126336D01*
X86595Y126229D01*
X86357Y126083D01*
X86145Y125902D01*
X85964Y125690D01*
X85867Y125531D01*
X85271D01*
X85236Y125534D01*
X85097Y125523D01*
X84962Y125491D01*
X84833Y125437D01*
X84714Y125364D01*
X84608Y125274D01*
X84585Y125247D01*
X82272Y122934D01*
X82246Y122912D01*
X82155Y122806D01*
X82082Y122687D01*
X82029Y122558D01*
X81996Y122422D01*
X81996Y122422D01*
X81986Y122283D01*
X81988Y122249D01*
Y104568D01*
X81988Y104567D01*
Y104540D01*
X79713Y102265D01*
X79687Y102242D01*
X79596Y102136D01*
X79523Y102018D01*
X79470Y101889D01*
X79437Y101753D01*
X79426Y101614D01*
X79429Y101579D01*
Y98499D01*
X79426Y98465D01*
X79437Y98326D01*
X79470Y98190D01*
X79523Y98061D01*
X79596Y97942D01*
X79596Y97942D01*
X79687Y97836D01*
X79713Y97814D01*
X81436Y96091D01*
X81458Y96065D01*
X81564Y95974D01*
X81564Y95974D01*
X81683Y95901D01*
X81812Y95848D01*
X81948Y95815D01*
X82087Y95804D01*
X82121Y95807D01*
X85657D01*
X86516Y94948D01*
Y77436D01*
X86513Y77402D01*
X86524Y77263D01*
X86556Y77127D01*
X86610Y76998D01*
X86683Y76879D01*
X86683Y76879D01*
X86773Y76773D01*
X86800Y76751D01*
X92618Y70932D01*
Y66351D01*
X80735Y54469D01*
X77835D01*
Y59783D01*
X80477D01*
X80512Y59781D01*
X80651Y59792D01*
X80786Y59824D01*
X80915Y59878D01*
X81034Y59950D01*
X81140Y60041D01*
X81163Y60067D01*
X88517Y67422D01*
X88698Y67379D01*
X88976Y67357D01*
X89254Y67379D01*
X89525Y67444D01*
X89783Y67551D01*
X90021Y67696D01*
X90233Y67877D01*
X90414Y68089D01*
X90560Y68327D01*
X90666Y68585D01*
X90731Y68856D01*
X90748Y69134D01*
X90731Y69412D01*
X90666Y69683D01*
X90560Y69941D01*
X90414Y70178D01*
X90233Y70390D01*
X90021Y70571D01*
X89783Y70717D01*
X89525Y70824D01*
X89254Y70889D01*
X88976Y70911D01*
X88698Y70889D01*
X88427Y70824D01*
X88170Y70717D01*
X87932Y70571D01*
X87720Y70390D01*
X87539Y70178D01*
X87393Y69941D01*
X87286Y69683D01*
X87221Y69412D01*
X87199Y69134D01*
X87221Y68856D01*
X87265Y68675D01*
X80145Y61555D01*
X77835D01*
Y70427D01*
X85039D01*
X85392Y70448D01*
X85737Y70531D01*
X86064Y70666D01*
X86366Y70851D01*
X86635Y71081D01*
X86865Y71351D01*
X87050Y71653D01*
X87186Y71980D01*
X87269Y72324D01*
X87296Y72677D01*
X87269Y73030D01*
X87186Y73375D01*
X87050Y73702D01*
X86865Y74004D01*
X86635Y74273D01*
X86366Y74503D01*
X86064Y74688D01*
X85737Y74824D01*
X85392Y74906D01*
X85039Y74927D01*
X77835D01*
Y84298D01*
X78358Y84822D01*
X78384Y84844D01*
X78475Y84950D01*
X78475Y84950D01*
X78548Y85069D01*
X78601Y85198D01*
X78634Y85333D01*
X78644Y85472D01*
X78642Y85507D01*
Y91615D01*
X78800Y91712D01*
X79012Y91893D01*
X79194Y92105D01*
X79339Y92343D01*
X79446Y92600D01*
X79511Y92872D01*
X79527Y93150D01*
X79511Y93428D01*
X79446Y93699D01*
X79339Y93956D01*
X79194Y94194D01*
X79012Y94406D01*
X78800Y94587D01*
X78563Y94733D01*
X78305Y94840D01*
X78034Y94905D01*
X77835Y94920D01*
Y105884D01*
X81223Y105887D01*
X81313Y105908D01*
X81399Y105944D01*
X81479Y105993D01*
X81549Y106053D01*
X81610Y106124D01*
X81658Y106203D01*
X81694Y106289D01*
X81716Y106379D01*
X81721Y106472D01*
X81716Y120156D01*
X81694Y120246D01*
X81658Y120332D01*
X81610Y120412D01*
X81549Y120482D01*
X81479Y120543D01*
X81399Y120591D01*
X81313Y120627D01*
X81223Y120649D01*
X81130Y120654D01*
X77835Y120652D01*
Y127697D01*
G37*
G36*
Y74927D02*X71348D01*
X71260Y74934D01*
X70907Y74906D01*
X70863Y74896D01*
Y77327D01*
X77835Y84298D01*
Y74927D01*
G37*
G36*
Y61555D02*X72007D01*
X71910Y61714D01*
X71729Y61926D01*
X71517Y62107D01*
X71279Y62253D01*
X71022Y62359D01*
X70863Y62397D01*
Y69099D01*
X72192Y70427D01*
X77835D01*
Y61555D01*
G37*
G36*
Y54469D02*X70901D01*
X70866Y54471D01*
X70863Y54471D01*
Y58941D01*
X71022Y58979D01*
X71279Y59086D01*
X71517Y59232D01*
X71729Y59413D01*
X71910Y59625D01*
X72007Y59783D01*
X77835D01*
Y54469D01*
G37*
G36*
X70863Y105886D02*X71223Y105887D01*
X71313Y105908D01*
X71399Y105944D01*
X71479Y105993D01*
X71549Y106053D01*
X71610Y106124D01*
X71658Y106203D01*
X71694Y106289D01*
X71716Y106379D01*
X71721Y106472D01*
X71716Y120156D01*
X71694Y120246D01*
X71658Y120332D01*
X71610Y120412D01*
X71549Y120482D01*
X71479Y120543D01*
X71399Y120591D01*
X71313Y120627D01*
X71223Y120649D01*
X71130Y120654D01*
X70863Y120654D01*
Y125949D01*
X72611Y127697D01*
X77835D01*
Y120652D01*
X74446Y120649D01*
X74356Y120627D01*
X74270Y120591D01*
X74191Y120543D01*
X74120Y120482D01*
X74060Y120412D01*
X74011Y120332D01*
X73975Y120246D01*
X73954Y120156D01*
X73948Y120063D01*
X73954Y106379D01*
X73975Y106289D01*
X74011Y106203D01*
X74060Y106124D01*
X74120Y106053D01*
X74191Y105993D01*
X74270Y105944D01*
X74356Y105908D01*
X74446Y105887D01*
X74539Y105881D01*
X77835Y105884D01*
Y94920D01*
X77756Y94927D01*
X77478Y94905D01*
X77207Y94840D01*
X76949Y94733D01*
X76711Y94587D01*
X76499Y94406D01*
X76318Y94194D01*
X76173Y93956D01*
X76066Y93699D01*
X76001Y93428D01*
X75979Y93150D01*
X76001Y92872D01*
X76066Y92600D01*
X76173Y92343D01*
X76318Y92105D01*
X76499Y91893D01*
X76711Y91712D01*
X76870Y91615D01*
Y85839D01*
X70863Y79833D01*
Y94888D01*
X70883Y94643D01*
X70948Y94372D01*
X71054Y94115D01*
X71200Y93877D01*
X71381Y93665D01*
X71593Y93484D01*
X71831Y93338D01*
X72089Y93231D01*
X72360Y93166D01*
X72638Y93144D01*
X72916Y93166D01*
X73187Y93231D01*
X73445Y93338D01*
X73682Y93484D01*
X73894Y93665D01*
X74075Y93877D01*
X74221Y94115D01*
X74328Y94372D01*
X74393Y94643D01*
X74409Y94921D01*
X74393Y95199D01*
X74328Y95470D01*
X74221Y95728D01*
X74075Y95966D01*
X73894Y96178D01*
X73682Y96359D01*
X73445Y96505D01*
X73187Y96611D01*
X72916Y96676D01*
X72638Y96698D01*
X72360Y96676D01*
X72179Y96633D01*
X70863Y97948D01*
Y102554D01*
X70866Y102598D01*
X70863Y102643D01*
Y105886D01*
G37*
G36*
Y128878D02*X71287D01*
X70863Y128455D01*
Y128878D01*
G37*
G36*
Y133307D02*X117835D01*
Y129763D01*
X117635Y129747D01*
X117364Y129682D01*
X117107Y129575D01*
X116869Y129430D01*
X116657Y129249D01*
X116476Y129037D01*
X116330Y128799D01*
X116223Y128541D01*
X116158Y128270D01*
X116136Y127992D01*
X116158Y127714D01*
X116223Y127443D01*
X116330Y127185D01*
X116476Y126948D01*
X116657Y126736D01*
X116869Y126555D01*
X117028Y126457D01*
Y120651D01*
X114446Y120649D01*
X114356Y120627D01*
X114270Y120591D01*
X114191Y120543D01*
X114120Y120482D01*
X114060Y120412D01*
X114011Y120332D01*
X113975Y120246D01*
X113954Y120156D01*
X113948Y120063D01*
X113954Y106379D01*
X113975Y106289D01*
X114011Y106203D01*
X114060Y106124D01*
X114120Y106053D01*
X114191Y105993D01*
X114270Y105944D01*
X114356Y105908D01*
X114446Y105887D01*
X114539Y105881D01*
X117835Y105884D01*
Y102500D01*
X96036D01*
X94193Y104343D01*
Y105991D01*
X94270Y105944D01*
X94356Y105908D01*
X94446Y105887D01*
X94539Y105881D01*
X101223Y105887D01*
X101313Y105908D01*
X101399Y105944D01*
X101479Y105993D01*
X101549Y106053D01*
X101610Y106124D01*
X101658Y106203D01*
X101694Y106289D01*
X101716Y106379D01*
X101721Y106472D01*
X101716Y120156D01*
X101694Y120246D01*
X101658Y120332D01*
X101610Y120412D01*
X101549Y120482D01*
X101479Y120543D01*
X101399Y120591D01*
X101313Y120627D01*
X101223Y120649D01*
X101130Y120654D01*
X98720Y120652D01*
Y126064D01*
X98879Y126161D01*
X99091Y126342D01*
X99272Y126554D01*
X99418Y126792D01*
X99525Y127049D01*
X99590Y127320D01*
X99606Y127598D01*
X99590Y127876D01*
X99525Y128148D01*
X99418Y128405D01*
X99272Y128643D01*
X99091Y128855D01*
X99064Y128878D01*
X104554D01*
X106988Y126444D01*
Y120651D01*
X104446Y120649D01*
X104356Y120627D01*
X104270Y120591D01*
X104191Y120543D01*
X104120Y120482D01*
X104060Y120412D01*
X104011Y120332D01*
X103975Y120246D01*
X103954Y120156D01*
X103948Y120063D01*
X103954Y106379D01*
X103975Y106289D01*
X104011Y106203D01*
X104060Y106124D01*
X104120Y106053D01*
X104191Y105993D01*
X104270Y105944D01*
X104356Y105908D01*
X104446Y105887D01*
X104539Y105881D01*
X111223Y105887D01*
X111313Y105908D01*
X111399Y105944D01*
X111479Y105993D01*
X111549Y106053D01*
X111610Y106124D01*
X111658Y106203D01*
X111694Y106289D01*
X111716Y106379D01*
X111721Y106472D01*
X111716Y120156D01*
X111694Y120246D01*
X111658Y120332D01*
X111610Y120412D01*
X111549Y120482D01*
X111479Y120543D01*
X111399Y120591D01*
X111313Y120627D01*
X111223Y120649D01*
X111130Y120654D01*
X108760Y120652D01*
Y126776D01*
X108763Y126811D01*
X108752Y126950D01*
X108719Y127086D01*
X108703Y127123D01*
X108666Y127214D01*
X108593Y127333D01*
X108502Y127439D01*
X108476Y127462D01*
X105572Y130366D01*
X105550Y130392D01*
X105444Y130483D01*
X105325Y130555D01*
X105234Y130593D01*
X105196Y130609D01*
X105060Y130641D01*
X104921Y130652D01*
X104887Y130650D01*
X70863D01*
Y133307D01*
G37*
G36*
Y97948D02*X69980Y98831D01*
Y101064D01*
X70139Y101161D01*
X70351Y101342D01*
X70532Y101554D01*
X70678Y101792D01*
X70785Y102049D01*
X70850Y102320D01*
X70863Y102554D01*
Y97948D01*
G37*
G36*
Y120654D02*X68602Y120652D01*
Y123688D01*
X70863Y125949D01*
Y120654D01*
G37*
G36*
X54009Y18797D02*X54031Y18634D01*
X54043Y18346D01*
X54031Y18059D01*
X54009Y17896D01*
Y18797D01*
G37*
G36*
X69757D02*X69779Y18634D01*
X69791Y18346D01*
X69779Y18059D01*
X69757Y17896D01*
Y18797D01*
G37*
G36*
Y29272D02*X70863D01*
Y24193D01*
X70791Y24131D01*
X70610Y23919D01*
X70464Y23681D01*
X70357Y23423D01*
X70292Y23152D01*
X70270Y22874D01*
X70292Y22596D01*
X70357Y22325D01*
X70464Y22067D01*
X70610Y21830D01*
X70791Y21617D01*
X70863Y21555D01*
Y12244D01*
X69757D01*
Y16248D01*
X69856Y16398D01*
X70015Y16699D01*
X70147Y17013D01*
X70251Y17337D01*
X70326Y17669D01*
X70371Y18006D01*
X70386Y18346D01*
X70371Y18687D01*
X70326Y19024D01*
X70251Y19356D01*
X70147Y19680D01*
X70015Y19994D01*
X69856Y20295D01*
X69757Y20448D01*
Y29272D01*
G37*
G36*
X66537D02*X69757D01*
Y20448D01*
X69671Y20581D01*
X69641Y20617D01*
X69606Y20648D01*
X69566Y20673D01*
X69523Y20691D01*
X69477Y20702D01*
X69430Y20707D01*
X69383Y20703D01*
X69338Y20693D01*
X69294Y20675D01*
X69254Y20651D01*
X69218Y20621D01*
X69187Y20585D01*
X69162Y20546D01*
X69144Y20502D01*
X69132Y20457D01*
X69128Y20410D01*
X69131Y20363D01*
X69142Y20317D01*
X69159Y20274D01*
X69184Y20234D01*
X69344Y19994D01*
X69478Y19740D01*
X69590Y19474D01*
X69677Y19200D01*
X69741Y18919D01*
X69757Y18797D01*
Y17896D01*
X69741Y17774D01*
X69677Y17493D01*
X69590Y17218D01*
X69478Y16953D01*
X69344Y16699D01*
X69187Y16457D01*
X69162Y16418D01*
X69145Y16375D01*
X69135Y16329D01*
X69131Y16283D01*
X69135Y16237D01*
X69147Y16192D01*
X69165Y16149D01*
X69189Y16109D01*
X69220Y16074D01*
X69256Y16044D01*
X69295Y16021D01*
X69339Y16003D01*
X69384Y15993D01*
X69430Y15990D01*
X69476Y15994D01*
X69522Y16005D01*
X69564Y16023D01*
X69604Y16048D01*
X69639Y16078D01*
X69668Y16114D01*
X69757Y16248D01*
Y12244D01*
X66537D01*
Y14496D01*
X66876Y14511D01*
X67213Y14556D01*
X67545Y14631D01*
X67869Y14735D01*
X68183Y14867D01*
X68484Y15026D01*
X68770Y15211D01*
X68806Y15241D01*
X68837Y15276D01*
X68862Y15316D01*
X68880Y15359D01*
X68891Y15405D01*
X68896Y15452D01*
X68892Y15499D01*
X68882Y15544D01*
X68864Y15588D01*
X68840Y15628D01*
X68810Y15664D01*
X68774Y15695D01*
X68735Y15720D01*
X68691Y15738D01*
X68646Y15750D01*
X68599Y15754D01*
X68552Y15751D01*
X68506Y15740D01*
X68463Y15722D01*
X68423Y15697D01*
X68183Y15538D01*
X67929Y15404D01*
X67663Y15292D01*
X67389Y15204D01*
X67108Y15141D01*
X66823Y15103D01*
X66537Y15091D01*
Y21602D01*
X66823Y21590D01*
X67108Y21552D01*
X67389Y21488D01*
X67663Y21401D01*
X67929Y21289D01*
X68183Y21155D01*
X68425Y20998D01*
X68464Y20973D01*
X68507Y20956D01*
X68553Y20946D01*
X68599Y20942D01*
X68645Y20946D01*
X68690Y20958D01*
X68733Y20976D01*
X68772Y21001D01*
X68808Y21031D01*
X68837Y21067D01*
X68861Y21106D01*
X68879Y21150D01*
X68889Y21195D01*
X68892Y21241D01*
X68888Y21288D01*
X68877Y21333D01*
X68859Y21375D01*
X68834Y21415D01*
X68804Y21450D01*
X68768Y21479D01*
X68484Y21667D01*
X68183Y21826D01*
X67869Y21958D01*
X67545Y22062D01*
X67213Y22137D01*
X66876Y22182D01*
X66537Y22197D01*
Y29272D01*
G37*
G36*
X63314D02*X66537D01*
Y22197D01*
X66535Y22197D01*
X66195Y22182D01*
X65858Y22137D01*
X65526Y22062D01*
X65202Y21958D01*
X64888Y21826D01*
X64587Y21667D01*
X64301Y21482D01*
X64265Y21452D01*
X64234Y21417D01*
X64209Y21377D01*
X64191Y21334D01*
X64179Y21288D01*
X64175Y21241D01*
X64179Y21194D01*
X64189Y21149D01*
X64207Y21105D01*
X64231Y21065D01*
X64261Y21029D01*
X64296Y20998D01*
X64336Y20973D01*
X64380Y20955D01*
X64425Y20943D01*
X64472Y20939D01*
X64519Y20942D01*
X64565Y20953D01*
X64608Y20971D01*
X64648Y20995D01*
X64888Y21155D01*
X65142Y21289D01*
X65407Y21401D01*
X65682Y21488D01*
X65962Y21552D01*
X66248Y21590D01*
X66535Y21602D01*
X66537Y21602D01*
Y15091D01*
X66535Y15091D01*
X66248Y15103D01*
X65962Y15141D01*
X65682Y15204D01*
X65407Y15292D01*
X65142Y15404D01*
X64888Y15538D01*
X64646Y15695D01*
X64607Y15720D01*
X64564Y15737D01*
X64518Y15747D01*
X64472Y15751D01*
X64426Y15746D01*
X64381Y15735D01*
X64338Y15717D01*
X64298Y15692D01*
X64263Y15662D01*
X64233Y15626D01*
X64210Y15586D01*
X64192Y15543D01*
X64182Y15498D01*
X64178Y15452D01*
X64183Y15405D01*
X64194Y15360D01*
X64212Y15318D01*
X64237Y15278D01*
X64267Y15243D01*
X64303Y15214D01*
X64587Y15026D01*
X64888Y14867D01*
X65202Y14735D01*
X65526Y14631D01*
X65858Y14556D01*
X66195Y14511D01*
X66535Y14496D01*
X66537Y14496D01*
Y12244D01*
X63314D01*
Y16245D01*
X63400Y16112D01*
X63430Y16076D01*
X63465Y16045D01*
X63505Y16020D01*
X63548Y16002D01*
X63594Y15990D01*
X63641Y15986D01*
X63688Y15990D01*
X63733Y16000D01*
X63777Y16018D01*
X63817Y16042D01*
X63853Y16072D01*
X63884Y16107D01*
X63909Y16147D01*
X63927Y16191D01*
X63939Y16236D01*
X63943Y16283D01*
X63939Y16330D01*
X63929Y16376D01*
X63911Y16419D01*
X63886Y16459D01*
X63727Y16699D01*
X63593Y16953D01*
X63481Y17218D01*
X63393Y17493D01*
X63330Y17774D01*
X63314Y17896D01*
Y18797D01*
X63330Y18919D01*
X63393Y19200D01*
X63481Y19474D01*
X63593Y19740D01*
X63727Y19994D01*
X63884Y20236D01*
X63909Y20275D01*
X63926Y20318D01*
X63936Y20364D01*
X63940Y20410D01*
X63935Y20456D01*
X63924Y20501D01*
X63906Y20544D01*
X63881Y20584D01*
X63851Y20619D01*
X63815Y20648D01*
X63775Y20672D01*
X63732Y20690D01*
X63687Y20700D01*
X63641Y20703D01*
X63594Y20699D01*
X63549Y20688D01*
X63507Y20670D01*
X63467Y20645D01*
X63432Y20615D01*
X63403Y20579D01*
X63314Y20445D01*
Y29272D01*
G37*
G36*
Y17896D02*X63292Y18059D01*
X63280Y18346D01*
X63292Y18634D01*
X63314Y18797D01*
Y17896D01*
G37*
G36*
X58661Y29272D02*X63314D01*
Y20445D01*
X63215Y20295D01*
X63056Y19994D01*
X62924Y19680D01*
X62820Y19356D01*
X62745Y19024D01*
X62700Y18687D01*
X62685Y18346D01*
X62700Y18006D01*
X62745Y17669D01*
X62820Y17337D01*
X62924Y17013D01*
X63056Y16699D01*
X63215Y16398D01*
X63314Y16245D01*
Y12244D01*
X58661D01*
Y14503D01*
X62010Y14506D01*
X62100Y14527D01*
X62186Y14563D01*
X62265Y14611D01*
X62336Y14672D01*
X62397Y14742D01*
X62445Y14822D01*
X62481Y14908D01*
X62502Y14998D01*
X62508Y15091D01*
X62502Y21695D01*
X62481Y21785D01*
X62445Y21871D01*
X62397Y21951D01*
X62336Y22021D01*
X62265Y22082D01*
X62186Y22130D01*
X62100Y22166D01*
X62010Y22187D01*
X61917Y22193D01*
X58661Y22190D01*
Y29272D01*
G37*
G36*
X54009D02*X58661D01*
Y22190D01*
X55313Y22187D01*
X55222Y22166D01*
X55137Y22130D01*
X55057Y22082D01*
X54987Y22021D01*
X54926Y21951D01*
X54878Y21871D01*
X54842Y21785D01*
X54820Y21695D01*
X54815Y21602D01*
X54820Y14998D01*
X54842Y14908D01*
X54878Y14822D01*
X54926Y14742D01*
X54987Y14672D01*
X55057Y14611D01*
X55137Y14563D01*
X55222Y14527D01*
X55313Y14506D01*
X55406Y14500D01*
X58661Y14503D01*
Y12244D01*
X54009D01*
Y16248D01*
X54108Y16398D01*
X54267Y16699D01*
X54399Y17013D01*
X54503Y17337D01*
X54577Y17669D01*
X54623Y18006D01*
X54638Y18346D01*
X54623Y18687D01*
X54577Y19024D01*
X54503Y19356D01*
X54399Y19680D01*
X54267Y19994D01*
X54108Y20295D01*
X54009Y20448D01*
Y29272D01*
G37*
G36*
Y49955D02*X57983D01*
X58071Y49948D01*
X58424Y49976D01*
X58424Y49976D01*
X58768Y50058D01*
X59095Y50194D01*
X59397Y50379D01*
X59667Y50609D01*
X59724Y50676D01*
X65505Y56457D01*
X65572Y56514D01*
X65802Y56783D01*
X65802Y56784D01*
X65987Y57086D01*
X66123Y57413D01*
X66206Y57757D01*
X66233Y58110D01*
X66226Y58198D01*
Y64462D01*
X70863Y69099D01*
Y62397D01*
X70750Y62424D01*
X70472Y62446D01*
X70194Y62424D01*
X69923Y62359D01*
X69666Y62253D01*
X69428Y62107D01*
X69216Y61926D01*
X69035Y61714D01*
X68889Y61476D01*
X68782Y61218D01*
X68717Y60947D01*
X68695Y60669D01*
X68717Y60391D01*
X68782Y60120D01*
X68889Y59863D01*
X69035Y59625D01*
X69216Y59413D01*
X69428Y59232D01*
X69666Y59086D01*
X69923Y58979D01*
X70194Y58914D01*
X70472Y58892D01*
X70750Y58914D01*
X70863Y58941D01*
Y54471D01*
X70727Y54460D01*
X70592Y54428D01*
X70463Y54374D01*
X70344Y54302D01*
X70344Y54301D01*
X70238Y54211D01*
X70215Y54185D01*
X65184Y49154D01*
X56137D01*
X56102Y49156D01*
X55963Y49145D01*
X55828Y49113D01*
X55699Y49059D01*
X55580Y48987D01*
X55580Y48986D01*
X55474Y48896D01*
X55451Y48870D01*
X54009Y47427D01*
Y49955D01*
G37*
G36*
X50789D02*X54009D01*
Y47427D01*
X52745Y46163D01*
X52718Y46140D01*
X52628Y46034D01*
X52555Y45915D01*
X52501Y45786D01*
X52469Y45651D01*
X52458Y45512D01*
X52461Y45477D01*
Y30783D01*
X52458Y30748D01*
X52469Y30609D01*
X52501Y30473D01*
X52555Y30345D01*
X52628Y30226D01*
X52628Y30226D01*
X52718Y30120D01*
X52745Y30097D01*
X53286Y29556D01*
X53309Y29529D01*
X53415Y29439D01*
X53415Y29439D01*
X53534Y29366D01*
X53662Y29312D01*
X53798Y29280D01*
X53937Y29269D01*
X53972Y29272D01*
X54009D01*
Y20448D01*
X53923Y20581D01*
X53893Y20617D01*
X53858Y20648D01*
X53818Y20673D01*
X53775Y20691D01*
X53729Y20702D01*
X53682Y20707D01*
X53635Y20703D01*
X53590Y20693D01*
X53546Y20675D01*
X53506Y20651D01*
X53470Y20621D01*
X53439Y20585D01*
X53414Y20546D01*
X53396Y20502D01*
X53384Y20457D01*
X53380Y20410D01*
X53383Y20363D01*
X53394Y20317D01*
X53411Y20274D01*
X53436Y20234D01*
X53596Y19994D01*
X53730Y19740D01*
X53842Y19474D01*
X53929Y19200D01*
X53992Y18919D01*
X54009Y18797D01*
Y17896D01*
X53992Y17774D01*
X53929Y17493D01*
X53842Y17218D01*
X53730Y16953D01*
X53596Y16699D01*
X53439Y16457D01*
X53414Y16418D01*
X53397Y16375D01*
X53387Y16329D01*
X53383Y16283D01*
X53387Y16237D01*
X53399Y16192D01*
X53417Y16149D01*
X53441Y16109D01*
X53472Y16074D01*
X53508Y16044D01*
X53547Y16021D01*
X53591Y16003D01*
X53636Y15993D01*
X53682Y15990D01*
X53728Y15994D01*
X53774Y16005D01*
X53816Y16023D01*
X53856Y16048D01*
X53891Y16078D01*
X53920Y16114D01*
X54009Y16248D01*
Y12244D01*
X50789D01*
Y14496D01*
X51127Y14511D01*
X51465Y14556D01*
X51797Y14631D01*
X52121Y14735D01*
X52435Y14867D01*
X52736Y15026D01*
X53022Y15211D01*
X53058Y15241D01*
X53089Y15276D01*
X53114Y15316D01*
X53132Y15359D01*
X53143Y15405D01*
X53148Y15452D01*
X53144Y15499D01*
X53134Y15544D01*
X53116Y15588D01*
X53092Y15628D01*
X53062Y15664D01*
X53026Y15695D01*
X52987Y15720D01*
X52943Y15738D01*
X52898Y15750D01*
X52851Y15754D01*
X52804Y15751D01*
X52758Y15740D01*
X52715Y15722D01*
X52675Y15697D01*
X52435Y15538D01*
X52181Y15404D01*
X51915Y15292D01*
X51641Y15204D01*
X51360Y15141D01*
X51075Y15103D01*
X50789Y15091D01*
Y21602D01*
X51075Y21590D01*
X51360Y21552D01*
X51641Y21488D01*
X51915Y21401D01*
X52181Y21289D01*
X52435Y21155D01*
X52677Y20998D01*
X52716Y20973D01*
X52759Y20956D01*
X52805Y20946D01*
X52851Y20942D01*
X52897Y20946D01*
X52942Y20958D01*
X52985Y20976D01*
X53024Y21001D01*
X53060Y21031D01*
X53089Y21067D01*
X53113Y21106D01*
X53131Y21150D01*
X53141Y21195D01*
X53144Y21241D01*
X53140Y21288D01*
X53129Y21333D01*
X53111Y21375D01*
X53086Y21415D01*
X53056Y21450D01*
X53020Y21479D01*
X52736Y21667D01*
X52435Y21826D01*
X52121Y21958D01*
X51797Y22062D01*
X51465Y22137D01*
X51127Y22182D01*
X50789Y22197D01*
Y49955D01*
G37*
G36*
X47566Y47376D02*X50145Y49955D01*
X50789D01*
Y22197D01*
X50787Y22197D01*
X50447Y22182D01*
X50110Y22137D01*
X49778Y22062D01*
X49454Y21958D01*
X49140Y21826D01*
X48839Y21667D01*
X48553Y21482D01*
X48517Y21452D01*
X48486Y21417D01*
X48461Y21377D01*
X48443Y21334D01*
X48431Y21288D01*
X48427Y21241D01*
X48431Y21194D01*
X48441Y21149D01*
X48459Y21105D01*
X48483Y21065D01*
X48513Y21029D01*
X48548Y20998D01*
X48588Y20973D01*
X48631Y20955D01*
X48677Y20943D01*
X48724Y20939D01*
X48771Y20942D01*
X48816Y20953D01*
X48860Y20971D01*
X48900Y20995D01*
X49140Y21155D01*
X49394Y21289D01*
X49659Y21401D01*
X49934Y21488D01*
X50214Y21552D01*
X50500Y21590D01*
X50787Y21602D01*
X50789Y21602D01*
Y15091D01*
X50787Y15091D01*
X50500Y15103D01*
X50214Y15141D01*
X49934Y15204D01*
X49659Y15292D01*
X49394Y15404D01*
X49140Y15538D01*
X48898Y15695D01*
X48859Y15720D01*
X48816Y15737D01*
X48770Y15747D01*
X48724Y15751D01*
X48678Y15746D01*
X48633Y15735D01*
X48590Y15717D01*
X48550Y15692D01*
X48515Y15662D01*
X48485Y15626D01*
X48462Y15586D01*
X48444Y15543D01*
X48434Y15498D01*
X48430Y15452D01*
X48435Y15405D01*
X48446Y15360D01*
X48464Y15318D01*
X48489Y15278D01*
X48519Y15243D01*
X48555Y15214D01*
X48839Y15026D01*
X49140Y14867D01*
X49454Y14735D01*
X49778Y14631D01*
X50110Y14556D01*
X50447Y14511D01*
X50787Y14496D01*
X50789Y14496D01*
Y12244D01*
X47566D01*
Y16245D01*
X47652Y16112D01*
X47682Y16076D01*
X47717Y16045D01*
X47757Y16020D01*
X47800Y16002D01*
X47846Y15990D01*
X47893Y15986D01*
X47939Y15990D01*
X47985Y16000D01*
X48029Y16018D01*
X48069Y16042D01*
X48105Y16072D01*
X48136Y16107D01*
X48161Y16147D01*
X48179Y16191D01*
X48191Y16236D01*
X48195Y16283D01*
X48191Y16330D01*
X48181Y16376D01*
X48163Y16419D01*
X48138Y16459D01*
X47979Y16699D01*
X47845Y16953D01*
X47733Y17218D01*
X47645Y17493D01*
X47582Y17774D01*
X47566Y17896D01*
Y18797D01*
X47582Y18919D01*
X47645Y19200D01*
X47733Y19474D01*
X47845Y19740D01*
X47979Y19994D01*
X48136Y20236D01*
X48160Y20275D01*
X48178Y20318D01*
X48188Y20364D01*
X48192Y20410D01*
X48187Y20456D01*
X48176Y20501D01*
X48158Y20544D01*
X48133Y20584D01*
X48103Y20619D01*
X48067Y20648D01*
X48027Y20672D01*
X47984Y20690D01*
X47939Y20700D01*
X47893Y20703D01*
X47846Y20699D01*
X47801Y20688D01*
X47758Y20670D01*
X47719Y20645D01*
X47684Y20615D01*
X47655Y20579D01*
X47566Y20445D01*
Y47376D01*
G37*
G36*
Y17896D02*X47544Y18059D01*
X47532Y18346D01*
X47544Y18634D01*
X47566Y18797D01*
Y17896D01*
G37*
G36*
X44157Y27735D02*X44687Y28356D01*
X45761Y30114D01*
X46548Y32019D01*
X47027Y34023D01*
X47146Y36077D01*
X47134Y46944D01*
X47566Y47376D01*
Y20445D01*
X47467Y20295D01*
X47308Y19994D01*
X47176Y19680D01*
X47072Y19356D01*
X46997Y19024D01*
X46952Y18687D01*
X46937Y18346D01*
X46952Y18006D01*
X46997Y17669D01*
X47072Y17337D01*
X47176Y17013D01*
X47308Y16699D01*
X47467Y16398D01*
X47566Y16245D01*
Y12244D01*
X44157D01*
Y14504D01*
X46262Y14506D01*
X46352Y14527D01*
X46438Y14563D01*
X46517Y14611D01*
X46588Y14672D01*
X46648Y14742D01*
X46697Y14822D01*
X46733Y14908D01*
X46754Y14998D01*
X46760Y15091D01*
X46754Y21695D01*
X46733Y21785D01*
X46697Y21871D01*
X46648Y21951D01*
X46588Y22021D01*
X46517Y22082D01*
X46438Y22130D01*
X46352Y22166D01*
X46262Y22187D01*
X46169Y22193D01*
X44157Y22191D01*
Y27735D01*
G37*
G36*
Y133307D02*X70863D01*
Y130650D01*
X63814D01*
X63780Y130652D01*
X63641Y130641D01*
X63505Y130609D01*
X63376Y130555D01*
X63257Y130483D01*
X63151Y130392D01*
X63129Y130366D01*
X57233Y124470D01*
X57206Y124447D01*
X57116Y124341D01*
X57043Y124222D01*
X56990Y124093D01*
X56957Y123958D01*
X56957Y123958D01*
X56946Y123819D01*
X56949Y123784D01*
Y120651D01*
X54446Y120649D01*
X54356Y120627D01*
X54270Y120591D01*
X54191Y120543D01*
X54120Y120482D01*
X54060Y120412D01*
X54011Y120332D01*
X53975Y120246D01*
X53954Y120156D01*
X53948Y120063D01*
X53954Y106379D01*
X53975Y106289D01*
X54011Y106203D01*
X54060Y106124D01*
X54120Y106053D01*
X54191Y105993D01*
X54270Y105944D01*
X54356Y105908D01*
X54446Y105887D01*
X54539Y105881D01*
X61223Y105887D01*
X61313Y105908D01*
X61399Y105944D01*
X61479Y105993D01*
X61549Y106053D01*
X61610Y106124D01*
X61658Y106203D01*
X61694Y106289D01*
X61716Y106379D01*
X61721Y106472D01*
X61719Y110812D01*
X61830Y110858D01*
X62068Y111003D01*
X62280Y111184D01*
X62461Y111396D01*
X62607Y111634D01*
X62714Y111892D01*
X62779Y112163D01*
X62795Y112441D01*
X62779Y112719D01*
X62714Y112990D01*
X62607Y113248D01*
X62461Y113485D01*
X62280Y113697D01*
X62068Y113879D01*
X61830Y114024D01*
X61718Y114071D01*
X61716Y120156D01*
X61694Y120246D01*
X61658Y120332D01*
X61610Y120412D01*
X61549Y120482D01*
X61479Y120543D01*
X61399Y120591D01*
X61313Y120627D01*
X61223Y120649D01*
X61130Y120654D01*
X58720Y120652D01*
Y123452D01*
X64146Y128878D01*
X70863D01*
Y128455D01*
X67115Y124706D01*
X67088Y124683D01*
X66998Y124577D01*
X66925Y124458D01*
X66872Y124330D01*
X66839Y124194D01*
X66839Y124194D01*
X66828Y124055D01*
X66831Y124020D01*
Y120651D01*
X64446Y120649D01*
X64356Y120627D01*
X64270Y120591D01*
X64191Y120543D01*
X64120Y120482D01*
X64060Y120412D01*
X64011Y120332D01*
X63975Y120246D01*
X63954Y120156D01*
X63948Y120063D01*
X63954Y106379D01*
X63975Y106289D01*
X64011Y106203D01*
X64060Y106124D01*
X64120Y106053D01*
X64191Y105993D01*
X64270Y105944D01*
X64356Y105908D01*
X64446Y105887D01*
X64539Y105881D01*
X70863Y105886D01*
Y102643D01*
X70850Y102876D01*
X70785Y103148D01*
X70678Y103405D01*
X70532Y103643D01*
X70351Y103855D01*
X70139Y104036D01*
X69901Y104182D01*
X69644Y104288D01*
X69372Y104354D01*
X69094Y104375D01*
X68816Y104354D01*
X68545Y104288D01*
X68288Y104182D01*
X68050Y104036D01*
X67838Y103855D01*
X67657Y103643D01*
X67511Y103405D01*
X67404Y103148D01*
X67339Y102876D01*
X67317Y102598D01*
X67339Y102320D01*
X67404Y102049D01*
X67511Y101792D01*
X67657Y101554D01*
X67838Y101342D01*
X68050Y101161D01*
X68209Y101064D01*
Y98499D01*
X68206Y98465D01*
X68217Y98326D01*
X68249Y98190D01*
X68303Y98061D01*
X68376Y97942D01*
X68376Y97942D01*
X68466Y97836D01*
X68493Y97814D01*
X70863Y95443D01*
Y94955D01*
X70861Y94921D01*
X70863Y94888D01*
Y79833D01*
X57272Y66241D01*
X57246Y66219D01*
X57155Y66113D01*
X57082Y65994D01*
X57029Y65865D01*
X56996Y65730D01*
X56985Y65591D01*
X56988Y65556D01*
Y61810D01*
X56830Y61713D01*
X56618Y61532D01*
X56436Y61320D01*
X56291Y61082D01*
X56184Y60825D01*
X56119Y60554D01*
X56097Y60276D01*
X56119Y59998D01*
X56184Y59726D01*
X56291Y59469D01*
X56436Y59231D01*
X56618Y59019D01*
X56830Y58838D01*
X57067Y58692D01*
X57325Y58586D01*
X57596Y58521D01*
X57874Y58499D01*
X58152Y58521D01*
X58423Y58586D01*
X58681Y58692D01*
X58918Y58838D01*
X59131Y59019D01*
X59312Y59231D01*
X59457Y59469D01*
X59564Y59726D01*
X59629Y59998D01*
X59646Y60276D01*
X59629Y60554D01*
X59564Y60825D01*
X59457Y61082D01*
X59312Y61320D01*
X59131Y61532D01*
X58918Y61713D01*
X58760Y61810D01*
Y65224D01*
X70863Y77327D01*
Y74896D01*
X70562Y74824D01*
X70235Y74688D01*
X69933Y74503D01*
X69933Y74503D01*
X69664Y74273D01*
X69607Y74206D01*
X62448Y67047D01*
X62380Y66990D01*
X62150Y66720D01*
X61965Y66418D01*
X61830Y66091D01*
X61747Y65747D01*
X61747Y65747D01*
X61719Y65394D01*
X61726Y65306D01*
Y59042D01*
X57139Y54455D01*
X49301D01*
X49213Y54462D01*
X48860Y54434D01*
X48515Y54351D01*
X48188Y54216D01*
X47886Y54031D01*
X47886Y54030D01*
X47617Y53801D01*
X47559Y53733D01*
X47024Y53198D01*
X46980Y53304D01*
X46857Y53506D01*
X46797Y53575D01*
X46523Y54711D01*
X45733Y56613D01*
X44654Y58369D01*
X44157Y58950D01*
Y60575D01*
X48620Y56111D01*
X48651Y56037D01*
X48847Y55717D01*
X49092Y55430D01*
X49378Y55186D01*
X49699Y54989D01*
X50046Y54845D01*
X50412Y54758D01*
X50787Y54728D01*
X51163Y54758D01*
X51528Y54845D01*
X51876Y54989D01*
X52197Y55186D01*
X52483Y55430D01*
X52727Y55717D01*
X52924Y56037D01*
X53068Y56385D01*
X53156Y56751D01*
X53178Y57126D01*
X53156Y57501D01*
X53068Y57867D01*
X52924Y58215D01*
X52727Y58535D01*
X52483Y58822D01*
X52197Y59066D01*
X51876Y59263D01*
X51802Y59293D01*
X46947Y64148D01*
X46938Y76179D01*
X46901Y76334D01*
X46840Y76480D01*
X46757Y76616D01*
X46654Y76736D01*
X46534Y76839D01*
X46398Y76922D01*
X46252Y76983D01*
X46098Y77020D01*
X45939Y77029D01*
X44305Y77026D01*
X44157Y77175D01*
Y89902D01*
X48776D01*
X48819Y89898D01*
X48989Y89912D01*
X49154Y89951D01*
X49312Y90017D01*
X49457Y90106D01*
X49587Y90216D01*
X49614Y90249D01*
X52922Y93556D01*
X53150Y93538D01*
X53428Y93560D01*
X53699Y93625D01*
X53956Y93732D01*
X54194Y93877D01*
X54406Y94058D01*
X54587Y94270D01*
X54733Y94508D01*
X54840Y94766D01*
X54905Y95037D01*
X54921Y95315D01*
X54905Y95593D01*
X54840Y95864D01*
X54733Y96122D01*
X54587Y96359D01*
X54406Y96571D01*
X54194Y96753D01*
X53956Y96898D01*
X53699Y97005D01*
X53428Y97070D01*
X53150Y97092D01*
X52922Y97074D01*
X52815Y97181D01*
Y100984D01*
X52814Y101004D01*
X52815Y101024D01*
Y122038D01*
X53249Y122142D01*
X53961Y122437D01*
X54618Y122840D01*
X55203Y123340D01*
X55704Y123926D01*
X56106Y124582D01*
X56401Y125294D01*
X56581Y126043D01*
X56626Y126811D01*
X56581Y127579D01*
X56401Y128328D01*
X56106Y129040D01*
X55704Y129696D01*
X55203Y130282D01*
X54618Y130782D01*
X53961Y131185D01*
X53249Y131480D01*
X52500Y131659D01*
X51732Y131720D01*
X50964Y131659D01*
X50215Y131480D01*
X49504Y131185D01*
X48847Y130782D01*
X48261Y130282D01*
X47761Y129696D01*
X47359Y129040D01*
X47064Y128328D01*
X46884Y127579D01*
X46823Y126811D01*
X46884Y126043D01*
X47064Y125294D01*
X47359Y124582D01*
X47761Y123926D01*
X48261Y123340D01*
X48847Y122840D01*
X49504Y122437D01*
X50215Y122142D01*
X50650Y122038D01*
Y101024D01*
X50651Y101004D01*
X50650Y100984D01*
Y96775D01*
X50646Y96732D01*
X50660Y96562D01*
Y96562D01*
X50669Y96523D01*
X50699Y96397D01*
X50765Y96239D01*
X50854Y96094D01*
X50964Y95964D01*
X50997Y95937D01*
X51391Y95543D01*
X51373Y95315D01*
X51391Y95087D01*
X48370Y92067D01*
X44157D01*
Y121929D01*
X45361Y121931D01*
X45591Y121986D01*
X45809Y122077D01*
X46010Y122200D01*
X46190Y122353D01*
X46343Y122533D01*
X46467Y122734D01*
X46557Y122952D01*
X46612Y123182D01*
X46626Y123417D01*
X46612Y130440D01*
X46557Y130670D01*
X46467Y130888D01*
X46343Y131089D01*
X46190Y131269D01*
X46010Y131422D01*
X45809Y131545D01*
X45591Y131636D01*
X45361Y131691D01*
X45126Y131705D01*
X44157Y131703D01*
Y133307D01*
G37*
G36*
X38261Y18797D02*X38283Y18634D01*
X38295Y18346D01*
X38283Y18059D01*
X38261Y17896D01*
Y18797D01*
G37*
G36*
Y23635D02*X40029Y24370D01*
X41785Y25448D01*
X43350Y26788D01*
X44157Y27735D01*
Y22191D01*
X39565Y22187D01*
X39474Y22166D01*
X39389Y22130D01*
X39309Y22082D01*
X39239Y22021D01*
X39178Y21951D01*
X39130Y21871D01*
X39094Y21785D01*
X39072Y21695D01*
X39067Y21602D01*
X39072Y14998D01*
X39094Y14908D01*
X39130Y14822D01*
X39178Y14742D01*
X39239Y14672D01*
X39309Y14611D01*
X39389Y14563D01*
X39474Y14527D01*
X39565Y14506D01*
X39657Y14500D01*
X44157Y14504D01*
Y12244D01*
X38261D01*
Y16248D01*
X38360Y16398D01*
X38519Y16699D01*
X38651Y17013D01*
X38755Y17337D01*
X38829Y17669D01*
X38874Y18006D01*
X38890Y18346D01*
X38874Y18687D01*
X38829Y19024D01*
X38755Y19356D01*
X38651Y19680D01*
X38519Y19994D01*
X38360Y20295D01*
X38261Y20448D01*
Y23635D01*
G37*
G36*
X35041Y23010D02*X36123Y23096D01*
X38126Y23579D01*
X38261Y23635D01*
Y20448D01*
X38175Y20581D01*
X38145Y20617D01*
X38110Y20648D01*
X38070Y20673D01*
X38027Y20691D01*
X37981Y20702D01*
X37934Y20707D01*
X37887Y20703D01*
X37842Y20693D01*
X37798Y20675D01*
X37758Y20651D01*
X37722Y20621D01*
X37691Y20585D01*
X37666Y20546D01*
X37648Y20502D01*
X37636Y20457D01*
X37632Y20410D01*
X37635Y20363D01*
X37646Y20317D01*
X37663Y20274D01*
X37688Y20234D01*
X37847Y19994D01*
X37982Y19740D01*
X38094Y19474D01*
X38181Y19200D01*
X38244Y18919D01*
X38261Y18797D01*
Y17896D01*
X38244Y17774D01*
X38181Y17493D01*
X38094Y17218D01*
X37982Y16953D01*
X37847Y16699D01*
X37691Y16457D01*
X37666Y16418D01*
X37649Y16375D01*
X37638Y16329D01*
X37635Y16283D01*
X37639Y16237D01*
X37651Y16192D01*
X37669Y16149D01*
X37693Y16109D01*
X37724Y16074D01*
X37760Y16044D01*
X37799Y16021D01*
X37842Y16003D01*
X37888Y15993D01*
X37934Y15990D01*
X37980Y15994D01*
X38026Y16005D01*
X38068Y16023D01*
X38108Y16048D01*
X38143Y16078D01*
X38172Y16114D01*
X38261Y16248D01*
Y12244D01*
X35041D01*
Y14496D01*
X35379Y14511D01*
X35717Y14556D01*
X36049Y14631D01*
X36373Y14735D01*
X36687Y14867D01*
X36988Y15026D01*
X37274Y15211D01*
X37310Y15241D01*
X37341Y15276D01*
X37366Y15316D01*
X37384Y15359D01*
X37395Y15405D01*
X37400Y15452D01*
X37396Y15499D01*
X37386Y15544D01*
X37368Y15588D01*
X37344Y15628D01*
X37314Y15664D01*
X37278Y15695D01*
X37239Y15720D01*
X37195Y15738D01*
X37150Y15750D01*
X37103Y15754D01*
X37056Y15751D01*
X37010Y15740D01*
X36967Y15722D01*
X36927Y15697D01*
X36687Y15538D01*
X36433Y15404D01*
X36167Y15292D01*
X35893Y15204D01*
X35612Y15141D01*
X35327Y15103D01*
X35041Y15091D01*
Y21602D01*
X35327Y21590D01*
X35612Y21552D01*
X35893Y21488D01*
X36167Y21401D01*
X36433Y21289D01*
X36687Y21155D01*
X36929Y20998D01*
X36968Y20973D01*
X37011Y20956D01*
X37057Y20946D01*
X37103Y20942D01*
X37149Y20946D01*
X37194Y20958D01*
X37237Y20976D01*
X37276Y21001D01*
X37311Y21031D01*
X37341Y21067D01*
X37365Y21106D01*
X37383Y21150D01*
X37393Y21195D01*
X37396Y21241D01*
X37392Y21288D01*
X37381Y21333D01*
X37363Y21375D01*
X37338Y21415D01*
X37308Y21450D01*
X37271Y21479D01*
X36988Y21667D01*
X36687Y21826D01*
X36373Y21958D01*
X36049Y22062D01*
X35717Y22137D01*
X35379Y22182D01*
X35041Y22197D01*
Y23010D01*
G37*
G36*
X31818Y23139D02*X32015Y23092D01*
X34069Y22932D01*
X35041Y23010D01*
Y22197D01*
X35039Y22197D01*
X34699Y22182D01*
X34362Y22137D01*
X34030Y22062D01*
X33705Y21958D01*
X33392Y21826D01*
X33091Y21667D01*
X32805Y21482D01*
X32769Y21452D01*
X32738Y21417D01*
X32713Y21377D01*
X32695Y21334D01*
X32683Y21288D01*
X32679Y21241D01*
X32682Y21194D01*
X32693Y21149D01*
X32711Y21105D01*
X32735Y21065D01*
X32765Y21029D01*
X32800Y20998D01*
X32840Y20973D01*
X32883Y20955D01*
X32929Y20943D01*
X32976Y20939D01*
X33023Y20942D01*
X33068Y20953D01*
X33112Y20971D01*
X33152Y20995D01*
X33392Y21155D01*
X33646Y21289D01*
X33911Y21401D01*
X34186Y21488D01*
X34466Y21552D01*
X34752Y21590D01*
X35039Y21602D01*
X35041Y21602D01*
Y15091D01*
X35039Y15091D01*
X34752Y15103D01*
X34466Y15141D01*
X34186Y15204D01*
X33911Y15292D01*
X33646Y15404D01*
X33392Y15538D01*
X33150Y15695D01*
X33111Y15720D01*
X33068Y15737D01*
X33022Y15747D01*
X32976Y15751D01*
X32930Y15746D01*
X32884Y15735D01*
X32842Y15717D01*
X32802Y15692D01*
X32767Y15662D01*
X32737Y15626D01*
X32713Y15586D01*
X32696Y15543D01*
X32686Y15498D01*
X32682Y15452D01*
X32687Y15405D01*
X32698Y15360D01*
X32716Y15318D01*
X32741Y15278D01*
X32771Y15243D01*
X32807Y15214D01*
X33091Y15026D01*
X33392Y14867D01*
X33705Y14735D01*
X34030Y14631D01*
X34362Y14556D01*
X34699Y14511D01*
X35039Y14496D01*
X35041Y14496D01*
Y12244D01*
X31818D01*
Y16245D01*
X31904Y16112D01*
X31934Y16076D01*
X31969Y16045D01*
X32009Y16020D01*
X32052Y16002D01*
X32098Y15990D01*
X32145Y15986D01*
X32191Y15990D01*
X32237Y16000D01*
X32281Y16018D01*
X32321Y16042D01*
X32357Y16072D01*
X32388Y16107D01*
X32413Y16147D01*
X32431Y16191D01*
X32443Y16236D01*
X32447Y16283D01*
X32443Y16330D01*
X32433Y16376D01*
X32415Y16419D01*
X32390Y16459D01*
X32231Y16699D01*
X32097Y16953D01*
X31985Y17218D01*
X31897Y17493D01*
X31834Y17774D01*
X31818Y17896D01*
Y18797D01*
X31834Y18919D01*
X31897Y19200D01*
X31985Y19474D01*
X32097Y19740D01*
X32231Y19994D01*
X32388Y20236D01*
X32412Y20275D01*
X32430Y20318D01*
X32440Y20364D01*
X32443Y20410D01*
X32439Y20456D01*
X32428Y20501D01*
X32410Y20544D01*
X32385Y20584D01*
X32355Y20619D01*
X32319Y20648D01*
X32279Y20672D01*
X32236Y20690D01*
X32191Y20700D01*
X32145Y20703D01*
X32098Y20699D01*
X32053Y20688D01*
X32010Y20670D01*
X31971Y20645D01*
X31936Y20615D01*
X31907Y20579D01*
X31818Y20445D01*
Y23139D01*
G37*
G36*
Y17896D02*X31796Y18059D01*
X31783Y18346D01*
X31796Y18634D01*
X31818Y18797D01*
Y17896D01*
G37*
G36*
X27165Y24932D02*X28106Y24357D01*
X30011Y23570D01*
X31818Y23139D01*
Y20445D01*
X31719Y20295D01*
X31560Y19994D01*
X31428Y19680D01*
X31324Y19356D01*
X31249Y19024D01*
X31204Y18687D01*
X31189Y18346D01*
X31204Y18006D01*
X31249Y17669D01*
X31324Y17337D01*
X31428Y17013D01*
X31560Y16699D01*
X31719Y16398D01*
X31818Y16245D01*
Y12244D01*
X27165D01*
Y14503D01*
X30514Y14506D01*
X30604Y14527D01*
X30690Y14563D01*
X30769Y14611D01*
X30840Y14672D01*
X30900Y14742D01*
X30949Y14822D01*
X30985Y14908D01*
X31006Y14998D01*
X31012Y15091D01*
X31006Y21695D01*
X30985Y21785D01*
X30949Y21871D01*
X30900Y21951D01*
X30840Y22021D01*
X30769Y22082D01*
X30690Y22130D01*
X30604Y22166D01*
X30514Y22187D01*
X30421Y22193D01*
X27165Y22190D01*
Y24932D01*
G37*
G36*
Y62821D02*X27998Y62823D01*
X28152Y62860D01*
X28298Y62920D01*
X28434Y63003D01*
X28554Y63106D01*
X28657Y63227D01*
X28740Y63362D01*
X28801Y63509D01*
X28838Y63663D01*
X28847Y63821D01*
X28838Y76090D01*
X30232Y74696D01*
X30241Y63663D01*
X30278Y63509D01*
X30339Y63362D01*
X30419Y63232D01*
X29968Y63123D01*
X28065Y62333D01*
X27165Y61780D01*
Y62821D01*
G37*
G36*
Y77763D02*X27903Y77025D01*
X27839Y77029D01*
X27165Y77028D01*
Y77763D01*
G37*
G36*
Y87802D02*X39332Y75636D01*
X39341Y63663D01*
X39378Y63509D01*
X39439Y63362D01*
X39521Y63227D01*
X39624Y63106D01*
X39745Y63003D01*
X39880Y62920D01*
X40027Y62860D01*
X40181Y62823D01*
X40339Y62813D01*
X41915Y62816D01*
X44157Y60575D01*
Y58950D01*
X43314Y59934D01*
X41746Y61271D01*
X39988Y62346D01*
X38084Y63132D01*
X37661Y63233D01*
X37740Y63362D01*
X37801Y63509D01*
X37838Y63663D01*
X37847Y63821D01*
X37838Y76179D01*
X37801Y76334D01*
X37740Y76480D01*
X37657Y76616D01*
X37554Y76736D01*
X37434Y76839D01*
X37298Y76922D01*
X37152Y76983D01*
X36998Y77020D01*
X36839Y77029D01*
X34267Y77025D01*
X27165Y84127D01*
Y87802D01*
G37*
G36*
X31281Y133307D02*X44157D01*
Y131703D01*
X38103Y131691D01*
X37874Y131636D01*
X37655Y131545D01*
X37454Y131422D01*
X37275Y131269D01*
X37121Y131089D01*
X36998Y130888D01*
X36908Y130670D01*
X36852Y130440D01*
X36839Y130205D01*
X36852Y123182D01*
X36908Y122952D01*
X36998Y122734D01*
X37121Y122533D01*
X37275Y122353D01*
X37454Y122200D01*
X37655Y122077D01*
X37874Y121986D01*
X38103Y121931D01*
X38339Y121917D01*
X44157Y121929D01*
Y92067D01*
X34870D01*
X34721Y92241D01*
X34509Y92422D01*
X34271Y92568D01*
X34014Y92674D01*
X33743Y92739D01*
X33465Y92761D01*
X33187Y92739D01*
X32915Y92674D01*
X32658Y92568D01*
X32420Y92422D01*
X32208Y92241D01*
X32027Y92029D01*
X31881Y91791D01*
X31775Y91533D01*
X31709Y91262D01*
X31688Y90984D01*
X31709Y90706D01*
X31775Y90435D01*
X31881Y90178D01*
X32027Y89940D01*
X32208Y89728D01*
X32420Y89547D01*
X32658Y89401D01*
X32915Y89294D01*
X33187Y89229D01*
X33465Y89207D01*
X33743Y89229D01*
X34014Y89294D01*
X34271Y89401D01*
X34509Y89547D01*
X34721Y89728D01*
X34870Y89902D01*
X44157D01*
Y77175D01*
X31281Y90051D01*
Y124380D01*
X31367Y124405D01*
X31474Y124455D01*
X31571Y124522D01*
X31657Y124603D01*
X31730Y124696D01*
X31784Y124800D01*
X31959Y125227D01*
X32087Y125669D01*
X32173Y126122D01*
X32217Y126581D01*
Y127041D01*
X32173Y127500D01*
X32087Y127953D01*
X31959Y128395D01*
X31789Y128824D01*
X31733Y128928D01*
X31660Y129022D01*
X31574Y129103D01*
X31476Y129170D01*
X31368Y129221D01*
X31281Y129246D01*
Y133307D01*
G37*
G36*
X27165D02*X31281D01*
Y129246D01*
X31254Y129254D01*
X31137Y129269D01*
X31018Y129265D01*
X30902Y129243D01*
X30790Y129203D01*
X30686Y129146D01*
X30592Y129073D01*
X30511Y128987D01*
X30444Y128889D01*
X30394Y128781D01*
X30360Y128667D01*
X30345Y128550D01*
X30349Y128431D01*
X30371Y128315D01*
X30413Y128204D01*
X30534Y127909D01*
X30623Y127602D01*
X30683Y127288D01*
X30713Y126971D01*
Y126651D01*
X30683Y126334D01*
X30623Y126020D01*
X30534Y125714D01*
X30417Y125417D01*
X30375Y125307D01*
X30353Y125191D01*
X30349Y125073D01*
X30364Y124955D01*
X30397Y124842D01*
X30447Y124735D01*
X30514Y124638D01*
X30595Y124552D01*
X30688Y124479D01*
X30792Y124423D01*
X30903Y124383D01*
X31019Y124361D01*
X31137Y124357D01*
X31254Y124372D01*
X31281Y124380D01*
Y90051D01*
X28037Y93294D01*
Y116250D01*
X28044Y116339D01*
X28017Y116692D01*
X27934Y117036D01*
X27798Y117363D01*
X27613Y117665D01*
X27383Y117934D01*
X27165Y118121D01*
Y121917D01*
X27553D01*
X28012Y121961D01*
X28465Y122047D01*
X28907Y122175D01*
X29336Y122345D01*
X29440Y122401D01*
X29534Y122474D01*
X29615Y122560D01*
X29682Y122658D01*
X29732Y122765D01*
X29766Y122879D01*
X29781Y122997D01*
X29777Y123116D01*
X29755Y123232D01*
X29715Y123344D01*
X29658Y123448D01*
X29585Y123542D01*
X29498Y123623D01*
X29400Y123690D01*
X29293Y123740D01*
X29179Y123773D01*
X29061Y123788D01*
X28943Y123785D01*
X28826Y123763D01*
X28716Y123720D01*
X28420Y123600D01*
X28114Y123511D01*
X27800Y123451D01*
X27482Y123421D01*
X27165D01*
Y130201D01*
X27482D01*
X27800Y130171D01*
X28114Y130111D01*
X28420Y130022D01*
X28717Y129905D01*
X28827Y129863D01*
X28943Y129841D01*
X29061Y129837D01*
X29178Y129852D01*
X29292Y129885D01*
X29399Y129936D01*
X29496Y130002D01*
X29582Y130083D01*
X29654Y130176D01*
X29711Y130280D01*
X29751Y130391D01*
X29773Y130507D01*
X29777Y130625D01*
X29762Y130742D01*
X29729Y130855D01*
X29679Y130962D01*
X29612Y131060D01*
X29531Y131146D01*
X29438Y131218D01*
X29333Y131273D01*
X28907Y131447D01*
X28465Y131575D01*
X28012Y131661D01*
X27553Y131705D01*
X27165D01*
Y133307D01*
G37*
G36*
X19757Y24703D02*X19779Y24540D01*
X19791Y24252D01*
X19779Y23964D01*
X19757Y23801D01*
Y24703D01*
G37*
G36*
Y40451D02*X19779Y40288D01*
X19791Y40000D01*
X19779Y39712D01*
X19757Y39549D01*
Y40451D01*
G37*
G36*
Y56199D02*X19779Y56036D01*
X19791Y55748D01*
X19779Y55460D01*
X19757Y55297D01*
Y56199D01*
G37*
G36*
Y81288D02*X23635Y81293D01*
X27165Y77763D01*
Y77028D01*
X22081Y77020D01*
X21927Y76983D01*
X21780Y76922D01*
X21645Y76839D01*
X21524Y76736D01*
X21421Y76616D01*
X21339Y76480D01*
X21278Y76334D01*
X21241Y76179D01*
X21231Y76021D01*
X21241Y63663D01*
X21278Y63509D01*
X21339Y63362D01*
X21421Y63227D01*
X21524Y63106D01*
X21645Y63003D01*
X21780Y62920D01*
X21927Y62860D01*
X22081Y62823D01*
X22239Y62813D01*
X27165Y62821D01*
Y61780D01*
X26310Y61254D01*
X24744Y59914D01*
X23408Y58346D01*
X22333Y56588D01*
X21547Y54684D01*
X21282Y53576D01*
X21222Y53506D01*
X21099Y53304D01*
X21008Y53086D01*
X20953Y52857D01*
X20939Y52621D01*
X20953Y38186D01*
X20962Y38148D01*
X20965Y36049D01*
X21088Y33995D01*
X21571Y31992D01*
X22362Y30089D01*
X23440Y28333D01*
X24780Y26768D01*
X26348Y25432D01*
X27165Y24932D01*
Y22190D01*
X23817Y22187D01*
X23726Y22166D01*
X23641Y22130D01*
X23561Y22082D01*
X23491Y22021D01*
X23430Y21951D01*
X23382Y21871D01*
X23346Y21785D01*
X23324Y21695D01*
X23319Y21602D01*
X23324Y14998D01*
X23346Y14908D01*
X23382Y14822D01*
X23430Y14742D01*
X23491Y14672D01*
X23561Y14611D01*
X23641Y14563D01*
X23726Y14527D01*
X23817Y14506D01*
X23909Y14500D01*
X27165Y14503D01*
Y12244D01*
X19757D01*
Y22154D01*
X19856Y22303D01*
X20015Y22604D01*
X20147Y22918D01*
X20251Y23242D01*
X20326Y23574D01*
X20371Y23912D01*
X20386Y24252D01*
X20371Y24592D01*
X20326Y24929D01*
X20251Y25262D01*
X20147Y25586D01*
X20015Y25900D01*
X19856Y26201D01*
X19757Y26354D01*
Y28285D01*
X19884Y28285D01*
X19974Y28307D01*
X20060Y28342D01*
X20139Y28391D01*
X20210Y28451D01*
X20271Y28522D01*
X20319Y28601D01*
X20355Y28687D01*
X20376Y28777D01*
X20382Y28870D01*
X20376Y35475D01*
X20355Y35565D01*
X20319Y35651D01*
X20271Y35730D01*
X20210Y35801D01*
X20139Y35861D01*
X20060Y35910D01*
X19974Y35945D01*
X19884Y35967D01*
X19791Y35972D01*
X19757Y35972D01*
Y37902D01*
X19856Y38051D01*
X20015Y38352D01*
X20147Y38666D01*
X20251Y38990D01*
X20326Y39322D01*
X20371Y39660D01*
X20386Y40000D01*
X20371Y40340D01*
X20326Y40678D01*
X20251Y41010D01*
X20147Y41334D01*
X20015Y41648D01*
X19856Y41949D01*
X19757Y42102D01*
Y44033D01*
X19884Y44033D01*
X19974Y44055D01*
X20060Y44090D01*
X20139Y44139D01*
X20210Y44199D01*
X20271Y44270D01*
X20319Y44349D01*
X20355Y44435D01*
X20376Y44525D01*
X20382Y44618D01*
X20376Y51223D01*
X20355Y51313D01*
X20319Y51399D01*
X20271Y51478D01*
X20210Y51549D01*
X20139Y51609D01*
X20060Y51658D01*
X19974Y51693D01*
X19884Y51715D01*
X19791Y51720D01*
X19757Y51720D01*
Y53650D01*
X19856Y53799D01*
X20015Y54100D01*
X20147Y54414D01*
X20251Y54738D01*
X20326Y55071D01*
X20371Y55408D01*
X20386Y55748D01*
X20371Y56088D01*
X20326Y56426D01*
X20251Y56758D01*
X20147Y57082D01*
X20015Y57396D01*
X19856Y57697D01*
X19757Y57850D01*
Y59781D01*
X19884Y59781D01*
X19974Y59803D01*
X20060Y59838D01*
X20139Y59887D01*
X20210Y59947D01*
X20271Y60018D01*
X20319Y60097D01*
X20355Y60183D01*
X20376Y60273D01*
X20382Y60366D01*
X20376Y66971D01*
X20355Y67061D01*
X20319Y67147D01*
X20271Y67226D01*
X20210Y67297D01*
X20139Y67357D01*
X20060Y67406D01*
X19974Y67441D01*
X19884Y67463D01*
X19791Y67468D01*
X19757Y67468D01*
Y81288D01*
G37*
G36*
Y51720D02*X16535Y51718D01*
Y51898D01*
X16876Y51913D01*
X17213Y51958D01*
X17545Y52033D01*
X17869Y52136D01*
X18183Y52268D01*
X18484Y52427D01*
X18770Y52612D01*
X18806Y52642D01*
X18837Y52678D01*
X18862Y52718D01*
X18880Y52761D01*
X18891Y52806D01*
X18896Y52853D01*
X18892Y52900D01*
X18882Y52946D01*
X18864Y52989D01*
X18840Y53030D01*
X18810Y53066D01*
X18774Y53097D01*
X18735Y53121D01*
X18691Y53140D01*
X18646Y53151D01*
X18599Y53155D01*
X18552Y53152D01*
X18506Y53142D01*
X18463Y53124D01*
X18423Y53099D01*
X18183Y52940D01*
X17929Y52805D01*
X17663Y52694D01*
X17389Y52606D01*
X17108Y52543D01*
X16823Y52505D01*
X16535Y52492D01*
Y59004D01*
X16823Y58991D01*
X17108Y58953D01*
X17389Y58890D01*
X17663Y58802D01*
X17929Y58691D01*
X18183Y58556D01*
X18425Y58400D01*
X18464Y58375D01*
X18507Y58358D01*
X18553Y58347D01*
X18599Y58344D01*
X18645Y58348D01*
X18690Y58359D01*
X18733Y58377D01*
X18772Y58402D01*
X18808Y58433D01*
X18837Y58468D01*
X18861Y58508D01*
X18879Y58551D01*
X18889Y58596D01*
X18892Y58643D01*
X18888Y58689D01*
X18877Y58734D01*
X18859Y58777D01*
X18834Y58816D01*
X18804Y58851D01*
X18768Y58881D01*
X18484Y59069D01*
X18183Y59228D01*
X17869Y59360D01*
X17545Y59463D01*
X17213Y59538D01*
X16876Y59583D01*
X16535Y59598D01*
Y59778D01*
X19757Y59781D01*
Y57850D01*
X19671Y57982D01*
X19641Y58019D01*
X19606Y58049D01*
X19566Y58074D01*
X19523Y58093D01*
X19477Y58104D01*
X19430Y58108D01*
X19383Y58105D01*
X19338Y58094D01*
X19294Y58077D01*
X19254Y58053D01*
X19218Y58022D01*
X19187Y57987D01*
X19162Y57947D01*
X19144Y57904D01*
X19132Y57858D01*
X19128Y57812D01*
X19131Y57765D01*
X19142Y57719D01*
X19159Y57675D01*
X19184Y57636D01*
X19344Y57396D01*
X19478Y57141D01*
X19590Y56876D01*
X19677Y56602D01*
X19741Y56321D01*
X19757Y56199D01*
Y55297D01*
X19741Y55175D01*
X19677Y54894D01*
X19590Y54620D01*
X19478Y54355D01*
X19344Y54100D01*
X19187Y53859D01*
X19162Y53819D01*
X19145Y53776D01*
X19135Y53731D01*
X19131Y53685D01*
X19135Y53638D01*
X19147Y53593D01*
X19165Y53550D01*
X19189Y53511D01*
X19220Y53476D01*
X19256Y53446D01*
X19295Y53422D01*
X19339Y53405D01*
X19384Y53394D01*
X19430Y53391D01*
X19476Y53395D01*
X19522Y53406D01*
X19564Y53425D01*
X19604Y53449D01*
X19639Y53480D01*
X19668Y53516D01*
X19757Y53650D01*
Y51720D01*
G37*
G36*
Y35972D02*X16535Y35970D01*
Y36150D01*
X16876Y36165D01*
X17213Y36210D01*
X17545Y36285D01*
X17869Y36388D01*
X18183Y36520D01*
X18484Y36679D01*
X18770Y36864D01*
X18806Y36894D01*
X18837Y36930D01*
X18862Y36970D01*
X18880Y37013D01*
X18891Y37058D01*
X18896Y37105D01*
X18892Y37152D01*
X18882Y37198D01*
X18864Y37241D01*
X18840Y37282D01*
X18810Y37318D01*
X18774Y37349D01*
X18735Y37373D01*
X18691Y37392D01*
X18646Y37403D01*
X18599Y37407D01*
X18552Y37404D01*
X18506Y37394D01*
X18463Y37376D01*
X18423Y37351D01*
X18183Y37192D01*
X17929Y37057D01*
X17663Y36946D01*
X17389Y36858D01*
X17108Y36795D01*
X16823Y36757D01*
X16535Y36744D01*
Y43256D01*
X16823Y43243D01*
X17108Y43205D01*
X17389Y43142D01*
X17663Y43054D01*
X17929Y42943D01*
X18183Y42808D01*
X18425Y42652D01*
X18464Y42627D01*
X18507Y42610D01*
X18553Y42599D01*
X18599Y42596D01*
X18645Y42600D01*
X18690Y42611D01*
X18733Y42629D01*
X18772Y42654D01*
X18808Y42685D01*
X18837Y42720D01*
X18861Y42760D01*
X18879Y42803D01*
X18889Y42848D01*
X18892Y42895D01*
X18888Y42941D01*
X18877Y42986D01*
X18859Y43029D01*
X18834Y43068D01*
X18804Y43103D01*
X18768Y43132D01*
X18484Y43321D01*
X18183Y43480D01*
X17869Y43612D01*
X17545Y43715D01*
X17213Y43790D01*
X16876Y43835D01*
X16535Y43850D01*
Y44030D01*
X19757Y44033D01*
Y42102D01*
X19671Y42234D01*
X19641Y42271D01*
X19606Y42301D01*
X19566Y42326D01*
X19523Y42345D01*
X19477Y42356D01*
X19430Y42360D01*
X19383Y42357D01*
X19338Y42346D01*
X19294Y42329D01*
X19254Y42305D01*
X19218Y42274D01*
X19187Y42239D01*
X19162Y42199D01*
X19144Y42156D01*
X19132Y42110D01*
X19128Y42064D01*
X19131Y42017D01*
X19142Y41971D01*
X19159Y41927D01*
X19184Y41888D01*
X19344Y41648D01*
X19478Y41393D01*
X19590Y41128D01*
X19677Y40854D01*
X19741Y40573D01*
X19757Y40451D01*
Y39549D01*
X19741Y39427D01*
X19677Y39146D01*
X19590Y38872D01*
X19478Y38607D01*
X19344Y38352D01*
X19187Y38111D01*
X19162Y38071D01*
X19145Y38028D01*
X19135Y37983D01*
X19131Y37936D01*
X19135Y37890D01*
X19147Y37845D01*
X19165Y37802D01*
X19189Y37763D01*
X19220Y37728D01*
X19256Y37698D01*
X19295Y37674D01*
X19339Y37657D01*
X19384Y37646D01*
X19430Y37643D01*
X19476Y37647D01*
X19522Y37658D01*
X19564Y37677D01*
X19604Y37701D01*
X19639Y37732D01*
X19668Y37768D01*
X19757Y37902D01*
Y35972D01*
G37*
G36*
Y12244D02*X16535D01*
Y20402D01*
X16876Y20417D01*
X17213Y20462D01*
X17545Y20537D01*
X17869Y20640D01*
X18183Y20772D01*
X18484Y20931D01*
X18770Y21116D01*
X18806Y21146D01*
X18837Y21182D01*
X18862Y21222D01*
X18880Y21265D01*
X18891Y21310D01*
X18896Y21357D01*
X18892Y21404D01*
X18882Y21450D01*
X18864Y21493D01*
X18840Y21534D01*
X18810Y21570D01*
X18774Y21600D01*
X18735Y21625D01*
X18691Y21644D01*
X18646Y21655D01*
X18599Y21659D01*
X18552Y21656D01*
X18506Y21645D01*
X18463Y21628D01*
X18423Y21603D01*
X18183Y21444D01*
X17929Y21309D01*
X17663Y21198D01*
X17389Y21110D01*
X17108Y21047D01*
X16823Y21009D01*
X16535Y20996D01*
Y27508D01*
X16823Y27495D01*
X17108Y27457D01*
X17389Y27394D01*
X17663Y27306D01*
X17929Y27195D01*
X18183Y27060D01*
X18425Y26904D01*
X18464Y26879D01*
X18507Y26862D01*
X18553Y26851D01*
X18599Y26848D01*
X18645Y26852D01*
X18690Y26863D01*
X18733Y26881D01*
X18772Y26906D01*
X18808Y26937D01*
X18837Y26972D01*
X18861Y27012D01*
X18879Y27055D01*
X18889Y27100D01*
X18892Y27147D01*
X18888Y27193D01*
X18877Y27238D01*
X18859Y27281D01*
X18834Y27320D01*
X18804Y27355D01*
X18768Y27384D01*
X18484Y27573D01*
X18183Y27732D01*
X17869Y27864D01*
X17545Y27967D01*
X17213Y28042D01*
X16876Y28087D01*
X16535Y28102D01*
Y28282D01*
X19757Y28285D01*
Y26354D01*
X19671Y26486D01*
X19641Y26522D01*
X19606Y26553D01*
X19566Y26578D01*
X19523Y26597D01*
X19477Y26608D01*
X19430Y26612D01*
X19383Y26609D01*
X19338Y26598D01*
X19294Y26581D01*
X19254Y26557D01*
X19218Y26526D01*
X19187Y26491D01*
X19162Y26451D01*
X19144Y26408D01*
X19132Y26362D01*
X19128Y26316D01*
X19131Y26269D01*
X19142Y26223D01*
X19159Y26179D01*
X19184Y26140D01*
X19344Y25900D01*
X19478Y25645D01*
X19590Y25380D01*
X19677Y25106D01*
X19741Y24825D01*
X19757Y24703D01*
Y23801D01*
X19741Y23679D01*
X19677Y23398D01*
X19590Y23124D01*
X19478Y22859D01*
X19344Y22604D01*
X19187Y22363D01*
X19162Y22323D01*
X19145Y22280D01*
X19135Y22235D01*
X19131Y22188D01*
X19135Y22142D01*
X19147Y22097D01*
X19165Y22054D01*
X19189Y22015D01*
X19220Y21980D01*
X19256Y21950D01*
X19295Y21926D01*
X19339Y21909D01*
X19384Y21898D01*
X19430Y21895D01*
X19476Y21899D01*
X19522Y21910D01*
X19564Y21929D01*
X19604Y21953D01*
X19639Y21984D01*
X19668Y22020D01*
X19757Y22154D01*
Y12244D01*
G37*
G36*
X16535Y81284D02*X19757Y81288D01*
Y67468D01*
X16535Y67466D01*
Y81284D01*
G37*
G36*
Y93094D02*X23537Y93103D01*
Y92450D01*
X23530Y92362D01*
X23549Y92127D01*
X23558Y91970D01*
X23641Y91625D01*
X23776Y91298D01*
X23962Y90996D01*
X24192Y90727D01*
X24461Y90497D01*
X24486Y90481D01*
X27165Y87802D01*
Y84127D01*
X24882Y86411D01*
X24824Y86478D01*
X24811Y86489D01*
X24809Y87559D01*
X24773Y87712D01*
X24712Y87857D01*
X24630Y87992D01*
X24528Y88111D01*
X24408Y88214D01*
X24274Y88296D01*
X24129Y88356D01*
X23976Y88393D01*
X23819Y88402D01*
X16535Y88393D01*
Y93094D01*
G37*
G36*
Y100969D02*X23537Y100977D01*
Y100212D01*
X16535Y100203D01*
Y100969D01*
G37*
G36*
Y112779D02*X23537Y112787D01*
Y111899D01*
X23530Y111811D01*
X23537Y111723D01*
Y108086D01*
X16535Y108078D01*
Y112779D01*
G37*
G36*
X23365Y133307D02*X27165D01*
Y131705D01*
X27092D01*
X26634Y131661D01*
X26181Y131575D01*
X25738Y131447D01*
X25310Y131278D01*
X25206Y131221D01*
X25112Y131148D01*
X25031Y131062D01*
X24964Y130964D01*
X24913Y130857D01*
X24880Y130743D01*
X24865Y130625D01*
X24869Y130506D01*
X24891Y130390D01*
X24931Y130278D01*
X24988Y130174D01*
X25061Y130080D01*
X25147Y129999D01*
X25245Y129932D01*
X25353Y129882D01*
X25466Y129849D01*
X25584Y129834D01*
X25703Y129837D01*
X25819Y129859D01*
X25930Y129902D01*
X26225Y130022D01*
X26532Y130111D01*
X26845Y130171D01*
X27163Y130201D01*
X27165D01*
Y123421D01*
X27163D01*
X26845Y123451D01*
X26532Y123511D01*
X26225Y123600D01*
X25928Y123717D01*
X25818Y123759D01*
X25702Y123781D01*
X25584Y123785D01*
X25467Y123770D01*
X25354Y123737D01*
X25247Y123686D01*
X25150Y123620D01*
X25064Y123539D01*
X24991Y123446D01*
X24934Y123342D01*
X24895Y123231D01*
X24873Y123115D01*
X24869Y122997D01*
X24884Y122880D01*
X24917Y122767D01*
X24967Y122660D01*
X25034Y122562D01*
X25114Y122476D01*
X25208Y122404D01*
X25312Y122349D01*
X25738Y122175D01*
X26181Y122047D01*
X26634Y121961D01*
X27092Y121917D01*
X27165D01*
Y118121D01*
X27114Y118164D01*
X26812Y118350D01*
X26485Y118485D01*
X26140Y118568D01*
X25787Y118596D01*
X25699Y118589D01*
X25591D01*
X25590Y118589D01*
X25590Y118589D01*
X24810Y118588D01*
X24809Y119054D01*
X24773Y119207D01*
X24712Y119352D01*
X24630Y119486D01*
X24528Y119606D01*
X24408Y119708D01*
X24274Y119790D01*
X24129Y119851D01*
X23976Y119887D01*
X23819Y119897D01*
X23365Y119896D01*
Y124376D01*
X23391Y124368D01*
X23509Y124353D01*
X23627Y124357D01*
X23744Y124379D01*
X23856Y124419D01*
X23960Y124476D01*
X24053Y124549D01*
X24135Y124635D01*
X24202Y124733D01*
X24252Y124841D01*
X24285Y124955D01*
X24300Y125072D01*
X24297Y125191D01*
X24274Y125308D01*
X24232Y125418D01*
X24111Y125714D01*
X24023Y126020D01*
X23963Y126334D01*
X23933Y126651D01*
Y126971D01*
X23963Y127288D01*
X24023Y127602D01*
X24111Y127909D01*
X24229Y128205D01*
X24271Y128316D01*
X24293Y128432D01*
X24296Y128549D01*
X24282Y128667D01*
X24249Y128780D01*
X24198Y128887D01*
X24132Y128984D01*
X24051Y129070D01*
X23958Y129143D01*
X23854Y129199D01*
X23743Y129239D01*
X23627Y129261D01*
X23509Y129265D01*
X23392Y129250D01*
X23365Y129242D01*
Y133307D01*
G37*
G36*
X16535D02*X23365D01*
Y129242D01*
X23279Y129217D01*
X23172Y129167D01*
X23074Y129100D01*
X22988Y129019D01*
X22916Y128926D01*
X22861Y128822D01*
X22687Y128395D01*
X22559Y127953D01*
X22472Y127500D01*
X22429Y127041D01*
Y126581D01*
X22472Y126122D01*
X22559Y125669D01*
X22687Y125227D01*
X22856Y124798D01*
X22913Y124694D01*
X22985Y124600D01*
X23072Y124519D01*
X23170Y124452D01*
X23277Y124401D01*
X23365Y124376D01*
Y119896D01*
X16535Y119888D01*
Y121922D01*
X20952Y121931D01*
X21181Y121986D01*
X21400Y122077D01*
X21601Y122200D01*
X21780Y122353D01*
X21934Y122533D01*
X22057Y122734D01*
X22148Y122952D01*
X22203Y123182D01*
X22217Y123417D01*
X22203Y130440D01*
X22148Y130670D01*
X22057Y130888D01*
X21934Y131089D01*
X21780Y131269D01*
X21601Y131422D01*
X21400Y131545D01*
X21181Y131636D01*
X20952Y131691D01*
X20717Y131705D01*
X16535Y131696D01*
Y133307D01*
G37*
G36*
X13314Y28280D02*X16535Y28282D01*
Y28102D01*
X16195Y28087D01*
X15858Y28042D01*
X15526Y27967D01*
X15202Y27864D01*
X14888Y27732D01*
X14587Y27573D01*
X14301Y27388D01*
X14265Y27358D01*
X14234Y27322D01*
X14209Y27282D01*
X14191Y27239D01*
X14179Y27194D01*
X14175Y27147D01*
X14179Y27100D01*
X14189Y27054D01*
X14207Y27011D01*
X14231Y26970D01*
X14261Y26934D01*
X14296Y26903D01*
X14336Y26879D01*
X14380Y26860D01*
X14425Y26849D01*
X14472Y26845D01*
X14519Y26848D01*
X14565Y26858D01*
X14608Y26876D01*
X14648Y26901D01*
X14888Y27060D01*
X15142Y27195D01*
X15407Y27306D01*
X15682Y27394D01*
X15962Y27457D01*
X16248Y27495D01*
X16535Y27508D01*
Y20996D01*
X16248Y21009D01*
X15962Y21047D01*
X15682Y21110D01*
X15407Y21198D01*
X15142Y21309D01*
X14888Y21444D01*
X14646Y21600D01*
X14607Y21625D01*
X14564Y21642D01*
X14518Y21653D01*
X14472Y21656D01*
X14426Y21652D01*
X14381Y21641D01*
X14338Y21623D01*
X14298Y21598D01*
X14263Y21567D01*
X14233Y21532D01*
X14210Y21492D01*
X14192Y21449D01*
X14182Y21404D01*
X14178Y21357D01*
X14183Y21311D01*
X14194Y21266D01*
X14212Y21223D01*
X14237Y21184D01*
X14267Y21149D01*
X14303Y21119D01*
X14587Y20931D01*
X14888Y20772D01*
X15202Y20640D01*
X15526Y20537D01*
X15858Y20462D01*
X16195Y20417D01*
X16535Y20402D01*
X16535D01*
Y12244D01*
X13314D01*
Y22150D01*
X13400Y22018D01*
X13430Y21981D01*
X13465Y21951D01*
X13505Y21926D01*
X13548Y21907D01*
X13594Y21896D01*
X13641Y21892D01*
X13688Y21895D01*
X13733Y21906D01*
X13777Y21923D01*
X13817Y21947D01*
X13853Y21978D01*
X13884Y22013D01*
X13909Y22053D01*
X13927Y22096D01*
X13939Y22142D01*
X13943Y22188D01*
X13939Y22235D01*
X13929Y22281D01*
X13911Y22325D01*
X13886Y22364D01*
X13727Y22604D01*
X13593Y22859D01*
X13481Y23124D01*
X13393Y23398D01*
X13330Y23679D01*
X13314Y23801D01*
Y24703D01*
X13330Y24825D01*
X13393Y25106D01*
X13481Y25380D01*
X13593Y25645D01*
X13727Y25900D01*
X13884Y26141D01*
X13909Y26181D01*
X13926Y26224D01*
X13936Y26269D01*
X13940Y26315D01*
X13935Y26362D01*
X13924Y26407D01*
X13906Y26450D01*
X13881Y26489D01*
X13851Y26524D01*
X13815Y26554D01*
X13775Y26578D01*
X13732Y26595D01*
X13687Y26606D01*
X13641Y26609D01*
X13594Y26605D01*
X13549Y26594D01*
X13507Y26575D01*
X13467Y26551D01*
X13432Y26520D01*
X13403Y26484D01*
X13314Y26350D01*
Y28280D01*
G37*
G36*
Y44028D02*X16535Y44030D01*
Y43850D01*
X16195Y43835D01*
X15858Y43790D01*
X15526Y43715D01*
X15202Y43612D01*
X14888Y43480D01*
X14587Y43321D01*
X14301Y43136D01*
X14265Y43106D01*
X14234Y43070D01*
X14209Y43030D01*
X14191Y42987D01*
X14179Y42942D01*
X14175Y42895D01*
X14179Y42848D01*
X14189Y42802D01*
X14207Y42759D01*
X14231Y42718D01*
X14261Y42682D01*
X14296Y42651D01*
X14336Y42627D01*
X14380Y42608D01*
X14425Y42597D01*
X14472Y42593D01*
X14519Y42596D01*
X14565Y42606D01*
X14608Y42624D01*
X14648Y42649D01*
X14888Y42808D01*
X15142Y42943D01*
X15407Y43054D01*
X15682Y43142D01*
X15962Y43205D01*
X16248Y43243D01*
X16535Y43256D01*
Y36744D01*
X16248Y36757D01*
X15962Y36795D01*
X15682Y36858D01*
X15407Y36946D01*
X15142Y37057D01*
X14888Y37192D01*
X14646Y37348D01*
X14607Y37373D01*
X14564Y37390D01*
X14518Y37401D01*
X14472Y37404D01*
X14426Y37400D01*
X14381Y37389D01*
X14338Y37371D01*
X14298Y37346D01*
X14263Y37315D01*
X14233Y37280D01*
X14210Y37240D01*
X14192Y37197D01*
X14182Y37152D01*
X14178Y37105D01*
X14183Y37059D01*
X14194Y37014D01*
X14212Y36971D01*
X14237Y36932D01*
X14267Y36897D01*
X14303Y36868D01*
X14587Y36679D01*
X14888Y36520D01*
X15202Y36388D01*
X15526Y36285D01*
X15858Y36210D01*
X16195Y36165D01*
X16535Y36150D01*
X16535D01*
Y35970D01*
X13314Y35967D01*
Y37898D01*
X13400Y37766D01*
X13430Y37729D01*
X13465Y37699D01*
X13505Y37674D01*
X13548Y37655D01*
X13594Y37644D01*
X13641Y37640D01*
X13688Y37643D01*
X13733Y37654D01*
X13777Y37671D01*
X13817Y37695D01*
X13853Y37726D01*
X13884Y37761D01*
X13909Y37801D01*
X13927Y37844D01*
X13939Y37890D01*
X13943Y37936D01*
X13939Y37983D01*
X13929Y38029D01*
X13911Y38073D01*
X13886Y38112D01*
X13727Y38352D01*
X13593Y38607D01*
X13481Y38872D01*
X13393Y39146D01*
X13330Y39427D01*
X13314Y39549D01*
Y40451D01*
X13330Y40573D01*
X13393Y40854D01*
X13481Y41128D01*
X13593Y41393D01*
X13727Y41648D01*
X13884Y41889D01*
X13909Y41929D01*
X13926Y41972D01*
X13936Y42017D01*
X13940Y42064D01*
X13935Y42110D01*
X13924Y42155D01*
X13906Y42198D01*
X13881Y42237D01*
X13851Y42272D01*
X13815Y42302D01*
X13775Y42326D01*
X13732Y42343D01*
X13687Y42354D01*
X13641Y42357D01*
X13594Y42353D01*
X13549Y42342D01*
X13507Y42323D01*
X13467Y42299D01*
X13432Y42268D01*
X13403Y42232D01*
X13314Y42098D01*
Y44028D01*
G37*
G36*
Y59776D02*X16535Y59778D01*
Y59598D01*
X16195Y59583D01*
X15858Y59538D01*
X15526Y59463D01*
X15202Y59360D01*
X14888Y59228D01*
X14587Y59069D01*
X14301Y58884D01*
X14265Y58854D01*
X14234Y58818D01*
X14209Y58778D01*
X14191Y58735D01*
X14179Y58690D01*
X14175Y58643D01*
X14179Y58596D01*
X14189Y58550D01*
X14207Y58507D01*
X14231Y58466D01*
X14261Y58430D01*
X14296Y58400D01*
X14336Y58375D01*
X14380Y58356D01*
X14425Y58345D01*
X14472Y58341D01*
X14519Y58344D01*
X14565Y58355D01*
X14608Y58372D01*
X14648Y58397D01*
X14888Y58556D01*
X15142Y58691D01*
X15407Y58802D01*
X15682Y58890D01*
X15962Y58953D01*
X16248Y58991D01*
X16535Y59004D01*
Y52492D01*
X16248Y52505D01*
X15962Y52543D01*
X15682Y52606D01*
X15407Y52694D01*
X15142Y52805D01*
X14888Y52940D01*
X14646Y53096D01*
X14607Y53121D01*
X14564Y53138D01*
X14518Y53149D01*
X14472Y53152D01*
X14426Y53148D01*
X14381Y53137D01*
X14338Y53119D01*
X14298Y53094D01*
X14263Y53063D01*
X14233Y53028D01*
X14210Y52988D01*
X14192Y52945D01*
X14182Y52900D01*
X14178Y52853D01*
X14183Y52807D01*
X14194Y52762D01*
X14212Y52719D01*
X14237Y52680D01*
X14267Y52645D01*
X14303Y52616D01*
X14587Y52427D01*
X14888Y52268D01*
X15202Y52136D01*
X15526Y52033D01*
X15858Y51958D01*
X16195Y51913D01*
X16535Y51898D01*
X16535D01*
Y51718D01*
X13314Y51715D01*
Y53646D01*
X13400Y53514D01*
X13430Y53478D01*
X13465Y53447D01*
X13505Y53422D01*
X13548Y53403D01*
X13594Y53392D01*
X13641Y53388D01*
X13688Y53391D01*
X13733Y53402D01*
X13777Y53419D01*
X13817Y53443D01*
X13853Y53474D01*
X13884Y53509D01*
X13909Y53549D01*
X13927Y53592D01*
X13939Y53638D01*
X13943Y53684D01*
X13939Y53731D01*
X13929Y53777D01*
X13911Y53821D01*
X13886Y53860D01*
X13727Y54100D01*
X13593Y54355D01*
X13481Y54620D01*
X13393Y54894D01*
X13330Y55175D01*
X13314Y55297D01*
Y56199D01*
X13330Y56321D01*
X13393Y56602D01*
X13481Y56876D01*
X13593Y57141D01*
X13727Y57396D01*
X13884Y57637D01*
X13909Y57677D01*
X13926Y57720D01*
X13936Y57765D01*
X13940Y57812D01*
X13935Y57858D01*
X13924Y57903D01*
X13906Y57946D01*
X13881Y57985D01*
X13851Y58020D01*
X13815Y58050D01*
X13775Y58074D01*
X13732Y58091D01*
X13687Y58102D01*
X13641Y58105D01*
X13594Y58101D01*
X13549Y58090D01*
X13507Y58071D01*
X13467Y58047D01*
X13432Y58016D01*
X13403Y57980D01*
X13314Y57846D01*
Y59776D01*
G37*
G36*
Y122049D02*X13464Y121986D01*
X13694Y121931D01*
X13929Y121917D01*
X16535Y121922D01*
Y119888D01*
X16182Y119887D01*
X16029Y119851D01*
X15883Y119790D01*
X15749Y119708D01*
X15629Y119606D01*
X15527Y119486D01*
X15445Y119352D01*
X15385Y119207D01*
X15348Y119054D01*
X15339Y118897D01*
X15348Y113622D01*
X15385Y113469D01*
X15445Y113323D01*
X15527Y113189D01*
X15629Y113069D01*
X15749Y112967D01*
X15883Y112885D01*
X16029Y112825D01*
X16182Y112788D01*
X16339Y112779D01*
X16535Y112779D01*
Y108078D01*
X16182Y108077D01*
X16029Y108041D01*
X15883Y107980D01*
X15749Y107898D01*
X15629Y107796D01*
X15527Y107676D01*
X15445Y107542D01*
X15385Y107397D01*
X15348Y107244D01*
X15339Y107087D01*
X15348Y101812D01*
X15385Y101659D01*
X15445Y101513D01*
X15527Y101379D01*
X15629Y101259D01*
X15749Y101157D01*
X15883Y101075D01*
X16029Y101015D01*
X16182Y100978D01*
X16339Y100969D01*
X16535Y100969D01*
Y100203D01*
X16182Y100203D01*
X16029Y100166D01*
X15883Y100106D01*
X15749Y100024D01*
X15629Y99921D01*
X15527Y99802D01*
X15445Y99667D01*
X15385Y99522D01*
X15348Y99369D01*
X15339Y99212D01*
X15348Y93937D01*
X15385Y93784D01*
X15445Y93639D01*
X15527Y93504D01*
X15629Y93385D01*
X15749Y93283D01*
X15883Y93200D01*
X16029Y93140D01*
X16182Y93103D01*
X16339Y93094D01*
X16535Y93094D01*
Y88393D01*
X16182Y88393D01*
X16029Y88356D01*
X15883Y88296D01*
X15749Y88214D01*
X15629Y88111D01*
X15527Y87992D01*
X15445Y87857D01*
X15385Y87712D01*
X15348Y87559D01*
X15339Y87402D01*
X15348Y82127D01*
X15385Y81974D01*
X15445Y81829D01*
X15527Y81694D01*
X15629Y81575D01*
X15749Y81473D01*
X15883Y81390D01*
X16029Y81330D01*
X16182Y81293D01*
X16339Y81284D01*
X16535Y81284D01*
Y67466D01*
X13314Y67463D01*
Y122049D01*
G37*
G36*
Y133307D02*X16535D01*
Y131696D01*
X13694Y131691D01*
X13464Y131636D01*
X13314Y131574D01*
Y133307D01*
G37*
G36*
Y23801D02*X13292Y23964D01*
X13280Y24252D01*
X13292Y24540D01*
X13314Y24703D01*
Y23801D01*
G37*
G36*
Y39549D02*X13292Y39712D01*
X13280Y40000D01*
X13292Y40288D01*
X13314Y40451D01*
Y39549D01*
G37*
G36*
Y55297D02*X13292Y55460D01*
X13280Y55748D01*
X13292Y56036D01*
X13314Y56199D01*
Y55297D01*
G37*
G36*
X11023Y12244D02*Y133307D01*
X13314D01*
Y131574D01*
X13246Y131545D01*
X13045Y131422D01*
X12865Y131269D01*
X12712Y131089D01*
X12588Y130888D01*
X12498Y130670D01*
X12443Y130440D01*
X12429Y130205D01*
X12443Y123182D01*
X12498Y122952D01*
X12588Y122734D01*
X12712Y122533D01*
X12865Y122353D01*
X13045Y122200D01*
X13246Y122077D01*
X13314Y122049D01*
Y67463D01*
X13187Y67463D01*
X13096Y67441D01*
X13011Y67406D01*
X12931Y67357D01*
X12861Y67297D01*
X12800Y67226D01*
X12752Y67147D01*
X12716Y67061D01*
X12694Y66971D01*
X12689Y66878D01*
X12694Y60273D01*
X12716Y60183D01*
X12752Y60097D01*
X12800Y60018D01*
X12861Y59947D01*
X12931Y59887D01*
X13011Y59838D01*
X13096Y59803D01*
X13187Y59781D01*
X13280Y59776D01*
X13314Y59776D01*
Y57846D01*
X13215Y57697D01*
X13056Y57396D01*
X12924Y57082D01*
X12820Y56758D01*
X12745Y56426D01*
X12700Y56088D01*
X12685Y55748D01*
X12700Y55408D01*
X12745Y55071D01*
X12820Y54738D01*
X12924Y54414D01*
X13056Y54100D01*
X13215Y53799D01*
X13314Y53646D01*
Y51715D01*
X13187Y51715D01*
X13096Y51693D01*
X13011Y51658D01*
X12931Y51609D01*
X12861Y51549D01*
X12800Y51478D01*
X12752Y51399D01*
X12716Y51313D01*
X12694Y51223D01*
X12689Y51130D01*
X12694Y44525D01*
X12716Y44435D01*
X12752Y44349D01*
X12800Y44270D01*
X12861Y44199D01*
X12931Y44139D01*
X13011Y44090D01*
X13096Y44055D01*
X13187Y44033D01*
X13280Y44028D01*
X13314Y44028D01*
Y42098D01*
X13215Y41949D01*
X13056Y41648D01*
X12924Y41334D01*
X12820Y41010D01*
X12745Y40678D01*
X12700Y40340D01*
X12685Y40000D01*
X12700Y39660D01*
X12745Y39322D01*
X12820Y38990D01*
X12924Y38666D01*
X13056Y38352D01*
X13215Y38051D01*
X13314Y37898D01*
Y35967D01*
X13187Y35967D01*
X13096Y35945D01*
X13011Y35910D01*
X12931Y35861D01*
X12861Y35801D01*
X12800Y35730D01*
X12752Y35651D01*
X12716Y35565D01*
X12694Y35475D01*
X12689Y35382D01*
X12694Y28777D01*
X12716Y28687D01*
X12752Y28601D01*
X12800Y28522D01*
X12861Y28451D01*
X12931Y28391D01*
X13011Y28342D01*
X13096Y28307D01*
X13187Y28285D01*
X13280Y28280D01*
X13314Y28280D01*
Y26350D01*
X13215Y26201D01*
X13056Y25900D01*
X12924Y25586D01*
X12820Y25262D01*
X12745Y24929D01*
X12700Y24592D01*
X12685Y24252D01*
X12700Y23912D01*
X12745Y23574D01*
X12820Y23242D01*
X12924Y22918D01*
X13056Y22604D01*
X13215Y22303D01*
X13314Y22150D01*
Y12244D01*
X11023D01*
G37*
G54D47*X43307Y70089D02*X43139Y69921D01*
G54D48*X33858Y70102D02*X34039Y69921D01*
G54D49*X33858D02*X34039Y69740D01*
G54D47*X43139Y64774D02*X50787Y57126D01*
X42529Y45521D02*X49213Y52205D01*
X43139Y64774D02*Y72806D01*
G54D50*X34039Y50639D02*X34055Y36063D01*
G54D47*X25000Y62441D02*Y77205D01*
X43139Y69921D02*Y75010D01*
G54D51*X82283Y51220D02*X72047D01*
X67717Y46890D01*
G54D47*X63976Y65394D02*X71260Y72677D01*
X85039D02*X71260D01*
G54D51*X70472Y60669D02*X80512D01*
X66142Y47087D02*X71457Y52402D01*
G54D47*X58071Y52205D02*X63976Y58110D01*
G54D51*X81102Y53583D02*X70866D01*
X65551Y48268D01*
X56102D01*
G54D47*X63976Y58110D02*Y65394D01*
G54D51*X57874Y65591D02*Y60276D01*
X71457Y52402D02*X81693D01*
G54D47*X49213Y52205D02*X58071D01*
G54D51*X72047Y22874D02*X73425Y24252D01*
X87874Y38425D02*Y30236D01*
X87795Y30157D01*
X73425Y24252D02*X93071D01*
X67717Y46890D02*Y38583D01*
X67874Y38425D01*
X57874Y40984D02*X63976Y47087D01*
X66142D01*
X56102Y48268D02*X53346Y45512D01*
Y30748D01*
X53937Y30157D01*
X96260D01*
X67717Y124055D02*Y113386D01*
X67835Y113268D01*
X57835D02*Y123819D01*
X63780Y129764D01*
X67717Y124055D02*X72244Y128583D01*
G54D49*X51732Y126811D02*Y101024D01*
G54D51*X107874Y126811D02*Y113307D01*
X107835Y113268D01*
X137835D02*Y105000D01*
X134449Y101614D01*
X117913Y113346D02*X117835Y113268D01*
G54D49*X132677Y118150D02*X129921D01*
G54D51*X134449Y101614D02*X95669D01*
X117913Y127992D02*Y113346D01*
X109449Y93150D02*X96260D01*
X114173D02*X112402D01*
X97835Y127598D02*Y113268D01*
X95276Y122677D02*X93307Y120709D01*
X87992Y113110D02*X87835Y113268D01*
Y121339D01*
X63780Y129764D02*X104921D01*
X107874Y126811D02*X104921Y129764D01*
X92520Y127598D02*X91535Y128583D01*
X72244D01*
X87402Y124646D02*X85236D01*
X87835Y121339D02*X91929Y125433D01*
X85236Y124646D02*X82874Y122283D01*
X92717Y123268D02*X92126Y122677D01*
X91929Y125433D02*X93898D01*
Y125236D01*
X95276Y123858D01*
Y122677D01*
X82677Y97874D02*X81496Y99055D01*
X86024Y96693D02*X82087D01*
X80315Y98465D01*
X81496Y99055D02*Y101024D01*
X82677Y102205D02*X81496Y101024D01*
X80315Y98465D02*Y101614D01*
X82874Y104173D01*
Y104567D01*
X85827Y102205D02*X82677D01*
X87402Y95315D02*X86024Y96693D01*
X82677Y97874D02*X86614D01*
X88583Y95906D01*
X83661Y100039D02*X86220D01*
X89764Y96496D01*
X85827Y102205D02*X90945Y97087D01*
X117126Y30157D02*X117913Y30945D01*
Y38386D01*
X117874Y38425D01*
X121063Y28976D02*X122047Y29961D01*
Y50433D01*
X121654Y27795D02*X123228Y29370D01*
G54D52*X77953Y18307D02*X153898D01*
X170866Y35276D01*
G54D51*X123228Y29370D02*Y48268D01*
X125197Y52008D02*X144685D01*
X124606Y53189D02*X145276D01*
X125787Y50827D02*X136417D01*
X137795Y49449D01*
X123622Y50433D02*X125197Y52008D01*
X123031Y51614D02*X124606Y53189D01*
X122441Y52795D02*X124016Y54370D01*
X123425Y55551D02*X121850Y53976D01*
X122362Y50433D02*X122283D01*
X113780D02*X123622D01*
X114370Y51614D02*X123031D01*
X114961Y52795D02*X122441D01*
X121850Y53976D02*X115551D01*
X116142Y55157D02*X121260D01*
X123228Y48268D02*X125787Y50827D01*
X144685Y52008D02*X147835Y48858D01*
Y38465D01*
X147874Y38425D01*
X137795Y49449D02*Y38504D01*
X137874Y38425D01*
G54D52*X190000Y37795D02*Y27795D01*
Y37795D02*X195236D01*
X200394Y42953D01*
Y51417D01*
G54D51*X124016Y54370D02*X162008D01*
X161417Y55551D02*X123425D01*
X122835Y56732D02*X160827D01*
X122244Y57913D02*X160236D01*
X116535Y82126D02*X122835Y88425D01*
X121260Y55157D02*X122835Y56732D01*
X116732Y56339D02*X120669D01*
X122244Y57913D01*
X117323Y57520D02*X120079D01*
X121654Y59094D01*
X159646D01*
G54D49*X160000Y117795D02*Y108661D01*
X149606Y98268D02*X160000Y108661D01*
G54D51*Y127795D02*X164567Y123228D01*
Y115984D01*
X170000Y127795D02*X175000Y122795D01*
X170669Y103386D02*X173819Y106535D01*
Y113976D01*
X170000Y117795D01*
X169488Y111063D02*X164567Y115984D01*
X137835Y113268D02*Y118976D01*
X175000Y122795D02*Y115394D01*
X190000Y117795D02*X188622D01*
X190000Y127795D02*X195079Y122717D01*
Y114213D01*
X192520Y111654D01*
X174213Y101614D02*X184252Y111654D01*
X171850Y102795D02*X175000Y105945D01*
X173031Y102205D02*X188622Y117795D01*
X192520Y111654D02*X184252D01*
X175000Y105945D02*Y115394D01*
X174213Y66575D02*Y101614D01*
X173031Y102205D02*Y67165D01*
G54D49*X122638Y98268D02*X149606D01*
G54D51*X171850Y67756D02*Y102795D01*
G54D52*X190000Y77795D02*X200354D01*
X190000Y102795D02*X197087D01*
X200394Y99488D01*
X200315Y99567D01*
X200354Y77795D02*X200394Y77756D01*
Y51378D02*Y99488D01*
G54D51*X162008Y54370D02*X174213Y66575D01*
X173031Y67165D02*X161417Y55551D01*
X160827Y56732D02*X171850Y67756D01*
X145276Y53189D02*X149016D01*
X150591Y51614D01*
X160236Y57913D02*X170669Y68346D01*
X159646Y59094D02*X169488Y68937D01*
X170669Y68346D02*Y103386D01*
X169488Y68937D02*Y111063D01*
X137835Y118976D02*X147047Y128189D01*
X150984D01*
X147835Y113268D02*Y124646D01*
X148622Y125433D01*
X82874Y122283D02*Y104567D01*
X93307Y120709D02*Y103976D01*
X69094Y102598D02*Y98465D01*
X72638Y94921D01*
X77756Y93150D02*Y85472D01*
X57874Y65591D01*
G54D47*X34039Y69921D02*Y44726D01*
X34055Y69937D02*X34039Y69921D01*
X23228Y84882D02*X34055Y74055D01*
Y69906D01*
X34039Y44726D02*X34041Y44724D01*
G54D51*X37476Y107874D02*Y111580D01*
G54D47*X20079Y84882D02*X23228D01*
X25787Y92323D02*Y111811D01*
G54D52*X20079Y96653D02*X15197D01*
X20079Y104528D02*X14803D01*
G54D51*X45202Y95315D02*X48819D01*
G54D49*X33465Y90984D02*X48819D01*
X53150Y95315D02*X48819Y90984D01*
X51732Y96732D02*X53150Y95315D01*
X51732Y100984D02*Y96732D01*
G54D47*X25591Y116339D02*X25787D01*
D03*
Y111811D01*
D03*
X20079Y116337D02*X25591Y116339D01*
X43139Y75010D02*X25787Y92362D01*
G54D51*X92126Y122677D02*Y79764D01*
X110236Y90984D02*X108465D01*
X107480Y91969D01*
X106890Y90787D02*X107874Y89803D01*
X112008D01*
X110236Y90984D02*X112402Y93150D01*
X93307Y103976D02*X95669Y101614D01*
X96260Y93150D02*X93307Y90197D01*
Y80354D01*
X94488Y89606D02*Y80945D01*
X95669Y81535D02*Y89016D01*
X97441Y90787D01*
X90945Y79173D02*Y97087D01*
X88583Y77992D02*Y95906D01*
X87402Y77402D02*Y95315D01*
X89764Y96496D02*Y78583D01*
X107480Y91969D02*X96850D01*
X94488Y89606D01*
X97441Y90787D02*X106890D01*
X95866Y72480D02*Y64803D01*
X97047Y73071D02*Y65394D01*
X107874Y54567D01*
X94685Y65394D02*Y71890D01*
X107874Y38425D02*Y54567D01*
X95866Y64803D02*X102953Y57717D01*
X103543Y30748D02*X104134Y30157D01*
X97874Y38425D02*Y30315D01*
X99213Y28976D01*
X103583Y30709D02*X102953Y31339D01*
X92677Y24252D02*X93071D01*
X98622Y27795D02*X96260Y30157D01*
X102953Y31339D02*Y57717D01*
X93504Y71299D02*Y65984D01*
X95866Y64803D02*X82283Y51220D01*
X81693Y52402D02*X94685Y65394D01*
X92126Y79764D02*X98228Y73661D01*
X97047Y73071D02*X90945Y79173D01*
X95866Y72480D02*X89764Y78583D01*
X94685Y71890D02*X88583Y77992D01*
X93504Y71299D02*X87402Y77402D01*
X98228Y73661D02*Y65984D01*
X99409Y74252D02*Y66575D01*
X100591Y74843D02*Y67165D01*
X101772Y67756D02*Y75433D01*
X93307Y80354D02*X99409Y74252D01*
X94488Y80945D02*X100591Y74843D01*
X101772Y75433D02*X95669Y81535D01*
X80512Y60669D02*X88976Y69134D01*
X93504Y65984D02*X81102Y53583D01*
X98228Y65984D02*X113780Y50433D01*
X99409Y66575D02*X114370Y51614D01*
X100591Y67165D02*X114961Y52795D01*
X112795Y64409D02*Y62047D01*
X115551Y53976D02*X101772Y67756D01*
X116142Y55157D02*X109449Y61850D01*
X105512Y67362D02*X109843D01*
X112795Y64409D01*
X111024Y82126D02*X116535D01*
X109449Y63031D02*Y61850D01*
X107480Y65197D02*X110236D01*
X111614Y63819D01*
Y61457D01*
X116732Y56339D01*
X112795Y62047D02*X117323Y57520D01*
X104134Y30157D02*X117126D01*
X99213Y28976D02*X121063D01*
X98622Y27795D02*X121654D01*
G54D46*G36*
X91142Y26024D02*Y22480D01*
X94685D01*
Y26024D01*
X91142D01*
G37*
G54D53*X96850Y24252D03*
X100787D03*
X104724D03*
X108661D03*
X112598D03*
G54D54*X148031Y26811D03*
X130709D03*
G54D46*G36*
X23909Y21602D02*Y15091D01*
X30421D01*
Y21602D01*
X23909D01*
G37*
G54D55*X35039Y18346D03*
G54D46*G36*
X39657Y21602D02*Y15091D01*
X46169D01*
Y21602D01*
X39657D01*
G37*
G54D55*X50787Y18346D03*
G54D46*G36*
X13280Y66878D02*Y60366D01*
X19791D01*
Y66878D01*
X13280D01*
G37*
G36*
X13929Y130205D02*Y123417D01*
X20717D01*
Y130205D01*
X13929D01*
G37*
G54D56*X27323Y126811D03*
G54D46*G36*
X38339Y130205D02*Y123417D01*
X45126D01*
Y130205D01*
X38339D01*
G37*
G54D56*X51732Y126811D03*
G54D55*X16535Y55748D03*
G54D46*G36*
X13280Y51130D02*Y44618D01*
X19791D01*
Y51130D01*
X13280D01*
G37*
G54D55*X16535Y40000D03*
G54D46*G36*
X13280Y35382D02*Y28870D01*
X19791D01*
Y35382D01*
X13280D01*
G37*
G54D55*X16535Y24252D03*
G54D46*G36*
X55406Y21602D02*Y15091D01*
X61917D01*
Y21602D01*
X55406D01*
G37*
G54D55*X66535Y18346D03*
G54D46*G36*
X185500Y32295D02*Y23295D01*
X194500D01*
Y32295D01*
X185500D01*
G37*
G36*
Y42295D02*Y33295D01*
X194500D01*
Y42295D01*
X185500D01*
G37*
G54D57*X190000Y47795D03*
G54D58*Y67795D03*
G54D46*G36*
X186213Y81583D02*Y74008D01*
X193787D01*
Y81583D01*
X186213D01*
G37*
G36*
X157000Y120795D02*Y114795D01*
X163000D01*
Y120795D01*
X157000D01*
G37*
G54D59*X160000Y127795D03*
X170000Y117795D03*
Y127795D03*
X180000Y117795D03*
Y127795D03*
X190000Y117795D03*
Y127795D03*
X200000Y117795D03*
Y127795D03*
G54D46*G36*
X186213Y106583D02*Y99008D01*
X193787D01*
Y106583D01*
X186213D01*
G37*
G54D58*X190000Y92795D03*
G54D60*X18898Y84843D02*X21260D01*
G54D61*X29539Y45521D02*X38539D01*
G54D62*X25039Y73221D02*Y66621D01*
X34039Y73221D02*Y66621D01*
X43139Y73221D02*Y66621D01*
G54D60*X18898Y96653D02*X21260D01*
X18898Y116338D02*X21260D01*
X18898Y104528D02*X21260D01*
G54D63*X87874Y41925D02*Y34925D01*
X107874Y41925D02*Y34925D01*
X97874Y41925D02*Y34925D01*
X117874Y41925D02*Y34925D01*
X127874Y41925D02*Y34925D01*
X137874Y41925D02*Y34925D01*
X147874Y41925D02*Y34925D01*
X107835Y116768D02*Y109768D01*
X97835Y116768D02*Y109768D01*
X127835Y116768D02*Y109768D01*
X117835Y116768D02*Y109768D01*
X147835Y116768D02*Y109768D01*
X137835Y116768D02*Y109768D01*
X87835Y116768D02*Y109768D01*
X77874Y41925D02*Y34925D01*
X57874Y41925D02*Y34925D01*
X67874Y41925D02*Y34925D01*
X77835Y116768D02*Y109768D01*
X67835Y116768D02*Y109768D01*
X57835Y116768D02*Y109768D01*
G54D64*X50787Y57126D03*
G54D59*X77953Y18307D03*
G54D65*X77362Y57126D03*
X72047Y22874D03*
X127559Y47874D03*
X138780Y25039D03*
X48622Y34094D03*
X140157Y48661D03*
X150591Y51614D03*
G54D59*X170866Y35276D03*
G54D65*X70472Y60669D03*
X57874Y60276D03*
X33858Y113583D03*
X25787Y116339D03*
X85039Y72677D03*
X98622Y88228D03*
X107480Y72480D03*
X88976Y69134D03*
X97835Y127598D03*
X109449Y93150D03*
X112008Y89803D03*
X114173Y93150D03*
X85827Y102205D03*
X92520Y127598D03*
X87402Y124646D03*
X92717Y123268D03*
X76772Y124055D03*
X58268Y128583D03*
X77756Y118150D03*
X61024Y112441D03*
X74409Y102205D03*
X53150Y95315D03*
X69094Y102598D03*
X72638Y94921D03*
X77756Y93150D03*
X83661Y100039D03*
X49606Y79173D03*
X28737Y79373D03*
X49606Y71496D03*
X33465Y90984D03*
X43307Y101575D03*
X37008Y105157D03*
X40157D03*
X43307D03*
X37008Y101575D03*
Y98071D03*
X40157D03*
X43307D03*
X117913Y127992D03*
X112598Y124646D03*
X148622Y125433D03*
X150984Y128189D03*
X132677Y118150D03*
X111024Y82126D03*
X160236Y79567D03*
X178346Y73858D03*
X107480Y65197D03*
X109449Y63031D03*
X105512Y67362D03*
X159449Y68150D03*
X122638Y98268D03*
X122835Y88425D03*
X139173Y91772D03*
Y83898D03*
G54D66*G54D67*G54D68*G54D67*G54D68*G54D65*G54D69*G54D70*G54D71*G54D70*G54D72*G54D71*M02*
