G04 start of page 12 for group -3984 idx -3984 *
G04 Title: (unknown), fab *
G04 Creator: pcb 1.99z *
G04 CreationDate: Sun May  5 10:03:39 2013 UTC *
G04 For: matt *
G04 Format: Gerber/RS-274X *
G04 PCB-Dimensions (mil): 2165.35 1377.95 *
G04 PCB-Coordinate-Origin: lower left *
%MOIN*%
%FSLAX25Y25*%
%LNFAB*%
%ADD146C,0.0100*%
%ADD145C,0.0044*%
%ADD144R,0.0080X0.0080*%
G54D144*X190000Y30995D02*Y24595D01*
X186800Y27795D02*X193200D01*
X188400Y29395D02*X191600D01*
X188400D02*Y26195D01*
X191600D01*
Y29395D02*Y26195D01*
X190000Y40995D02*Y34595D01*
X186800Y37795D02*X193200D01*
X188400Y39395D02*X191600D01*
X188400D02*Y36195D01*
X191600D01*
Y39395D02*Y36195D01*
X190000Y50995D02*Y44595D01*
X186800Y47795D02*X193200D01*
X188400Y49395D02*X191600D01*
X188400D02*Y46195D01*
X191600D01*
Y49395D02*Y46195D01*
X15000Y152245D02*Y145845D01*
X11800Y149045D02*X18200D01*
X13400Y150645D02*X16600D01*
X13400D02*Y147445D01*
X16600D01*
Y150645D02*Y147445D01*
G54D145*X135000Y151295D02*X136500Y148295D01*
X138000Y151295D01*
X136500Y148295D02*Y145295D01*
X139800Y148595D02*X142050D01*
X139800Y145295D02*X142800D01*
X139800Y151295D02*Y145295D01*
Y151295D02*X142800D01*
X147600D02*X148350Y150545D01*
X145350Y151295D02*X147600D01*
X144600Y150545D02*X145350Y151295D01*
X144600Y150545D02*Y149045D01*
X145350Y148295D01*
X147600D01*
X148350Y147545D01*
Y146045D01*
X147600Y145295D02*X148350Y146045D01*
X145350Y145295D02*X147600D01*
X144600Y146045D02*X145350Y145295D01*
X98000Y150545D02*X98750Y151295D01*
X100250D01*
X101000Y150545D01*
X100250Y145295D02*X101000Y146045D01*
X98750Y145295D02*X100250D01*
X98000Y146045D02*X98750Y145295D01*
Y148595D02*X100250D01*
X101000Y150545D02*Y149345D01*
Y147845D02*Y146045D01*
Y147845D02*X100250Y148595D01*
X101000Y149345D02*X100250Y148595D01*
X45000Y146045D02*X45750Y145295D01*
X45000Y150545D02*Y146045D01*
Y150545D02*X45750Y151295D01*
X47250D01*
X48000Y150545D01*
Y146045D01*
X47250Y145295D02*X48000Y146045D01*
X45750Y145295D02*X47250D01*
X45000Y146795D02*X48000Y149795D01*
X49800Y145295D02*X50550D01*
X52350Y146045D02*X53100Y145295D01*
X52350Y150545D02*Y146045D01*
Y150545D02*X53100Y151295D01*
X54600D01*
X55350Y150545D01*
Y146045D01*
X54600Y145295D02*X55350Y146045D01*
X53100Y145295D02*X54600D01*
X52350Y146795D02*X55350Y149795D01*
X57150Y147545D02*X60150Y151295D01*
X57150Y147545D02*X60900D01*
X60150Y151295D02*Y145295D01*
X62700Y146045D02*X63450Y145295D01*
X62700Y147245D02*Y146045D01*
Y147245D02*X63750Y148295D01*
X64650D01*
X65700Y147245D01*
Y146045D01*
X64950Y145295D02*X65700Y146045D01*
X63450Y145295D02*X64950D01*
X62700Y149345D02*X63750Y148295D01*
X62700Y150545D02*Y149345D01*
Y150545D02*X63450Y151295D01*
X64950D01*
X65700Y150545D01*
Y149345D01*
X64650Y148295D02*X65700Y149345D01*
X17323Y126811D02*Y123611D01*
Y126811D02*X20096Y128411D01*
X17323Y126811D02*X14550Y128411D01*
X15723Y126811D02*G75*G03X18923Y126811I1600J0D01*G01*
G75*G03X15723Y126811I-1600J0D01*G01*
X27323D02*Y123611D01*
Y126811D02*X30096Y128411D01*
X27323Y126811D02*X24550Y128411D01*
X25723Y126811D02*G75*G03X28923Y126811I1600J0D01*G01*
G75*G03X25723Y126811I-1600J0D01*G01*
X41732D02*Y123611D01*
Y126811D02*X44506Y128411D01*
X41732Y126811D02*X38959Y128411D01*
X40132Y126811D02*G75*G03X43332Y126811I1600J0D01*G01*
G75*G03X40132Y126811I-1600J0D01*G01*
X51732D02*Y123611D01*
Y126811D02*X54506Y128411D01*
X51732Y126811D02*X48959Y128411D01*
X50132Y126811D02*G75*G03X53332Y126811I1600J0D01*G01*
G75*G03X50132Y126811I-1600J0D01*G01*
X190000Y77795D02*Y74595D01*
Y77795D02*X192773Y79395D01*
X190000Y77795D02*X187227Y79395D01*
X188400Y77795D02*G75*G03X191600Y77795I1600J0D01*G01*
G75*G03X188400Y77795I-1600J0D01*G01*
X190000Y67795D02*Y64595D01*
Y67795D02*X192773Y69395D01*
X190000Y67795D02*X187227Y69395D01*
X188400Y67795D02*G75*G03X191600Y67795I1600J0D01*G01*
G75*G03X188400Y67795I-1600J0D01*G01*
X160000Y117795D02*Y114595D01*
Y117795D02*X162773Y119395D01*
X160000Y117795D02*X157227Y119395D01*
X158400Y117795D02*G75*G03X161600Y117795I1600J0D01*G01*
G75*G03X158400Y117795I-1600J0D01*G01*
X160000Y127795D02*Y124595D01*
Y127795D02*X162773Y129395D01*
X160000Y127795D02*X157227Y129395D01*
X158400Y127795D02*G75*G03X161600Y127795I1600J0D01*G01*
G75*G03X158400Y127795I-1600J0D01*G01*
X170000Y117795D02*Y114595D01*
Y117795D02*X172773Y119395D01*
X170000Y117795D02*X167227Y119395D01*
X168400Y117795D02*G75*G03X171600Y117795I1600J0D01*G01*
G75*G03X168400Y117795I-1600J0D01*G01*
X170000Y127795D02*Y124595D01*
Y127795D02*X172773Y129395D01*
X170000Y127795D02*X167227Y129395D01*
X168400Y127795D02*G75*G03X171600Y127795I1600J0D01*G01*
G75*G03X168400Y127795I-1600J0D01*G01*
X180000Y117795D02*Y114595D01*
Y117795D02*X182773Y119395D01*
X180000Y117795D02*X177227Y119395D01*
X178400Y117795D02*G75*G03X181600Y117795I1600J0D01*G01*
G75*G03X178400Y117795I-1600J0D01*G01*
X180000Y127795D02*Y124595D01*
Y127795D02*X182773Y129395D01*
X180000Y127795D02*X177227Y129395D01*
X178400Y127795D02*G75*G03X181600Y127795I1600J0D01*G01*
G75*G03X178400Y127795I-1600J0D01*G01*
X190000Y117795D02*Y114595D01*
Y117795D02*X192773Y119395D01*
X190000Y117795D02*X187227Y119395D01*
X188400Y117795D02*G75*G03X191600Y117795I1600J0D01*G01*
G75*G03X188400Y117795I-1600J0D01*G01*
X190000Y127795D02*Y124595D01*
Y127795D02*X192773Y129395D01*
X190000Y127795D02*X187227Y129395D01*
X188400Y127795D02*G75*G03X191600Y127795I1600J0D01*G01*
G75*G03X188400Y127795I-1600J0D01*G01*
X200000Y117795D02*Y114595D01*
Y117795D02*X202773Y119395D01*
X200000Y117795D02*X197227Y119395D01*
X198400Y117795D02*G75*G03X201600Y117795I1600J0D01*G01*
G75*G03X198400Y117795I-1600J0D01*G01*
X200000Y127795D02*Y124595D01*
Y127795D02*X202773Y129395D01*
X200000Y127795D02*X197227Y129395D01*
X198400Y127795D02*G75*G03X201600Y127795I1600J0D01*G01*
G75*G03X198400Y127795I-1600J0D01*G01*
X190000Y102795D02*Y99595D01*
Y102795D02*X192773Y104395D01*
X190000Y102795D02*X187227Y104395D01*
X188400Y102795D02*G75*G03X191600Y102795I1600J0D01*G01*
G75*G03X188400Y102795I-1600J0D01*G01*
X190000Y92795D02*Y89595D01*
Y92795D02*X192773Y94395D01*
X190000Y92795D02*X187227Y94395D01*
X188400Y92795D02*G75*G03X191600Y92795I1600J0D01*G01*
G75*G03X188400Y92795I-1600J0D01*G01*
X15000Y164045D02*Y160845D01*
Y164045D02*X17773Y165645D01*
X15000Y164045D02*X12227Y165645D01*
X13400Y164045D02*G75*G03X16600Y164045I1600J0D01*G01*
G75*G03X13400Y164045I-1600J0D01*G01*
X135000Y166295D02*X136500Y163295D01*
X138000Y166295D01*
X136500Y163295D02*Y160295D01*
X139800Y163595D02*X142050D01*
X139800Y160295D02*X142800D01*
X139800Y166295D02*Y160295D01*
Y166295D02*X142800D01*
X147600D02*X148350Y165545D01*
X145350Y166295D02*X147600D01*
X144600Y165545D02*X145350Y166295D01*
X144600Y165545D02*Y164045D01*
X145350Y163295D01*
X147600D01*
X148350Y162545D01*
Y161045D01*
X147600Y160295D02*X148350Y161045D01*
X145350Y160295D02*X147600D01*
X144600Y161045D02*X145350Y160295D01*
X98000Y165095D02*X99200Y166295D01*
Y160295D01*
X98000D02*X100250D01*
X102050Y161045D02*X102800Y160295D01*
X102050Y162245D02*Y161045D01*
Y162245D02*X103100Y163295D01*
X104000D01*
X105050Y162245D01*
Y161045D01*
X104300Y160295D02*X105050Y161045D01*
X102800Y160295D02*X104300D01*
X102050Y164345D02*X103100Y163295D01*
X102050Y165545D02*Y164345D01*
Y165545D02*X102800Y166295D01*
X104300D01*
X105050Y165545D01*
Y164345D01*
X104000Y163295D02*X105050Y164345D01*
X45000Y161045D02*X45750Y160295D01*
X45000Y165545D02*Y161045D01*
Y165545D02*X45750Y166295D01*
X47250D01*
X48000Y165545D01*
Y161045D01*
X47250Y160295D02*X48000Y161045D01*
X45750Y160295D02*X47250D01*
X45000Y161795D02*X48000Y164795D01*
X49800Y160295D02*X50550D01*
X52350Y161045D02*X53100Y160295D01*
X52350Y165545D02*Y161045D01*
Y165545D02*X53100Y166295D01*
X54600D01*
X55350Y165545D01*
Y161045D01*
X54600Y160295D02*X55350Y161045D01*
X53100Y160295D02*X54600D01*
X52350Y161795D02*X55350Y164795D01*
X57150Y165545D02*X57900Y166295D01*
X59400D01*
X60150Y165545D01*
X59400Y160295D02*X60150Y161045D01*
X57900Y160295D02*X59400D01*
X57150Y161045D02*X57900Y160295D01*
Y163595D02*X59400D01*
X60150Y165545D02*Y164345D01*
Y162845D02*Y161045D01*
Y162845D02*X59400Y163595D01*
X60150Y164345D02*X59400Y163595D01*
X61950Y161045D02*X62700Y160295D01*
X61950Y162245D02*Y161045D01*
Y162245D02*X63000Y163295D01*
X63900D01*
X64950Y162245D01*
Y161045D01*
X64200Y160295D02*X64950Y161045D01*
X62700Y160295D02*X64200D01*
X61950Y164345D02*X63000Y163295D01*
X61950Y165545D02*Y164345D01*
Y165545D02*X62700Y166295D01*
X64200D01*
X64950Y165545D01*
Y164345D01*
X63900Y163295D02*X64950Y164345D01*
X76353Y19907D02*X79553D01*
X76353D02*Y16707D01*
X79553D01*
Y19907D02*Y16707D01*
X169266Y36876D02*X172466D01*
X169266D02*Y33676D01*
X172466D01*
Y36876D02*Y33676D01*
X146431Y28411D02*X149631D01*
X146431D02*Y25211D01*
X149631D01*
Y28411D02*Y25211D01*
X129109Y28411D02*X132309D01*
X129109D02*Y25211D01*
X132309D01*
Y28411D02*Y25211D01*
X13400Y180645D02*X16600D01*
X13400D02*Y177445D01*
X16600D01*
Y180645D02*Y177445D01*
X135000Y181295D02*X136500Y178295D01*
X138000Y181295D01*
X136500Y178295D02*Y175295D01*
X139800Y178595D02*X142050D01*
X139800Y175295D02*X142800D01*
X139800Y181295D02*Y175295D01*
Y181295D02*X142800D01*
X147600D02*X148350Y180545D01*
X145350Y181295D02*X147600D01*
X144600Y180545D02*X145350Y181295D01*
X144600Y180545D02*Y179045D01*
X145350Y178295D01*
X147600D01*
X148350Y177545D01*
Y176045D01*
X147600Y175295D02*X148350Y176045D01*
X145350Y175295D02*X147600D01*
X144600Y176045D02*X145350Y175295D01*
X98000Y177545D02*X101000Y181295D01*
X98000Y177545D02*X101750D01*
X101000Y181295D02*Y175295D01*
X45000Y176045D02*X45750Y175295D01*
X45000Y180545D02*Y176045D01*
Y180545D02*X45750Y181295D01*
X47250D01*
X48000Y180545D01*
Y176045D01*
X47250Y175295D02*X48000Y176045D01*
X45750Y175295D02*X47250D01*
X45000Y176795D02*X48000Y179795D01*
X49800Y175295D02*X50550D01*
X52350Y176045D02*X53100Y175295D01*
X52350Y180545D02*Y176045D01*
Y180545D02*X53100Y181295D01*
X54600D01*
X55350Y180545D01*
Y176045D01*
X54600Y175295D02*X55350Y176045D01*
X53100Y175295D02*X54600D01*
X52350Y176795D02*X55350Y179795D01*
X57150Y180545D02*X57900Y181295D01*
X59400D01*
X60150Y180545D01*
X59400Y175295D02*X60150Y176045D01*
X57900Y175295D02*X59400D01*
X57150Y176045D02*X57900Y175295D01*
Y178595D02*X59400D01*
X60150Y180545D02*Y179345D01*
Y177845D02*Y176045D01*
Y177845D02*X59400Y178595D01*
X60150Y179345D02*X59400Y178595D01*
X61950Y181295D02*X64950D01*
X61950D02*Y178295D01*
X62700Y179045D01*
X64200D01*
X64950Y178295D01*
Y176045D01*
X64200Y175295D02*X64950Y176045D01*
X62700Y175295D02*X64200D01*
X61950Y176045D02*X62700Y175295D01*
X26365Y18346D02*G75*G03X27965Y18346I800J0D01*G01*
G75*G03X26365Y18346I-800J0D01*G01*
X34239D02*G75*G03X35839Y18346I800J0D01*G01*
G75*G03X34239Y18346I-800J0D01*G01*
X15735Y63622D02*G75*G03X17335Y63622I800J0D01*G01*
G75*G03X15735Y63622I-800J0D01*G01*
Y55748D02*G75*G03X17335Y55748I800J0D01*G01*
G75*G03X15735Y55748I-800J0D01*G01*
Y47874D02*G75*G03X17335Y47874I800J0D01*G01*
G75*G03X15735Y47874I-800J0D01*G01*
Y40000D02*G75*G03X17335Y40000I800J0D01*G01*
G75*G03X15735Y40000I-800J0D01*G01*
Y32126D02*G75*G03X17335Y32126I800J0D01*G01*
G75*G03X15735Y32126I-800J0D01*G01*
Y24252D02*G75*G03X17335Y24252I800J0D01*G01*
G75*G03X15735Y24252I-800J0D01*G01*
X57861Y18346D02*G75*G03X59461Y18346I800J0D01*G01*
G75*G03X57861Y18346I-800J0D01*G01*
X65735D02*G75*G03X67335Y18346I800J0D01*G01*
G75*G03X65735Y18346I-800J0D01*G01*
X42113D02*G75*G03X43713Y18346I800J0D01*G01*
G75*G03X42113Y18346I-800J0D01*G01*
X49987D02*G75*G03X51587Y18346I800J0D01*G01*
G75*G03X49987Y18346I-800J0D01*G01*
X14200Y194045D02*G75*G03X15800Y194045I800J0D01*G01*
G75*G03X14200Y194045I-800J0D01*G01*
X135000Y196295D02*X136500Y193295D01*
X138000Y196295D01*
X136500Y193295D02*Y190295D01*
X139800Y193595D02*X142050D01*
X139800Y190295D02*X142800D01*
X139800Y196295D02*Y190295D01*
Y196295D02*X142800D01*
X147600D02*X148350Y195545D01*
X145350Y196295D02*X147600D01*
X144600Y195545D02*X145350Y196295D01*
X144600Y195545D02*Y194045D01*
X145350Y193295D01*
X147600D01*
X148350Y192545D01*
Y191045D01*
X147600Y190295D02*X148350Y191045D01*
X145350Y190295D02*X147600D01*
X144600Y191045D02*X145350Y190295D01*
X98000Y195095D02*X99200Y196295D01*
Y190295D01*
X98000D02*X100250D01*
X102050Y195545D02*X102800Y196295D01*
X105050D01*
X105800Y195545D01*
Y194045D01*
X102050Y190295D02*X105800Y194045D01*
X102050Y190295D02*X105800D01*
X45000Y191045D02*X45750Y190295D01*
X45000Y195545D02*Y191045D01*
Y195545D02*X45750Y196295D01*
X47250D01*
X48000Y195545D01*
Y191045D01*
X47250Y190295D02*X48000Y191045D01*
X45750Y190295D02*X47250D01*
X45000Y191795D02*X48000Y194795D01*
X49800Y190295D02*X50550D01*
X52350Y191045D02*X53100Y190295D01*
X52350Y195545D02*Y191045D01*
Y195545D02*X53100Y196295D01*
X54600D01*
X55350Y195545D01*
Y191045D01*
X54600Y190295D02*X55350Y191045D01*
X53100Y190295D02*X54600D01*
X52350Y191795D02*X55350Y194795D01*
X57150Y195545D02*X57900Y196295D01*
X59400D01*
X60150Y195545D01*
X59400Y190295D02*X60150Y191045D01*
X57900Y190295D02*X59400D01*
X57150Y191045D02*X57900Y190295D01*
Y193595D02*X59400D01*
X60150Y195545D02*Y194345D01*
Y192845D02*Y191045D01*
Y192845D02*X59400Y193595D01*
X60150Y194345D02*X59400Y193595D01*
X61950Y195095D02*X63150Y196295D01*
Y190295D01*
X61950D02*X64200D01*
X91713Y25452D02*X94113Y23052D01*
X91713D02*X94113Y25452D01*
X95650D02*X98050Y23052D01*
X95650D02*X98050Y25452D01*
X99587D02*X101987Y23052D01*
X99587D02*X101987Y25452D01*
X103524D02*X105924Y23052D01*
X103524D02*X105924Y25452D01*
X107461D02*X109861Y23052D01*
X107461D02*X109861Y25452D01*
X111398D02*X113798Y23052D01*
X111398D02*X113798Y25452D01*
X13800Y210245D02*X16200Y207845D01*
X13800D02*X16200Y210245D01*
X135000Y211295D02*X136500Y208295D01*
X138000Y211295D01*
X136500Y208295D02*Y205295D01*
X139800Y208595D02*X142050D01*
X139800Y205295D02*X142800D01*
X139800Y211295D02*Y205295D01*
Y211295D02*X142800D01*
X147600D02*X148350Y210545D01*
X145350Y211295D02*X147600D01*
X144600Y210545D02*X145350Y211295D01*
X144600Y210545D02*Y209045D01*
X145350Y208295D01*
X147600D01*
X148350Y207545D01*
Y206045D01*
X147600Y205295D02*X148350Y206045D01*
X145350Y205295D02*X147600D01*
X144600Y206045D02*X145350Y205295D01*
X100250Y211295D02*X101000Y210545D01*
X98750Y211295D02*X100250D01*
X98000Y210545D02*X98750Y211295D01*
X98000Y210545D02*Y206045D01*
X98750Y205295D01*
X100250Y208595D02*X101000Y207845D01*
X98000Y208595D02*X100250D01*
X98750Y205295D02*X100250D01*
X101000Y206045D01*
Y207845D02*Y206045D01*
X45000D02*X45750Y205295D01*
X45000Y210545D02*Y206045D01*
Y210545D02*X45750Y211295D01*
X47250D01*
X48000Y210545D01*
Y206045D01*
X47250Y205295D02*X48000Y206045D01*
X45750Y205295D02*X47250D01*
X45000Y206795D02*X48000Y209795D01*
X49800Y205295D02*X50550D01*
X52350Y206045D02*X53100Y205295D01*
X52350Y210545D02*Y206045D01*
Y210545D02*X53100Y211295D01*
X54600D01*
X55350Y210545D01*
Y206045D01*
X54600Y205295D02*X55350Y206045D01*
X53100Y205295D02*X54600D01*
X52350Y206795D02*X55350Y209795D01*
X57150Y210545D02*X57900Y211295D01*
X60150D01*
X60900Y210545D01*
Y209045D01*
X57150Y205295D02*X60900Y209045D01*
X57150Y205295D02*X60900D01*
X62700Y207545D02*X65700Y211295D01*
X62700Y207545D02*X66450D01*
X65700Y211295D02*Y205295D01*
X50787Y58726D02*Y55526D01*
X49187Y57126D02*X52387D01*
X15000Y225645D02*Y222445D01*
X13400Y224045D02*X16600D01*
X135000Y226295D02*X136500Y223295D01*
X138000Y226295D01*
X136500Y223295D02*Y220295D01*
X139800Y223595D02*X142050D01*
X139800Y220295D02*X142800D01*
X139800Y226295D02*Y220295D01*
Y226295D02*X142800D01*
X147600D02*X148350Y225545D01*
X145350Y226295D02*X147600D01*
X144600Y225545D02*X145350Y226295D01*
X144600Y225545D02*Y224045D01*
X145350Y223295D01*
X147600D01*
X148350Y222545D01*
Y221045D01*
X147600Y220295D02*X148350Y221045D01*
X145350Y220295D02*X147600D01*
X144600Y221045D02*X145350Y220295D01*
X98000Y225095D02*X99200Y226295D01*
Y220295D01*
X98000D02*X100250D01*
X45000Y221045D02*X45750Y220295D01*
X45000Y225545D02*Y221045D01*
Y225545D02*X45750Y226295D01*
X47250D01*
X48000Y225545D01*
Y221045D01*
X47250Y220295D02*X48000Y221045D01*
X45750Y220295D02*X47250D01*
X45000Y221795D02*X48000Y224795D01*
X49800Y220295D02*X50550D01*
X52350Y221045D02*X53100Y220295D01*
X52350Y225545D02*Y221045D01*
Y225545D02*X53100Y226295D01*
X54600D01*
X55350Y225545D01*
Y221045D01*
X54600Y220295D02*X55350Y221045D01*
X53100Y220295D02*X54600D01*
X52350Y221795D02*X55350Y224795D01*
X57150Y225545D02*X57900Y226295D01*
X60150D01*
X60900Y225545D01*
Y224045D01*
X57150Y220295D02*X60900Y224045D01*
X57150Y220295D02*X60900D01*
X62700Y221045D02*X63450Y220295D01*
X62700Y225545D02*Y221045D01*
Y225545D02*X63450Y226295D01*
X64950D01*
X65700Y225545D01*
Y221045D01*
X64950Y220295D02*X65700Y221045D01*
X63450Y220295D02*X64950D01*
X62700Y221795D02*X65700Y224795D01*
X85039Y72677D02*Y71077D01*
Y72677D02*X86426Y73477D01*
X85039Y72677D02*X83653Y73477D01*
X109449Y93150D02*Y91550D01*
Y93150D02*X110835Y93950D01*
X109449Y93150D02*X108062Y93950D01*
X33858Y113583D02*Y111983D01*
Y113583D02*X35245Y114383D01*
X33858Y113583D02*X32472Y114383D01*
X33465Y90984D02*Y89384D01*
Y90984D02*X34851Y91784D01*
X33465Y90984D02*X32078Y91784D01*
X61024Y112441D02*Y110841D01*
Y112441D02*X62410Y113241D01*
X61024Y112441D02*X59637Y113241D01*
X127559Y47874D02*Y46274D01*
Y47874D02*X128946Y48674D01*
X127559Y47874D02*X126172Y48674D01*
X98622Y88228D02*Y86628D01*
Y88228D02*X100009Y89028D01*
X98622Y88228D02*X97235Y89028D01*
X117913Y127992D02*Y126392D01*
Y127992D02*X119300Y128792D01*
X117913Y127992D02*X116527Y128792D01*
X92520Y127598D02*Y125998D01*
Y127598D02*X93906Y128398D01*
X92520Y127598D02*X91133Y128398D01*
X97835Y127598D02*Y125998D01*
Y127598D02*X99221Y128398D01*
X97835Y127598D02*X96448Y128398D01*
X87402Y124646D02*Y123046D01*
Y124646D02*X88788Y125446D01*
X87402Y124646D02*X86015Y125446D01*
X92717Y123268D02*Y121668D01*
Y123268D02*X94103Y124068D01*
X92717Y123268D02*X91330Y124068D01*
X122638Y98268D02*Y96668D01*
Y98268D02*X124024Y99068D01*
X122638Y98268D02*X121251Y99068D01*
X107480Y72480D02*Y70880D01*
Y72480D02*X108867Y73280D01*
X107480Y72480D02*X106094Y73280D01*
X138780Y25039D02*Y23439D01*
Y25039D02*X140166Y25839D01*
X138780Y25039D02*X137393Y25839D01*
X48622Y34094D02*Y32494D01*
Y34094D02*X50009Y34894D01*
X48622Y34094D02*X47235Y34894D01*
X49606Y79173D02*Y77573D01*
Y79173D02*X50993Y79973D01*
X49606Y79173D02*X48220Y79973D01*
X112598Y124646D02*Y123046D01*
Y124646D02*X113985Y125446D01*
X112598Y124646D02*X111212Y125446D01*
X76772Y124055D02*Y122455D01*
Y124055D02*X78158Y124855D01*
X76772Y124055D02*X75385Y124855D01*
X74409Y102205D02*Y100605D01*
Y102205D02*X75796Y103005D01*
X74409Y102205D02*X73023Y103005D01*
X140157Y48661D02*Y47061D01*
Y48661D02*X141544Y49461D01*
X140157Y48661D02*X138771Y49461D01*
X88976Y69134D02*Y67534D01*
Y69134D02*X90363Y69934D01*
X88976Y69134D02*X87590Y69934D01*
X122835Y88425D02*Y86825D01*
Y88425D02*X124221Y89225D01*
X122835Y88425D02*X121448Y89225D01*
X111024Y82126D02*Y80526D01*
Y82126D02*X112410Y82926D01*
X111024Y82126D02*X109637Y82926D01*
X53150Y95315D02*Y93715D01*
Y95315D02*X54536Y96115D01*
X53150Y95315D02*X51763Y96115D01*
X43307Y101575D02*Y99975D01*
Y101575D02*X44694Y102375D01*
X43307Y101575D02*X41920Y102375D01*
X37008Y101575D02*Y99975D01*
Y101575D02*X38395Y102375D01*
X37008Y101575D02*X35621Y102375D01*
X25787Y116339D02*Y114739D01*
Y116339D02*X27174Y117139D01*
X25787Y116339D02*X24401Y117139D01*
X107480Y65197D02*Y63597D01*
Y65197D02*X108867Y65997D01*
X107480Y65197D02*X106094Y65997D01*
X109449Y63031D02*Y61431D01*
Y63031D02*X110835Y63831D01*
X109449Y63031D02*X108062Y63831D01*
X105512Y67362D02*Y65762D01*
Y67362D02*X106898Y68162D01*
X105512Y67362D02*X104125Y68162D01*
X139173Y91772D02*Y90172D01*
Y91772D02*X140560Y92572D01*
X139173Y91772D02*X137787Y92572D01*
X139173Y83898D02*Y82298D01*
Y83898D02*X140560Y84698D01*
X139173Y83898D02*X137787Y84698D01*
X160236Y79567D02*Y77967D01*
Y79567D02*X161623Y80367D01*
X160236Y79567D02*X158850Y80367D01*
X159449Y68150D02*Y66550D01*
Y68150D02*X160835Y68950D01*
X159449Y68150D02*X158062Y68950D01*
X178346Y73858D02*Y72258D01*
Y73858D02*X179733Y74658D01*
X178346Y73858D02*X176960Y74658D01*
X49606Y71496D02*Y69896D01*
Y71496D02*X50993Y72296D01*
X49606Y71496D02*X48220Y72296D01*
X28737Y79373D02*Y77773D01*
Y79373D02*X30124Y80173D01*
X28737Y79373D02*X27350Y80173D01*
X58268Y128583D02*Y126983D01*
Y128583D02*X59654Y129383D01*
X58268Y128583D02*X56881Y129383D01*
X77756Y118150D02*Y116550D01*
Y118150D02*X79143Y118950D01*
X77756Y118150D02*X76369Y118950D01*
X69094Y102598D02*Y100998D01*
Y102598D02*X70481Y103398D01*
X69094Y102598D02*X67708Y103398D01*
X72638Y94921D02*Y93321D01*
Y94921D02*X74024Y95721D01*
X72638Y94921D02*X71251Y95721D01*
X148622Y125433D02*Y123833D01*
Y125433D02*X150009Y126233D01*
X148622Y125433D02*X147235Y126233D01*
X150984Y128189D02*Y126589D01*
Y128189D02*X152371Y128989D01*
X150984Y128189D02*X149598Y128989D01*
X37008Y105157D02*Y103557D01*
Y105157D02*X38395Y105957D01*
X37008Y105157D02*X35621Y105957D01*
X40157Y105157D02*Y103557D01*
Y105157D02*X41544Y105957D01*
X40157Y105157D02*X38771Y105957D01*
X43307Y105157D02*Y103557D01*
Y105157D02*X44694Y105957D01*
X43307Y105157D02*X41920Y105957D01*
X37008Y98071D02*Y96471D01*
Y98071D02*X38395Y98871D01*
X37008Y98071D02*X35621Y98871D01*
X40157Y98071D02*Y96471D01*
Y98071D02*X41544Y98871D01*
X40157Y98071D02*X38771Y98871D01*
X132677Y118150D02*Y116550D01*
Y118150D02*X134064Y118950D01*
X132677Y118150D02*X131290Y118950D01*
X112008Y89803D02*Y88203D01*
Y89803D02*X113395Y90603D01*
X112008Y89803D02*X110621Y90603D01*
X114173Y93150D02*Y91550D01*
Y93150D02*X115560Y93950D01*
X114173Y93150D02*X112787Y93950D01*
X70472Y60669D02*Y59069D01*
Y60669D02*X71859Y61469D01*
X70472Y60669D02*X69086Y61469D01*
X77362Y57126D02*Y55526D01*
Y57126D02*X78749Y57926D01*
X77362Y57126D02*X75976Y57926D01*
X72047Y22874D02*Y21274D01*
Y22874D02*X73434Y23674D01*
X72047Y22874D02*X70661Y23674D01*
X57874Y60276D02*Y58676D01*
Y60276D02*X59261Y61076D01*
X57874Y60276D02*X56487Y61076D01*
X77756Y93150D02*Y91550D01*
Y93150D02*X79143Y93950D01*
X77756Y93150D02*X76369Y93950D01*
X150591Y51614D02*Y50014D01*
Y51614D02*X151977Y52414D01*
X150591Y51614D02*X149204Y52414D01*
X83661Y100039D02*Y98439D01*
Y100039D02*X85048Y100839D01*
X83661Y100039D02*X82275Y100839D01*
X85827Y102205D02*Y100605D01*
Y102205D02*X87213Y103005D01*
X85827Y102205D02*X84440Y103005D01*
X43307Y98071D02*Y96471D01*
Y98071D02*X44694Y98871D01*
X43307Y98071D02*X41920Y98871D01*
X15000Y239045D02*Y237445D01*
Y239045D02*X16387Y239845D01*
X15000Y239045D02*X13613Y239845D01*
X135000Y241295D02*X136500Y238295D01*
X138000Y241295D01*
X136500Y238295D02*Y235295D01*
X139800Y238595D02*X142050D01*
X139800Y235295D02*X142800D01*
X139800Y241295D02*Y235295D01*
Y241295D02*X142800D01*
X147600D02*X148350Y240545D01*
X145350Y241295D02*X147600D01*
X144600Y240545D02*X145350Y241295D01*
X144600Y240545D02*Y239045D01*
X145350Y238295D01*
X147600D01*
X148350Y237545D01*
Y236045D01*
X147600Y235295D02*X148350Y236045D01*
X145350Y235295D02*X147600D01*
X144600Y236045D02*X145350Y235295D01*
X100250Y241295D02*X101000Y240545D01*
X98750Y241295D02*X100250D01*
X98000Y240545D02*X98750Y241295D01*
X98000Y240545D02*Y236045D01*
X98750Y235295D01*
X100250Y238595D02*X101000Y237845D01*
X98000Y238595D02*X100250D01*
X98750Y235295D02*X100250D01*
X101000Y236045D01*
Y237845D02*Y236045D01*
X102800Y240095D02*X104000Y241295D01*
Y235295D01*
X102800D02*X105050D01*
X45000Y236045D02*X45750Y235295D01*
X45000Y240545D02*Y236045D01*
Y240545D02*X45750Y241295D01*
X47250D01*
X48000Y240545D01*
Y236045D01*
X47250Y235295D02*X48000Y236045D01*
X45750Y235295D02*X47250D01*
X45000Y236795D02*X48000Y239795D01*
X49800Y235295D02*X50550D01*
X52350Y236045D02*X53100Y235295D01*
X52350Y240545D02*Y236045D01*
Y240545D02*X53100Y241295D01*
X54600D01*
X55350Y240545D01*
Y236045D01*
X54600Y235295D02*X55350Y236045D01*
X53100Y235295D02*X54600D01*
X52350Y236795D02*X55350Y239795D01*
X57150Y240095D02*X58350Y241295D01*
Y235295D01*
X57150D02*X59400D01*
X61200Y240545D02*X61950Y241295D01*
X64200D01*
X64950Y240545D01*
Y239045D01*
X61200Y235295D02*X64950Y239045D01*
X61200Y235295D02*X64950D01*
X3000Y256295D02*X3750Y255545D01*
X750Y256295D02*X3000D01*
X0Y255545D02*X750Y256295D01*
X0Y255545D02*Y254045D01*
X750Y253295D01*
X3000D01*
X3750Y252545D01*
Y251045D01*
X3000Y250295D02*X3750Y251045D01*
X750Y250295D02*X3000D01*
X0Y251045D02*X750Y250295D01*
X5550Y253295D02*Y251045D01*
X6300Y250295D01*
X8550Y253295D02*Y248795D01*
X7800Y248045D02*X8550Y248795D01*
X6300Y248045D02*X7800D01*
X5550Y248795D02*X6300Y248045D01*
Y250295D02*X7800D01*
X8550Y251045D01*
X11100Y252545D02*Y250295D01*
Y252545D02*X11850Y253295D01*
X12600D01*
X13350Y252545D01*
Y250295D01*
Y252545D02*X14100Y253295D01*
X14850D01*
X15600Y252545D01*
Y250295D01*
X10350Y253295D02*X11100Y252545D01*
X17400Y256295D02*Y250295D01*
Y251045D02*X18150Y250295D01*
X19650D01*
X20400Y251045D01*
Y252545D02*Y251045D01*
X19650Y253295D02*X20400Y252545D01*
X18150Y253295D02*X19650D01*
X17400Y252545D02*X18150Y253295D01*
X22200Y252545D02*Y251045D01*
Y252545D02*X22950Y253295D01*
X24450D01*
X25200Y252545D01*
Y251045D01*
X24450Y250295D02*X25200Y251045D01*
X22950Y250295D02*X24450D01*
X22200Y251045D02*X22950Y250295D01*
X27000Y256295D02*Y251045D01*
X27750Y250295D01*
X0Y247045D02*X29250D01*
X41750Y256295D02*Y250295D01*
X43700Y256295D02*X44750Y255245D01*
Y251345D01*
X43700Y250295D02*X44750Y251345D01*
X41000Y250295D02*X43700D01*
X41000Y256295D02*X43700D01*
X46550Y254795D02*Y254645D01*
Y252545D02*Y250295D01*
X50300Y253295D02*X51050Y252545D01*
X48800Y253295D02*X50300D01*
X48050Y252545D02*X48800Y253295D01*
X48050Y252545D02*Y251045D01*
X48800Y250295D01*
X51050Y253295D02*Y251045D01*
X51800Y250295D01*
X48800D02*X50300D01*
X51050Y251045D01*
X54350Y252545D02*Y250295D01*
Y252545D02*X55100Y253295D01*
X55850D01*
X56600Y252545D01*
Y250295D01*
Y252545D02*X57350Y253295D01*
X58100D01*
X58850Y252545D01*
Y250295D01*
X53600Y253295D02*X54350Y252545D01*
X60650Y250295D02*X61400D01*
X65900Y251045D02*X66650Y250295D01*
X65900Y255545D02*X66650Y256295D01*
X65900Y255545D02*Y251045D01*
X68450Y256295D02*X69950D01*
X69200D02*Y250295D01*
X68450D02*X69950D01*
X72500Y252545D02*Y250295D01*
Y252545D02*X73250Y253295D01*
X74000D01*
X74750Y252545D01*
Y250295D01*
X71750Y253295D02*X72500Y252545D01*
X77300Y253295D02*X79550D01*
X76550Y252545D02*X77300Y253295D01*
X76550Y252545D02*Y251045D01*
X77300Y250295D01*
X79550D01*
X81350Y256295D02*Y250295D01*
Y252545D02*X82100Y253295D01*
X83600D01*
X84350Y252545D01*
Y250295D01*
X86150Y256295D02*X86900Y255545D01*
Y251045D01*
X86150Y250295D02*X86900Y251045D01*
X41000Y247045D02*X88700D01*
X96050Y250295D02*X98000D01*
X95000Y251345D02*X96050Y250295D01*
X95000Y255245D02*Y251345D01*
Y255245D02*X96050Y256295D01*
X98000D01*
X99800Y252545D02*Y251045D01*
Y252545D02*X100550Y253295D01*
X102050D01*
X102800Y252545D01*
Y251045D01*
X102050Y250295D02*X102800Y251045D01*
X100550Y250295D02*X102050D01*
X99800Y251045D02*X100550Y250295D01*
X104600Y253295D02*Y251045D01*
X105350Y250295D01*
X106850D01*
X107600Y251045D01*
Y253295D02*Y251045D01*
X110150Y252545D02*Y250295D01*
Y252545D02*X110900Y253295D01*
X111650D01*
X112400Y252545D01*
Y250295D01*
X109400Y253295D02*X110150Y252545D01*
X114950Y256295D02*Y251045D01*
X115700Y250295D01*
X114200Y254045D02*X115700D01*
X95000Y247045D02*X117200D01*
X130750Y256295D02*Y250295D01*
X130000Y256295D02*X133000D01*
X133750Y255545D01*
Y254045D01*
X133000Y253295D02*X133750Y254045D01*
X130750Y253295D02*X133000D01*
X135550Y256295D02*Y251045D01*
X136300Y250295D01*
X140050Y253295D02*X140800Y252545D01*
X138550Y253295D02*X140050D01*
X137800Y252545D02*X138550Y253295D01*
X137800Y252545D02*Y251045D01*
X138550Y250295D01*
X140800Y253295D02*Y251045D01*
X141550Y250295D01*
X138550D02*X140050D01*
X140800Y251045D01*
X144100Y256295D02*Y251045D01*
X144850Y250295D01*
X143350Y254045D02*X144850D01*
X147100Y250295D02*X149350D01*
X146350Y251045D02*X147100Y250295D01*
X146350Y252545D02*Y251045D01*
Y252545D02*X147100Y253295D01*
X148600D01*
X149350Y252545D01*
X146350Y251795D02*X149350D01*
Y252545D02*Y251795D01*
X154150Y256295D02*Y250295D01*
X153400D02*X154150Y251045D01*
X151900Y250295D02*X153400D01*
X151150Y251045D02*X151900Y250295D01*
X151150Y252545D02*Y251045D01*
Y252545D02*X151900Y253295D01*
X153400D01*
X154150Y252545D01*
X157450Y253295D02*Y252545D01*
Y251045D02*Y250295D01*
X155950Y255545D02*Y254795D01*
Y255545D02*X156700Y256295D01*
X158200D01*
X158950Y255545D01*
Y254795D01*
X157450Y253295D02*X158950Y254795D01*
X130000Y247045D02*X160750D01*
X0Y271295D02*X3000D01*
X1500D02*Y265295D01*
X4800Y271295D02*Y265295D01*
Y267545D02*X5550Y268295D01*
X7050D01*
X7800Y267545D01*
Y265295D01*
X10350D02*X12600D01*
X9600Y266045D02*X10350Y265295D01*
X9600Y267545D02*Y266045D01*
Y267545D02*X10350Y268295D01*
X11850D01*
X12600Y267545D01*
X9600Y266795D02*X12600D01*
Y267545D02*Y266795D01*
X15150Y267545D02*Y265295D01*
Y267545D02*X15900Y268295D01*
X17400D01*
X14400D02*X15150Y267545D01*
X19950Y265295D02*X22200D01*
X19200Y266045D02*X19950Y265295D01*
X19200Y267545D02*Y266045D01*
Y267545D02*X19950Y268295D01*
X21450D01*
X22200Y267545D01*
X19200Y266795D02*X22200D01*
Y267545D02*Y266795D01*
X28950Y268295D02*X29700Y267545D01*
X27450Y268295D02*X28950D01*
X26700Y267545D02*X27450Y268295D01*
X26700Y267545D02*Y266045D01*
X27450Y265295D01*
X29700Y268295D02*Y266045D01*
X30450Y265295D01*
X27450D02*X28950D01*
X29700Y266045D01*
X33000Y267545D02*Y265295D01*
Y267545D02*X33750Y268295D01*
X35250D01*
X32250D02*X33000Y267545D01*
X37800Y265295D02*X40050D01*
X37050Y266045D02*X37800Y265295D01*
X37050Y267545D02*Y266045D01*
Y267545D02*X37800Y268295D01*
X39300D01*
X40050Y267545D01*
X37050Y266795D02*X40050D01*
Y267545D02*Y266795D01*
X45300Y265295D02*X48300Y271295D01*
X44550D02*X48300D01*
X55800D02*Y265295D01*
X55050D02*X55800Y266045D01*
X53550Y265295D02*X55050D01*
X52800Y266045D02*X53550Y265295D01*
X52800Y267545D02*Y266045D01*
Y267545D02*X53550Y268295D01*
X55050D01*
X55800Y267545D01*
X57600Y269795D02*Y269645D01*
Y267545D02*Y265295D01*
X59850Y270545D02*Y265295D01*
Y270545D02*X60600Y271295D01*
X61350D01*
X59100Y268295D02*X60600D01*
X63600Y270545D02*Y265295D01*
Y270545D02*X64350Y271295D01*
X65100D01*
X62850Y268295D02*X64350D01*
X67350Y265295D02*X69600D01*
X66600Y266045D02*X67350Y265295D01*
X66600Y267545D02*Y266045D01*
Y267545D02*X67350Y268295D01*
X68850D01*
X69600Y267545D01*
X66600Y266795D02*X69600D01*
Y267545D02*Y266795D01*
X72150Y267545D02*Y265295D01*
Y267545D02*X72900Y268295D01*
X74400D01*
X71400D02*X72150Y267545D01*
X76950Y265295D02*X79200D01*
X76200Y266045D02*X76950Y265295D01*
X76200Y267545D02*Y266045D01*
Y267545D02*X76950Y268295D01*
X78450D01*
X79200Y267545D01*
X76200Y266795D02*X79200D01*
Y267545D02*Y266795D01*
X81750Y267545D02*Y265295D01*
Y267545D02*X82500Y268295D01*
X83250D01*
X84000Y267545D01*
Y265295D01*
X81000Y268295D02*X81750Y267545D01*
X86550Y271295D02*Y266045D01*
X87300Y265295D01*
X85800Y269045D02*X87300D01*
X94500Y271295D02*Y265295D01*
X93750D02*X94500Y266045D01*
X92250Y265295D02*X93750D01*
X91500Y266045D02*X92250Y265295D01*
X91500Y267545D02*Y266045D01*
Y267545D02*X92250Y268295D01*
X93750D01*
X94500Y267545D01*
X97050D02*Y265295D01*
Y267545D02*X97800Y268295D01*
X99300D01*
X96300D02*X97050Y267545D01*
X101100Y269795D02*Y269645D01*
Y267545D02*Y265295D01*
X102600Y271295D02*Y266045D01*
X103350Y265295D01*
X104850Y271295D02*Y266045D01*
X105600Y265295D01*
X110550D02*X112800D01*
X113550Y266045D01*
X112800Y266795D02*X113550Y266045D01*
X110550Y266795D02*X112800D01*
X109800Y267545D02*X110550Y266795D01*
X109800Y267545D02*X110550Y268295D01*
X112800D01*
X113550Y267545D01*
X109800Y266045D02*X110550Y265295D01*
X115350Y269795D02*Y269645D01*
Y267545D02*Y265295D01*
X116850Y268295D02*X119850D01*
X116850Y265295D02*X119850Y268295D01*
X116850Y265295D02*X119850D01*
X122400D02*X124650D01*
X121650Y266045D02*X122400Y265295D01*
X121650Y267545D02*Y266045D01*
Y267545D02*X122400Y268295D01*
X123900D01*
X124650Y267545D01*
X121650Y266795D02*X124650D01*
Y267545D02*Y266795D01*
X127200Y265295D02*X129450D01*
X130200Y266045D01*
X129450Y266795D02*X130200Y266045D01*
X127200Y266795D02*X129450D01*
X126450Y267545D02*X127200Y266795D01*
X126450Y267545D02*X127200Y268295D01*
X129450D01*
X130200Y267545D01*
X126450Y266045D02*X127200Y265295D01*
X134700Y268295D02*Y266045D01*
X135450Y265295D01*
X136950D01*
X137700Y266045D01*
Y268295D02*Y266045D01*
X140250Y265295D02*X142500D01*
X143250Y266045D01*
X142500Y266795D02*X143250Y266045D01*
X140250Y266795D02*X142500D01*
X139500Y267545D02*X140250Y266795D01*
X139500Y267545D02*X140250Y268295D01*
X142500D01*
X143250Y267545D01*
X139500Y266045D02*X140250Y265295D01*
X145800D02*X148050D01*
X145050Y266045D02*X145800Y265295D01*
X145050Y267545D02*Y266045D01*
Y267545D02*X145800Y268295D01*
X147300D01*
X148050Y267545D01*
X145050Y266795D02*X148050D01*
Y267545D02*Y266795D01*
X152850Y271295D02*Y265295D01*
X152100D02*X152850Y266045D01*
X150600Y265295D02*X152100D01*
X149850Y266045D02*X150600Y265295D01*
X149850Y267545D02*Y266045D01*
Y267545D02*X150600Y268295D01*
X152100D01*
X152850Y267545D01*
X157350Y269795D02*Y269645D01*
Y267545D02*Y265295D01*
X159600Y267545D02*Y265295D01*
Y267545D02*X160350Y268295D01*
X161100D01*
X161850Y267545D01*
Y265295D01*
X158850Y268295D02*X159600Y267545D01*
X167100Y271295D02*Y266045D01*
X167850Y265295D01*
X166350Y269045D02*X167850D01*
X169350Y271295D02*Y265295D01*
Y267545D02*X170100Y268295D01*
X171600D01*
X172350Y267545D01*
Y265295D01*
X174150Y269795D02*Y269645D01*
Y267545D02*Y265295D01*
X176400D02*X178650D01*
X179400Y266045D01*
X178650Y266795D02*X179400Y266045D01*
X176400Y266795D02*X178650D01*
X175650Y267545D02*X176400Y266795D01*
X175650Y267545D02*X176400Y268295D01*
X178650D01*
X179400Y267545D01*
X175650Y266045D02*X176400Y265295D01*
X183900Y271295D02*Y266045D01*
X184650Y265295D01*
X188400Y268295D02*X189150Y267545D01*
X186900Y268295D02*X188400D01*
X186150Y267545D02*X186900Y268295D01*
X186150Y267545D02*Y266045D01*
X186900Y265295D01*
X189150Y268295D02*Y266045D01*
X189900Y265295D01*
X186900D02*X188400D01*
X189150Y266045D01*
X191700Y268295D02*Y266045D01*
X192450Y265295D01*
X194700Y268295D02*Y263795D01*
X193950Y263045D02*X194700Y263795D01*
X192450Y263045D02*X193950D01*
X191700Y263795D02*X192450Y263045D01*
Y265295D02*X193950D01*
X194700Y266045D01*
X196500Y267545D02*Y266045D01*
Y267545D02*X197250Y268295D01*
X198750D01*
X199500Y267545D01*
Y266045D01*
X198750Y265295D02*X199500Y266045D01*
X197250Y265295D02*X198750D01*
X196500Y266045D02*X197250Y265295D01*
X201300Y268295D02*Y266045D01*
X202050Y265295D01*
X203550D01*
X204300Y266045D01*
Y268295D02*Y266045D01*
X206850Y271295D02*Y266045D01*
X207600Y265295D01*
X206100Y269045D02*X207600D01*
X209100Y263795D02*X210600Y265295D01*
X215100Y270095D02*X216300Y271295D01*
Y265295D01*
X215100D02*X217350D01*
X219150Y266045D02*X219900Y265295D01*
X219150Y270545D02*Y266045D01*
Y270545D02*X219900Y271295D01*
X221400D01*
X222150Y270545D01*
Y266045D01*
X221400Y265295D02*X222150Y266045D01*
X219900Y265295D02*X221400D01*
X219150Y266795D02*X222150Y269795D01*
X223950Y271295D02*X226950D01*
X223950D02*Y268295D01*
X224700Y269045D01*
X226200D01*
X226950Y268295D01*
Y266045D01*
X226200Y265295D02*X226950Y266045D01*
X224700Y265295D02*X226200D01*
X223950Y266045D02*X224700Y265295D01*
X231450Y271295D02*Y265295D01*
Y267545D02*X232200Y268295D01*
X233700D01*
X234450Y267545D01*
Y265295D01*
X236250Y267545D02*Y266045D01*
Y267545D02*X237000Y268295D01*
X238500D01*
X239250Y267545D01*
Y266045D01*
X238500Y265295D02*X239250Y266045D01*
X237000Y265295D02*X238500D01*
X236250Y266045D02*X237000Y265295D01*
X241050Y271295D02*Y266045D01*
X241800Y265295D01*
X244050D02*X246300D01*
X243300Y266045D02*X244050Y265295D01*
X243300Y267545D02*Y266045D01*
Y267545D02*X244050Y268295D01*
X245550D01*
X246300Y267545D01*
X243300Y266795D02*X246300D01*
Y267545D02*Y266795D01*
X248850Y265295D02*X251100D01*
X251850Y266045D01*
X251100Y266795D02*X251850Y266045D01*
X248850Y266795D02*X251100D01*
X248100Y267545D02*X248850Y266795D01*
X248100Y267545D02*X248850Y268295D01*
X251100D01*
X251850Y267545D01*
X248100Y266045D02*X248850Y265295D01*
X257100Y271295D02*Y266045D01*
X257850Y265295D01*
X256350Y269045D02*X257850D01*
X259350Y267545D02*Y266045D01*
Y267545D02*X260100Y268295D01*
X261600D01*
X262350Y267545D01*
Y266045D01*
X261600Y265295D02*X262350Y266045D01*
X260100Y265295D02*X261600D01*
X259350Y266045D02*X260100Y265295D01*
X264900Y271295D02*Y266045D01*
X265650Y265295D01*
X264150Y269045D02*X265650D01*
X269400Y268295D02*X270150Y267545D01*
X267900Y268295D02*X269400D01*
X267150Y267545D02*X267900Y268295D01*
X267150Y267545D02*Y266045D01*
X267900Y265295D01*
X270150Y268295D02*Y266045D01*
X270900Y265295D01*
X267900D02*X269400D01*
X270150Y266045D01*
X272700Y271295D02*Y266045D01*
X273450Y265295D01*
G54D146*X9843Y134488D02*Y11063D01*
X206693Y134488D02*Y11063D01*
X9843D02*X206693D01*
X9843Y134488D02*X206693D01*
G54D145*X21943Y-9500D02*X24943D01*
X25693Y-8750D01*
Y-6950D02*Y-8750D01*
X24943Y-6200D02*X25693Y-6950D01*
X22693Y-6200D02*X24943D01*
X22693Y-3500D02*Y-9500D01*
X21943Y-3500D02*X24943D01*
X25693Y-4250D01*
Y-5450D01*
X24943Y-6200D02*X25693Y-5450D01*
X27493Y-7250D02*Y-8750D01*
Y-7250D02*X28243Y-6500D01*
X29743D01*
X30493Y-7250D01*
Y-8750D01*
X29743Y-9500D02*X30493Y-8750D01*
X28243Y-9500D02*X29743D01*
X27493Y-8750D02*X28243Y-9500D01*
X34543Y-6500D02*X35293Y-7250D01*
X33043Y-6500D02*X34543D01*
X32293Y-7250D02*X33043Y-6500D01*
X32293Y-7250D02*Y-8750D01*
X33043Y-9500D01*
X35293Y-6500D02*Y-8750D01*
X36043Y-9500D01*
X33043D02*X34543D01*
X35293Y-8750D01*
X38593Y-7250D02*Y-9500D01*
Y-7250D02*X39343Y-6500D01*
X40843D01*
X37843D02*X38593Y-7250D01*
X45643Y-3500D02*Y-9500D01*
X44893D02*X45643Y-8750D01*
X43393Y-9500D02*X44893D01*
X42643Y-8750D02*X43393Y-9500D01*
X42643Y-7250D02*Y-8750D01*
Y-7250D02*X43393Y-6500D01*
X44893D01*
X45643Y-7250D01*
X50143D02*Y-8750D01*
Y-7250D02*X50893Y-6500D01*
X52393D01*
X53143Y-7250D01*
Y-8750D01*
X52393Y-9500D02*X53143Y-8750D01*
X50893Y-9500D02*X52393D01*
X50143Y-8750D02*X50893Y-9500D01*
X54943Y-6500D02*Y-8750D01*
X55693Y-9500D01*
X57193D01*
X57943Y-8750D01*
Y-6500D02*Y-8750D01*
X60493Y-3500D02*Y-8750D01*
X61243Y-9500D01*
X59743Y-5750D02*X61243D01*
X62743Y-3500D02*Y-8750D01*
X63493Y-9500D01*
X64993Y-5000D02*Y-5150D01*
Y-7250D02*Y-9500D01*
X67243Y-7250D02*Y-9500D01*
Y-7250D02*X67993Y-6500D01*
X68743D01*
X69493Y-7250D01*
Y-9500D01*
X66493Y-6500D02*X67243Y-7250D01*
X72043Y-9500D02*X74293D01*
X71293Y-8750D02*X72043Y-9500D01*
X71293Y-7250D02*Y-8750D01*
Y-7250D02*X72043Y-6500D01*
X73543D01*
X74293Y-7250D01*
X71293Y-8000D02*X74293D01*
Y-7250D02*Y-8000D01*
X78793Y-5000D02*Y-5150D01*
Y-7250D02*Y-9500D01*
X81043D02*X83293D01*
X84043Y-8750D01*
X83293Y-8000D02*X84043Y-8750D01*
X81043Y-8000D02*X83293D01*
X80293Y-7250D02*X81043Y-8000D01*
X80293Y-7250D02*X81043Y-6500D01*
X83293D01*
X84043Y-7250D01*
X80293Y-8750D02*X81043Y-9500D01*
X89293Y-3500D02*Y-8750D01*
X90043Y-9500D01*
X88543Y-5750D02*X90043D01*
X91543Y-3500D02*Y-9500D01*
Y-7250D02*X92293Y-6500D01*
X93793D01*
X94543Y-7250D01*
Y-9500D01*
X97093D02*X99343D01*
X96343Y-8750D02*X97093Y-9500D01*
X96343Y-7250D02*Y-8750D01*
Y-7250D02*X97093Y-6500D01*
X98593D01*
X99343Y-7250D01*
X96343Y-8000D02*X99343D01*
Y-7250D02*Y-8000D01*
X104593Y-6500D02*X106843D01*
X103843Y-7250D02*X104593Y-6500D01*
X103843Y-7250D02*Y-8750D01*
X104593Y-9500D01*
X106843D01*
X109393D02*X111643D01*
X108643Y-8750D02*X109393Y-9500D01*
X108643Y-7250D02*Y-8750D01*
Y-7250D02*X109393Y-6500D01*
X110893D01*
X111643Y-7250D01*
X108643Y-8000D02*X111643D01*
Y-7250D02*Y-8000D01*
X114193Y-7250D02*Y-9500D01*
Y-7250D02*X114943Y-6500D01*
X115693D01*
X116443Y-7250D01*
Y-9500D01*
X113443Y-6500D02*X114193Y-7250D01*
X118993Y-3500D02*Y-8750D01*
X119743Y-9500D01*
X118243Y-5750D02*X119743D01*
X121993Y-9500D02*X124243D01*
X121243Y-8750D02*X121993Y-9500D01*
X121243Y-7250D02*Y-8750D01*
Y-7250D02*X121993Y-6500D01*
X123493D01*
X124243Y-7250D01*
X121243Y-8000D02*X124243D01*
Y-7250D02*Y-8000D01*
X126793Y-7250D02*Y-9500D01*
Y-7250D02*X127543Y-6500D01*
X129043D01*
X126043D02*X126793Y-7250D01*
X130843Y-3500D02*Y-8750D01*
X131593Y-9500D01*
X133093Y-5000D02*Y-5150D01*
Y-7250D02*Y-9500D01*
X135343Y-7250D02*Y-9500D01*
Y-7250D02*X136093Y-6500D01*
X136843D01*
X137593Y-7250D01*
Y-9500D01*
X134593Y-6500D02*X135343Y-7250D01*
X140143Y-9500D02*X142393D01*
X139393Y-8750D02*X140143Y-9500D01*
X139393Y-7250D02*Y-8750D01*
Y-7250D02*X140143Y-6500D01*
X141643D01*
X142393Y-7250D01*
X139393Y-8000D02*X142393D01*
Y-7250D02*Y-8000D01*
X146893Y-7250D02*Y-8750D01*
Y-7250D02*X147643Y-6500D01*
X149143D01*
X149893Y-7250D01*
Y-8750D01*
X149143Y-9500D02*X149893Y-8750D01*
X147643Y-9500D02*X149143D01*
X146893Y-8750D02*X147643Y-9500D01*
X152443Y-4250D02*Y-9500D01*
Y-4250D02*X153193Y-3500D01*
X153943D01*
X151693Y-6500D02*X153193D01*
X158893Y-3500D02*Y-8750D01*
X159643Y-9500D01*
X158143Y-5750D02*X159643D01*
X161143Y-3500D02*Y-9500D01*
Y-7250D02*X161893Y-6500D01*
X163393D01*
X164143Y-7250D01*
Y-9500D01*
X165943Y-5000D02*Y-5150D01*
Y-7250D02*Y-9500D01*
X168193D02*X170443D01*
X171193Y-8750D01*
X170443Y-8000D02*X171193Y-8750D01*
X168193Y-8000D02*X170443D01*
X167443Y-7250D02*X168193Y-8000D01*
X167443Y-7250D02*X168193Y-6500D01*
X170443D01*
X171193Y-7250D01*
X167443Y-8750D02*X168193Y-9500D01*
X176443Y-7250D02*Y-11750D01*
X175693Y-6500D02*X176443Y-7250D01*
X177193Y-6500D01*
X178693D01*
X179443Y-7250D01*
Y-8750D01*
X178693Y-9500D02*X179443Y-8750D01*
X177193Y-9500D02*X178693D01*
X176443Y-8750D02*X177193Y-9500D01*
X183493Y-6500D02*X184243Y-7250D01*
X181993Y-6500D02*X183493D01*
X181243Y-7250D02*X181993Y-6500D01*
X181243Y-7250D02*Y-8750D01*
X181993Y-9500D01*
X184243Y-6500D02*Y-8750D01*
X184993Y-9500D01*
X181993D02*X183493D01*
X184243Y-8750D01*
X187543Y-3500D02*Y-8750D01*
X188293Y-9500D01*
X186793Y-5750D02*X188293D01*
X189793Y-3500D02*Y-9500D01*
Y-7250D02*X190543Y-6500D01*
X192043D01*
X192793Y-7250D01*
Y-9500D01*
X200750Y166295D02*Y160295D01*
X202700Y166295D02*X203750Y165245D01*
Y161345D01*
X202700Y160295D02*X203750Y161345D01*
X200000Y160295D02*X202700D01*
X200000Y166295D02*X202700D01*
X207800Y163295D02*X208550Y162545D01*
X206300Y163295D02*X207800D01*
X205550Y162545D02*X206300Y163295D01*
X205550Y162545D02*Y161045D01*
X206300Y160295D01*
X208550Y163295D02*Y161045D01*
X209300Y160295D01*
X206300D02*X207800D01*
X208550Y161045D01*
X211850Y166295D02*Y161045D01*
X212600Y160295D01*
X211100Y164045D02*X212600D01*
X214850Y160295D02*X217100D01*
X214100Y161045D02*X214850Y160295D01*
X214100Y162545D02*Y161045D01*
Y162545D02*X214850Y163295D01*
X216350D01*
X217100Y162545D01*
X214100Y161795D02*X217100D01*
Y162545D02*Y161795D01*
X218900Y164045D02*X219650D01*
X218900Y162545D02*X219650D01*
X227150Y166295D02*X227900Y165545D01*
X224900Y166295D02*X227150D01*
X224150Y165545D02*X224900Y166295D01*
X224150Y165545D02*Y164045D01*
X224900Y163295D01*
X227150D01*
X227900Y162545D01*
Y161045D01*
X227150Y160295D02*X227900Y161045D01*
X224900Y160295D02*X227150D01*
X224150Y161045D02*X224900Y160295D01*
X229700Y163295D02*Y161045D01*
X230450Y160295D01*
X231950D01*
X232700Y161045D01*
Y163295D02*Y161045D01*
X235250Y162545D02*Y160295D01*
Y162545D02*X236000Y163295D01*
X236750D01*
X237500Y162545D01*
Y160295D01*
X234500Y163295D02*X235250Y162545D01*
X242000Y166295D02*Y160295D01*
Y166295D02*X244250Y163295D01*
X246500Y166295D01*
Y160295D01*
X250550Y163295D02*X251300Y162545D01*
X249050Y163295D02*X250550D01*
X248300Y162545D02*X249050Y163295D01*
X248300Y162545D02*Y161045D01*
X249050Y160295D01*
X251300Y163295D02*Y161045D01*
X252050Y160295D01*
X249050D02*X250550D01*
X251300Y161045D01*
X253850Y163295D02*Y161045D01*
X254600Y160295D01*
X256850Y163295D02*Y158795D01*
X256100Y158045D02*X256850Y158795D01*
X254600Y158045D02*X256100D01*
X253850Y158795D02*X254600Y158045D01*
Y160295D02*X256100D01*
X256850Y161045D01*
X264050Y166295D02*X267050D01*
X264050D02*Y163295D01*
X264800Y164045D01*
X266300D01*
X267050Y163295D01*
Y161045D01*
X266300Y160295D02*X267050Y161045D01*
X264800Y160295D02*X266300D01*
X264050Y161045D02*X264800Y160295D01*
X271550Y165095D02*X272750Y166295D01*
Y160295D01*
X271550D02*X273800D01*
X275600Y161045D02*X276350Y160295D01*
X275600Y165545D02*Y161045D01*
Y165545D02*X276350Y166295D01*
X277850D01*
X278600Y165545D01*
Y161045D01*
X277850Y160295D02*X278600Y161045D01*
X276350Y160295D02*X277850D01*
X275600Y161795D02*X278600Y164795D01*
X280400Y164045D02*X281150D01*
X280400Y162545D02*X281150D01*
X282950Y161045D02*X283700Y160295D01*
X282950Y165545D02*Y161045D01*
Y165545D02*X283700Y166295D01*
X285200D01*
X285950Y165545D01*
Y161045D01*
X285200Y160295D02*X285950Y161045D01*
X283700Y160295D02*X285200D01*
X282950Y161795D02*X285950Y164795D01*
X287750Y165545D02*X288500Y166295D01*
X290000D01*
X290750Y165545D01*
X290000Y160295D02*X290750Y161045D01*
X288500Y160295D02*X290000D01*
X287750Y161045D02*X288500Y160295D01*
Y163595D02*X290000D01*
X290750Y165545D02*Y164345D01*
Y162845D02*Y161045D01*
Y162845D02*X290000Y163595D01*
X290750Y164345D02*X290000Y163595D01*
X292550Y164045D02*X293300D01*
X292550Y162545D02*X293300D01*
X295100Y165545D02*X295850Y166295D01*
X297350D01*
X298100Y165545D01*
X297350Y160295D02*X298100Y161045D01*
X295850Y160295D02*X297350D01*
X295100Y161045D02*X295850Y160295D01*
Y163595D02*X297350D01*
X298100Y165545D02*Y164345D01*
Y162845D02*Y161045D01*
Y162845D02*X297350Y163595D01*
X298100Y164345D02*X297350Y163595D01*
X300650Y160295D02*X302900Y163295D01*
Y165545D02*Y163295D01*
X302150Y166295D02*X302900Y165545D01*
X300650Y166295D02*X302150D01*
X299900Y165545D02*X300650Y166295D01*
X299900Y165545D02*Y164045D01*
X300650Y163295D01*
X302900D01*
X307400Y165545D02*X308150Y166295D01*
X310400D01*
X311150Y165545D01*
Y164045D01*
X307400Y160295D02*X311150Y164045D01*
X307400Y160295D02*X311150D01*
X312950Y161045D02*X313700Y160295D01*
X312950Y165545D02*Y161045D01*
Y165545D02*X313700Y166295D01*
X315200D01*
X315950Y165545D01*
Y161045D01*
X315200Y160295D02*X315950Y161045D01*
X313700Y160295D02*X315200D01*
X312950Y161795D02*X315950Y164795D01*
X317750Y165095D02*X318950Y166295D01*
Y160295D01*
X317750D02*X320000D01*
X321800Y165545D02*X322550Y166295D01*
X324050D01*
X324800Y165545D01*
X324050Y160295D02*X324800Y161045D01*
X322550Y160295D02*X324050D01*
X321800Y161045D02*X322550Y160295D01*
Y163595D02*X324050D01*
X324800Y165545D02*Y164345D01*
Y162845D02*Y161045D01*
Y162845D02*X324050Y163595D01*
X324800Y164345D02*X324050Y163595D01*
X329300Y166295D02*Y161045D01*
X330050Y160295D01*
X331550D01*
X332300Y161045D01*
Y166295D02*Y161045D01*
X334100Y166295D02*X337100D01*
X335600D02*Y160295D01*
X339950D02*X341900D01*
X338900Y161345D02*X339950Y160295D01*
X338900Y165245D02*Y161345D01*
Y165245D02*X339950Y166295D01*
X341900D01*
X200000Y179795D02*Y175295D01*
Y179795D02*X201050Y181295D01*
X202700D01*
X203750Y179795D01*
Y175295D01*
X200000Y178295D02*X203750D01*
X205550D02*Y176045D01*
X206300Y175295D01*
X207800D01*
X208550Y176045D01*
Y178295D02*Y176045D01*
X211100Y181295D02*Y176045D01*
X211850Y175295D01*
X210350Y179045D02*X211850D01*
X213350Y181295D02*Y175295D01*
Y177545D02*X214100Y178295D01*
X215600D01*
X216350Y177545D01*
Y175295D01*
X218150Y177545D02*Y176045D01*
Y177545D02*X218900Y178295D01*
X220400D01*
X221150Y177545D01*
Y176045D01*
X220400Y175295D02*X221150Y176045D01*
X218900Y175295D02*X220400D01*
X218150Y176045D02*X218900Y175295D01*
X223700Y177545D02*Y175295D01*
Y177545D02*X224450Y178295D01*
X225950D01*
X222950D02*X223700Y177545D01*
X227750Y179045D02*X228500D01*
X227750Y177545D02*X228500D01*
X233000Y181295D02*Y175295D01*
Y181295D02*X235250Y178295D01*
X237500Y181295D01*
Y175295D01*
X241550Y178295D02*X242300Y177545D01*
X240050Y178295D02*X241550D01*
X239300Y177545D02*X240050Y178295D01*
X239300Y177545D02*Y176045D01*
X240050Y175295D01*
X242300Y178295D02*Y176045D01*
X243050Y175295D01*
X240050D02*X241550D01*
X242300Y176045D01*
X245600Y181295D02*Y176045D01*
X246350Y175295D01*
X244850Y179045D02*X246350D01*
X248600Y181295D02*Y176045D01*
X249350Y175295D01*
X247850Y179045D02*X249350D01*
X254600Y181295D02*X255800D01*
Y176045D01*
X255050Y175295D02*X255800Y176045D01*
X254300Y175295D02*X255050D01*
X253550Y176045D02*X254300Y175295D01*
X253550Y176795D02*Y176045D01*
X258350Y175295D02*X260600D01*
X257600Y176045D02*X258350Y175295D01*
X257600Y177545D02*Y176045D01*
Y177545D02*X258350Y178295D01*
X259850D01*
X260600Y177545D01*
X257600Y176795D02*X260600D01*
Y177545D02*Y176795D01*
X263150Y177545D02*Y175295D01*
Y177545D02*X263900Y178295D01*
X264650D01*
X265400Y177545D01*
Y175295D01*
X262400Y178295D02*X263150Y177545D01*
X267200Y181295D02*Y175295D01*
Y177545D02*X269450Y175295D01*
X267200Y177545D02*X268700Y179045D01*
X271250Y179795D02*Y179645D01*
Y177545D02*Y175295D01*
X273500Y177545D02*Y175295D01*
Y177545D02*X274250Y178295D01*
X275000D01*
X275750Y177545D01*
Y175295D01*
X272750Y178295D02*X273500Y177545D01*
X278300Y175295D02*X280550D01*
X281300Y176045D01*
X280550Y176795D02*X281300Y176045D01*
X278300Y176795D02*X280550D01*
X277550Y177545D02*X278300Y176795D01*
X277550Y177545D02*X278300Y178295D01*
X280550D01*
X281300Y177545D01*
X277550Y176045D02*X278300Y175295D01*
X200000Y196295D02*X203000D01*
X201500D02*Y190295D01*
X204800Y194795D02*Y194645D01*
Y192545D02*Y190295D01*
X207050Y196295D02*Y191045D01*
X207800Y190295D01*
X206300Y194045D02*X207800D01*
X209300Y196295D02*Y191045D01*
X210050Y190295D01*
X212300D02*X214550D01*
X211550Y191045D02*X212300Y190295D01*
X211550Y192545D02*Y191045D01*
Y192545D02*X212300Y193295D01*
X213800D01*
X214550Y192545D01*
X211550Y191795D02*X214550D01*
Y192545D02*Y191795D01*
X216350Y194045D02*X217100D01*
X216350Y192545D02*X217100D01*
X221600Y191045D02*X222350Y190295D01*
X221600Y195545D02*X222350Y196295D01*
X221600Y195545D02*Y191045D01*
X224150Y193295D02*Y191045D01*
X224900Y190295D01*
X226400D01*
X227150Y191045D01*
Y193295D02*Y191045D01*
X229700Y192545D02*Y190295D01*
Y192545D02*X230450Y193295D01*
X231200D01*
X231950Y192545D01*
Y190295D01*
X228950Y193295D02*X229700Y192545D01*
X233750Y196295D02*Y190295D01*
Y192545D02*X236000Y190295D01*
X233750Y192545D02*X235250Y194045D01*
X238550Y192545D02*Y190295D01*
Y192545D02*X239300Y193295D01*
X240050D01*
X240800Y192545D01*
Y190295D01*
X237800Y193295D02*X238550Y192545D01*
X242600D02*Y191045D01*
Y192545D02*X243350Y193295D01*
X244850D01*
X245600Y192545D01*
Y191045D01*
X244850Y190295D02*X245600Y191045D01*
X243350Y190295D02*X244850D01*
X242600Y191045D02*X243350Y190295D01*
X247400Y193295D02*Y191045D01*
X248150Y190295D01*
X248900D01*
X249650Y191045D01*
Y193295D02*Y191045D01*
X250400Y190295D01*
X251150D01*
X251900Y191045D01*
Y193295D02*Y191045D01*
X254450Y192545D02*Y190295D01*
Y192545D02*X255200Y193295D01*
X255950D01*
X256700Y192545D01*
Y190295D01*
X253700Y193295D02*X254450Y192545D01*
X258500Y196295D02*X259250Y195545D01*
Y191045D01*
X258500Y190295D02*X259250Y191045D01*
X263750Y193295D02*X266750D01*
X271250Y196295D02*Y190295D01*
Y196295D02*X274250D01*
X271250Y193595D02*X273500D01*
X278300Y193295D02*X279050Y192545D01*
X276800Y193295D02*X278300D01*
X276050Y192545D02*X276800Y193295D01*
X276050Y192545D02*Y191045D01*
X276800Y190295D01*
X279050Y193295D02*Y191045D01*
X279800Y190295D01*
X276800D02*X278300D01*
X279050Y191045D01*
X281600Y196295D02*Y190295D01*
Y191045D02*X282350Y190295D01*
X283850D01*
X284600Y191045D01*
Y192545D02*Y191045D01*
X283850Y193295D02*X284600Y192545D01*
X282350Y193295D02*X283850D01*
X281600Y192545D02*X282350Y193295D01*
X287150Y192545D02*Y190295D01*
Y192545D02*X287900Y193295D01*
X289400D01*
X286400D02*X287150Y192545D01*
X291200Y194795D02*Y194645D01*
Y192545D02*Y190295D01*
X293450Y193295D02*X295700D01*
X292700Y192545D02*X293450Y193295D01*
X292700Y192545D02*Y191045D01*
X293450Y190295D01*
X295700D01*
X299750Y193295D02*X300500Y192545D01*
X298250Y193295D02*X299750D01*
X297500Y192545D02*X298250Y193295D01*
X297500Y192545D02*Y191045D01*
X298250Y190295D01*
X300500Y193295D02*Y191045D01*
X301250Y190295D01*
X298250D02*X299750D01*
X300500Y191045D01*
X303800Y196295D02*Y191045D01*
X304550Y190295D01*
X303050Y194045D02*X304550D01*
X306050Y194795D02*Y194645D01*
Y192545D02*Y190295D01*
X307550Y192545D02*Y191045D01*
Y192545D02*X308300Y193295D01*
X309800D01*
X310550Y192545D01*
Y191045D01*
X309800Y190295D02*X310550Y191045D01*
X308300Y190295D02*X309800D01*
X307550Y191045D02*X308300Y190295D01*
X313100Y192545D02*Y190295D01*
Y192545D02*X313850Y193295D01*
X314600D01*
X315350Y192545D01*
Y190295D01*
X312350Y193295D02*X313100Y192545D01*
X320600Y196295D02*Y190295D01*
X322550Y196295D02*X323600Y195245D01*
Y191345D01*
X322550Y190295D02*X323600Y191345D01*
X319850Y190295D02*X322550D01*
X319850Y196295D02*X322550D01*
X326150Y192545D02*Y190295D01*
Y192545D02*X326900Y193295D01*
X328400D01*
X325400D02*X326150Y192545D01*
X332450Y193295D02*X333200Y192545D01*
X330950Y193295D02*X332450D01*
X330200Y192545D02*X330950Y193295D01*
X330200Y192545D02*Y191045D01*
X330950Y190295D01*
X333200Y193295D02*Y191045D01*
X333950Y190295D01*
X330950D02*X332450D01*
X333200Y191045D01*
X335750Y193295D02*Y191045D01*
X336500Y190295D01*
X337250D01*
X338000Y191045D01*
Y193295D02*Y191045D01*
X338750Y190295D01*
X339500D01*
X340250Y191045D01*
Y193295D02*Y191045D01*
X342050Y194795D02*Y194645D01*
Y192545D02*Y190295D01*
X344300Y192545D02*Y190295D01*
Y192545D02*X345050Y193295D01*
X345800D01*
X346550Y192545D01*
Y190295D01*
X343550Y193295D02*X344300Y192545D01*
X350600Y193295D02*X351350Y192545D01*
X349100Y193295D02*X350600D01*
X348350Y192545D02*X349100Y193295D01*
X348350Y192545D02*Y191045D01*
X349100Y190295D01*
X350600D01*
X351350Y191045D01*
X348350Y188795D02*X349100Y188045D01*
X350600D01*
X351350Y188795D01*
Y193295D02*Y188795D01*
M02*
