G04 start of page 8 for group -4079 idx -4079 *
G04 Title: (unknown), topsilk *
G04 Creator: pcb 1.99z *
G04 CreationDate: Sun May  5 10:03:39 2013 UTC *
G04 For: matt *
G04 Format: Gerber/RS-274X *
G04 PCB-Dimensions (mil): 2165.35 1377.95 *
G04 PCB-Coordinate-Origin: lower left *
%MOIN*%
%FSLAX25Y25*%
%LNTOPSILK*%
%ADD122C,0.0118*%
%ADD121C,0.0059*%
G54D121*X180000Y62795D02*X185000D01*
X200000D02*X195000D01*
X180000Y52795D02*X200000D01*
Y22795D02*X180000D01*
Y52795D01*
Y43213D02*X195000D01*
X200000Y52795D02*Y22795D01*
X46063Y82913D02*X43701Y85669D01*
X180000Y107795D02*X185000D01*
X195000D02*X200000D01*
Y87795D01*
Y62795D02*Y82795D01*
X180000Y87795D02*X200000D01*
X180000Y82795D02*X200000D01*
X180000D02*Y62795D01*
Y87795D02*Y107795D01*
X15551Y119302D02*X16751D01*
X16151Y119902D02*Y118702D01*
X57087Y119302D02*X58287D01*
X35236D02*X36436D01*
X35836Y119902D02*Y118702D01*
X28150Y119302D02*X29350D01*
X181890Y37787D02*X183890D01*
X182890Y38787D02*Y36787D01*
X181890Y27748D02*X183890D01*
X182890Y28748D02*Y26748D01*
X181890Y77748D02*X183890D01*
X182890Y78748D02*Y76748D01*
X182921Y68772D02*Y66772D01*
Y48693D02*Y46693D01*
X181890Y102827D02*X183890D01*
X182890Y103827D02*Y101827D01*
X182921Y93850D02*Y91850D01*
X90551Y21890D02*Y26614D01*
X114961D01*
Y21890D02*X90551D01*
X94881D02*Y26614D01*
X114961D02*Y21890D01*
G54D122*X75134Y52575D02*X83134D01*
G54D121*X75134D02*X74034Y49175D01*
Y31575D01*
X84234D01*
Y49175D02*Y31575D01*
Y49175D02*X83134Y52575D01*
X147654Y42363D02*X151756D01*
X126985D02*X131087D01*
X160630Y24055D02*X160630Y31520D01*
X118110Y24055D02*X118111Y31520D01*
X160630Y5945D02*X160630Y12244D01*
X118111Y5945D02*X160630D01*
X118111D02*X118110Y12244D01*
X97945Y115138D02*Y110138D01*
X83445Y115138D02*Y110138D01*
X115551Y116338D02*X120275D01*
X115551Y108858D02*X120275D01*
X66516Y119937D02*Y106037D01*
X79316D01*
Y119937D01*
X66516D01*
X132933Y119898D02*Y105998D01*
X145733D01*
Y119898D01*
X132933D01*
X86607Y94876D02*X122277D01*
Y56306D01*
X83707D01*
Y91976D01*
X86607Y94876D01*
X85607Y91976D02*G75*G03X85607Y91976I1000J0D01*G01*
X35609Y88601D02*Y71278D01*
X24585Y88601D02*X35609D01*
X24585D02*Y71278D01*
X25767Y70097D01*
X35609Y71278D02*X34428Y70097D01*
X25767D02*X34428D01*
X25373Y70491D02*X34822D01*
X24979Y70884D02*X35215D01*
X29528Y92559D02*X50787D01*
Y110669D02*Y92559D01*
X27953Y110669D02*X50787D01*
X29528Y112244D02*Y92559D01*
Y110669D02*X28346Y111850D01*
X63248Y98969D02*X68248D01*
X63248Y84469D02*X68248D01*
X58071Y64016D02*Y50236D01*
X34449D02*X58071D01*
X34449Y64016D02*Y50236D01*
Y64016D02*X58071D01*
X41339Y54764D02*X51181D01*
X41339Y59488D02*X51181D01*
X41339D02*Y54764D01*
X51181Y59488D02*Y54764D01*
X33465Y57126D02*X34449D01*
X58071D02*X59055D01*
X58071Y46496D02*Y32717D01*
X34449D02*X58071D01*
X34449Y46496D02*Y32717D01*
Y46496D02*X58071D01*
X41339Y37244D02*X51181D01*
X41339Y41968D02*X51181D01*
X41339D02*Y37244D01*
X51181Y41968D02*Y37244D01*
X33465Y39606D02*X34449D01*
X58071D02*X59055D01*
X38976Y14409D02*X37992D01*
X38976D02*Y15394D01*
Y22283D02*X37992D01*
X38976D02*Y21299D01*
X23228Y14409D02*X24213D01*
X23228D02*Y15394D01*
Y22283D02*X24213D01*
X23228D02*Y21299D01*
X70472Y14409D02*X69488D01*
X70472D02*Y15394D01*
Y22283D02*X69488D01*
X70472D02*Y21299D01*
X54724Y14409D02*X55709D01*
X54724D02*Y15394D01*
Y22283D02*X55709D01*
X54724D02*Y21299D01*
Y14409D02*X53740D01*
X54724D02*Y15394D01*
Y22283D02*X53740D01*
X54724D02*Y21299D01*
X38976Y14409D02*X39961D01*
X38976D02*Y15394D01*
Y22283D02*X39961D01*
X38976D02*Y21299D01*
X50978Y71973D02*X59678D01*
X37178D02*X45978D01*
X37178Y84173D02*Y71973D01*
Y84173D02*X59678D01*
Y71973D01*
X50978D02*G75*G03X45978Y71973I-2500J0D01*G01*
X12598Y37047D02*Y36063D01*
X13583D01*
X20472Y37047D02*Y36063D01*
X19488D02*X20472D01*
X12598Y51811D02*Y50827D01*
Y51811D02*X13583D01*
X20472D02*Y50827D01*
X19488Y51811D02*X20472D01*
X12598Y21299D02*Y20315D01*
X13583D01*
X20472Y21299D02*Y20315D01*
X19488D02*X20472D01*
X12598Y36063D02*Y35079D01*
Y36063D02*X13583D01*
X20472D02*Y35079D01*
X19488Y36063D02*X20472D01*
X159311Y99031D02*Y85131D01*
X172111D01*
Y99031D01*
X159311D01*
X147717Y64882D02*X172126D01*
X173307Y81024D02*Y66063D01*
X147717Y82205D02*X172126D01*
X146535Y81024D02*Y66063D01*
X162067Y60646D02*Y46746D01*
X174867D01*
Y60646D01*
X162067D01*
X195000Y52795D02*Y22795D01*
X185000Y52795D02*X195000D01*
X185000D02*Y22795D01*
X195000D01*
X185000Y32795D02*X195000D01*
X185000D02*Y22795D01*
G54D122*X166866Y35449D02*X174866D01*
G54D121*X166866D02*X165766Y32049D01*
Y14449D01*
X175966D01*
Y32049D02*Y14449D01*
Y32049D02*X174866Y35449D01*
X185000Y82795D02*Y62795D01*
X195000D01*
Y82795D01*
X185000D01*
Y72795D02*X195000D01*
Y82795D01*
X155000Y112795D02*X205000D01*
Y132795D02*Y112795D01*
X155000Y132795D02*X205000D01*
X155000D02*Y112795D01*
X165000Y122795D02*Y112795D01*
X155000Y122795D02*X165000D01*
X185000Y107795D02*Y87795D01*
X195000D01*
Y107795D01*
X185000D01*
Y97795D02*X195000D01*
Y107795D01*
X12598Y52795D02*Y51811D01*
X13583D01*
X20472Y52795D02*Y51811D01*
X19488D02*X20472D01*
X12598Y67559D02*Y66575D01*
Y67559D02*X13583D01*
X20472D02*Y66575D01*
X19488Y67559D02*X20472D01*
X23798Y88601D02*Y71278D01*
X12774Y88601D02*X23798D01*
X12774D02*Y71278D01*
X13956Y70097D01*
X23798Y71278D02*X22617Y70097D01*
X13956D02*X22617D01*
X13562Y70491D02*X23011D01*
X13168Y70884D02*X23404D01*
X12323Y121811D02*X32323D01*
Y131811D02*Y121811D01*
X12323Y131811D02*X32323D01*
X12323D02*Y121811D01*
X22323Y131811D02*Y121811D01*
X12323Y131811D02*X22323D01*
X36732Y121811D02*X56732D01*
Y131811D02*Y121811D01*
X36732Y131811D02*X56732D01*
X36732D02*Y121811D01*
X46732Y131811D02*Y121811D01*
X36732Y131811D02*X46732D01*
X90971Y33457D02*X91751D01*
X90551Y33877D02*X90971Y33457D01*
X90551Y35437D02*Y33877D01*
Y35437D02*X90971Y35857D01*
X91751D01*
X93371D02*X93671Y35557D01*
X92771Y35857D02*X93371D01*
X92471Y35557D02*X92771Y35857D01*
X92471Y35557D02*Y33757D01*
X92771Y33457D01*
X93371Y34777D02*X93671Y34477D01*
X92471Y34777D02*X93371D01*
X92771Y33457D02*X93371D01*
X93671Y33757D01*
Y34477D02*Y33757D01*
X97441Y35857D02*X98641D01*
X98941Y35557D01*
Y34957D01*
X98641Y34657D02*X98941Y34957D01*
X97741Y34657D02*X98641D01*
X97741Y35857D02*Y33457D01*
X98221Y34657D02*X98941Y33457D01*
X99661Y35377D02*X100141Y35857D01*
Y33457D01*
X99661D02*X100561D01*
X104751D02*X105531D01*
X104331Y33877D02*X104751Y33457D01*
X104331Y35437D02*Y33877D01*
Y35437D02*X104751Y35857D01*
X105531D01*
X106251Y33757D02*X106551Y33457D01*
X106251Y34237D02*Y33757D01*
Y34237D02*X106671Y34657D01*
X107031D01*
X107451Y34237D01*
Y33757D01*
X107151Y33457D02*X107451Y33757D01*
X106551Y33457D02*X107151D01*
X106251Y35077D02*X106671Y34657D01*
X106251Y35557D02*Y35077D01*
Y35557D02*X106551Y35857D01*
X107151D01*
X107451Y35557D01*
Y35077D01*
X107031Y34657D02*X107451Y35077D01*
X98819Y20726D02*X99589D01*
X99204D02*Y17646D01*
X98819D02*X99589D01*
X101052D02*X102053D01*
X100513Y18185D02*X101052Y17646D01*
X100513Y20187D02*Y18185D01*
Y20187D02*X101052Y20726D01*
X102053D01*
X104517D02*X104902Y20341D01*
X103362Y20726D02*X104517D01*
X102977Y20341D02*X103362Y20726D01*
X102977Y20341D02*Y19571D01*
X103362Y19186D01*
X104517D01*
X104902Y18801D01*
Y18031D01*
X104517Y17646D02*X104902Y18031D01*
X103362Y17646D02*X104517D01*
X102977Y18031D02*X103362Y17646D01*
X106211Y20726D02*Y17646D01*
X105826Y20726D02*X107366D01*
X107751Y20341D01*
Y19571D01*
X107366Y19186D02*X107751Y19571D01*
X106211Y19186D02*X107366D01*
X138215Y54717D02*X138995D01*
X137795Y55137D02*X138215Y54717D01*
X137795Y56697D02*Y55137D01*
Y56697D02*X138215Y57117D01*
X138995D01*
X140015Y54717D02*X141215Y57117D01*
X139715D02*X141215D01*
X128867Y102216D02*X130067D01*
X130367Y101916D01*
Y101316D01*
X130067Y101016D02*X130367Y101316D01*
X129167Y101016D02*X130067D01*
X129167Y102216D02*Y99816D01*
X129647Y101016D02*X130367Y99816D01*
X131987Y102216D02*X132287Y101916D01*
X131387Y102216D02*X131987D01*
X131087Y101916D02*X131387Y102216D01*
X131087Y101916D02*Y100116D01*
X131387Y99816D01*
X131987Y101136D02*X132287Y100836D01*
X131087Y101136D02*X131987D01*
X131387Y99816D02*X131987D01*
X132287Y100116D01*
Y100836D02*Y100116D01*
X117152Y117670D02*X117932D01*
X116732Y118090D02*X117152Y117670D01*
X116732Y119650D02*Y118090D01*
Y119650D02*X117152Y120070D01*
X117932D01*
X118652D02*X119852D01*
X118652D02*Y118870D01*
X118952Y119170D01*
X119552D01*
X119852Y118870D01*
Y117970D01*
X119552Y117670D02*X119852Y117970D01*
X118952Y117670D02*X119552D01*
X118652Y117970D02*X118952Y117670D01*
X137819Y123250D02*Y121450D01*
Y123250D02*X138119Y123550D01*
X138719D01*
X139019Y123250D01*
Y121750D01*
X138419Y121150D02*X139019Y121750D01*
X138119Y121150D02*X138419D01*
X137819Y121450D02*X138119Y121150D01*
X138419Y122050D02*X139019Y121150D01*
X139739Y123250D02*X140039Y123550D01*
X140939D01*
X141239Y123250D01*
Y122650D01*
X139739Y121150D02*X141239Y122650D01*
X139739Y121150D02*X141239D01*
X136614Y46290D02*Y44190D01*
X136914Y43890D01*
X137514D01*
X137814Y44190D01*
Y46290D02*Y44190D01*
X139734Y46290D02*X140034Y45990D01*
X138834Y46290D02*X139734D01*
X138534Y45990D02*X138834Y46290D01*
X138534Y45990D02*Y45390D01*
X138834Y45090D01*
X139734D01*
X140034Y44790D01*
Y44190D01*
X139734Y43890D02*X140034Y44190D01*
X138834Y43890D02*X139734D01*
X138534Y44190D02*X138834Y43890D01*
X140754D02*X141954D01*
X142254Y44190D01*
Y44910D02*Y44190D01*
X141954Y45210D02*X142254Y44910D01*
X141054Y45210D02*X141954D01*
X141054Y46290D02*Y43890D01*
X140754Y46290D02*X141954D01*
X142254Y45990D01*
Y45510D01*
X141954Y45210D02*X142254Y45510D01*
X125591Y57510D02*X126791D01*
X127091Y57210D01*
Y56610D01*
X126791Y56310D02*X127091Y56610D01*
X125891Y56310D02*X126791D01*
X125891Y57510D02*Y55110D01*
X126371Y56310D02*X127091Y55110D01*
X127811Y56010D02*X129011Y57510D01*
X127811Y56010D02*X129311D01*
X129011Y57510D02*Y55110D01*
X138215Y63772D02*X138995D01*
X137795Y64192D02*X138215Y63772D01*
X137795Y65752D02*Y64192D01*
Y65752D02*X138215Y66172D01*
X138995D01*
X140015Y63772D02*X140915Y64972D01*
Y65872D02*Y64972D01*
X140615Y66172D02*X140915Y65872D01*
X140015Y66172D02*X140615D01*
X139715Y65872D02*X140015Y66172D01*
X139715Y65872D02*Y65272D01*
X140015Y64972D01*
X140915D01*
X100992Y80991D02*Y78891D01*
X101292Y78591D01*
X101892D01*
X102192Y78891D01*
Y80991D02*Y78891D01*
X102912Y80691D02*X103212Y80991D01*
X103812D01*
X104112Y80691D01*
X103812Y78591D02*X104112Y78891D01*
X103212Y78591D02*X103812D01*
X102912Y78891D02*X103212Y78591D01*
Y79911D02*X103812D01*
X104112Y80691D02*Y80211D01*
Y79611D02*Y78891D01*
Y79611D02*X103812Y79911D01*
X104112Y80211D02*X103812Y79911D01*
X137428Y74008D02*X138208D01*
X137008Y74428D02*X137428Y74008D01*
X137008Y75988D02*Y74428D01*
Y75988D02*X137428Y76408D01*
X138208D01*
X138928Y75928D02*X139408Y76408D01*
Y74008D01*
X138928D02*X139828D01*
X141448Y76408D02*X141748Y76108D01*
X140848Y76408D02*X141448D01*
X140548Y76108D02*X140848Y76408D01*
X140548Y76108D02*Y74308D01*
X140848Y74008D01*
X141448Y75328D02*X141748Y75028D01*
X140548Y75328D02*X141448D01*
X140848Y74008D02*X141448D01*
X141748Y74308D01*
Y75028D02*Y74308D01*
X151601Y54717D02*X152381D01*
X151181Y55137D02*X151601Y54717D01*
X151181Y56697D02*Y55137D01*
Y56697D02*X151601Y57117D01*
X152381D01*
X153101Y56637D02*X153581Y57117D01*
Y54717D01*
X153101D02*X154001D01*
X155021D02*X156221Y57117D01*
X154721D02*X156221D01*
X160260Y102187D02*Y100387D01*
Y102187D02*X160560Y102487D01*
X161160D01*
X161460Y102187D01*
Y100687D01*
X160860Y100087D02*X161460Y100687D01*
X160560Y100087D02*X160860D01*
X160260Y100387D02*X160560Y100087D01*
X160860Y100987D02*X161460Y100087D01*
X162180Y102187D02*X162480Y102487D01*
X163080D01*
X163380Y102187D01*
X163080Y100087D02*X163380Y100387D01*
X162480Y100087D02*X163080D01*
X162180Y100387D02*X162480Y100087D01*
Y101407D02*X163080D01*
X163380Y102187D02*Y101707D01*
Y101107D02*Y100387D01*
Y101107D02*X163080Y101407D01*
X163380Y101707D02*X163080Y101407D01*
X148031Y83063D02*X149531Y85463D01*
X148031D02*X149531Y83063D01*
X150251Y84983D02*X150731Y85463D01*
Y83063D01*
X150251D02*X151151D01*
X154724Y89400D02*X155924D01*
X156224Y89100D01*
Y88500D01*
X155924Y88200D02*X156224Y88500D01*
X155024Y88200D02*X155924D01*
X155024Y89400D02*Y87000D01*
X155504Y88200D02*X156224Y87000D01*
X157244D02*X158444Y89400D01*
X156944D02*X158444D01*
X44488Y81920D02*X45688D01*
X45988Y81620D01*
Y81020D01*
X45688Y80720D02*X45988Y81020D01*
X44788Y80720D02*X45688D01*
X44788Y81920D02*Y79520D01*
X45268Y80720D02*X45988Y79520D01*
X46708Y81620D02*X47008Y81920D01*
X47608D01*
X47908Y81620D01*
X47608Y79520D02*X47908Y79820D01*
X47008Y79520D02*X47608D01*
X46708Y79820D02*X47008Y79520D01*
Y80840D02*X47608D01*
X47908Y81620D02*Y81140D01*
Y80540D02*Y79820D01*
Y80540D02*X47608Y80840D01*
X47908Y81140D02*X47608Y80840D01*
X54706Y70875D02*Y68775D01*
X55006Y68475D01*
X55606D01*
X55906Y68775D01*
Y70875D02*Y68775D01*
X56626Y70875D02*X57826D01*
X56626D02*Y69675D01*
X56926Y69975D01*
X57526D01*
X57826Y69675D01*
Y68775D01*
X57526Y68475D02*X57826Y68775D01*
X56926Y68475D02*X57526D01*
X56626Y68775D02*X56926Y68475D01*
X65774Y67709D02*X66554D01*
X65354Y68129D02*X65774Y67709D01*
X65354Y69689D02*Y68129D01*
Y69689D02*X65774Y70109D01*
X66554D01*
X67274Y68609D02*X68474Y70109D01*
X67274Y68609D02*X68774D01*
X68474Y70109D02*Y67709D01*
X53176Y91528D02*X53956D01*
X52756Y91948D02*X53176Y91528D01*
X52756Y93508D02*Y91948D01*
Y93508D02*X53176Y93928D01*
X53956D01*
X54676Y93448D02*X55156Y93928D01*
Y91528D01*
X54676D02*X55576D01*
X56296Y93628D02*X56596Y93928D01*
X57496D01*
X57796Y93628D01*
Y93028D01*
X56296Y91528D02*X57796Y93028D01*
X56296Y91528D02*X57796D01*
X45079Y25254D02*X45849D01*
X45464D02*Y22174D01*
X45079D02*X45849D01*
X46773Y24869D02*Y22559D01*
Y24869D02*X47158Y25254D01*
X47928D01*
X48313Y24869D01*
Y22559D01*
X47928Y22174D02*X48313Y22559D01*
X47158Y22174D02*X47928D01*
X46773Y22559D02*X47158Y22174D01*
X49237Y24638D02*X49853Y25254D01*
Y22174D01*
X49237D02*X50392D01*
X101601Y117709D02*X102381D01*
X101181Y118129D02*X101601Y117709D01*
X101181Y119689D02*Y118129D01*
Y119689D02*X101601Y120109D01*
X102381D01*
X103101Y119809D02*X103401Y120109D01*
X104001D01*
X104301Y119809D01*
X104001Y117709D02*X104301Y118009D01*
X103401Y117709D02*X104001D01*
X103101Y118009D02*X103401Y117709D01*
Y119029D02*X104001D01*
X104301Y119809D02*Y119329D01*
Y118729D02*Y118009D01*
Y118729D02*X104001Y119029D01*
X104301Y119329D02*X104001Y119029D01*
X52389Y110031D02*X53169D01*
X51969Y110451D02*X52389Y110031D01*
X51969Y112011D02*Y110451D01*
Y112011D02*X52389Y112431D01*
X53169D01*
X53889Y111951D02*X54369Y112431D01*
Y110031D01*
X53889D02*X54789D01*
X55509Y112131D02*X55809Y112431D01*
X56409D01*
X56709Y112131D01*
X56409Y110031D02*X56709Y110331D01*
X55809Y110031D02*X56409D01*
X55509Y110331D02*X55809Y110031D01*
Y111351D02*X56409D01*
X56709Y112131D02*Y111651D01*
Y111051D02*Y110331D01*
Y111051D02*X56409Y111351D01*
X56709Y111651D02*X56409Y111351D01*
X39453Y120899D02*X39838Y120514D01*
X38298Y120899D02*X39453D01*
X37913Y120514D02*X38298Y120899D01*
X37913Y120514D02*Y119744D01*
X38298Y119359D01*
X39453D01*
X39838Y118974D01*
Y118204D01*
X39453Y117819D02*X39838Y118204D01*
X38298Y117819D02*X39453D01*
X37913Y118204D02*X38298Y117819D01*
X41147Y120899D02*Y117819D01*
X40762Y120899D02*X42302D01*
X42687Y120514D01*
Y119744D01*
X42302Y119359D02*X42687Y119744D01*
X41147Y119359D02*X42302D01*
X43611Y119513D02*X44766D01*
X43611Y117819D02*X45151D01*
X43611Y120899D02*Y117819D01*
Y120899D02*X45151D01*
X46075Y120129D02*Y117819D01*
Y120129D02*X46614Y120899D01*
X47461D01*
X48000Y120129D01*
Y117819D01*
X46075Y119359D02*X48000D01*
X48924Y120899D02*Y117819D01*
Y119359D02*X50464Y120899D01*
X48924Y119359D02*X50464Y117819D01*
X51388Y119513D02*X52543D01*
X51388Y117819D02*X52928D01*
X51388Y120899D02*Y117819D01*
Y120899D02*X52928D01*
X53852D02*X55392D01*
X55777Y120514D01*
Y119744D01*
X55392Y119359D02*X55777Y119744D01*
X54237Y119359D02*X55392D01*
X54237Y120899D02*Y117819D01*
X54853Y119359D02*X55777Y117819D01*
X88386Y121487D02*X89586D01*
X89886Y121187D01*
Y120587D01*
X89586Y120287D02*X89886Y120587D01*
X88686Y120287D02*X89586D01*
X88686Y121487D02*Y119087D01*
X89166Y120287D02*X89886Y119087D01*
X90906Y121487D02*Y119087D01*
X90606Y121487D02*X91806D01*
X92106Y121187D01*
Y120587D01*
X91806Y120287D02*X92106Y120587D01*
X90906Y120287D02*X91806D01*
X92826Y121007D02*X93306Y121487D01*
Y119087D01*
X92826D02*X93726D01*
X71441Y123565D02*Y121765D01*
Y123565D02*X71741Y123865D01*
X72341D01*
X72641Y123565D01*
Y122065D01*
X72041Y121465D02*X72641Y122065D01*
X71741Y121465D02*X72041D01*
X71441Y121765D02*X71741Y121465D01*
X72041Y122365D02*X72641Y121465D01*
X73361Y123385D02*X73841Y123865D01*
Y121465D01*
X73361D02*X74261D01*
X62205Y103376D02*X63405D01*
X63705Y103076D01*
Y102476D01*
X63405Y102176D02*X63705Y102476D01*
X62505Y102176D02*X63405D01*
X62505Y103376D02*Y100976D01*
X62985Y102176D02*X63705Y100976D01*
X64725Y103376D02*Y100976D01*
X64425Y103376D02*X65625D01*
X65925Y103076D01*
Y102476D01*
X65625Y102176D02*X65925Y102476D01*
X64725Y102176D02*X65625D01*
X66645Y103076D02*X66945Y103376D01*
X67845D01*
X68145Y103076D01*
Y102476D01*
X66645Y100976D02*X68145Y102476D01*
X66645Y100976D02*X68145D01*
X60236Y25254D02*X61006D01*
X60621D02*Y22174D01*
X60236D02*X61006D01*
X61930Y24869D02*Y22559D01*
Y24869D02*X62315Y25254D01*
X63085D01*
X63470Y24869D01*
Y22559D01*
X63085Y22174D02*X63470Y22559D01*
X62315Y22174D02*X63085D01*
X61930Y22559D02*X62315Y22174D01*
X64394Y22559D02*X64779Y22174D01*
X64394Y24869D02*Y22559D01*
Y24869D02*X64779Y25254D01*
X65549D01*
X65934Y24869D01*
Y22559D01*
X65549Y22174D02*X65934Y22559D01*
X64779Y22174D02*X65549D01*
X64394Y22944D02*X65934Y24484D01*
X40748Y68167D02*X42288D01*
X42673Y67782D01*
Y67012D01*
X42288Y66627D02*X42673Y67012D01*
X41133Y66627D02*X42288D01*
X41133Y68167D02*Y65087D01*
X41749Y66627D02*X42673Y65087D01*
X43597Y66781D02*X44752D01*
X43597Y65087D02*X45137D01*
X43597Y68167D02*Y65087D01*
Y68167D02*X45137D01*
X47601D02*X47986Y67782D01*
X46446Y68167D02*X47601D01*
X46061Y67782D02*X46446Y68167D01*
X46061Y67782D02*Y67012D01*
X46446Y66627D01*
X47601D01*
X47986Y66242D01*
Y65472D01*
X47601Y65087D02*X47986Y65472D01*
X46446Y65087D02*X47601D01*
X46061Y65472D02*X46446Y65087D01*
X48910Y66781D02*X50065D01*
X48910Y65087D02*X50450D01*
X48910Y68167D02*Y65087D01*
Y68167D02*X50450D01*
X51374D02*X52914D01*
X52144D02*Y65087D01*
X77662Y56321D02*Y53921D01*
X78442Y56321D02*X78862Y55901D01*
Y54341D01*
X78442Y53921D02*X78862Y54341D01*
X77362Y53921D02*X78442D01*
X77362Y56321D02*X78442D01*
X79582Y55841D02*X80062Y56321D01*
Y53921D01*
X79582D02*X80482D01*
X41724Y31356D02*Y28276D01*
X41339Y31356D02*X42879D01*
X43264Y30971D01*
Y30201D01*
X42879Y29816D02*X43264Y30201D01*
X41724Y29816D02*X42879D01*
X44188Y31356D02*X45728D01*
X46113Y30971D01*
Y30201D01*
X45728Y29816D02*X46113Y30201D01*
X44573Y29816D02*X45728D01*
X44573Y31356D02*Y28276D01*
X45189Y29816D02*X46113Y28276D01*
X47037Y30971D02*Y28661D01*
Y30971D02*X47422Y31356D01*
X48192D01*
X48577Y30971D01*
Y28661D01*
X48192Y28276D02*X48577Y28661D01*
X47422Y28276D02*X48192D01*
X47037Y28661D02*X47422Y28276D01*
X51041Y31356D02*X51426Y30971D01*
X49886Y31356D02*X51041D01*
X49501Y30971D02*X49886Y31356D01*
X49501Y30971D02*Y28661D01*
X49886Y28276D01*
X51041D01*
X51426Y28661D01*
Y29431D02*Y28661D01*
X51041Y29816D02*X51426Y29431D01*
X50271Y29816D02*X51041D01*
X22074Y110819D02*X22854D01*
X21654Y111239D02*X22074Y110819D01*
X21654Y112799D02*Y111239D01*
Y112799D02*X22074Y113219D01*
X22854D01*
X23574Y112739D02*X24054Y113219D01*
Y110819D01*
X23574D02*X24474D01*
X25194Y111719D02*X26394Y113219D01*
X25194Y111719D02*X26694D01*
X26394Y113219D02*Y110819D01*
X18425Y120702D02*Y117622D01*
X19965D01*
X20889Y120702D02*X21659D01*
X21274D02*Y117622D01*
X20889D02*X21659D01*
X22583Y120702D02*Y117622D01*
Y120702D02*X24508Y117622D01*
Y120702D02*Y117622D01*
X25432Y119316D02*X26587D01*
X25432Y117622D02*X26972D01*
X25432Y120702D02*Y117622D01*
Y120702D02*X26972D01*
X28740Y25254D02*X29510D01*
X29125D02*Y22174D01*
X28740D02*X29510D01*
X30434Y24869D02*Y22559D01*
Y24869D02*X30819Y25254D01*
X31589D01*
X31974Y24869D01*
Y22559D01*
X31589Y22174D02*X31974Y22559D01*
X30819Y22174D02*X31589D01*
X30434Y22559D02*X30819Y22174D01*
X32898Y24869D02*X33283Y25254D01*
X34438D01*
X34823Y24869D01*
Y24099D01*
X32898Y22174D02*X34823Y24099D01*
X32898Y22174D02*X34823D01*
X23443Y61653D02*Y60883D01*
X20363Y61268D02*X23443D01*
X20363Y61653D02*Y60883D01*
X20748Y59959D02*X23058D01*
X23443Y59574D01*
Y58804D01*
X23058Y58419D01*
X20748D02*X23058D01*
X20363Y58804D02*X20748Y58419D01*
X20363Y59574D02*Y58804D01*
X20748Y59959D02*X20363Y59574D01*
X23443Y57495D02*Y55955D01*
X21903Y57495D02*X23443D01*
X21903D02*X22288Y57110D01*
Y56340D01*
X21903Y55955D01*
X20748D02*X21903D01*
X20363Y56340D02*X20748Y55955D01*
X20363Y57110D02*Y56340D01*
X20748Y57495D02*X20363Y57110D01*
X23443Y46102D02*Y45332D01*
X20363Y45717D02*X23443D01*
X20363Y46102D02*Y45332D01*
X20748Y44408D02*X23058D01*
X23443Y44023D01*
Y43253D01*
X23058Y42868D01*
X20748D02*X23058D01*
X20363Y43253D02*X20748Y42868D01*
X20363Y44023D02*Y43253D01*
X20748Y44408D02*X20363Y44023D01*
X21518Y41944D02*X23443Y40404D01*
X21518Y41944D02*Y40019D01*
X20363Y40404D02*X23443D01*
X23639Y30945D02*Y30175D01*
X20559Y30560D02*X23639D01*
X20559Y30945D02*Y30175D01*
X20944Y29251D02*X23254D01*
X23639Y28866D01*
Y28096D01*
X23254Y27711D01*
X20944D02*X23254D01*
X20559Y28096D02*X20944Y27711D01*
X20559Y28866D02*Y28096D01*
X20944Y29251D02*X20559Y28866D01*
X23254Y26787D02*X23639Y26402D01*
Y25632D01*
X23254Y25247D01*
X20559Y25632D02*X20944Y25247D01*
X20559Y26402D02*Y25632D01*
X20944Y26787D02*X20559Y26402D01*
X22253D02*Y25632D01*
X22638Y25247D02*X23254D01*
X20944D02*X21868D01*
X22253Y25632D01*
X22638Y25247D02*X22253Y25632D01*
X15355Y95108D02*X16555D01*
X16855Y94808D01*
Y94208D01*
X16555Y93908D02*X16855Y94208D01*
X15655Y93908D02*X16555D01*
X15655Y95108D02*Y92708D01*
X16135Y93908D02*X16855Y92708D01*
X17575Y94808D02*X17875Y95108D01*
X18775D01*
X19075Y94808D01*
Y94208D01*
X17575Y92708D02*X19075Y94208D01*
X17575Y92708D02*X19075D01*
X28176Y66331D02*X28956D01*
X27756Y66751D02*X28176Y66331D01*
X27756Y68311D02*Y66751D01*
Y68311D02*X28176Y68731D01*
X28956D01*
X29676Y68251D02*X30156Y68731D01*
Y66331D01*
X29676D02*X30576D01*
X31296Y66631D02*X31596Y66331D01*
X31296Y68431D02*Y66631D01*
Y68431D02*X31596Y68731D01*
X32196D01*
X32496Y68431D01*
Y66631D01*
X32196Y66331D02*X32496Y66631D01*
X31596Y66331D02*X32196D01*
X31296Y66931D02*X32496Y68131D01*
X14987Y89362D02*X15767D01*
X14567Y89782D02*X14987Y89362D01*
X14567Y91342D02*Y89782D01*
Y91342D02*X14987Y91762D01*
X15767D01*
X16487Y91282D02*X16967Y91762D01*
Y89362D01*
X16487D02*X17387D01*
X18107Y91282D02*X18587Y91762D01*
Y89362D01*
X18107D02*X19007D01*
X15552Y100227D02*X16752D01*
X17052Y99927D01*
Y99327D01*
X16752Y99027D02*X17052Y99327D01*
X15852Y99027D02*X16752D01*
X15852Y100227D02*Y97827D01*
X16332Y99027D02*X17052Y97827D01*
X17772Y100227D02*X18972D01*
X17772D02*Y99027D01*
X18072Y99327D01*
X18672D01*
X18972Y99027D01*
Y98127D01*
X18672Y97827D02*X18972Y98127D01*
X18072Y97827D02*X18672D01*
X17772Y98127D02*X18072Y97827D01*
X34843Y114794D02*Y112694D01*
X35143Y112394D01*
X35743D01*
X36043Y112694D01*
Y114794D02*Y112694D01*
X36763Y113294D02*X37963Y114794D01*
X36763Y113294D02*X38263D01*
X37963Y114794D02*Y112394D01*
X176205Y50809D02*Y49009D01*
Y50809D02*X176505Y51109D01*
X177105D01*
X177405Y50809D01*
Y49309D01*
X176805Y48709D02*X177405Y49309D01*
X176505Y48709D02*X176805D01*
X176205Y49009D02*X176505Y48709D01*
X176805Y49609D02*X177405Y48709D01*
X178125Y49609D02*X179325Y51109D01*
X178125Y49609D02*X179625D01*
X179325Y51109D02*Y48709D01*
X174015Y43141D02*X175215D01*
X175515Y42841D01*
Y42241D01*
X175215Y41941D02*X175515Y42241D01*
X174315Y41941D02*X175215D01*
X174315Y43141D02*Y40741D01*
X174795Y41941D02*X175515Y40741D01*
X176235Y41041D02*X176535Y40741D01*
X176235Y41521D02*Y41041D01*
Y41521D02*X176655Y41941D01*
X177015D01*
X177435Y41521D01*
Y41041D01*
X177135Y40741D02*X177435Y41041D01*
X176535Y40741D02*X177135D01*
X176235Y42361D02*X176655Y41941D01*
X176235Y42841D02*Y42361D01*
Y42841D02*X176535Y43141D01*
X177135D01*
X177435Y42841D01*
Y42361D01*
X177015Y41941D02*X177435Y42361D01*
X195912Y31605D02*X198992D01*
X195912Y32760D02*Y31220D01*
Y32760D02*X196297Y33145D01*
X197067D01*
X197452Y32760D02*X197067Y33145D01*
X197452Y32760D02*Y31605D01*
X196297Y34069D02*X198607D01*
X196297D02*X195912Y34454D01*
Y35224D02*Y34454D01*
Y35224D02*X196297Y35609D01*
X198607D01*
X198992Y35224D02*X198607Y35609D01*
X198992Y35224D02*Y34454D01*
X198607Y34069D02*X198992Y34454D01*
X195912Y36533D02*X197452D01*
X198992Y36918D01*
X197452Y37688D01*
X198992Y38458D01*
X197452Y38843D01*
X195912D02*X197452D01*
X197298Y40922D02*Y39767D01*
X198992Y41307D02*Y39767D01*
X195912D02*X198992D01*
X195912Y41307D02*Y39767D01*
Y43771D02*Y42231D01*
Y43771D02*X196297Y44156D01*
X197067D01*
X197452Y43771D02*X197067Y44156D01*
X197452Y43771D02*Y42616D01*
X195912D02*X198992D01*
X197452Y43232D02*X198992Y44156D01*
X195912Y67953D02*X198992D01*
Y69493D02*Y67953D01*
X197298Y71572D02*Y70417D01*
X198992Y71957D02*Y70417D01*
X195912D02*X198992D01*
X195912Y71957D02*Y70417D01*
Y73266D02*X198992D01*
X195912Y74267D02*X196451Y74806D01*
X198453D01*
X198992Y74267D02*X198453Y74806D01*
X198992Y74267D02*Y72881D01*
X195912Y74267D02*Y72881D01*
X196528Y75730D02*X195912Y76346D01*
X198992D01*
Y76885D02*Y75730D01*
X169764Y110064D02*X170919D01*
X169764Y108370D02*X171304D01*
X169764Y111450D02*Y108370D01*
Y111450D02*X171304D01*
X172228Y108370D02*X174153Y111450D01*
X172228D02*X174153Y108370D01*
X175462Y111450D02*Y108370D01*
X175077Y111450D02*X176617D01*
X177002Y111065D01*
Y110295D01*
X176617Y109910D02*X177002Y110295D01*
X175462Y109910D02*X176617D01*
X177926Y110680D02*Y108370D01*
Y110680D02*X178465Y111450D01*
X179312D01*
X179851Y110680D01*
Y108370D01*
X177926Y109910D02*X179851D01*
X180775Y111450D02*Y108370D01*
Y111450D02*X182700Y108370D01*
Y111450D02*Y108370D01*
X185164Y111450D02*X185549Y111065D01*
X184009Y111450D02*X185164D01*
X183624Y111065D02*X184009Y111450D01*
X183624Y111065D02*Y110295D01*
X184009Y109910D01*
X185164D01*
X185549Y109525D01*
Y108755D01*
X185164Y108370D02*X185549Y108755D01*
X184009Y108370D02*X185164D01*
X183624Y108755D02*X184009Y108370D01*
X186473Y111450D02*X187243D01*
X186858D02*Y108370D01*
X186473D02*X187243D01*
X188167Y111065D02*Y108755D01*
Y111065D02*X188552Y111450D01*
X189322D01*
X189707Y111065D01*
Y108755D01*
X189322Y108370D02*X189707Y108755D01*
X188552Y108370D02*X189322D01*
X188167Y108755D02*X188552Y108370D01*
X190631Y111450D02*Y108370D01*
Y111450D02*X192556Y108370D01*
Y111450D02*Y108370D01*
X195912Y93346D02*X198992D01*
Y94886D02*Y93346D01*
X197298Y96965D02*Y95810D01*
X198992Y97350D02*Y95810D01*
X195912D02*X198992D01*
X195912Y97350D02*Y95810D01*
Y98659D02*X198992D01*
X195912Y99660D02*X196451Y100199D01*
X198453D01*
X198992Y99660D02*X198453Y100199D01*
X198992Y99660D02*Y98274D01*
X195912Y99660D02*Y98274D01*
X198607Y101123D02*X198992Y101508D01*
X196297Y101123D02*X198607D01*
X196297D02*X195912Y101508D01*
Y102278D02*Y101508D01*
Y102278D02*X196297Y102663D01*
X198607D01*
X198992Y102278D02*X198607Y102663D01*
X198992Y102278D02*Y101508D01*
X198222Y101123D02*X196682Y102663D01*
X178056Y20888D02*Y18488D01*
X178836Y20888D02*X179256Y20468D01*
Y18908D01*
X178836Y18488D02*X179256Y18908D01*
X177756Y18488D02*X178836D01*
X177756Y20888D02*X178836D01*
X179976Y20588D02*X180276Y20888D01*
X181176D01*
X181476Y20588D01*
Y19988D01*
X179976Y18488D02*X181476Y19988D01*
X179976Y18488D02*X181476D01*
M02*
